%
M48
M72
T01C0.0118
T02C0.0120
T03C0.0335
T04C0.0400
T05C0.1300
%
T01
X8023Y6910
X10393Y6910
X10833Y7788
X11833Y8988
X14883Y8750
X14983Y9250
X15092Y8250
X14003Y6770
X13173Y6440
X12823Y5500
X11833Y5500
X15583Y5780
X17919Y6599
X19739Y6599
X20769Y6339
X20769Y7166
X21596Y7579
X22422Y7166
X21596Y6752
X22422Y6339
X21596Y5926
X23249Y5926
X24076Y6339
X24903Y6752
X24076Y7166
X24903Y7579
X24076Y7993
X24903Y8406
X24076Y8819
X24903Y9233
X24076Y9646
X24903Y10059
X24076Y10473
X24903Y10886
X24076Y11300
X24903Y11713
X25398Y12058
X25148Y12472
X24998Y12885
X24848Y13298
X24848Y13662
X24435Y13662
X24022Y13662
X23608Y13662
X23195Y13662
X22781Y13662
X22368Y13662
X21955Y13662
X21541Y13662
X21128Y13662
X20714Y13662
X20164Y12712
X19014Y13846
X18184Y14260
X19014Y14673
X18184Y15087
X19014Y15500
X18184Y15913
X19014Y16327
X18184Y16740
X19014Y17154
X17530Y17750
X17231Y17750
X16933Y17762
X16083Y17750
X15783Y17750
X15333Y17750
X14926Y17569
X14105Y17115
X14926Y16742
X14105Y16339
X14926Y15915
X14105Y15512
X14926Y15089
X14105Y14685
X14926Y14262
X14105Y13908
X13272Y14262
X12446Y14262
X11649Y14675
X12446Y15089
X11649Y15502
X12446Y15915
X11649Y16329
X12446Y16742
X11649Y17156
X10601Y18054
X10415Y18309
X12562Y19263
X12733Y18725
X13843Y18786
X13940Y19121
X13707Y19400
X13083Y20766
X10583Y20500
X13272Y17569
X13272Y16742
X13272Y15915
X13272Y15089
X11649Y13848
X13272Y13435
X13168Y12275
X13601Y12275
X14034Y12250
X14467Y12250
X14926Y13435
X15759Y13281
X15759Y13908
X16579Y14262
X17357Y13896
X17357Y13270
X17357Y14673
X16579Y15089
X17357Y15500
X16579Y15915
X17357Y16327
X16579Y16742
X17357Y17104
X15759Y17115
X15759Y16339
X15759Y15512
X15759Y14685
X14193Y11080
X15233Y10770
X15108Y10250
X10414Y12562
X8864Y11513
X9053Y10968
X8933Y10488
X6583Y10000
X6583Y11000
X6583Y12000
X7083Y13138
X8033Y13638
X7086Y14270
X7883Y14588
X7833Y15125
X7861Y16409
X7861Y16803
X10008Y15933
X10008Y15500
X15682Y19400
X16583Y20432
X17083Y20641
X19007Y20362
X20007Y21200
X19632Y21612
X22333Y20238
X22385Y18738
X21559Y18738
X21559Y17911
X22385Y17911
X23212Y17911
X23212Y17084
X22385Y17084
X21559Y17084
X21541Y16327
X21128Y16327
X20714Y16327
X21128Y15913
X21541Y15500
X21128Y15087
X21128Y14723
X21541Y14723
X21955Y14723
X21955Y15087
X22368Y14723
X23247Y14723
X23246Y15112
X23245Y15500
X23195Y15913
X22781Y15913
X22368Y15500
X21955Y15913
X21955Y16327
X22368Y16327
X22781Y16327
X23195Y16327
X24266Y16157
X24866Y16157
X25692Y15744
X25692Y15331
X25627Y14723
X26040Y14723
X26403Y14723
X26519Y15331
X27346Y15744
X26519Y16157
X27346Y16571
X26519Y16984
X27346Y17398
X26519Y17811
X27346Y18224
X26519Y18638
X27346Y19051
X26519Y19465
X27346Y19878
X26519Y20291
X27346Y20705
X26519Y21118
X27346Y21531
X26519Y21945
X27346Y22358
X28173Y21945
X28173Y22772
X28173Y21118
X28173Y20291
X28173Y19465
X28173Y18638
X28173Y17811
X28173Y16984
X28173Y16157
X28173Y15331
X28173Y14504
X28173Y13677
X28173Y12850
X27859Y12437
X27759Y12024
X27346Y12024
X27163Y12443
X26846Y12174
X26446Y12487
X26763Y12843
X26196Y12900
X26046Y13314
X25996Y13677
X27346Y12850
X28173Y12024
X26866Y10977
X26298Y11231
X25748Y11645
X25729Y10473
X26556Y10059
X25729Y9646
X26556Y9233
X25729Y8819
X26556Y8406
X25729Y7993
X26556Y7579
X25729Y7166
X26556Y6752
X25729Y6339
X26556Y5926
X27383Y6339
X27846Y6752
X27383Y7166
X28210Y7579
X28210Y8406
X27383Y8819
X27383Y7993
X28210Y9233
X28210Y10059
X28210Y10886
X27542Y10877
X27383Y10473
X27383Y9646
X24076Y12126
X24076Y12953
X23249Y11713
X22422Y11300
X21596Y11713
X20769Y11300
X20769Y10473
X21596Y10886
X22422Y10473
X21596Y10059
X22422Y9646
X21596Y9233
X22422Y8819
X21596Y8406
X22422Y7993
X23249Y8406
X23249Y7579
X23249Y6752
X24903Y5926
X27996Y5926
X23249Y9233
X23249Y10059
X23249Y10886
X20819Y9396
X20769Y8819
X20769Y7993
X20714Y14723
X20714Y15500
X20732Y17084
X20732Y17911
X18371Y18839
X23212Y18738
X24039Y18224
X24866Y17811
X25692Y17398
X24866Y16984
X24266Y16984
X24039Y17398
X25692Y18224
X24866Y18638
X25692Y19051
X25692Y19878
X25692Y20705
X25692Y22358
X24866Y22358
X25692Y16571
X25013Y15343
X25213Y14723
X24074Y14723
X23660Y14723
X23660Y15087
T02
X19083Y19920
X18083Y22049
X17583Y22229
X14563Y19940
X14163Y18740
X12083Y19930
X9707Y20404
X9333Y20500
X11683Y21780
X14183Y21750
X9123Y18370
X8743Y17980
X9318Y17812
X9544Y16539
X10008Y15067
X10008Y14634
X7083Y13700
X9528Y12060
X10283Y12060
X10497Y11810
X10583Y11500
X9725Y11431
X9753Y10510
X11459Y9000
X10833Y8250
X12496Y8173
X12741Y8813
X13197Y9213
X13883Y10950
X16445Y8460
X16619Y8210
X16833Y8000
X13518Y6750
X12153Y6750
X7533Y23830
T03
X20493Y20500
X21674Y20500
X12144Y5000
X10963Y5000
T04
X13833Y4500
X14833Y4500
X15833Y4500
X16833Y4500
X17833Y4500
X18833Y4500
X19833Y4500
X20833Y4500
X22833Y4500
X23833Y4500
X24833Y4500
X25833Y4500
X26833Y4500
X27833Y4500
X8833Y15500
X6833Y19000
X6833Y20000
X6833Y21000
X6833Y22000
X6833Y23000
X6833Y24000
X10333Y23500
X11333Y23500
X12333Y23500
X13333Y23500
X14333Y23500
X15333Y23500
X16333Y23500
X17333Y23500
X18333Y23500
X19333Y23500
X20833Y23500
X21833Y23500
X22833Y23500
X23833Y23500
X24833Y23500
X25833Y23500
X26833Y23500
X27833Y23500
X24833Y21500
X23833Y21500
X23833Y20500
X24833Y20500
X24833Y19500
X23833Y19500
T05
X8333Y4500
X28783Y6500
X8833Y23500
M30
