G75*
%MOIN*%
%OFA0B0*%
%FSLAX25Y25*%
%IPPOS*%
%LPD*%
%AMOC8*
5,1,8,0,0,1.08239X$1,22.5*
%
%ADD10C,0.00800*%
%ADD11C,0.05512*%
%ADD12C,0.03937*%
%ADD13C,0.07400*%
%ADD14R,0.05000X0.02500*%
%ADD15R,0.01000X0.01600*%
%ADD16R,0.02500X0.05000*%
%ADD17R,0.01600X0.01000*%
%ADD18C,0.02500*%
%ADD19C,0.02381*%
%ADD20C,0.02400*%
%ADD21C,0.01000*%
%ADD22C,0.02000*%
%ADD23C,0.00600*%
%ADD24C,0.01200*%
D10*
X0064733Y0045450D02*
X0067533Y0047317D01*
X0066833Y0051600D02*
X0066721Y0051598D01*
X0066609Y0051593D01*
X0066497Y0051584D01*
X0066386Y0051571D01*
X0066275Y0051555D01*
X0066164Y0051535D01*
X0066055Y0051511D01*
X0065946Y0051484D01*
X0065838Y0051454D01*
X0065731Y0051420D01*
X0065625Y0051383D01*
X0065521Y0051342D01*
X0065418Y0051298D01*
X0065316Y0051250D01*
X0065317Y0051249D02*
X0065264Y0051229D01*
X0065213Y0051206D01*
X0065164Y0051179D01*
X0065116Y0051149D01*
X0065070Y0051116D01*
X0065027Y0051081D01*
X0064986Y0051042D01*
X0064947Y0051001D01*
X0064911Y0050957D01*
X0064879Y0050911D01*
X0064849Y0050864D01*
X0064823Y0050814D01*
X0064799Y0050762D01*
X0064780Y0050710D01*
X0064763Y0050656D01*
X0064751Y0050601D01*
X0064741Y0050545D01*
X0064736Y0050489D01*
X0064734Y0050433D01*
X0064736Y0050377D01*
X0064741Y0050321D01*
X0064751Y0050265D01*
X0064763Y0050210D01*
X0064780Y0050156D01*
X0064799Y0050104D01*
X0064823Y0050052D01*
X0064849Y0050002D01*
X0064879Y0049955D01*
X0064911Y0049909D01*
X0064947Y0049865D01*
X0064986Y0049824D01*
X0065027Y0049785D01*
X0065070Y0049750D01*
X0065116Y0049717D01*
X0065164Y0049687D01*
X0065213Y0049660D01*
X0065264Y0049637D01*
X0065317Y0049617D01*
X0065667Y0049500D02*
X0068000Y0051367D01*
X0068350Y0051249D02*
X0068403Y0051229D01*
X0068454Y0051206D01*
X0068503Y0051179D01*
X0068551Y0051149D01*
X0068597Y0051116D01*
X0068640Y0051081D01*
X0068681Y0051042D01*
X0068720Y0051001D01*
X0068756Y0050957D01*
X0068788Y0050911D01*
X0068818Y0050864D01*
X0068844Y0050814D01*
X0068868Y0050762D01*
X0068887Y0050710D01*
X0068904Y0050656D01*
X0068916Y0050601D01*
X0068926Y0050545D01*
X0068931Y0050489D01*
X0068933Y0050433D01*
X0068931Y0050377D01*
X0068926Y0050321D01*
X0068916Y0050265D01*
X0068904Y0050210D01*
X0068887Y0050156D01*
X0068868Y0050104D01*
X0068844Y0050052D01*
X0068818Y0050002D01*
X0068788Y0049955D01*
X0068755Y0049909D01*
X0068720Y0049865D01*
X0068681Y0049824D01*
X0068640Y0049785D01*
X0068597Y0049750D01*
X0068551Y0049717D01*
X0068503Y0049687D01*
X0068454Y0049660D01*
X0068403Y0049637D01*
X0068350Y0049617D01*
X0068350Y0051250D02*
X0068248Y0051298D01*
X0068145Y0051342D01*
X0068041Y0051383D01*
X0067935Y0051420D01*
X0067828Y0051454D01*
X0067720Y0051484D01*
X0067611Y0051511D01*
X0067502Y0051535D01*
X0067391Y0051555D01*
X0067280Y0051571D01*
X0067169Y0051584D01*
X0067057Y0051593D01*
X0066945Y0051598D01*
X0066833Y0051600D01*
X0066833Y0049267D02*
X0066945Y0049269D01*
X0067057Y0049274D01*
X0067169Y0049283D01*
X0067280Y0049296D01*
X0067391Y0049312D01*
X0067502Y0049332D01*
X0067611Y0049356D01*
X0067720Y0049383D01*
X0067828Y0049413D01*
X0067935Y0049447D01*
X0068041Y0049484D01*
X0068145Y0049525D01*
X0068248Y0049569D01*
X0068350Y0049617D01*
X0067533Y0045450D02*
X0064733Y0047317D01*
X0065316Y0049617D02*
X0065418Y0049569D01*
X0065521Y0049525D01*
X0065625Y0049484D01*
X0065731Y0049447D01*
X0065838Y0049413D01*
X0065946Y0049383D01*
X0066055Y0049356D01*
X0066164Y0049332D01*
X0066275Y0049312D01*
X0066386Y0049296D01*
X0066497Y0049283D01*
X0066609Y0049274D01*
X0066721Y0049269D01*
X0066833Y0049267D01*
X0068000Y0053767D02*
X0068933Y0054933D01*
X0064733Y0054933D01*
X0064733Y0053767D02*
X0064733Y0056100D01*
D11*
X0071991Y0098758D02*
X0074747Y0098758D01*
X0074747Y0120254D02*
X0071991Y0120254D01*
D12*
X0083510Y0119067D02*
X0084692Y0119067D01*
X0083510Y0119067D02*
X0083510Y0119067D01*
X0084692Y0119067D01*
X0084692Y0119067D01*
X0084692Y0099933D02*
X0083510Y0099933D01*
X0083510Y0099933D01*
X0084692Y0099933D01*
X0084692Y0099933D01*
D13*
X0088333Y0155000D03*
X0068333Y0190000D03*
X0068333Y0200000D03*
X0068333Y0210000D03*
X0068333Y0220000D03*
X0068333Y0230000D03*
X0068333Y0240000D03*
X0103333Y0235000D03*
X0113333Y0235000D03*
X0123333Y0235000D03*
X0133333Y0235000D03*
X0143333Y0235000D03*
X0153333Y0235000D03*
X0163333Y0235000D03*
X0173333Y0235000D03*
X0183333Y0235000D03*
X0193333Y0235000D03*
X0208333Y0235000D03*
X0218333Y0235000D03*
X0228333Y0235000D03*
X0238333Y0235000D03*
X0248333Y0235000D03*
X0258333Y0235000D03*
X0268333Y0235000D03*
X0278333Y0235000D03*
X0248333Y0215000D03*
X0238333Y0215000D03*
X0238333Y0205000D03*
X0248333Y0205000D03*
X0248333Y0195000D03*
X0238333Y0195000D03*
X0238333Y0045000D03*
X0228333Y0045000D03*
X0208333Y0045000D03*
X0198333Y0045000D03*
X0188333Y0045000D03*
X0178333Y0045000D03*
X0168333Y0045000D03*
X0158333Y0045000D03*
X0148333Y0045000D03*
X0138333Y0045000D03*
X0248333Y0045000D03*
X0258333Y0045000D03*
X0268333Y0045000D03*
X0278333Y0045000D03*
D14*
X0138333Y0058400D03*
X0138333Y0061600D03*
X0210066Y0213000D03*
X0210066Y0217000D03*
X0220066Y0217000D03*
X0220066Y0213000D03*
D15*
X0220066Y0215000D03*
X0210066Y0215000D03*
D16*
X0226833Y0205000D03*
X0230833Y0205000D03*
X0255833Y0215000D03*
X0259833Y0215000D03*
X0176533Y0060000D03*
X0173333Y0060000D03*
X0170133Y0060000D03*
D17*
X0228833Y0205000D03*
X0257833Y0215000D03*
D18*
X0075833Y0242000D03*
X0328833Y0037500D03*
D19*
X0279963Y0059256D03*
X0273829Y0063390D03*
X0278463Y0067524D03*
X0273829Y0071657D03*
X0265562Y0067524D03*
X0257294Y0071657D03*
X0265562Y0075791D03*
X0273829Y0079925D03*
X0265562Y0084059D03*
X0273829Y0088193D03*
X0265562Y0092327D03*
X0273829Y0096461D03*
X0265562Y0100594D03*
X0273829Y0104728D03*
X0275424Y0108772D03*
X0282097Y0108862D03*
X0282097Y0100594D03*
X0282097Y0092327D03*
X0282097Y0084059D03*
X0282097Y0075791D03*
X0265562Y0059256D03*
X0257294Y0063390D03*
X0249026Y0067524D03*
X0240759Y0071657D03*
X0249026Y0075791D03*
X0240759Y0079925D03*
X0249026Y0084059D03*
X0240759Y0088193D03*
X0249026Y0092327D03*
X0240759Y0096461D03*
X0249026Y0100594D03*
X0240759Y0104728D03*
X0249026Y0108862D03*
X0240759Y0112996D03*
X0249026Y0117130D03*
X0253983Y0120583D03*
X0251483Y0124717D03*
X0249983Y0128850D03*
X0248483Y0132984D03*
X0248483Y0136618D03*
X0244349Y0136618D03*
X0240215Y0136618D03*
X0236081Y0136618D03*
X0231948Y0136618D03*
X0227814Y0136618D03*
X0223680Y0136618D03*
X0219546Y0136618D03*
X0215412Y0136618D03*
X0211278Y0136618D03*
X0207144Y0136618D03*
X0201644Y0127118D03*
X0190144Y0138465D03*
X0181837Y0142598D03*
X0190144Y0146732D03*
X0181837Y0150866D03*
X0190144Y0155000D03*
X0181837Y0159134D03*
X0190144Y0163268D03*
X0181837Y0167402D03*
X0190144Y0171535D03*
X0175296Y0177500D03*
X0172314Y0177500D03*
X0169333Y0177619D03*
X0160833Y0177500D03*
X0157833Y0177500D03*
X0153333Y0177500D03*
X0149259Y0175689D03*
X0141054Y0171154D03*
X0149259Y0167421D03*
X0141054Y0163386D03*
X0149259Y0159154D03*
X0141054Y0155118D03*
X0149259Y0150886D03*
X0141054Y0146850D03*
X0149259Y0142618D03*
X0141054Y0139083D03*
X0132723Y0142618D03*
X0124455Y0142618D03*
X0116495Y0138484D03*
X0116495Y0146752D03*
X0124455Y0150886D03*
X0116495Y0155020D03*
X0124455Y0159154D03*
X0116495Y0163287D03*
X0124455Y0167421D03*
X0116495Y0171555D03*
X0106014Y0180535D03*
X0104146Y0183087D03*
X0125618Y0192631D03*
X0127333Y0187250D03*
X0138430Y0187856D03*
X0139403Y0191206D03*
X0137066Y0194000D03*
X0130833Y0207659D03*
X0105833Y0205000D03*
X0132723Y0175689D03*
X0132723Y0167421D03*
X0132723Y0159154D03*
X0132723Y0150886D03*
X0132723Y0134350D03*
X0131680Y0122750D03*
X0136010Y0122750D03*
X0140341Y0122500D03*
X0144672Y0122500D03*
X0149259Y0134350D03*
X0157589Y0132815D03*
X0157589Y0139083D03*
X0165794Y0142618D03*
X0173570Y0138965D03*
X0173570Y0132697D03*
X0173570Y0146732D03*
X0165794Y0150886D03*
X0173570Y0155000D03*
X0165794Y0159154D03*
X0173570Y0163268D03*
X0165794Y0167421D03*
X0173570Y0171035D03*
X0157589Y0171154D03*
X0157589Y0163386D03*
X0157589Y0155118D03*
X0157589Y0146850D03*
X0141933Y0110800D03*
X0152333Y0107700D03*
X0151083Y0102500D03*
X0149833Y0092500D03*
X0148833Y0087500D03*
X0150924Y0082500D03*
X0140033Y0067700D03*
X0131733Y0064400D03*
X0128233Y0055000D03*
X0118333Y0055000D03*
X0103933Y0069100D03*
X0108333Y0077882D03*
X0118333Y0089882D03*
X0090533Y0109682D03*
X0089333Y0104882D03*
X0088643Y0115134D03*
X0104144Y0125618D03*
X0080333Y0136382D03*
X0070833Y0131382D03*
X0065833Y0120000D03*
X0065833Y0110000D03*
X0065833Y0100000D03*
X0080233Y0069100D03*
X0155833Y0057800D03*
X0179188Y0065990D03*
X0197388Y0065990D03*
X0207688Y0063390D03*
X0207688Y0071657D03*
X0215955Y0067524D03*
X0224223Y0071657D03*
X0232491Y0067524D03*
X0224223Y0063390D03*
X0215955Y0059256D03*
X0232491Y0059256D03*
X0240759Y0063390D03*
X0249026Y0059256D03*
X0232491Y0075791D03*
X0224223Y0079925D03*
X0215955Y0075791D03*
X0215955Y0084059D03*
X0224223Y0088193D03*
X0215955Y0092327D03*
X0224223Y0096461D03*
X0215955Y0100594D03*
X0224223Y0104728D03*
X0232491Y0100594D03*
X0232491Y0092327D03*
X0232491Y0084059D03*
X0207688Y0079925D03*
X0207688Y0088193D03*
X0208188Y0093961D03*
X0207688Y0104728D03*
X0207688Y0112996D03*
X0215955Y0108862D03*
X0224223Y0112996D03*
X0215955Y0117130D03*
X0232491Y0117130D03*
X0240759Y0121264D03*
X0240759Y0129531D03*
X0260459Y0133138D03*
X0259959Y0136772D03*
X0261959Y0129004D03*
X0264459Y0124870D03*
X0267633Y0128425D03*
X0271633Y0124425D03*
X0268459Y0121736D03*
X0273459Y0120236D03*
X0277593Y0120236D03*
X0278593Y0124370D03*
X0281727Y0120236D03*
X0281727Y0128504D03*
X0281727Y0136772D03*
X0273459Y0128504D03*
X0257483Y0116449D03*
X0262983Y0112315D03*
X0268656Y0109772D03*
X0257294Y0104728D03*
X0257294Y0096461D03*
X0257294Y0088193D03*
X0257294Y0079925D03*
X0232491Y0108862D03*
X0281727Y0145039D03*
X0281727Y0153307D03*
X0281727Y0161575D03*
X0273459Y0165709D03*
X0265192Y0169843D03*
X0273459Y0173976D03*
X0265192Y0178110D03*
X0273459Y0182244D03*
X0265192Y0186378D03*
X0273459Y0190512D03*
X0265192Y0194646D03*
X0273459Y0198780D03*
X0265192Y0202913D03*
X0273459Y0207047D03*
X0265192Y0211181D03*
X0273459Y0215315D03*
X0265192Y0219449D03*
X0273459Y0223583D03*
X0281727Y0227717D03*
X0281727Y0219449D03*
X0281727Y0211181D03*
X0281727Y0202913D03*
X0281727Y0194646D03*
X0281727Y0186378D03*
X0281727Y0178110D03*
X0281727Y0169843D03*
X0273459Y0157441D03*
X0265192Y0161575D03*
X0265192Y0153307D03*
X0264034Y0147232D03*
X0260400Y0147232D03*
X0256266Y0147232D03*
X0252133Y0147232D03*
X0250133Y0153425D03*
X0256924Y0153307D03*
X0256924Y0157441D03*
X0248656Y0161575D03*
X0242656Y0161575D03*
X0231948Y0163268D03*
X0227814Y0163268D03*
X0223680Y0163268D03*
X0219546Y0163268D03*
X0215412Y0163268D03*
X0211278Y0163268D03*
X0207144Y0163268D03*
X0211278Y0159134D03*
X0207144Y0155000D03*
X0211278Y0150866D03*
X0211278Y0147232D03*
X0207144Y0147232D03*
X0215412Y0147232D03*
X0219546Y0147232D03*
X0219546Y0150866D03*
X0223680Y0147232D03*
X0232471Y0147232D03*
X0232459Y0151118D03*
X0232448Y0155000D03*
X0231948Y0159134D03*
X0227814Y0159134D03*
X0223680Y0155000D03*
X0219546Y0159134D03*
X0215412Y0155000D03*
X0215585Y0170843D03*
X0223853Y0170843D03*
X0232121Y0170843D03*
X0232121Y0179110D03*
X0223853Y0179110D03*
X0215585Y0179110D03*
X0207318Y0179110D03*
X0207318Y0170843D03*
X0215585Y0187378D03*
X0223853Y0187378D03*
X0232121Y0187378D03*
X0240388Y0182244D03*
X0248656Y0178110D03*
X0240388Y0173976D03*
X0242656Y0169843D03*
X0248656Y0169843D03*
X0256924Y0173976D03*
X0256924Y0165709D03*
X0236605Y0150866D03*
X0236605Y0147232D03*
X0240739Y0147232D03*
X0256924Y0182244D03*
X0248656Y0186378D03*
X0256924Y0190512D03*
X0256924Y0198780D03*
X0256924Y0207047D03*
X0256924Y0223583D03*
X0248656Y0223583D03*
X0223333Y0202382D03*
X0200066Y0212000D03*
X0196316Y0216122D03*
X0190066Y0203619D03*
X0170833Y0206409D03*
X0165833Y0204319D03*
X0156816Y0194000D03*
X0183714Y0188387D03*
X0100083Y0159331D03*
X0100083Y0155000D03*
X0078333Y0151250D03*
X0078833Y0145882D03*
X0070860Y0142698D03*
X0078605Y0164094D03*
X0078605Y0168031D03*
D20*
X0093183Y0178120D03*
X0087433Y0179800D03*
X0091233Y0183700D03*
X0095443Y0165390D03*
X0100083Y0150669D03*
X0100083Y0146339D03*
X0070833Y0137000D03*
X0095283Y0120600D03*
X0102833Y0120600D03*
X0104969Y0118100D03*
X0105833Y0115000D03*
X0097247Y0114314D03*
X0097533Y0105100D03*
X0114593Y0090000D03*
X0108333Y0082500D03*
X0124962Y0081735D03*
X0127408Y0088135D03*
X0131968Y0092128D03*
X0138833Y0109500D03*
X0164448Y0084600D03*
X0166191Y0082100D03*
X0168333Y0080000D03*
X0135180Y0067500D03*
X0121533Y0067500D03*
X0141633Y0187400D03*
X0145633Y0199400D03*
X0141833Y0217500D03*
X0116833Y0217800D03*
X0097073Y0204040D03*
X0093333Y0205000D03*
X0120833Y0199300D03*
X0175833Y0222286D03*
X0180833Y0220486D03*
X0190833Y0199200D03*
X0075333Y0238300D03*
D21*
X0074860Y0239650D02*
X0076807Y0239650D01*
X0078183Y0241027D01*
X0078183Y0242973D01*
X0077657Y0243500D01*
X0085859Y0243500D01*
X0083349Y0242460D01*
X0083349Y0242460D01*
X0080873Y0239985D01*
X0080873Y0239985D01*
X0079533Y0236750D01*
X0079533Y0233250D01*
X0080873Y0230015D01*
X0083349Y0227540D01*
X0086583Y0226200D01*
X0090084Y0226200D01*
X0093318Y0227540D01*
X0093318Y0227540D01*
X0095794Y0230015D01*
X0095794Y0230015D01*
X0095794Y0230015D01*
X0097133Y0233250D01*
X0097133Y0236750D01*
X0095794Y0239985D01*
X0093318Y0242460D01*
X0090808Y0243500D01*
X0283333Y0243500D01*
X0283333Y0118970D01*
X0276342Y0118970D01*
X0274079Y0119118D01*
X0271871Y0119557D01*
X0269739Y0120281D01*
X0267720Y0121276D01*
X0265848Y0122527D01*
X0264156Y0124011D01*
X0262671Y0125704D01*
X0261421Y0127576D01*
X0260425Y0129595D01*
X0259701Y0131727D01*
X0259262Y0133935D01*
X0259114Y0136198D01*
X0259114Y0137538D01*
X0267086Y0137538D01*
X0267090Y0137543D01*
X0267382Y0137834D01*
X0267382Y0138252D01*
X0267382Y0145527D01*
X0267382Y0145552D01*
X0267382Y0145945D01*
X0267236Y0146091D01*
X0267086Y0146241D01*
X0204094Y0146241D01*
X0204094Y0146241D01*
X0203675Y0146241D01*
X0203380Y0145945D01*
X0203380Y0145470D01*
X0195397Y0145470D01*
X0194753Y0144826D01*
X0194753Y0139190D01*
X0195397Y0138546D01*
X0203380Y0138546D01*
X0203380Y0137834D01*
X0203675Y0137538D01*
X0249836Y0137538D01*
X0249836Y0136373D01*
X0249824Y0136359D01*
X0249836Y0136166D01*
X0249836Y0135972D01*
X0249849Y0135959D01*
X0250016Y0133192D01*
X0249996Y0133164D01*
X0250028Y0132988D01*
X0250039Y0132810D01*
X0250065Y0132787D01*
X0250568Y0130043D01*
X0250552Y0130012D01*
X0250605Y0129842D01*
X0250637Y0129666D01*
X0250666Y0129646D01*
X0251496Y0126983D01*
X0251483Y0126950D01*
X0251557Y0126788D01*
X0251610Y0126617D01*
X0251641Y0126601D01*
X0252786Y0124057D01*
X0252777Y0124023D01*
X0252870Y0123870D01*
X0252943Y0123708D01*
X0252976Y0123695D01*
X0254419Y0121308D01*
X0254414Y0121274D01*
X0254525Y0121133D01*
X0254617Y0120980D01*
X0254651Y0120972D01*
X0256371Y0118776D01*
X0256371Y0118741D01*
X0256497Y0118615D01*
X0256607Y0118474D01*
X0256642Y0118470D01*
X0258614Y0116498D01*
X0258619Y0116463D01*
X0258759Y0116353D01*
X0258886Y0116227D01*
X0258920Y0116227D01*
X0261116Y0114506D01*
X0261124Y0114473D01*
X0261277Y0114380D01*
X0261418Y0114270D01*
X0261453Y0114274D01*
X0263840Y0112831D01*
X0263852Y0112799D01*
X0264015Y0112725D01*
X0264168Y0112633D01*
X0264202Y0112641D01*
X0266745Y0111496D01*
X0266761Y0111466D01*
X0266932Y0111412D01*
X0267095Y0111339D01*
X0267127Y0111351D01*
X0269790Y0110522D01*
X0269810Y0110493D01*
X0269986Y0110461D01*
X0270156Y0110408D01*
X0270187Y0110424D01*
X0272931Y0109921D01*
X0272954Y0109895D01*
X0273132Y0109884D01*
X0273308Y0109852D01*
X0273337Y0109872D01*
X0276104Y0109704D01*
X0276116Y0109692D01*
X0276310Y0109692D01*
X0276504Y0109680D01*
X0276517Y0109692D01*
X0283333Y0109692D01*
X0283333Y0072661D01*
X0282849Y0072460D01*
X0282849Y0072460D01*
X0280373Y0069985D01*
X0280373Y0069985D01*
X0279033Y0066750D01*
X0279033Y0063250D01*
X0280373Y0060015D01*
X0282849Y0057540D01*
X0283333Y0057339D01*
X0283333Y0036500D01*
X0085808Y0036500D01*
X0088318Y0037540D01*
X0088318Y0037540D01*
X0090794Y0040015D01*
X0090794Y0040015D01*
X0092133Y0043250D01*
X0092133Y0046750D01*
X0090794Y0049985D01*
X0088318Y0052460D01*
X0085084Y0053800D01*
X0081583Y0053800D01*
X0078349Y0052460D01*
X0075873Y0049985D01*
X0075873Y0049985D01*
X0075873Y0049985D01*
X0074533Y0046750D01*
X0074533Y0043250D01*
X0075873Y0040015D01*
X0078349Y0037540D01*
X0080859Y0036500D01*
X0073955Y0036500D01*
X0065978Y0044477D01*
X0066133Y0044581D01*
X0067218Y0043857D01*
X0068437Y0044101D01*
X0069126Y0045135D01*
X0068882Y0046353D01*
X0068837Y0046383D01*
X0068882Y0046413D01*
X0069126Y0047632D01*
X0068777Y0048156D01*
X0068924Y0048228D01*
X0069553Y0048443D01*
X0070433Y0049676D01*
X0070433Y0051191D01*
X0069553Y0052423D01*
X0069553Y0052423D01*
X0069553Y0052423D01*
X0068998Y0052613D01*
X0070053Y0053931D01*
X0070433Y0054312D01*
X0070433Y0054407D01*
X0070493Y0054481D01*
X0070433Y0055016D01*
X0070433Y0055555D01*
X0070366Y0055622D01*
X0070356Y0055716D01*
X0069935Y0056053D01*
X0069555Y0056433D01*
X0069459Y0056433D01*
X0069385Y0056493D01*
X0068850Y0056433D01*
X0066233Y0056433D01*
X0066233Y0056721D01*
X0065355Y0057600D01*
X0064833Y0057600D01*
X0064833Y0091500D01*
X0087162Y0091500D01*
X0088333Y0092672D01*
X0088333Y0112844D01*
X0089592Y0112844D01*
X0090933Y0114185D01*
X0090933Y0116083D01*
X0090043Y0116973D01*
X0090043Y0124270D01*
X0088333Y0125980D01*
X0088333Y0127328D01*
X0087162Y0128500D01*
X0085813Y0128500D01*
X0084983Y0129330D01*
X0076733Y0137580D01*
X0075913Y0138400D01*
X0072686Y0138400D01*
X0071786Y0139300D01*
X0069881Y0139300D01*
X0068533Y0137953D01*
X0068533Y0136047D01*
X0069881Y0134700D01*
X0071786Y0134700D01*
X0072686Y0135600D01*
X0074753Y0135600D01*
X0081853Y0128500D01*
X0064833Y0128500D01*
X0064833Y0186146D01*
X0064946Y0186034D01*
X0065608Y0185553D01*
X0066337Y0185181D01*
X0067116Y0184928D01*
X0067833Y0184814D01*
X0067833Y0189500D01*
X0068833Y0189500D01*
X0068833Y0184814D01*
X0069551Y0184928D01*
X0070329Y0185181D01*
X0071059Y0185553D01*
X0071721Y0186034D01*
X0072300Y0186612D01*
X0072781Y0187275D01*
X0073152Y0188004D01*
X0073405Y0188782D01*
X0073519Y0189500D01*
X0068833Y0189500D01*
X0068833Y0190500D01*
X0067833Y0190500D01*
X0067833Y0195186D01*
X0067116Y0195072D01*
X0066337Y0194819D01*
X0065608Y0194447D01*
X0064946Y0193966D01*
X0064833Y0193854D01*
X0064833Y0196712D01*
X0065614Y0195931D01*
X0067379Y0195200D01*
X0069288Y0195200D01*
X0071052Y0195931D01*
X0072403Y0197281D01*
X0073133Y0199045D01*
X0073133Y0200955D01*
X0072403Y0202719D01*
X0071052Y0204069D01*
X0069288Y0204800D01*
X0067379Y0204800D01*
X0065614Y0204069D01*
X0064833Y0203288D01*
X0064833Y0206712D01*
X0065614Y0205931D01*
X0067379Y0205200D01*
X0069288Y0205200D01*
X0071052Y0205931D01*
X0072403Y0207281D01*
X0073133Y0209045D01*
X0073133Y0210955D01*
X0072403Y0212719D01*
X0071052Y0214069D01*
X0069288Y0214800D01*
X0067379Y0214800D01*
X0065614Y0214069D01*
X0064833Y0213288D01*
X0064833Y0216712D01*
X0065614Y0215931D01*
X0067379Y0215200D01*
X0069288Y0215200D01*
X0071052Y0215931D01*
X0072403Y0217281D01*
X0072949Y0218600D01*
X0179466Y0218600D01*
X0179881Y0218186D01*
X0181786Y0218186D01*
X0183133Y0219533D01*
X0183133Y0221439D01*
X0181786Y0222786D01*
X0179881Y0222786D01*
X0178533Y0221439D01*
X0178533Y0221400D01*
X0178133Y0221400D01*
X0178133Y0223239D01*
X0176786Y0224586D01*
X0174881Y0224586D01*
X0173981Y0223686D01*
X0076627Y0223686D01*
X0072587Y0227726D01*
X0073133Y0229045D01*
X0073133Y0230955D01*
X0072403Y0232719D01*
X0071052Y0234069D01*
X0069288Y0234800D01*
X0067379Y0234800D01*
X0065614Y0234069D01*
X0064833Y0233288D01*
X0064833Y0236712D01*
X0065614Y0235931D01*
X0067379Y0235200D01*
X0069288Y0235200D01*
X0071052Y0235931D01*
X0072403Y0237281D01*
X0073133Y0239045D01*
X0073133Y0240955D01*
X0072403Y0242719D01*
X0071622Y0243500D01*
X0074010Y0243500D01*
X0073483Y0242973D01*
X0073483Y0241027D01*
X0074860Y0239650D01*
X0074815Y0239695D02*
X0073133Y0239695D01*
X0073133Y0240693D02*
X0073817Y0240693D01*
X0073483Y0241692D02*
X0072828Y0241692D01*
X0072414Y0242690D02*
X0073483Y0242690D01*
X0076852Y0239695D02*
X0080753Y0239695D01*
X0080339Y0238696D02*
X0072989Y0238696D01*
X0072575Y0237698D02*
X0079926Y0237698D01*
X0079533Y0236699D02*
X0071821Y0236699D01*
X0070497Y0235701D02*
X0079533Y0235701D01*
X0079533Y0234702D02*
X0069524Y0234702D01*
X0071418Y0233704D02*
X0079533Y0233704D01*
X0079759Y0232705D02*
X0072408Y0232705D01*
X0072822Y0231707D02*
X0080172Y0231707D01*
X0080586Y0230708D02*
X0073133Y0230708D01*
X0073133Y0229710D02*
X0081179Y0229710D01*
X0080873Y0230015D02*
X0080873Y0230015D01*
X0082177Y0228711D02*
X0072995Y0228711D01*
X0072601Y0227713D02*
X0083176Y0227713D01*
X0083349Y0227540D02*
X0083349Y0227540D01*
X0085342Y0226714D02*
X0073599Y0226714D01*
X0074598Y0225716D02*
X0190638Y0225716D01*
X0189639Y0226714D02*
X0091325Y0226714D01*
X0093491Y0227713D02*
X0188641Y0227713D01*
X0187642Y0228711D02*
X0094490Y0228711D01*
X0095488Y0229710D02*
X0186644Y0229710D01*
X0185645Y0230708D02*
X0185515Y0230708D01*
X0185607Y0230746D02*
X0194916Y0221438D01*
X0194916Y0217961D01*
X0194025Y0217071D01*
X0194025Y0215173D01*
X0195367Y0213831D01*
X0197264Y0213831D01*
X0198606Y0215173D01*
X0198606Y0217071D01*
X0197716Y0217961D01*
X0197716Y0220335D01*
X0198666Y0219385D01*
X0198666Y0213839D01*
X0197775Y0212949D01*
X0197775Y0211150D01*
X0117503Y0211150D01*
X0112753Y0206400D01*
X0107673Y0206400D01*
X0106782Y0207291D01*
X0104885Y0207291D01*
X0103543Y0205949D01*
X0103543Y0204051D01*
X0104885Y0202709D01*
X0106782Y0202709D01*
X0107673Y0203600D01*
X0113913Y0203600D01*
X0114733Y0204420D01*
X0118663Y0208350D01*
X0128543Y0208350D01*
X0128543Y0206711D01*
X0129885Y0205369D01*
X0131722Y0205369D01*
X0121894Y0195541D01*
X0103175Y0195541D01*
X0102354Y0194720D01*
X0098473Y0190839D01*
X0098473Y0202187D01*
X0099373Y0203087D01*
X0099373Y0204993D01*
X0098026Y0206340D01*
X0096121Y0206340D01*
X0094773Y0204993D01*
X0094773Y0203087D01*
X0095673Y0202187D01*
X0095673Y0189737D01*
X0093503Y0187566D01*
X0092683Y0186746D01*
X0092683Y0180420D01*
X0092231Y0180420D01*
X0090883Y0179073D01*
X0090883Y0177167D01*
X0092231Y0175820D01*
X0093883Y0175820D01*
X0093883Y0172174D01*
X0091141Y0169431D01*
X0080445Y0169431D01*
X0079554Y0170322D01*
X0077656Y0170322D01*
X0076315Y0168980D01*
X0076315Y0167083D01*
X0077334Y0166063D01*
X0076315Y0165043D01*
X0076315Y0163146D01*
X0077656Y0161804D01*
X0079554Y0161804D01*
X0080896Y0163146D01*
X0080896Y0163694D01*
X0088798Y0163694D01*
X0088507Y0163404D01*
X0084257Y0163404D01*
X0083437Y0162584D01*
X0077753Y0156900D01*
X0076933Y0156080D01*
X0076933Y0153089D01*
X0076043Y0152199D01*
X0076043Y0150301D01*
X0076819Y0149525D01*
X0075708Y0149525D01*
X0074888Y0148705D01*
X0071171Y0144988D01*
X0069912Y0144988D01*
X0068570Y0143646D01*
X0068570Y0141749D01*
X0069912Y0140407D01*
X0071809Y0140407D01*
X0073151Y0141749D01*
X0073151Y0143008D01*
X0076868Y0146725D01*
X0093583Y0146725D01*
X0093583Y0122153D01*
X0092983Y0121553D01*
X0092983Y0119647D01*
X0094331Y0118300D01*
X0095983Y0118300D01*
X0095983Y0116303D01*
X0094947Y0115266D01*
X0094947Y0113361D01*
X0096294Y0112014D01*
X0097947Y0112014D01*
X0097947Y0107776D01*
X0097571Y0107400D01*
X0096581Y0107400D01*
X0095233Y0106053D01*
X0095233Y0104147D01*
X0096581Y0102800D01*
X0098486Y0102800D01*
X0099833Y0104147D01*
X0099833Y0105137D01*
X0100210Y0105514D01*
X0101147Y0106451D01*
X0101147Y0119034D01*
X0101881Y0118300D01*
X0102669Y0118300D01*
X0102669Y0117780D01*
X0102333Y0117444D01*
X0102333Y0113050D01*
X0103153Y0112230D01*
X0103153Y0112230D01*
X0103448Y0111935D01*
X0113193Y0102190D01*
X0113193Y0091853D01*
X0112293Y0090953D01*
X0112293Y0089047D01*
X0113640Y0087700D01*
X0115546Y0087700D01*
X0116893Y0089047D01*
X0116893Y0090953D01*
X0115993Y0091853D01*
X0115993Y0101270D01*
X0122462Y0094801D01*
X0122462Y0081265D01*
X0122662Y0081065D01*
X0122662Y0080782D01*
X0124009Y0079435D01*
X0125915Y0079435D01*
X0127262Y0080782D01*
X0127262Y0082687D01*
X0126662Y0083287D01*
X0126662Y0085835D01*
X0128360Y0085835D01*
X0128560Y0086035D01*
X0128844Y0086035D01*
X0130074Y0087265D01*
X0132638Y0089828D01*
X0132921Y0089828D01*
X0134268Y0091176D01*
X0134268Y0093081D01*
X0132921Y0094428D01*
X0131015Y0094428D01*
X0129668Y0093081D01*
X0129668Y0092798D01*
X0127304Y0090435D01*
X0126662Y0090435D01*
X0126662Y0096541D01*
X0118883Y0104320D01*
X0108133Y0115070D01*
X0108133Y0115953D01*
X0107104Y0116982D01*
X0107269Y0117147D01*
X0107269Y0118900D01*
X0110308Y0118900D01*
X0115794Y0113414D01*
X0132516Y0113414D01*
X0136533Y0109396D01*
X0136533Y0108547D01*
X0137881Y0107200D01*
X0139786Y0107200D01*
X0141133Y0108547D01*
X0141133Y0110453D01*
X0139786Y0111800D01*
X0138937Y0111800D01*
X0135524Y0115214D01*
X0138645Y0115214D01*
X0142733Y0111125D01*
X0142733Y0060780D01*
X0141933Y0059980D01*
X0141933Y0063306D01*
X0141289Y0063950D01*
X0139733Y0063950D01*
X0139733Y0064926D01*
X0138913Y0065746D01*
X0137480Y0067180D01*
X0137480Y0068453D01*
X0136132Y0069800D01*
X0134227Y0069800D01*
X0134027Y0069600D01*
X0122686Y0069600D01*
X0122486Y0069800D01*
X0120581Y0069800D01*
X0119233Y0068453D01*
X0119233Y0066547D01*
X0120581Y0065200D01*
X0122486Y0065200D01*
X0122686Y0065400D01*
X0134027Y0065400D01*
X0134227Y0065200D01*
X0135500Y0065200D01*
X0136750Y0063950D01*
X0135378Y0063950D01*
X0134733Y0063306D01*
X0134733Y0056694D01*
X0135378Y0056050D01*
X0141289Y0056050D01*
X0141933Y0056694D01*
X0141933Y0057000D01*
X0142913Y0057000D01*
X0143933Y0058020D01*
X0143933Y0047420D01*
X0144080Y0047274D01*
X0143533Y0045955D01*
X0143533Y0044045D01*
X0144264Y0042281D01*
X0145614Y0040931D01*
X0147379Y0040200D01*
X0149288Y0040200D01*
X0151052Y0040931D01*
X0152403Y0042281D01*
X0153133Y0044045D01*
X0153133Y0045955D01*
X0152403Y0047719D01*
X0151052Y0049069D01*
X0149288Y0049800D01*
X0147379Y0049800D01*
X0146733Y0049533D01*
X0146733Y0064600D01*
X0171253Y0064600D01*
X0171933Y0063920D01*
X0171933Y0063600D01*
X0168428Y0063600D01*
X0167783Y0062956D01*
X0167783Y0057044D01*
X0168428Y0056400D01*
X0168733Y0056400D01*
X0168733Y0049800D01*
X0167379Y0049800D01*
X0165614Y0049069D01*
X0164264Y0047719D01*
X0163533Y0045955D01*
X0163533Y0044045D01*
X0164264Y0042281D01*
X0165614Y0040931D01*
X0167379Y0040200D01*
X0169288Y0040200D01*
X0171052Y0040931D01*
X0172403Y0042281D01*
X0173133Y0044045D01*
X0173133Y0045955D01*
X0172403Y0047719D01*
X0171533Y0048588D01*
X0171533Y0056400D01*
X0175133Y0056400D01*
X0175133Y0048588D01*
X0174264Y0047719D01*
X0173533Y0045955D01*
X0173533Y0044045D01*
X0174264Y0042281D01*
X0175614Y0040931D01*
X0177379Y0040200D01*
X0179288Y0040200D01*
X0181052Y0040931D01*
X0182403Y0042281D01*
X0183133Y0044045D01*
X0183133Y0045955D01*
X0182403Y0047719D01*
X0181052Y0049069D01*
X0179288Y0049800D01*
X0177933Y0049800D01*
X0177933Y0056400D01*
X0178239Y0056400D01*
X0178883Y0057044D01*
X0178883Y0062956D01*
X0178239Y0063600D01*
X0174733Y0063600D01*
X0174733Y0065080D01*
X0173233Y0066580D01*
X0172413Y0067400D01*
X0146733Y0067400D01*
X0146733Y0086361D01*
X0147433Y0085661D01*
X0147433Y0081054D01*
X0149067Y0079420D01*
X0149887Y0078600D01*
X0166481Y0078600D01*
X0167381Y0077700D01*
X0169286Y0077700D01*
X0170633Y0079047D01*
X0170633Y0080953D01*
X0169286Y0082300D01*
X0168491Y0082300D01*
X0168491Y0083053D01*
X0167143Y0084400D01*
X0166748Y0084400D01*
X0166748Y0085553D01*
X0165401Y0086900D01*
X0163495Y0086900D01*
X0162595Y0086000D01*
X0156967Y0086000D01*
X0151770Y0091197D01*
X0152124Y0091551D01*
X0152124Y0093449D01*
X0150782Y0094791D01*
X0150333Y0094791D01*
X0150333Y0100209D01*
X0152032Y0100209D01*
X0153374Y0101551D01*
X0153374Y0103449D01*
X0152032Y0104791D01*
X0151533Y0104791D01*
X0151533Y0114770D01*
X0146072Y0120232D01*
X0146072Y0120661D01*
X0146962Y0121551D01*
X0146962Y0123449D01*
X0145621Y0124791D01*
X0143723Y0124791D01*
X0142507Y0123574D01*
X0141290Y0124791D01*
X0139392Y0124791D01*
X0138301Y0123699D01*
X0136959Y0125041D01*
X0135062Y0125041D01*
X0133845Y0123824D01*
X0132629Y0125041D01*
X0130731Y0125041D01*
X0129389Y0123699D01*
X0129389Y0121801D01*
X0130731Y0120459D01*
X0131990Y0120459D01*
X0133236Y0119214D01*
X0118197Y0119214D01*
X0104783Y0132627D01*
X0104783Y0152616D01*
X0104774Y0152626D01*
X0104774Y0161274D01*
X0103954Y0162094D01*
X0103883Y0162164D01*
X0103883Y0180797D01*
X0105095Y0180797D01*
X0106437Y0182139D01*
X0106437Y0184036D01*
X0105276Y0185197D01*
X0105929Y0185850D01*
X0125494Y0185850D01*
X0126385Y0184959D01*
X0128282Y0184959D01*
X0129624Y0186301D01*
X0129624Y0187941D01*
X0136139Y0187941D01*
X0136139Y0186907D01*
X0137481Y0185566D01*
X0139379Y0185566D01*
X0140720Y0186907D01*
X0140720Y0188805D01*
X0140481Y0189044D01*
X0141693Y0190257D01*
X0141693Y0192154D01*
X0140352Y0193496D01*
X0138454Y0193496D01*
X0137112Y0192154D01*
X0137112Y0191941D01*
X0127909Y0191941D01*
X0127909Y0193580D01*
X0126749Y0194739D01*
X0134929Y0202919D01*
X0163994Y0202919D01*
X0164885Y0202028D01*
X0166782Y0202028D01*
X0168124Y0203370D01*
X0168124Y0205009D01*
X0168994Y0205009D01*
X0169885Y0204119D01*
X0171782Y0204119D01*
X0173124Y0205461D01*
X0173124Y0207100D01*
X0203106Y0207100D01*
X0202577Y0206571D01*
X0202155Y0205552D01*
X0202155Y0204448D01*
X0202577Y0203429D01*
X0203357Y0202649D01*
X0204376Y0202227D01*
X0205479Y0202227D01*
X0206499Y0202649D01*
X0207279Y0203429D01*
X0207701Y0204448D01*
X0207701Y0205552D01*
X0207279Y0206571D01*
X0206750Y0207100D01*
X0214917Y0207100D01*
X0214388Y0206571D01*
X0213966Y0205552D01*
X0213966Y0204448D01*
X0214388Y0203429D01*
X0215168Y0202649D01*
X0215829Y0202375D01*
X0201150Y0187696D01*
X0186005Y0187696D01*
X0186005Y0189336D01*
X0184663Y0190678D01*
X0183404Y0190678D01*
X0181847Y0192235D01*
X0181847Y0193420D01*
X0189755Y0201328D01*
X0191014Y0201328D01*
X0192356Y0202670D01*
X0192356Y0204568D01*
X0191014Y0205909D01*
X0189117Y0205909D01*
X0187775Y0204568D01*
X0187775Y0203308D01*
X0179867Y0195400D01*
X0158655Y0195400D01*
X0157764Y0196291D01*
X0155867Y0196291D01*
X0154525Y0194949D01*
X0154525Y0193051D01*
X0155867Y0191709D01*
X0157764Y0191709D01*
X0158655Y0192600D01*
X0179047Y0192600D01*
X0179047Y0191075D01*
X0179867Y0190255D01*
X0181424Y0188698D01*
X0181424Y0187700D01*
X0161553Y0187700D01*
X0160733Y0186880D01*
X0153644Y0179791D01*
X0152385Y0179791D01*
X0151043Y0178449D01*
X0151043Y0176551D01*
X0152385Y0175209D01*
X0154282Y0175209D01*
X0155583Y0176511D01*
X0156885Y0175209D01*
X0158782Y0175209D01*
X0159333Y0175761D01*
X0159885Y0175209D01*
X0161782Y0175209D01*
X0163124Y0176551D01*
X0163124Y0177811D01*
X0167813Y0182500D01*
X0172235Y0182500D01*
X0169644Y0179909D01*
X0168385Y0179909D01*
X0167043Y0178568D01*
X0167043Y0176670D01*
X0168385Y0175328D01*
X0170282Y0175328D01*
X0170764Y0175811D01*
X0171366Y0175209D01*
X0173263Y0175209D01*
X0173805Y0175751D01*
X0174347Y0175209D01*
X0176244Y0175209D01*
X0177586Y0176551D01*
X0177586Y0177811D01*
X0178675Y0178900D01*
X0179780Y0178900D01*
X0179783Y0178896D01*
X0204795Y0178896D01*
X0209399Y0183500D01*
X0209407Y0183500D01*
X0214507Y0188600D01*
X0243913Y0188600D01*
X0246060Y0190746D01*
X0247379Y0190200D01*
X0249288Y0190200D01*
X0251052Y0190931D01*
X0252403Y0192281D01*
X0253133Y0194045D01*
X0253133Y0195955D01*
X0252403Y0197719D01*
X0251052Y0199069D01*
X0249288Y0199800D01*
X0247379Y0199800D01*
X0245614Y0199069D01*
X0244264Y0197719D01*
X0243533Y0195955D01*
X0243533Y0194045D01*
X0244080Y0192726D01*
X0242753Y0191400D01*
X0241522Y0191400D01*
X0242403Y0192281D01*
X0243133Y0194045D01*
X0243133Y0195955D01*
X0242403Y0197719D01*
X0241522Y0198600D01*
X0243913Y0198600D01*
X0244733Y0199420D01*
X0246060Y0200746D01*
X0247379Y0200200D01*
X0249288Y0200200D01*
X0251052Y0200931D01*
X0252403Y0202281D01*
X0253133Y0204045D01*
X0253133Y0205955D01*
X0252403Y0207719D01*
X0251052Y0209069D01*
X0249288Y0209800D01*
X0247379Y0209800D01*
X0245614Y0209069D01*
X0244264Y0207719D01*
X0243533Y0205955D01*
X0243533Y0204045D01*
X0244080Y0202726D01*
X0242753Y0201400D01*
X0241522Y0201400D01*
X0242403Y0202281D01*
X0243133Y0204045D01*
X0243133Y0205955D01*
X0242403Y0207719D01*
X0241522Y0208600D01*
X0243913Y0208600D01*
X0244733Y0209420D01*
X0246060Y0210746D01*
X0247379Y0210200D01*
X0249288Y0210200D01*
X0251052Y0210931D01*
X0252403Y0212281D01*
X0252949Y0213600D01*
X0253483Y0213600D01*
X0253483Y0212044D01*
X0254128Y0211400D01*
X0257539Y0211400D01*
X0257550Y0211412D01*
X0257662Y0211300D01*
X0258004Y0211102D01*
X0258386Y0211000D01*
X0259708Y0211000D01*
X0259708Y0214019D01*
X0259733Y0214044D01*
X0259733Y0214875D01*
X0259958Y0214875D01*
X0259958Y0211000D01*
X0261281Y0211000D01*
X0261662Y0211102D01*
X0262004Y0211300D01*
X0262284Y0211579D01*
X0262481Y0211921D01*
X0262583Y0212303D01*
X0262583Y0214875D01*
X0259958Y0214875D01*
X0259958Y0215125D01*
X0259733Y0215125D01*
X0259733Y0215956D01*
X0259708Y0215981D01*
X0259708Y0219000D01*
X0258386Y0219000D01*
X0258004Y0218898D01*
X0257662Y0218700D01*
X0257550Y0218588D01*
X0257539Y0218600D01*
X0254128Y0218600D01*
X0253483Y0217956D01*
X0253483Y0216400D01*
X0252949Y0216400D01*
X0252403Y0217719D01*
X0251052Y0219069D01*
X0249288Y0219800D01*
X0247379Y0219800D01*
X0245614Y0219069D01*
X0244264Y0217719D01*
X0243533Y0215955D01*
X0243533Y0214045D01*
X0244080Y0212726D01*
X0242753Y0211400D01*
X0241522Y0211400D01*
X0242403Y0212281D01*
X0243133Y0214045D01*
X0243133Y0215955D01*
X0242403Y0217719D01*
X0241052Y0219069D01*
X0239288Y0219800D01*
X0237379Y0219800D01*
X0235614Y0219069D01*
X0234264Y0217719D01*
X0233718Y0216400D01*
X0229853Y0216400D01*
X0229033Y0215580D01*
X0224453Y0211000D01*
X0224134Y0211000D01*
X0222083Y0208950D01*
X0222083Y0208630D01*
X0219364Y0205910D01*
X0219090Y0206571D01*
X0218310Y0207351D01*
X0217290Y0207773D01*
X0216819Y0207773D01*
X0216966Y0207920D01*
X0219695Y0210650D01*
X0223021Y0210650D01*
X0223666Y0211294D01*
X0223666Y0214706D01*
X0223371Y0215000D01*
X0223666Y0215294D01*
X0223666Y0218706D01*
X0223021Y0219350D01*
X0221466Y0219350D01*
X0221466Y0226152D01*
X0226060Y0230746D01*
X0227379Y0230200D01*
X0229288Y0230200D01*
X0231052Y0230931D01*
X0232403Y0232281D01*
X0233133Y0234045D01*
X0233133Y0235955D01*
X0232403Y0237719D01*
X0231052Y0239069D01*
X0229288Y0239800D01*
X0227379Y0239800D01*
X0225614Y0239069D01*
X0224264Y0237719D01*
X0223533Y0235955D01*
X0223533Y0234045D01*
X0224080Y0232726D01*
X0218666Y0227312D01*
X0218666Y0219350D01*
X0217110Y0219350D01*
X0216466Y0218706D01*
X0216466Y0215294D01*
X0216760Y0215000D01*
X0216466Y0214706D01*
X0216466Y0211380D01*
X0214986Y0209900D01*
X0207195Y0209900D01*
X0207945Y0210650D01*
X0213021Y0210650D01*
X0213666Y0211294D01*
X0213666Y0214706D01*
X0213371Y0215000D01*
X0213666Y0215294D01*
X0213666Y0218706D01*
X0213021Y0219350D01*
X0211466Y0219350D01*
X0211466Y0226152D01*
X0216060Y0230746D01*
X0217379Y0230200D01*
X0219288Y0230200D01*
X0221052Y0230931D01*
X0222403Y0232281D01*
X0223133Y0234045D01*
X0223133Y0235955D01*
X0222403Y0237719D01*
X0221052Y0239069D01*
X0219288Y0239800D01*
X0217379Y0239800D01*
X0215614Y0239069D01*
X0214264Y0237719D01*
X0213533Y0235955D01*
X0213533Y0234045D01*
X0214080Y0232726D01*
X0208666Y0227312D01*
X0208666Y0219350D01*
X0207110Y0219350D01*
X0206466Y0218706D01*
X0206466Y0215294D01*
X0206760Y0215000D01*
X0206466Y0214706D01*
X0206466Y0213130D01*
X0204486Y0211150D01*
X0202356Y0211150D01*
X0202356Y0212949D01*
X0201466Y0213839D01*
X0201466Y0220545D01*
X0194733Y0227277D01*
X0194733Y0230384D01*
X0196052Y0230931D01*
X0197403Y0232281D01*
X0198133Y0234045D01*
X0198133Y0235955D01*
X0197403Y0237719D01*
X0196052Y0239069D01*
X0194288Y0239800D01*
X0192379Y0239800D01*
X0190614Y0239069D01*
X0189264Y0237719D01*
X0188533Y0235955D01*
X0188533Y0234045D01*
X0189264Y0232281D01*
X0190614Y0230931D01*
X0191933Y0230384D01*
X0191933Y0228380D01*
X0187587Y0232726D01*
X0188133Y0234045D01*
X0188133Y0235955D01*
X0187403Y0237719D01*
X0186052Y0239069D01*
X0184288Y0239800D01*
X0182379Y0239800D01*
X0180614Y0239069D01*
X0179264Y0237719D01*
X0178533Y0235955D01*
X0178533Y0234045D01*
X0179264Y0232281D01*
X0180614Y0230931D01*
X0182379Y0230200D01*
X0184288Y0230200D01*
X0185607Y0230746D01*
X0187608Y0232705D02*
X0189088Y0232705D01*
X0188675Y0233704D02*
X0187992Y0233704D01*
X0188133Y0234702D02*
X0188533Y0234702D01*
X0188533Y0235701D02*
X0188133Y0235701D01*
X0187825Y0236699D02*
X0188842Y0236699D01*
X0189255Y0237698D02*
X0187411Y0237698D01*
X0186425Y0238696D02*
X0190241Y0238696D01*
X0192125Y0239695D02*
X0184542Y0239695D01*
X0182125Y0239695D02*
X0174542Y0239695D01*
X0174288Y0239800D02*
X0172379Y0239800D01*
X0170614Y0239069D01*
X0169264Y0237719D01*
X0168533Y0235955D01*
X0168533Y0234045D01*
X0169264Y0232281D01*
X0170614Y0230931D01*
X0172379Y0230200D01*
X0174288Y0230200D01*
X0176052Y0230931D01*
X0177403Y0232281D01*
X0178133Y0234045D01*
X0178133Y0235955D01*
X0177403Y0237719D01*
X0176052Y0239069D01*
X0174288Y0239800D01*
X0172125Y0239695D02*
X0164542Y0239695D01*
X0164288Y0239800D02*
X0162379Y0239800D01*
X0160614Y0239069D01*
X0159264Y0237719D01*
X0158533Y0235955D01*
X0158533Y0234045D01*
X0159264Y0232281D01*
X0160614Y0230931D01*
X0162379Y0230200D01*
X0164288Y0230200D01*
X0166052Y0230931D01*
X0167403Y0232281D01*
X0168133Y0234045D01*
X0168133Y0235955D01*
X0167403Y0237719D01*
X0166052Y0239069D01*
X0164288Y0239800D01*
X0162125Y0239695D02*
X0154542Y0239695D01*
X0154288Y0239800D02*
X0152379Y0239800D01*
X0150614Y0239069D01*
X0149264Y0237719D01*
X0148533Y0235955D01*
X0148533Y0234045D01*
X0149264Y0232281D01*
X0150614Y0230931D01*
X0152379Y0230200D01*
X0154288Y0230200D01*
X0156052Y0230931D01*
X0157403Y0232281D01*
X0158133Y0234045D01*
X0158133Y0235955D01*
X0157403Y0237719D01*
X0156052Y0239069D01*
X0154288Y0239800D01*
X0152125Y0239695D02*
X0144542Y0239695D01*
X0144288Y0239800D02*
X0142379Y0239800D01*
X0140614Y0239069D01*
X0139264Y0237719D01*
X0138533Y0235955D01*
X0138533Y0234045D01*
X0139264Y0232281D01*
X0140614Y0230931D01*
X0142379Y0230200D01*
X0144288Y0230200D01*
X0146052Y0230931D01*
X0147403Y0232281D01*
X0148133Y0234045D01*
X0148133Y0235955D01*
X0147403Y0237719D01*
X0146052Y0239069D01*
X0144288Y0239800D01*
X0142125Y0239695D02*
X0135573Y0239695D01*
X0135329Y0239819D02*
X0134551Y0240072D01*
X0133833Y0240186D01*
X0133833Y0235500D01*
X0132833Y0235500D01*
X0132833Y0234500D01*
X0123833Y0234500D01*
X0123833Y0229814D01*
X0124551Y0229928D01*
X0125329Y0230181D01*
X0126059Y0230553D01*
X0126721Y0231034D01*
X0127300Y0231612D01*
X0127781Y0232275D01*
X0128152Y0233004D01*
X0128333Y0233561D01*
X0128514Y0233004D01*
X0128886Y0232275D01*
X0129367Y0231612D01*
X0129946Y0231034D01*
X0130608Y0230553D01*
X0131337Y0230181D01*
X0132116Y0229928D01*
X0132833Y0229814D01*
X0132833Y0234500D01*
X0133833Y0234500D01*
X0133833Y0229814D01*
X0134551Y0229928D01*
X0135329Y0230181D01*
X0136059Y0230553D01*
X0136721Y0231034D01*
X0137300Y0231612D01*
X0137781Y0232275D01*
X0138152Y0233004D01*
X0138405Y0233782D01*
X0138519Y0234500D01*
X0133833Y0234500D01*
X0133833Y0235500D01*
X0138519Y0235500D01*
X0138405Y0236218D01*
X0138152Y0236996D01*
X0137781Y0237725D01*
X0137300Y0238388D01*
X0136721Y0238966D01*
X0136059Y0239447D01*
X0135329Y0239819D01*
X0133833Y0239695D02*
X0132833Y0239695D01*
X0132833Y0240186D02*
X0132116Y0240072D01*
X0131337Y0239819D01*
X0130608Y0239447D01*
X0129946Y0238966D01*
X0129367Y0238388D01*
X0128886Y0237725D01*
X0128514Y0236996D01*
X0128333Y0236439D01*
X0128152Y0236996D01*
X0127781Y0237725D01*
X0127300Y0238388D01*
X0126721Y0238966D01*
X0126059Y0239447D01*
X0125329Y0239819D01*
X0124551Y0240072D01*
X0123833Y0240186D01*
X0123833Y0235500D01*
X0122833Y0235500D01*
X0122833Y0234500D01*
X0118148Y0234500D01*
X0118261Y0233782D01*
X0118514Y0233004D01*
X0118886Y0232275D01*
X0119367Y0231612D01*
X0119946Y0231034D01*
X0120608Y0230553D01*
X0121337Y0230181D01*
X0122116Y0229928D01*
X0122833Y0229814D01*
X0122833Y0234500D01*
X0123833Y0234500D01*
X0123833Y0235500D01*
X0128519Y0235500D01*
X0132833Y0235500D01*
X0132833Y0240186D01*
X0132833Y0238696D02*
X0133833Y0238696D01*
X0133833Y0237698D02*
X0132833Y0237698D01*
X0132833Y0236699D02*
X0133833Y0236699D01*
X0133833Y0235701D02*
X0132833Y0235701D01*
X0132833Y0234702D02*
X0123833Y0234702D01*
X0123833Y0233704D02*
X0122833Y0233704D01*
X0122833Y0234702D02*
X0118133Y0234702D01*
X0118133Y0234045D02*
X0118133Y0235955D01*
X0117403Y0237719D01*
X0116052Y0239069D01*
X0114288Y0239800D01*
X0112379Y0239800D01*
X0110614Y0239069D01*
X0109264Y0237719D01*
X0108533Y0235955D01*
X0108533Y0234045D01*
X0109264Y0232281D01*
X0110614Y0230931D01*
X0112379Y0230200D01*
X0114288Y0230200D01*
X0116052Y0230931D01*
X0117403Y0232281D01*
X0118133Y0234045D01*
X0117992Y0233704D02*
X0118287Y0233704D01*
X0118666Y0232705D02*
X0117578Y0232705D01*
X0116828Y0231707D02*
X0119298Y0231707D01*
X0120394Y0230708D02*
X0115515Y0230708D01*
X0111152Y0230708D02*
X0105515Y0230708D01*
X0106052Y0230931D02*
X0107403Y0232281D01*
X0108133Y0234045D01*
X0108133Y0235955D01*
X0107403Y0237719D01*
X0106052Y0239069D01*
X0104288Y0239800D01*
X0102379Y0239800D01*
X0100614Y0239069D01*
X0099264Y0237719D01*
X0098533Y0235955D01*
X0098533Y0234045D01*
X0099264Y0232281D01*
X0100614Y0230931D01*
X0102379Y0230200D01*
X0104288Y0230200D01*
X0106052Y0230931D01*
X0106828Y0231707D02*
X0109838Y0231707D01*
X0109088Y0232705D02*
X0107578Y0232705D01*
X0107992Y0233704D02*
X0108675Y0233704D01*
X0108533Y0234702D02*
X0108133Y0234702D01*
X0108133Y0235701D02*
X0108533Y0235701D01*
X0108842Y0236699D02*
X0107825Y0236699D01*
X0107411Y0237698D02*
X0109255Y0237698D01*
X0110241Y0238696D02*
X0106425Y0238696D01*
X0104542Y0239695D02*
X0112125Y0239695D01*
X0114542Y0239695D02*
X0121093Y0239695D01*
X0121337Y0239819D02*
X0120608Y0239447D01*
X0119946Y0238966D01*
X0119367Y0238388D01*
X0118886Y0237725D01*
X0118514Y0236996D01*
X0118261Y0236218D01*
X0118148Y0235500D01*
X0122833Y0235500D01*
X0122833Y0240186D01*
X0122116Y0240072D01*
X0121337Y0239819D01*
X0122833Y0239695D02*
X0123833Y0239695D01*
X0123833Y0238696D02*
X0122833Y0238696D01*
X0122833Y0237698D02*
X0123833Y0237698D01*
X0123833Y0236699D02*
X0122833Y0236699D01*
X0122833Y0235701D02*
X0123833Y0235701D01*
X0123833Y0232705D02*
X0122833Y0232705D01*
X0122833Y0231707D02*
X0123833Y0231707D01*
X0123833Y0230708D02*
X0122833Y0230708D01*
X0126273Y0230708D02*
X0130394Y0230708D01*
X0129298Y0231707D02*
X0127368Y0231707D01*
X0128000Y0232705D02*
X0128666Y0232705D01*
X0128418Y0236699D02*
X0128249Y0236699D01*
X0127795Y0237698D02*
X0128872Y0237698D01*
X0129676Y0238696D02*
X0126991Y0238696D01*
X0125573Y0239695D02*
X0131093Y0239695D01*
X0133833Y0234702D02*
X0138533Y0234702D01*
X0138533Y0235701D02*
X0138487Y0235701D01*
X0138249Y0236699D02*
X0138842Y0236699D01*
X0139255Y0237698D02*
X0137795Y0237698D01*
X0136991Y0238696D02*
X0140241Y0238696D01*
X0138675Y0233704D02*
X0138380Y0233704D01*
X0138000Y0232705D02*
X0139088Y0232705D01*
X0139838Y0231707D02*
X0137368Y0231707D01*
X0136273Y0230708D02*
X0141152Y0230708D01*
X0145515Y0230708D02*
X0151152Y0230708D01*
X0149838Y0231707D02*
X0146828Y0231707D01*
X0147578Y0232705D02*
X0149088Y0232705D01*
X0148675Y0233704D02*
X0147992Y0233704D01*
X0148133Y0234702D02*
X0148533Y0234702D01*
X0148533Y0235701D02*
X0148133Y0235701D01*
X0147825Y0236699D02*
X0148842Y0236699D01*
X0149255Y0237698D02*
X0147411Y0237698D01*
X0146425Y0238696D02*
X0150241Y0238696D01*
X0156425Y0238696D02*
X0160241Y0238696D01*
X0159255Y0237698D02*
X0157411Y0237698D01*
X0157825Y0236699D02*
X0158842Y0236699D01*
X0158533Y0235701D02*
X0158133Y0235701D01*
X0158133Y0234702D02*
X0158533Y0234702D01*
X0158675Y0233704D02*
X0157992Y0233704D01*
X0157578Y0232705D02*
X0159088Y0232705D01*
X0159838Y0231707D02*
X0156828Y0231707D01*
X0155515Y0230708D02*
X0161152Y0230708D01*
X0165515Y0230708D02*
X0171152Y0230708D01*
X0169838Y0231707D02*
X0166828Y0231707D01*
X0167578Y0232705D02*
X0169088Y0232705D01*
X0168675Y0233704D02*
X0167992Y0233704D01*
X0168133Y0234702D02*
X0168533Y0234702D01*
X0168533Y0235701D02*
X0168133Y0235701D01*
X0167825Y0236699D02*
X0168842Y0236699D01*
X0169255Y0237698D02*
X0167411Y0237698D01*
X0166425Y0238696D02*
X0170241Y0238696D01*
X0176425Y0238696D02*
X0180241Y0238696D01*
X0179255Y0237698D02*
X0177411Y0237698D01*
X0177825Y0236699D02*
X0178842Y0236699D01*
X0178533Y0235701D02*
X0178133Y0235701D01*
X0178133Y0234702D02*
X0178533Y0234702D01*
X0178675Y0233704D02*
X0177992Y0233704D01*
X0177578Y0232705D02*
X0179088Y0232705D01*
X0179838Y0231707D02*
X0176828Y0231707D01*
X0175515Y0230708D02*
X0181152Y0230708D01*
X0188606Y0231707D02*
X0189838Y0231707D01*
X0189605Y0230708D02*
X0191152Y0230708D01*
X0190603Y0229710D02*
X0191933Y0229710D01*
X0191933Y0228711D02*
X0191602Y0228711D01*
X0194733Y0228711D02*
X0210065Y0228711D01*
X0211063Y0229710D02*
X0194733Y0229710D01*
X0195515Y0230708D02*
X0206152Y0230708D01*
X0205614Y0230931D02*
X0207379Y0230200D01*
X0209288Y0230200D01*
X0211052Y0230931D01*
X0212403Y0232281D01*
X0213133Y0234045D01*
X0213133Y0235955D01*
X0212403Y0237719D01*
X0211052Y0239069D01*
X0209288Y0239800D01*
X0207379Y0239800D01*
X0205614Y0239069D01*
X0204264Y0237719D01*
X0203533Y0235955D01*
X0203533Y0234045D01*
X0204264Y0232281D01*
X0205614Y0230931D01*
X0204838Y0231707D02*
X0196828Y0231707D01*
X0197578Y0232705D02*
X0204088Y0232705D01*
X0203675Y0233704D02*
X0197992Y0233704D01*
X0198133Y0234702D02*
X0203533Y0234702D01*
X0203533Y0235701D02*
X0198133Y0235701D01*
X0197825Y0236699D02*
X0203842Y0236699D01*
X0204255Y0237698D02*
X0197411Y0237698D01*
X0196425Y0238696D02*
X0205241Y0238696D01*
X0207125Y0239695D02*
X0194542Y0239695D01*
X0194733Y0227713D02*
X0209066Y0227713D01*
X0208666Y0226714D02*
X0195296Y0226714D01*
X0196295Y0225716D02*
X0208666Y0225716D01*
X0208666Y0224717D02*
X0197293Y0224717D01*
X0198292Y0223719D02*
X0208666Y0223719D01*
X0208666Y0222720D02*
X0199290Y0222720D01*
X0200289Y0221722D02*
X0208666Y0221722D01*
X0208666Y0220723D02*
X0201287Y0220723D01*
X0201466Y0219725D02*
X0208666Y0219725D01*
X0206486Y0218726D02*
X0201466Y0218726D01*
X0201466Y0217728D02*
X0206466Y0217728D01*
X0206466Y0216729D02*
X0201466Y0216729D01*
X0201466Y0215731D02*
X0206466Y0215731D01*
X0206492Y0214732D02*
X0201466Y0214732D01*
X0201571Y0213734D02*
X0206466Y0213734D01*
X0206071Y0212735D02*
X0202356Y0212735D01*
X0202356Y0211737D02*
X0205072Y0211737D01*
X0198560Y0213734D02*
X0071388Y0213734D01*
X0072387Y0212735D02*
X0197775Y0212735D01*
X0197775Y0211737D02*
X0072810Y0211737D01*
X0073133Y0210738D02*
X0117091Y0210738D01*
X0116093Y0209739D02*
X0073133Y0209739D01*
X0073007Y0208741D02*
X0115094Y0208741D01*
X0114096Y0207742D02*
X0072594Y0207742D01*
X0071865Y0206744D02*
X0104338Y0206744D01*
X0103543Y0205745D02*
X0098621Y0205745D01*
X0099373Y0204747D02*
X0103543Y0204747D01*
X0103846Y0203748D02*
X0099373Y0203748D01*
X0099036Y0202750D02*
X0104844Y0202750D01*
X0106823Y0202750D02*
X0129103Y0202750D01*
X0128105Y0201751D02*
X0098473Y0201751D01*
X0098473Y0200753D02*
X0127106Y0200753D01*
X0126108Y0199754D02*
X0098473Y0199754D01*
X0098473Y0198756D02*
X0125109Y0198756D01*
X0124111Y0197757D02*
X0098473Y0197757D01*
X0098473Y0196759D02*
X0123112Y0196759D01*
X0122114Y0195760D02*
X0098473Y0195760D01*
X0098473Y0194762D02*
X0102396Y0194762D01*
X0101397Y0193763D02*
X0098473Y0193763D01*
X0098473Y0192765D02*
X0100399Y0192765D01*
X0099400Y0191766D02*
X0098473Y0191766D01*
X0095673Y0191766D02*
X0073227Y0191766D01*
X0073152Y0191996D02*
X0073405Y0191218D01*
X0073519Y0190500D01*
X0068833Y0190500D01*
X0068833Y0195186D01*
X0069551Y0195072D01*
X0070329Y0194819D01*
X0071059Y0194447D01*
X0071721Y0193966D01*
X0072300Y0193388D01*
X0072781Y0192725D01*
X0073152Y0191996D01*
X0072752Y0192765D02*
X0095673Y0192765D01*
X0095673Y0193763D02*
X0071924Y0193763D01*
X0070442Y0194762D02*
X0095673Y0194762D01*
X0095673Y0195760D02*
X0070641Y0195760D01*
X0071880Y0196759D02*
X0095673Y0196759D01*
X0095673Y0197757D02*
X0072600Y0197757D01*
X0073013Y0198756D02*
X0095673Y0198756D01*
X0095673Y0199754D02*
X0073133Y0199754D01*
X0073133Y0200753D02*
X0095673Y0200753D01*
X0095673Y0201751D02*
X0072803Y0201751D01*
X0072372Y0202750D02*
X0095111Y0202750D01*
X0094773Y0203748D02*
X0071373Y0203748D01*
X0070605Y0205745D02*
X0095526Y0205745D01*
X0094773Y0204747D02*
X0069416Y0204747D01*
X0067250Y0204747D02*
X0064833Y0204747D01*
X0064833Y0205745D02*
X0066062Y0205745D01*
X0065294Y0203748D02*
X0064833Y0203748D01*
X0064833Y0195760D02*
X0066026Y0195760D01*
X0066225Y0194762D02*
X0064833Y0194762D01*
X0067833Y0194762D02*
X0068833Y0194762D01*
X0068833Y0193763D02*
X0067833Y0193763D01*
X0067833Y0192765D02*
X0068833Y0192765D01*
X0068833Y0191766D02*
X0067833Y0191766D01*
X0067833Y0190768D02*
X0068833Y0190768D01*
X0068833Y0189769D02*
X0095673Y0189769D01*
X0095673Y0190768D02*
X0073477Y0190768D01*
X0073402Y0188771D02*
X0094708Y0188771D01*
X0093709Y0187772D02*
X0073034Y0187772D01*
X0072417Y0186774D02*
X0092711Y0186774D01*
X0092683Y0185775D02*
X0071365Y0185775D01*
X0068833Y0185775D02*
X0067833Y0185775D01*
X0067833Y0186774D02*
X0068833Y0186774D01*
X0068833Y0187772D02*
X0067833Y0187772D01*
X0067833Y0188771D02*
X0068833Y0188771D01*
X0065301Y0185775D02*
X0064833Y0185775D01*
X0064833Y0184777D02*
X0092683Y0184777D01*
X0092683Y0183778D02*
X0064833Y0183778D01*
X0064833Y0182780D02*
X0092683Y0182780D01*
X0092683Y0181781D02*
X0064833Y0181781D01*
X0064833Y0180783D02*
X0092683Y0180783D01*
X0091595Y0179784D02*
X0064833Y0179784D01*
X0064833Y0178786D02*
X0090883Y0178786D01*
X0090883Y0177787D02*
X0064833Y0177787D01*
X0064833Y0176789D02*
X0091262Y0176789D01*
X0093883Y0175790D02*
X0064833Y0175790D01*
X0064833Y0174792D02*
X0093883Y0174792D01*
X0093883Y0173793D02*
X0064833Y0173793D01*
X0064833Y0172795D02*
X0093883Y0172795D01*
X0093505Y0171796D02*
X0064833Y0171796D01*
X0064833Y0170798D02*
X0092507Y0170798D01*
X0091508Y0169799D02*
X0080077Y0169799D01*
X0077133Y0169799D02*
X0064833Y0169799D01*
X0064833Y0168801D02*
X0076315Y0168801D01*
X0076315Y0167802D02*
X0064833Y0167802D01*
X0064833Y0166803D02*
X0076594Y0166803D01*
X0077076Y0165805D02*
X0064833Y0165805D01*
X0064833Y0164806D02*
X0076315Y0164806D01*
X0076315Y0163808D02*
X0064833Y0163808D01*
X0064833Y0162809D02*
X0076651Y0162809D01*
X0077649Y0161811D02*
X0064833Y0161811D01*
X0064833Y0160812D02*
X0081666Y0160812D01*
X0080667Y0159814D02*
X0064833Y0159814D01*
X0064833Y0158815D02*
X0079669Y0158815D01*
X0078670Y0157817D02*
X0064833Y0157817D01*
X0064833Y0156818D02*
X0077672Y0156818D01*
X0076933Y0155820D02*
X0064833Y0155820D01*
X0064833Y0154821D02*
X0076933Y0154821D01*
X0076933Y0153823D02*
X0064833Y0153823D01*
X0064833Y0152824D02*
X0076668Y0152824D01*
X0076043Y0151826D02*
X0064833Y0151826D01*
X0064833Y0150827D02*
X0076043Y0150827D01*
X0076515Y0149829D02*
X0064833Y0149829D01*
X0064833Y0148830D02*
X0075013Y0148830D01*
X0074015Y0147832D02*
X0064833Y0147832D01*
X0064833Y0146833D02*
X0073016Y0146833D01*
X0072018Y0145835D02*
X0064833Y0145835D01*
X0064833Y0144836D02*
X0069760Y0144836D01*
X0068761Y0143838D02*
X0064833Y0143838D01*
X0064833Y0142839D02*
X0068570Y0142839D01*
X0068570Y0141841D02*
X0064833Y0141841D01*
X0064833Y0140842D02*
X0069477Y0140842D01*
X0069426Y0138845D02*
X0064833Y0138845D01*
X0064833Y0137847D02*
X0068533Y0137847D01*
X0068533Y0136848D02*
X0064833Y0136848D01*
X0064833Y0135850D02*
X0068731Y0135850D01*
X0069730Y0134851D02*
X0064833Y0134851D01*
X0064833Y0133853D02*
X0076501Y0133853D01*
X0075502Y0134851D02*
X0071937Y0134851D01*
X0072241Y0138845D02*
X0093583Y0138845D01*
X0093583Y0137847D02*
X0076467Y0137847D01*
X0077465Y0136848D02*
X0093583Y0136848D01*
X0093583Y0135850D02*
X0078464Y0135850D01*
X0079462Y0134851D02*
X0093583Y0134851D01*
X0093583Y0133853D02*
X0080461Y0133853D01*
X0081459Y0132854D02*
X0093583Y0132854D01*
X0093583Y0131856D02*
X0082458Y0131856D01*
X0083456Y0130857D02*
X0093583Y0130857D01*
X0093583Y0129859D02*
X0084455Y0129859D01*
X0085453Y0128860D02*
X0093583Y0128860D01*
X0093583Y0127862D02*
X0087800Y0127862D01*
X0088333Y0126863D02*
X0093583Y0126863D01*
X0093583Y0125865D02*
X0088449Y0125865D01*
X0089447Y0124866D02*
X0093583Y0124866D01*
X0093583Y0123868D02*
X0090043Y0123868D01*
X0090043Y0122869D02*
X0093583Y0122869D01*
X0093301Y0121870D02*
X0090043Y0121870D01*
X0090043Y0120872D02*
X0092983Y0120872D01*
X0092983Y0119873D02*
X0090043Y0119873D01*
X0090043Y0118875D02*
X0093756Y0118875D01*
X0095983Y0117876D02*
X0090043Y0117876D01*
X0090138Y0116878D02*
X0095983Y0116878D01*
X0095560Y0115879D02*
X0090933Y0115879D01*
X0090933Y0114881D02*
X0094947Y0114881D01*
X0094947Y0113882D02*
X0090630Y0113882D01*
X0089632Y0112884D02*
X0095424Y0112884D01*
X0097247Y0114314D02*
X0097583Y0114650D01*
X0097583Y0148169D01*
X0100083Y0150669D01*
X0100083Y0146339D02*
X0099547Y0145802D01*
X0099547Y0107114D01*
X0097533Y0105100D01*
X0095233Y0104896D02*
X0088333Y0104896D01*
X0088333Y0105894D02*
X0095233Y0105894D01*
X0096073Y0106893D02*
X0088333Y0106893D01*
X0088333Y0107891D02*
X0097947Y0107891D01*
X0097947Y0108890D02*
X0088333Y0108890D01*
X0088333Y0109888D02*
X0097947Y0109888D01*
X0097947Y0110887D02*
X0088333Y0110887D01*
X0088333Y0111885D02*
X0097947Y0111885D01*
X0101147Y0111885D02*
X0103498Y0111885D01*
X0103448Y0111935D02*
X0103448Y0111935D01*
X0102500Y0112884D02*
X0101147Y0112884D01*
X0101147Y0113882D02*
X0102333Y0113882D01*
X0102333Y0114881D02*
X0101147Y0114881D01*
X0101147Y0115879D02*
X0102333Y0115879D01*
X0102333Y0116878D02*
X0101147Y0116878D01*
X0101147Y0117876D02*
X0102669Y0117876D01*
X0101306Y0118875D02*
X0101147Y0118875D01*
X0107269Y0118875D02*
X0110333Y0118875D01*
X0111331Y0117876D02*
X0107269Y0117876D01*
X0107208Y0116878D02*
X0112330Y0116878D01*
X0113328Y0115879D02*
X0108133Y0115879D01*
X0108322Y0114881D02*
X0114327Y0114881D01*
X0115325Y0113882D02*
X0109321Y0113882D01*
X0110319Y0112884D02*
X0133045Y0112884D01*
X0134044Y0111885D02*
X0111318Y0111885D01*
X0112316Y0110887D02*
X0135042Y0110887D01*
X0136041Y0109888D02*
X0113315Y0109888D01*
X0114313Y0108890D02*
X0136533Y0108890D01*
X0137189Y0107891D02*
X0115312Y0107891D01*
X0116310Y0106893D02*
X0142733Y0106893D01*
X0142733Y0107891D02*
X0140477Y0107891D01*
X0141133Y0108890D02*
X0142733Y0108890D01*
X0142733Y0109888D02*
X0141133Y0109888D01*
X0140699Y0110887D02*
X0142733Y0110887D01*
X0141973Y0111885D02*
X0138852Y0111885D01*
X0137854Y0112884D02*
X0140975Y0112884D01*
X0139976Y0113882D02*
X0136855Y0113882D01*
X0135857Y0114881D02*
X0138978Y0114881D01*
X0132576Y0119873D02*
X0117537Y0119873D01*
X0116538Y0120872D02*
X0130318Y0120872D01*
X0129389Y0121870D02*
X0115540Y0121870D01*
X0114541Y0122869D02*
X0129389Y0122869D01*
X0129558Y0123868D02*
X0113543Y0123868D01*
X0112544Y0124866D02*
X0130556Y0124866D01*
X0132803Y0124866D02*
X0134887Y0124866D01*
X0133889Y0123868D02*
X0133802Y0123868D01*
X0137134Y0124866D02*
X0252422Y0124866D01*
X0252871Y0123868D02*
X0146544Y0123868D01*
X0146962Y0122869D02*
X0253475Y0122869D01*
X0254079Y0121870D02*
X0146962Y0121870D01*
X0146283Y0120872D02*
X0254729Y0120872D01*
X0255511Y0119873D02*
X0146430Y0119873D01*
X0147429Y0118875D02*
X0256293Y0118875D01*
X0257236Y0117876D02*
X0148427Y0117876D01*
X0149426Y0116878D02*
X0258234Y0116878D01*
X0259364Y0115879D02*
X0150424Y0115879D01*
X0151423Y0114881D02*
X0260638Y0114881D01*
X0262101Y0113882D02*
X0151533Y0113882D01*
X0151533Y0112884D02*
X0263752Y0112884D01*
X0265881Y0111885D02*
X0151533Y0111885D01*
X0151533Y0110887D02*
X0268618Y0110887D01*
X0273062Y0109888D02*
X0151533Y0109888D01*
X0151533Y0108890D02*
X0283333Y0108890D01*
X0283333Y0107891D02*
X0151533Y0107891D01*
X0151533Y0106893D02*
X0283333Y0106893D01*
X0283333Y0105894D02*
X0151533Y0105894D01*
X0151533Y0104896D02*
X0283333Y0104896D01*
X0283333Y0103897D02*
X0152925Y0103897D01*
X0153374Y0102899D02*
X0283333Y0102899D01*
X0283333Y0101900D02*
X0153374Y0101900D01*
X0152724Y0100902D02*
X0283333Y0100902D01*
X0283333Y0099903D02*
X0150333Y0099903D01*
X0150333Y0098905D02*
X0283333Y0098905D01*
X0283333Y0097906D02*
X0150333Y0097906D01*
X0150333Y0096908D02*
X0283333Y0096908D01*
X0283333Y0095909D02*
X0150333Y0095909D01*
X0150333Y0094911D02*
X0283333Y0094911D01*
X0283333Y0093912D02*
X0151660Y0093912D01*
X0152124Y0092914D02*
X0283333Y0092914D01*
X0283333Y0091915D02*
X0152124Y0091915D01*
X0152050Y0090917D02*
X0283333Y0090917D01*
X0283333Y0089918D02*
X0153049Y0089918D01*
X0154047Y0088920D02*
X0283333Y0088920D01*
X0283333Y0087921D02*
X0155046Y0087921D01*
X0156044Y0086923D02*
X0283333Y0086923D01*
X0283333Y0085924D02*
X0166377Y0085924D01*
X0166748Y0084926D02*
X0283333Y0084926D01*
X0283333Y0083927D02*
X0167616Y0083927D01*
X0168491Y0082929D02*
X0283333Y0082929D01*
X0283333Y0081930D02*
X0169656Y0081930D01*
X0170633Y0080932D02*
X0283333Y0080932D01*
X0283333Y0079933D02*
X0170633Y0079933D01*
X0170521Y0078934D02*
X0283333Y0078934D01*
X0283333Y0077936D02*
X0169522Y0077936D01*
X0167145Y0077936D02*
X0146733Y0077936D01*
X0146733Y0078934D02*
X0149553Y0078934D01*
X0148554Y0079933D02*
X0146733Y0079933D01*
X0146733Y0080932D02*
X0147556Y0080932D01*
X0147433Y0081930D02*
X0146733Y0081930D01*
X0146733Y0082929D02*
X0147433Y0082929D01*
X0147433Y0083927D02*
X0146733Y0083927D01*
X0146733Y0084926D02*
X0147433Y0084926D01*
X0147170Y0085924D02*
X0146733Y0085924D01*
X0142733Y0085924D02*
X0128450Y0085924D01*
X0129732Y0086923D02*
X0142733Y0086923D01*
X0142733Y0087921D02*
X0130731Y0087921D01*
X0131729Y0088920D02*
X0142733Y0088920D01*
X0142733Y0089918D02*
X0133010Y0089918D01*
X0134009Y0090917D02*
X0142733Y0090917D01*
X0142733Y0091915D02*
X0134268Y0091915D01*
X0134268Y0092914D02*
X0142733Y0092914D01*
X0142733Y0093912D02*
X0133437Y0093912D01*
X0130499Y0093912D02*
X0126662Y0093912D01*
X0126662Y0092914D02*
X0129668Y0092914D01*
X0128785Y0091915D02*
X0126662Y0091915D01*
X0126662Y0090917D02*
X0127786Y0090917D01*
X0122462Y0090917D02*
X0116893Y0090917D01*
X0116893Y0089918D02*
X0122462Y0089918D01*
X0122462Y0088920D02*
X0116765Y0088920D01*
X0115767Y0087921D02*
X0122462Y0087921D01*
X0122462Y0086923D02*
X0064833Y0086923D01*
X0064833Y0087921D02*
X0113419Y0087921D01*
X0112421Y0088920D02*
X0064833Y0088920D01*
X0064833Y0089918D02*
X0112293Y0089918D01*
X0112293Y0090917D02*
X0064833Y0090917D01*
X0065233Y0093500D02*
X0065233Y0126500D01*
X0083288Y0126500D01*
X0085462Y0124325D01*
X0086333Y0123454D01*
X0086333Y0122141D01*
X0085703Y0122402D01*
X0085033Y0122535D01*
X0084585Y0122535D01*
X0084585Y0119551D01*
X0083617Y0119551D01*
X0083617Y0118583D01*
X0080070Y0118583D01*
X0080175Y0118055D01*
X0080437Y0117424D01*
X0080816Y0116856D01*
X0081299Y0116373D01*
X0081868Y0115993D01*
X0082499Y0115732D01*
X0083169Y0115598D01*
X0083617Y0115598D01*
X0083617Y0118583D01*
X0084585Y0118583D01*
X0084585Y0115598D01*
X0085033Y0115598D01*
X0085703Y0115732D01*
X0086035Y0115869D01*
X0085952Y0115669D01*
X0085952Y0114599D01*
X0086333Y0113679D01*
X0086333Y0103007D01*
X0085703Y0103268D01*
X0085033Y0103402D01*
X0084585Y0103402D01*
X0084585Y0100417D01*
X0083617Y0100417D01*
X0083617Y0099449D01*
X0084585Y0099449D01*
X0084585Y0096465D01*
X0085033Y0096465D01*
X0085703Y0096598D01*
X0086333Y0096859D01*
X0086333Y0093500D01*
X0065233Y0093500D01*
X0065233Y0093912D02*
X0086333Y0093912D01*
X0086333Y0094911D02*
X0076572Y0094911D01*
X0076381Y0094813D02*
X0076978Y0095118D01*
X0077520Y0095511D01*
X0077993Y0095985D01*
X0078387Y0096527D01*
X0078691Y0097124D01*
X0078898Y0097761D01*
X0078977Y0098258D01*
X0073869Y0098258D01*
X0073869Y0099258D01*
X0072869Y0099258D01*
X0072869Y0103013D01*
X0071656Y0103013D01*
X0070995Y0102909D01*
X0070357Y0102702D01*
X0069761Y0102398D01*
X0069219Y0102004D01*
X0068745Y0101530D01*
X0068351Y0100988D01*
X0068047Y0100391D01*
X0067840Y0099754D01*
X0067761Y0099258D01*
X0072869Y0099258D01*
X0072869Y0098258D01*
X0067761Y0098258D01*
X0067840Y0097761D01*
X0068047Y0097124D01*
X0068351Y0096527D01*
X0068745Y0095985D01*
X0069219Y0095511D01*
X0069761Y0095118D01*
X0070357Y0094813D01*
X0070995Y0094606D01*
X0071656Y0094502D01*
X0072869Y0094502D01*
X0072869Y0098258D01*
X0073869Y0098258D01*
X0073869Y0094502D01*
X0075082Y0094502D01*
X0075744Y0094606D01*
X0076381Y0094813D01*
X0077917Y0095909D02*
X0086333Y0095909D01*
X0088333Y0095909D02*
X0113193Y0095909D01*
X0113193Y0094911D02*
X0088333Y0094911D01*
X0088333Y0093912D02*
X0113193Y0093912D01*
X0113193Y0092914D02*
X0088333Y0092914D01*
X0087577Y0091915D02*
X0113193Y0091915D01*
X0115993Y0091915D02*
X0122462Y0091915D01*
X0122462Y0092914D02*
X0115993Y0092914D01*
X0115993Y0093912D02*
X0122462Y0093912D01*
X0122353Y0094911D02*
X0115993Y0094911D01*
X0115993Y0095909D02*
X0121354Y0095909D01*
X0120356Y0096908D02*
X0115993Y0096908D01*
X0115993Y0097906D02*
X0119357Y0097906D01*
X0118359Y0098905D02*
X0115993Y0098905D01*
X0115993Y0099903D02*
X0117360Y0099903D01*
X0116362Y0100902D02*
X0115993Y0100902D01*
X0113193Y0100902D02*
X0088333Y0100902D01*
X0088333Y0101900D02*
X0113193Y0101900D01*
X0112485Y0102899D02*
X0098585Y0102899D01*
X0099583Y0103897D02*
X0111486Y0103897D01*
X0110488Y0104896D02*
X0099833Y0104896D01*
X0100590Y0105894D02*
X0109489Y0105894D01*
X0108491Y0106893D02*
X0101147Y0106893D01*
X0101147Y0107891D02*
X0107492Y0107891D01*
X0106494Y0108890D02*
X0101147Y0108890D01*
X0101147Y0109888D02*
X0105495Y0109888D01*
X0104497Y0110887D02*
X0101147Y0110887D01*
X0095483Y0103897D02*
X0088333Y0103897D01*
X0088333Y0102899D02*
X0096482Y0102899D01*
X0088333Y0099903D02*
X0113193Y0099903D01*
X0113193Y0098905D02*
X0088333Y0098905D01*
X0088333Y0097906D02*
X0113193Y0097906D01*
X0113193Y0096908D02*
X0088333Y0096908D01*
X0084585Y0096908D02*
X0083617Y0096908D01*
X0083617Y0096465D02*
X0083617Y0099449D01*
X0080070Y0099449D01*
X0080175Y0098921D01*
X0080437Y0098290D01*
X0080816Y0097722D01*
X0081299Y0097239D01*
X0081868Y0096859D01*
X0082499Y0096598D01*
X0083169Y0096465D01*
X0083617Y0096465D01*
X0083617Y0097906D02*
X0084585Y0097906D01*
X0084585Y0098905D02*
X0083617Y0098905D01*
X0083617Y0099903D02*
X0078850Y0099903D01*
X0078898Y0099754D02*
X0078691Y0100391D01*
X0078387Y0100988D01*
X0077993Y0101530D01*
X0077520Y0102004D01*
X0076978Y0102398D01*
X0076381Y0102702D01*
X0075744Y0102909D01*
X0075082Y0103013D01*
X0073869Y0103013D01*
X0073869Y0099258D01*
X0078977Y0099258D01*
X0078898Y0099754D01*
X0078431Y0100902D02*
X0080167Y0100902D01*
X0080175Y0100945D02*
X0080437Y0101576D01*
X0080816Y0102144D01*
X0081299Y0102627D01*
X0081868Y0103007D01*
X0082499Y0103268D01*
X0083169Y0103402D01*
X0083617Y0103402D01*
X0083617Y0100417D01*
X0080070Y0100417D01*
X0080175Y0100945D01*
X0080653Y0101900D02*
X0077623Y0101900D01*
X0075774Y0102899D02*
X0081706Y0102899D01*
X0083617Y0102899D02*
X0084585Y0102899D01*
X0084585Y0101900D02*
X0083617Y0101900D01*
X0083617Y0100902D02*
X0084585Y0100902D01*
X0086333Y0103897D02*
X0065233Y0103897D01*
X0065233Y0102899D02*
X0070964Y0102899D01*
X0072869Y0102899D02*
X0073869Y0102899D01*
X0073869Y0101900D02*
X0072869Y0101900D01*
X0072869Y0100902D02*
X0073869Y0100902D01*
X0073869Y0099903D02*
X0072869Y0099903D01*
X0072869Y0098905D02*
X0065233Y0098905D01*
X0065233Y0099903D02*
X0067888Y0099903D01*
X0068307Y0100902D02*
X0065233Y0100902D01*
X0065233Y0101900D02*
X0069115Y0101900D01*
X0067817Y0097906D02*
X0065233Y0097906D01*
X0065233Y0096908D02*
X0068157Y0096908D01*
X0068821Y0095909D02*
X0065233Y0095909D01*
X0065233Y0094911D02*
X0070167Y0094911D01*
X0072869Y0094911D02*
X0073869Y0094911D01*
X0073869Y0095909D02*
X0072869Y0095909D01*
X0072869Y0096908D02*
X0073869Y0096908D01*
X0073869Y0097906D02*
X0072869Y0097906D01*
X0073869Y0098905D02*
X0080182Y0098905D01*
X0080693Y0097906D02*
X0078921Y0097906D01*
X0078581Y0096908D02*
X0081795Y0096908D01*
X0086333Y0104896D02*
X0065233Y0104896D01*
X0065233Y0105894D02*
X0086333Y0105894D01*
X0086333Y0106893D02*
X0065233Y0106893D01*
X0065233Y0107891D02*
X0086333Y0107891D01*
X0086333Y0108890D02*
X0065233Y0108890D01*
X0065233Y0109888D02*
X0086333Y0109888D01*
X0086333Y0110887D02*
X0065233Y0110887D01*
X0065233Y0111885D02*
X0086333Y0111885D01*
X0086333Y0112884D02*
X0065233Y0112884D01*
X0065233Y0113882D02*
X0086249Y0113882D01*
X0085952Y0114881D02*
X0065233Y0114881D01*
X0065233Y0115879D02*
X0082142Y0115879D01*
X0083617Y0115879D02*
X0084585Y0115879D01*
X0084585Y0116878D02*
X0083617Y0116878D01*
X0083617Y0117876D02*
X0084585Y0117876D01*
X0083617Y0118875D02*
X0078774Y0118875D01*
X0078691Y0118620D02*
X0078898Y0119257D01*
X0078977Y0119754D01*
X0073869Y0119754D01*
X0073869Y0120754D01*
X0072869Y0120754D01*
X0072869Y0124510D01*
X0071656Y0124510D01*
X0070995Y0124405D01*
X0070357Y0124198D01*
X0069761Y0123894D01*
X0069219Y0123500D01*
X0068745Y0123026D01*
X0068351Y0122484D01*
X0068047Y0121887D01*
X0067840Y0121250D01*
X0067761Y0120754D01*
X0072869Y0120754D01*
X0072869Y0119754D01*
X0067761Y0119754D01*
X0067840Y0119257D01*
X0068047Y0118620D01*
X0068351Y0118023D01*
X0068745Y0117481D01*
X0069219Y0117007D01*
X0069761Y0116614D01*
X0070357Y0116310D01*
X0070995Y0116103D01*
X0071656Y0115998D01*
X0072869Y0115998D01*
X0072869Y0119754D01*
X0073869Y0119754D01*
X0073869Y0115998D01*
X0075082Y0115998D01*
X0075744Y0116103D01*
X0076381Y0116310D01*
X0076978Y0116614D01*
X0077520Y0117007D01*
X0077993Y0117481D01*
X0078387Y0118023D01*
X0078691Y0118620D01*
X0078280Y0117876D02*
X0080249Y0117876D01*
X0080802Y0116878D02*
X0077341Y0116878D01*
X0073869Y0116878D02*
X0072869Y0116878D01*
X0072869Y0117876D02*
X0073869Y0117876D01*
X0073869Y0118875D02*
X0072869Y0118875D01*
X0072869Y0119873D02*
X0065233Y0119873D01*
X0065233Y0118875D02*
X0067964Y0118875D01*
X0068458Y0117876D02*
X0065233Y0117876D01*
X0065233Y0116878D02*
X0069397Y0116878D01*
X0067780Y0120872D02*
X0065233Y0120872D01*
X0065233Y0121870D02*
X0068042Y0121870D01*
X0068631Y0122869D02*
X0065233Y0122869D01*
X0065233Y0123868D02*
X0069725Y0123868D01*
X0072869Y0123868D02*
X0073869Y0123868D01*
X0073869Y0124510D02*
X0075082Y0124510D01*
X0075744Y0124405D01*
X0076381Y0124198D01*
X0076978Y0123894D01*
X0077520Y0123500D01*
X0077993Y0123026D01*
X0078387Y0122484D01*
X0078691Y0121887D01*
X0078898Y0121250D01*
X0078977Y0120754D01*
X0073869Y0120754D01*
X0073869Y0124510D01*
X0073869Y0122869D02*
X0072869Y0122869D01*
X0072869Y0121870D02*
X0073869Y0121870D01*
X0073869Y0120872D02*
X0072869Y0120872D01*
X0073869Y0119873D02*
X0080134Y0119873D01*
X0080175Y0120079D02*
X0080070Y0119551D01*
X0083617Y0119551D01*
X0083617Y0122535D01*
X0083169Y0122535D01*
X0082499Y0122402D01*
X0081868Y0122141D01*
X0081299Y0121761D01*
X0080816Y0121278D01*
X0080437Y0120710D01*
X0080175Y0120079D01*
X0080545Y0120872D02*
X0078958Y0120872D01*
X0078697Y0121870D02*
X0081463Y0121870D01*
X0083617Y0121870D02*
X0084585Y0121870D01*
X0084585Y0120872D02*
X0083617Y0120872D01*
X0083617Y0119873D02*
X0084585Y0119873D01*
X0086333Y0122869D02*
X0078107Y0122869D01*
X0077013Y0123868D02*
X0085920Y0123868D01*
X0085462Y0124325D02*
X0085462Y0124325D01*
X0084922Y0124866D02*
X0065233Y0124866D01*
X0065233Y0125865D02*
X0083923Y0125865D01*
X0081493Y0128860D02*
X0064833Y0128860D01*
X0064833Y0129859D02*
X0080495Y0129859D01*
X0079496Y0130857D02*
X0064833Y0130857D01*
X0064833Y0131856D02*
X0078498Y0131856D01*
X0077499Y0132854D02*
X0064833Y0132854D01*
X0064833Y0139844D02*
X0093583Y0139844D01*
X0093583Y0140842D02*
X0072244Y0140842D01*
X0073151Y0141841D02*
X0093583Y0141841D01*
X0093583Y0142839D02*
X0073151Y0142839D01*
X0073980Y0143838D02*
X0093583Y0143838D01*
X0093583Y0144836D02*
X0074979Y0144836D01*
X0075977Y0145835D02*
X0093583Y0145835D01*
X0104783Y0145835D02*
X0203380Y0145835D01*
X0194764Y0144836D02*
X0104783Y0144836D01*
X0104783Y0143838D02*
X0194753Y0143838D01*
X0194753Y0142839D02*
X0104783Y0142839D01*
X0104783Y0141841D02*
X0194753Y0141841D01*
X0194753Y0140842D02*
X0104783Y0140842D01*
X0104783Y0139844D02*
X0194753Y0139844D01*
X0195098Y0138845D02*
X0104783Y0138845D01*
X0104783Y0137847D02*
X0203380Y0137847D01*
X0249836Y0136848D02*
X0104783Y0136848D01*
X0104783Y0135850D02*
X0249855Y0135850D01*
X0249916Y0134851D02*
X0104783Y0134851D01*
X0104783Y0133853D02*
X0249976Y0133853D01*
X0250037Y0132854D02*
X0104783Y0132854D01*
X0105555Y0131856D02*
X0250236Y0131856D01*
X0250419Y0130857D02*
X0106553Y0130857D01*
X0107552Y0129859D02*
X0250600Y0129859D01*
X0250911Y0128860D02*
X0108550Y0128860D01*
X0109549Y0127862D02*
X0251222Y0127862D01*
X0251523Y0126863D02*
X0110547Y0126863D01*
X0111546Y0125865D02*
X0251972Y0125865D01*
X0260336Y0129859D02*
X0283333Y0129859D01*
X0283333Y0130857D02*
X0259997Y0130857D01*
X0259676Y0131856D02*
X0283333Y0131856D01*
X0283333Y0132854D02*
X0259477Y0132854D01*
X0259279Y0133853D02*
X0283333Y0133853D01*
X0283333Y0134851D02*
X0259202Y0134851D01*
X0259137Y0135850D02*
X0283333Y0135850D01*
X0283333Y0136848D02*
X0259114Y0136848D01*
X0267382Y0137847D02*
X0283333Y0137847D01*
X0283333Y0138845D02*
X0267382Y0138845D01*
X0267382Y0138252D02*
X0267382Y0138252D01*
X0267382Y0139844D02*
X0283333Y0139844D01*
X0283333Y0140842D02*
X0267382Y0140842D01*
X0267382Y0141841D02*
X0283333Y0141841D01*
X0283333Y0142839D02*
X0267382Y0142839D01*
X0267382Y0143838D02*
X0283333Y0143838D01*
X0283333Y0144836D02*
X0267382Y0144836D01*
X0267382Y0145527D02*
X0267382Y0145527D01*
X0267382Y0145835D02*
X0283333Y0145835D01*
X0283333Y0146833D02*
X0104783Y0146833D01*
X0104783Y0147832D02*
X0283333Y0147832D01*
X0283333Y0148830D02*
X0104783Y0148830D01*
X0104783Y0149829D02*
X0283333Y0149829D01*
X0283333Y0150827D02*
X0104783Y0150827D01*
X0104783Y0151826D02*
X0283333Y0151826D01*
X0283333Y0152824D02*
X0104774Y0152824D01*
X0104774Y0153823D02*
X0283333Y0153823D01*
X0283333Y0154821D02*
X0104774Y0154821D01*
X0104774Y0155820D02*
X0283333Y0155820D01*
X0283333Y0156818D02*
X0104774Y0156818D01*
X0104774Y0157817D02*
X0283333Y0157817D01*
X0283333Y0158815D02*
X0104774Y0158815D01*
X0104774Y0159814D02*
X0283333Y0159814D01*
X0283333Y0160812D02*
X0104774Y0160812D01*
X0104237Y0161811D02*
X0283333Y0161811D01*
X0283333Y0162809D02*
X0103883Y0162809D01*
X0103883Y0163808D02*
X0283333Y0163808D01*
X0283333Y0164806D02*
X0103883Y0164806D01*
X0103883Y0165805D02*
X0283333Y0165805D01*
X0283333Y0166803D02*
X0103883Y0166803D01*
X0103883Y0167802D02*
X0283333Y0167802D01*
X0283333Y0168801D02*
X0103883Y0168801D01*
X0103883Y0169799D02*
X0283333Y0169799D01*
X0283333Y0170798D02*
X0103883Y0170798D01*
X0103883Y0171796D02*
X0283333Y0171796D01*
X0283333Y0172795D02*
X0103883Y0172795D01*
X0103883Y0173793D02*
X0283333Y0173793D01*
X0283333Y0174792D02*
X0103883Y0174792D01*
X0103883Y0175790D02*
X0151804Y0175790D01*
X0151043Y0176789D02*
X0103883Y0176789D01*
X0103883Y0177787D02*
X0151043Y0177787D01*
X0151380Y0178786D02*
X0103883Y0178786D01*
X0103883Y0179784D02*
X0152378Y0179784D01*
X0154636Y0180783D02*
X0103883Y0180783D01*
X0106079Y0181781D02*
X0155635Y0181781D01*
X0156633Y0182780D02*
X0106437Y0182780D01*
X0106437Y0183778D02*
X0157632Y0183778D01*
X0158630Y0184777D02*
X0105696Y0184777D01*
X0105854Y0185775D02*
X0125569Y0185775D01*
X0129098Y0185775D02*
X0137272Y0185775D01*
X0136273Y0186774D02*
X0129624Y0186774D01*
X0129624Y0187772D02*
X0136139Y0187772D01*
X0139588Y0185775D02*
X0159629Y0185775D01*
X0160627Y0186774D02*
X0140587Y0186774D01*
X0140720Y0187772D02*
X0181424Y0187772D01*
X0181351Y0188771D02*
X0140720Y0188771D01*
X0141206Y0189769D02*
X0180352Y0189769D01*
X0179867Y0190255D02*
X0179867Y0190255D01*
X0179354Y0190768D02*
X0141693Y0190768D01*
X0141693Y0191766D02*
X0155810Y0191766D01*
X0154811Y0192765D02*
X0141083Y0192765D01*
X0137723Y0192765D02*
X0127909Y0192765D01*
X0127725Y0193763D02*
X0154525Y0193763D01*
X0154525Y0194762D02*
X0126772Y0194762D01*
X0127771Y0195760D02*
X0155337Y0195760D01*
X0158295Y0195760D02*
X0180227Y0195760D01*
X0181226Y0196759D02*
X0128769Y0196759D01*
X0129768Y0197757D02*
X0182224Y0197757D01*
X0183223Y0198756D02*
X0130766Y0198756D01*
X0131765Y0199754D02*
X0184221Y0199754D01*
X0185220Y0200753D02*
X0132763Y0200753D01*
X0133762Y0201751D02*
X0186218Y0201751D01*
X0187217Y0202750D02*
X0167504Y0202750D01*
X0168124Y0203748D02*
X0187775Y0203748D01*
X0187954Y0204747D02*
X0172410Y0204747D01*
X0173124Y0205745D02*
X0188953Y0205745D01*
X0191178Y0205745D02*
X0202235Y0205745D01*
X0202155Y0204747D02*
X0192177Y0204747D01*
X0192356Y0203748D02*
X0202445Y0203748D01*
X0203256Y0202750D02*
X0192356Y0202750D01*
X0191437Y0201751D02*
X0215205Y0201751D01*
X0215067Y0202750D02*
X0206600Y0202750D01*
X0207411Y0203748D02*
X0214256Y0203748D01*
X0213966Y0204747D02*
X0207701Y0204747D01*
X0207621Y0205745D02*
X0214046Y0205745D01*
X0214561Y0206744D02*
X0207106Y0206744D01*
X0202750Y0206744D02*
X0173124Y0206744D01*
X0169257Y0204747D02*
X0168124Y0204747D01*
X0164163Y0202750D02*
X0134760Y0202750D01*
X0131100Y0204747D02*
X0115060Y0204747D01*
X0114062Y0203748D02*
X0130102Y0203748D01*
X0129508Y0205745D02*
X0116059Y0205745D01*
X0117057Y0206744D02*
X0128543Y0206744D01*
X0128543Y0207742D02*
X0118056Y0207742D01*
X0113097Y0206744D02*
X0107329Y0206744D01*
X0076595Y0223719D02*
X0174013Y0223719D01*
X0177653Y0223719D02*
X0192635Y0223719D01*
X0191636Y0224717D02*
X0075596Y0224717D01*
X0072588Y0217728D02*
X0194682Y0217728D01*
X0194916Y0218726D02*
X0182326Y0218726D01*
X0183133Y0219725D02*
X0194916Y0219725D01*
X0194916Y0220723D02*
X0183133Y0220723D01*
X0182850Y0221722D02*
X0194632Y0221722D01*
X0193633Y0222720D02*
X0181852Y0222720D01*
X0179815Y0222720D02*
X0178133Y0222720D01*
X0178133Y0221722D02*
X0178816Y0221722D01*
X0194025Y0216729D02*
X0071851Y0216729D01*
X0070569Y0215731D02*
X0194025Y0215731D01*
X0194466Y0214732D02*
X0069452Y0214732D01*
X0067215Y0214732D02*
X0064833Y0214732D01*
X0064833Y0213734D02*
X0065279Y0213734D01*
X0064833Y0215731D02*
X0066098Y0215731D01*
X0065249Y0233704D02*
X0064833Y0233704D01*
X0064833Y0234702D02*
X0067143Y0234702D01*
X0066170Y0235701D02*
X0064833Y0235701D01*
X0064833Y0236699D02*
X0064846Y0236699D01*
X0077850Y0240693D02*
X0081582Y0240693D01*
X0082580Y0241692D02*
X0078183Y0241692D01*
X0078183Y0242690D02*
X0083904Y0242690D01*
X0092763Y0242690D02*
X0283333Y0242690D01*
X0283333Y0241692D02*
X0094087Y0241692D01*
X0093318Y0242460D02*
X0093318Y0242460D01*
X0095085Y0240693D02*
X0283333Y0240693D01*
X0283333Y0239695D02*
X0279542Y0239695D01*
X0279288Y0239800D02*
X0277379Y0239800D01*
X0275614Y0239069D01*
X0274264Y0237719D01*
X0273533Y0235955D01*
X0273533Y0234045D01*
X0274264Y0232281D01*
X0275614Y0230931D01*
X0277379Y0230200D01*
X0279288Y0230200D01*
X0281052Y0230931D01*
X0282403Y0232281D01*
X0283133Y0234045D01*
X0283133Y0235955D01*
X0282403Y0237719D01*
X0281052Y0239069D01*
X0279288Y0239800D01*
X0277125Y0239695D02*
X0269542Y0239695D01*
X0269288Y0239800D02*
X0267379Y0239800D01*
X0265614Y0239069D01*
X0264264Y0237719D01*
X0263533Y0235955D01*
X0263533Y0234045D01*
X0264264Y0232281D01*
X0265614Y0230931D01*
X0267379Y0230200D01*
X0269288Y0230200D01*
X0271052Y0230931D01*
X0272403Y0232281D01*
X0273133Y0234045D01*
X0273133Y0235955D01*
X0272403Y0237719D01*
X0271052Y0239069D01*
X0269288Y0239800D01*
X0267125Y0239695D02*
X0259542Y0239695D01*
X0259288Y0239800D02*
X0257379Y0239800D01*
X0255614Y0239069D01*
X0254264Y0237719D01*
X0253533Y0235955D01*
X0253533Y0234045D01*
X0254264Y0232281D01*
X0255614Y0230931D01*
X0257379Y0230200D01*
X0259288Y0230200D01*
X0261052Y0230931D01*
X0262403Y0232281D01*
X0263133Y0234045D01*
X0263133Y0235955D01*
X0262403Y0237719D01*
X0261052Y0239069D01*
X0259288Y0239800D01*
X0257125Y0239695D02*
X0249542Y0239695D01*
X0249288Y0239800D02*
X0247379Y0239800D01*
X0245614Y0239069D01*
X0244264Y0237719D01*
X0243533Y0235955D01*
X0243533Y0234045D01*
X0244264Y0232281D01*
X0245614Y0230931D01*
X0247379Y0230200D01*
X0249288Y0230200D01*
X0251052Y0230931D01*
X0252403Y0232281D01*
X0253133Y0234045D01*
X0253133Y0235955D01*
X0252403Y0237719D01*
X0251052Y0239069D01*
X0249288Y0239800D01*
X0247125Y0239695D02*
X0239542Y0239695D01*
X0239288Y0239800D02*
X0237379Y0239800D01*
X0235614Y0239069D01*
X0234264Y0237719D01*
X0233533Y0235955D01*
X0233533Y0234045D01*
X0234264Y0232281D01*
X0235614Y0230931D01*
X0237379Y0230200D01*
X0239288Y0230200D01*
X0241052Y0230931D01*
X0242403Y0232281D01*
X0243133Y0234045D01*
X0243133Y0235955D01*
X0242403Y0237719D01*
X0241052Y0239069D01*
X0239288Y0239800D01*
X0237125Y0239695D02*
X0229542Y0239695D01*
X0231425Y0238696D02*
X0235241Y0238696D01*
X0234255Y0237698D02*
X0232411Y0237698D01*
X0232825Y0236699D02*
X0233842Y0236699D01*
X0233533Y0235701D02*
X0233133Y0235701D01*
X0233133Y0234702D02*
X0233533Y0234702D01*
X0233675Y0233704D02*
X0232992Y0233704D01*
X0232578Y0232705D02*
X0234088Y0232705D01*
X0234838Y0231707D02*
X0231828Y0231707D01*
X0230515Y0230708D02*
X0236152Y0230708D01*
X0240515Y0230708D02*
X0246152Y0230708D01*
X0244838Y0231707D02*
X0241828Y0231707D01*
X0242578Y0232705D02*
X0244088Y0232705D01*
X0243675Y0233704D02*
X0242992Y0233704D01*
X0243133Y0234702D02*
X0243533Y0234702D01*
X0243533Y0235701D02*
X0243133Y0235701D01*
X0242825Y0236699D02*
X0243842Y0236699D01*
X0244255Y0237698D02*
X0242411Y0237698D01*
X0241425Y0238696D02*
X0245241Y0238696D01*
X0251425Y0238696D02*
X0255241Y0238696D01*
X0254255Y0237698D02*
X0252411Y0237698D01*
X0252825Y0236699D02*
X0253842Y0236699D01*
X0253533Y0235701D02*
X0253133Y0235701D01*
X0253133Y0234702D02*
X0253533Y0234702D01*
X0253675Y0233704D02*
X0252992Y0233704D01*
X0252578Y0232705D02*
X0254088Y0232705D01*
X0254838Y0231707D02*
X0251828Y0231707D01*
X0250515Y0230708D02*
X0256152Y0230708D01*
X0260515Y0230708D02*
X0266152Y0230708D01*
X0264838Y0231707D02*
X0261828Y0231707D01*
X0262578Y0232705D02*
X0264088Y0232705D01*
X0263675Y0233704D02*
X0262992Y0233704D01*
X0263133Y0234702D02*
X0263533Y0234702D01*
X0263533Y0235701D02*
X0263133Y0235701D01*
X0262825Y0236699D02*
X0263842Y0236699D01*
X0264255Y0237698D02*
X0262411Y0237698D01*
X0261425Y0238696D02*
X0265241Y0238696D01*
X0271425Y0238696D02*
X0275241Y0238696D01*
X0274255Y0237698D02*
X0272411Y0237698D01*
X0272825Y0236699D02*
X0273842Y0236699D01*
X0273533Y0235701D02*
X0273133Y0235701D01*
X0273133Y0234702D02*
X0273533Y0234702D01*
X0273675Y0233704D02*
X0272992Y0233704D01*
X0272578Y0232705D02*
X0274088Y0232705D01*
X0274838Y0231707D02*
X0271828Y0231707D01*
X0270515Y0230708D02*
X0276152Y0230708D01*
X0280515Y0230708D02*
X0283333Y0230708D01*
X0283333Y0229710D02*
X0225023Y0229710D01*
X0226021Y0230708D02*
X0226152Y0230708D01*
X0224059Y0232705D02*
X0222578Y0232705D01*
X0222992Y0233704D02*
X0223675Y0233704D01*
X0223533Y0234702D02*
X0223133Y0234702D01*
X0223133Y0235701D02*
X0223533Y0235701D01*
X0223842Y0236699D02*
X0222825Y0236699D01*
X0222411Y0237698D02*
X0224255Y0237698D01*
X0225241Y0238696D02*
X0221425Y0238696D01*
X0219542Y0239695D02*
X0227125Y0239695D01*
X0217125Y0239695D02*
X0209542Y0239695D01*
X0211425Y0238696D02*
X0215241Y0238696D01*
X0214255Y0237698D02*
X0212411Y0237698D01*
X0212825Y0236699D02*
X0213842Y0236699D01*
X0213533Y0235701D02*
X0213133Y0235701D01*
X0213133Y0234702D02*
X0213533Y0234702D01*
X0213675Y0233704D02*
X0212992Y0233704D01*
X0212578Y0232705D02*
X0214059Y0232705D01*
X0213060Y0231707D02*
X0211828Y0231707D01*
X0212062Y0230708D02*
X0210515Y0230708D01*
X0213026Y0227713D02*
X0219066Y0227713D01*
X0218666Y0226714D02*
X0212027Y0226714D01*
X0211466Y0225716D02*
X0218666Y0225716D01*
X0218666Y0224717D02*
X0211466Y0224717D01*
X0211466Y0223719D02*
X0218666Y0223719D01*
X0218666Y0222720D02*
X0211466Y0222720D01*
X0211466Y0221722D02*
X0218666Y0221722D01*
X0218666Y0220723D02*
X0211466Y0220723D01*
X0211466Y0219725D02*
X0218666Y0219725D01*
X0216486Y0218726D02*
X0213645Y0218726D01*
X0213666Y0217728D02*
X0216466Y0217728D01*
X0216466Y0216729D02*
X0213666Y0216729D01*
X0213666Y0215731D02*
X0216466Y0215731D01*
X0216492Y0214732D02*
X0213639Y0214732D01*
X0213666Y0213734D02*
X0216466Y0213734D01*
X0216466Y0212735D02*
X0213666Y0212735D01*
X0213666Y0211737D02*
X0216466Y0211737D01*
X0215824Y0210738D02*
X0213109Y0210738D01*
X0217786Y0208741D02*
X0222083Y0208741D01*
X0222873Y0209739D02*
X0218785Y0209739D01*
X0217365Y0207742D02*
X0221196Y0207742D01*
X0220197Y0206744D02*
X0218917Y0206744D01*
X0221860Y0202750D02*
X0224083Y0202750D01*
X0224083Y0202303D02*
X0224186Y0201921D01*
X0224383Y0201579D01*
X0224562Y0201400D01*
X0220510Y0201400D01*
X0224235Y0205125D01*
X0226708Y0205125D01*
X0226708Y0204875D01*
X0224083Y0204875D01*
X0224083Y0202303D01*
X0224283Y0201751D02*
X0220862Y0201751D01*
X0222859Y0203748D02*
X0224083Y0203748D01*
X0224083Y0204747D02*
X0223857Y0204747D01*
X0223872Y0210738D02*
X0223109Y0210738D01*
X0223666Y0211737D02*
X0225190Y0211737D01*
X0226188Y0212735D02*
X0223666Y0212735D01*
X0223666Y0213734D02*
X0227187Y0213734D01*
X0228185Y0214732D02*
X0223639Y0214732D01*
X0223666Y0215731D02*
X0229184Y0215731D01*
X0229033Y0215580D02*
X0229033Y0215580D01*
X0233854Y0216729D02*
X0223666Y0216729D01*
X0223666Y0217728D02*
X0234273Y0217728D01*
X0235271Y0218726D02*
X0223645Y0218726D01*
X0221466Y0219725D02*
X0237197Y0219725D01*
X0239470Y0219725D02*
X0247197Y0219725D01*
X0245271Y0218726D02*
X0241395Y0218726D01*
X0242394Y0217728D02*
X0244273Y0217728D01*
X0243854Y0216729D02*
X0242813Y0216729D01*
X0243133Y0215731D02*
X0243533Y0215731D01*
X0243533Y0214732D02*
X0243133Y0214732D01*
X0243004Y0213734D02*
X0243662Y0213734D01*
X0244076Y0212735D02*
X0242591Y0212735D01*
X0243090Y0211737D02*
X0241858Y0211737D01*
X0244054Y0208741D02*
X0245286Y0208741D01*
X0245053Y0209739D02*
X0247232Y0209739D01*
X0246080Y0210738D02*
X0246051Y0210738D01*
X0244288Y0207742D02*
X0242379Y0207742D01*
X0242806Y0206744D02*
X0243860Y0206744D01*
X0243533Y0205745D02*
X0243133Y0205745D01*
X0243133Y0204747D02*
X0243533Y0204747D01*
X0243656Y0203748D02*
X0243010Y0203748D01*
X0242597Y0202750D02*
X0244070Y0202750D01*
X0243105Y0201751D02*
X0241873Y0201751D01*
X0244069Y0198756D02*
X0245301Y0198756D01*
X0245068Y0199754D02*
X0247268Y0199754D01*
X0249398Y0199754D02*
X0283333Y0199754D01*
X0283333Y0198756D02*
X0251366Y0198756D01*
X0252364Y0197757D02*
X0283333Y0197757D01*
X0283333Y0196759D02*
X0252800Y0196759D01*
X0253133Y0195760D02*
X0283333Y0195760D01*
X0283333Y0194762D02*
X0253133Y0194762D01*
X0253017Y0193763D02*
X0283333Y0193763D01*
X0283333Y0192765D02*
X0252603Y0192765D01*
X0251888Y0191766D02*
X0283333Y0191766D01*
X0283333Y0190768D02*
X0250659Y0190768D01*
X0245082Y0189769D02*
X0283333Y0189769D01*
X0283333Y0188771D02*
X0244084Y0188771D01*
X0243120Y0191766D02*
X0241888Y0191766D01*
X0242603Y0192765D02*
X0244064Y0192765D01*
X0243650Y0193763D02*
X0243017Y0193763D01*
X0243133Y0194762D02*
X0243533Y0194762D01*
X0243533Y0195760D02*
X0243133Y0195760D01*
X0242800Y0196759D02*
X0243866Y0196759D01*
X0244302Y0197757D02*
X0242364Y0197757D01*
X0250623Y0200753D02*
X0283333Y0200753D01*
X0283333Y0201751D02*
X0251873Y0201751D01*
X0252597Y0202750D02*
X0283333Y0202750D01*
X0283333Y0203748D02*
X0253010Y0203748D01*
X0253133Y0204747D02*
X0283333Y0204747D01*
X0283333Y0205745D02*
X0253133Y0205745D01*
X0252806Y0206744D02*
X0283333Y0206744D01*
X0283333Y0207742D02*
X0252379Y0207742D01*
X0251381Y0208741D02*
X0283333Y0208741D01*
X0283333Y0209739D02*
X0249434Y0209739D01*
X0250587Y0210738D02*
X0283333Y0210738D01*
X0283333Y0211737D02*
X0262375Y0211737D01*
X0262583Y0212735D02*
X0283333Y0212735D01*
X0283333Y0213734D02*
X0262583Y0213734D01*
X0262583Y0214732D02*
X0283333Y0214732D01*
X0283333Y0215731D02*
X0262583Y0215731D01*
X0262583Y0215125D02*
X0262583Y0217697D01*
X0262481Y0218079D01*
X0262284Y0218421D01*
X0262004Y0218700D01*
X0261662Y0218898D01*
X0261281Y0219000D01*
X0259958Y0219000D01*
X0259958Y0215125D01*
X0262583Y0215125D01*
X0262583Y0216729D02*
X0283333Y0216729D01*
X0283333Y0217728D02*
X0262575Y0217728D01*
X0261960Y0218726D02*
X0283333Y0218726D01*
X0283333Y0219725D02*
X0249470Y0219725D01*
X0251395Y0218726D02*
X0257707Y0218726D01*
X0259708Y0218726D02*
X0259958Y0218726D01*
X0259958Y0217728D02*
X0259708Y0217728D01*
X0259708Y0216729D02*
X0259958Y0216729D01*
X0259958Y0215731D02*
X0259733Y0215731D01*
X0259733Y0214732D02*
X0259958Y0214732D01*
X0259958Y0213734D02*
X0259708Y0213734D01*
X0259708Y0212735D02*
X0259958Y0212735D01*
X0259958Y0211737D02*
X0259708Y0211737D01*
X0253791Y0211737D02*
X0251858Y0211737D01*
X0252591Y0212735D02*
X0253483Y0212735D01*
X0253483Y0216729D02*
X0252813Y0216729D01*
X0252394Y0217728D02*
X0253483Y0217728D01*
X0224024Y0228711D02*
X0283333Y0228711D01*
X0283333Y0227713D02*
X0223026Y0227713D01*
X0222027Y0226714D02*
X0283333Y0226714D01*
X0283333Y0225716D02*
X0221466Y0225716D01*
X0221466Y0224717D02*
X0283333Y0224717D01*
X0283333Y0223719D02*
X0221466Y0223719D01*
X0221466Y0222720D02*
X0283333Y0222720D01*
X0283333Y0221722D02*
X0221466Y0221722D01*
X0221466Y0220723D02*
X0283333Y0220723D01*
X0283333Y0231707D02*
X0281828Y0231707D01*
X0282578Y0232705D02*
X0283333Y0232705D01*
X0283333Y0233704D02*
X0282992Y0233704D01*
X0283133Y0234702D02*
X0283333Y0234702D01*
X0283333Y0235701D02*
X0283133Y0235701D01*
X0283333Y0236699D02*
X0282825Y0236699D01*
X0282411Y0237698D02*
X0283333Y0237698D01*
X0283333Y0238696D02*
X0281425Y0238696D01*
X0223060Y0231707D02*
X0221828Y0231707D01*
X0222062Y0230708D02*
X0220515Y0230708D01*
X0221063Y0229710D02*
X0215023Y0229710D01*
X0216021Y0230708D02*
X0216152Y0230708D01*
X0214024Y0228711D02*
X0220065Y0228711D01*
X0198326Y0219725D02*
X0197716Y0219725D01*
X0197716Y0218726D02*
X0198666Y0218726D01*
X0198666Y0217728D02*
X0197949Y0217728D01*
X0198606Y0216729D02*
X0198666Y0216729D01*
X0198666Y0215731D02*
X0198606Y0215731D01*
X0198666Y0214732D02*
X0198165Y0214732D01*
X0189179Y0200753D02*
X0214206Y0200753D01*
X0213208Y0199754D02*
X0188181Y0199754D01*
X0187182Y0198756D02*
X0212209Y0198756D01*
X0211211Y0197757D02*
X0186184Y0197757D01*
X0185185Y0196759D02*
X0210212Y0196759D01*
X0209214Y0195760D02*
X0184187Y0195760D01*
X0183188Y0194762D02*
X0208215Y0194762D01*
X0207217Y0193763D02*
X0182190Y0193763D01*
X0181847Y0192765D02*
X0206218Y0192765D01*
X0205220Y0191766D02*
X0182315Y0191766D01*
X0183314Y0190768D02*
X0204221Y0190768D01*
X0203223Y0189769D02*
X0185571Y0189769D01*
X0186005Y0188771D02*
X0202224Y0188771D01*
X0201226Y0187772D02*
X0186005Y0187772D01*
X0179047Y0191766D02*
X0157821Y0191766D01*
X0167094Y0181781D02*
X0171516Y0181781D01*
X0170517Y0180783D02*
X0166096Y0180783D01*
X0165097Y0179784D02*
X0168259Y0179784D01*
X0167261Y0178786D02*
X0164099Y0178786D01*
X0163124Y0177787D02*
X0167043Y0177787D01*
X0167043Y0176789D02*
X0163124Y0176789D01*
X0162363Y0175790D02*
X0167923Y0175790D01*
X0170744Y0175790D02*
X0170785Y0175790D01*
X0176825Y0175790D02*
X0283333Y0175790D01*
X0283333Y0176789D02*
X0177586Y0176789D01*
X0177586Y0177787D02*
X0283333Y0177787D01*
X0283333Y0178786D02*
X0178561Y0178786D01*
X0156304Y0175790D02*
X0154863Y0175790D01*
X0205683Y0179784D02*
X0283333Y0179784D01*
X0283333Y0180783D02*
X0206681Y0180783D01*
X0207680Y0181781D02*
X0283333Y0181781D01*
X0283333Y0182780D02*
X0208678Y0182780D01*
X0209686Y0183778D02*
X0283333Y0183778D01*
X0283333Y0184777D02*
X0210684Y0184777D01*
X0211683Y0185775D02*
X0283333Y0185775D01*
X0283333Y0186774D02*
X0212681Y0186774D01*
X0213680Y0187772D02*
X0283333Y0187772D01*
X0283333Y0128860D02*
X0260787Y0128860D01*
X0261280Y0127862D02*
X0283333Y0127862D01*
X0283333Y0126863D02*
X0261897Y0126863D01*
X0262564Y0125865D02*
X0283333Y0125865D01*
X0283333Y0124866D02*
X0263406Y0124866D01*
X0264320Y0123868D02*
X0283333Y0123868D01*
X0283333Y0122869D02*
X0265459Y0122869D01*
X0266831Y0121870D02*
X0283333Y0121870D01*
X0283333Y0120872D02*
X0268540Y0120872D01*
X0270939Y0119873D02*
X0283333Y0119873D01*
X0283333Y0076937D02*
X0146733Y0076937D01*
X0146733Y0075939D02*
X0283333Y0075939D01*
X0283333Y0074940D02*
X0146733Y0074940D01*
X0146733Y0073942D02*
X0283333Y0073942D01*
X0283333Y0072943D02*
X0146733Y0072943D01*
X0146733Y0071945D02*
X0282333Y0071945D01*
X0281335Y0070946D02*
X0146733Y0070946D01*
X0146733Y0069948D02*
X0280358Y0069948D01*
X0279944Y0068949D02*
X0146733Y0068949D01*
X0146733Y0067951D02*
X0279531Y0067951D01*
X0279117Y0066952D02*
X0172861Y0066952D01*
X0173859Y0065954D02*
X0279033Y0065954D01*
X0279033Y0064955D02*
X0174733Y0064955D01*
X0174733Y0063957D02*
X0279033Y0063957D01*
X0279154Y0062958D02*
X0178881Y0062958D01*
X0178883Y0061960D02*
X0279568Y0061960D01*
X0279981Y0060961D02*
X0178883Y0060961D01*
X0178883Y0059963D02*
X0280425Y0059963D01*
X0280373Y0060015D02*
X0280373Y0060015D01*
X0281424Y0058964D02*
X0178883Y0058964D01*
X0178883Y0057966D02*
X0282422Y0057966D01*
X0282849Y0057540D02*
X0282849Y0057540D01*
X0283333Y0056967D02*
X0178806Y0056967D01*
X0177933Y0055969D02*
X0283333Y0055969D01*
X0283333Y0054970D02*
X0177933Y0054970D01*
X0177933Y0053972D02*
X0283333Y0053972D01*
X0283333Y0052973D02*
X0177933Y0052973D01*
X0177933Y0051975D02*
X0283333Y0051975D01*
X0283333Y0050976D02*
X0177933Y0050976D01*
X0177933Y0049978D02*
X0186825Y0049978D01*
X0187116Y0050072D02*
X0186337Y0049819D01*
X0185608Y0049447D01*
X0184946Y0048966D01*
X0184367Y0048388D01*
X0183886Y0047725D01*
X0183514Y0046996D01*
X0183261Y0046218D01*
X0183148Y0045500D01*
X0187833Y0045500D01*
X0187833Y0044500D01*
X0183148Y0044500D01*
X0183261Y0043782D01*
X0183514Y0043004D01*
X0183886Y0042275D01*
X0184367Y0041612D01*
X0184946Y0041034D01*
X0185608Y0040553D01*
X0186337Y0040181D01*
X0187116Y0039928D01*
X0187833Y0039814D01*
X0187833Y0044500D01*
X0188833Y0044500D01*
X0188833Y0039814D01*
X0189551Y0039928D01*
X0190329Y0040181D01*
X0191059Y0040553D01*
X0191721Y0041034D01*
X0192300Y0041612D01*
X0192781Y0042275D01*
X0193152Y0043004D01*
X0193333Y0043561D01*
X0193514Y0043004D01*
X0193886Y0042275D01*
X0194367Y0041612D01*
X0194946Y0041034D01*
X0195608Y0040553D01*
X0196337Y0040181D01*
X0197116Y0039928D01*
X0197833Y0039814D01*
X0197833Y0044500D01*
X0193148Y0044500D01*
X0188833Y0044500D01*
X0188833Y0045500D01*
X0187833Y0045500D01*
X0187833Y0050186D01*
X0187116Y0050072D01*
X0187833Y0049978D02*
X0188833Y0049978D01*
X0188833Y0050186D02*
X0188833Y0045500D01*
X0197833Y0045500D01*
X0197833Y0044500D01*
X0198833Y0044500D01*
X0198833Y0039814D01*
X0199551Y0039928D01*
X0200329Y0040181D01*
X0201059Y0040553D01*
X0201721Y0041034D01*
X0202300Y0041612D01*
X0202781Y0042275D01*
X0203152Y0043004D01*
X0203405Y0043782D01*
X0203519Y0044500D01*
X0198833Y0044500D01*
X0198833Y0045500D01*
X0197833Y0045500D01*
X0197833Y0050186D01*
X0197116Y0050072D01*
X0196337Y0049819D01*
X0195608Y0049447D01*
X0194946Y0048966D01*
X0194367Y0048388D01*
X0193886Y0047725D01*
X0193514Y0046996D01*
X0193333Y0046439D01*
X0193152Y0046996D01*
X0192781Y0047725D01*
X0192300Y0048388D01*
X0191721Y0048966D01*
X0191059Y0049447D01*
X0190329Y0049819D01*
X0189551Y0050072D01*
X0188833Y0050186D01*
X0189841Y0049978D02*
X0196825Y0049978D01*
X0197833Y0049978D02*
X0198833Y0049978D01*
X0198833Y0050186D02*
X0199551Y0050072D01*
X0200329Y0049819D01*
X0201059Y0049447D01*
X0201721Y0048966D01*
X0202300Y0048388D01*
X0202781Y0047725D01*
X0203152Y0046996D01*
X0203405Y0046218D01*
X0203519Y0045500D01*
X0198833Y0045500D01*
X0198833Y0050186D01*
X0199841Y0049978D02*
X0283333Y0049978D01*
X0283333Y0048979D02*
X0281142Y0048979D01*
X0281052Y0049069D02*
X0279288Y0049800D01*
X0277379Y0049800D01*
X0275614Y0049069D01*
X0274264Y0047719D01*
X0273533Y0045955D01*
X0273533Y0044045D01*
X0274264Y0042281D01*
X0275614Y0040931D01*
X0277379Y0040200D01*
X0279288Y0040200D01*
X0281052Y0040931D01*
X0282403Y0042281D01*
X0283133Y0044045D01*
X0283133Y0045955D01*
X0282403Y0047719D01*
X0281052Y0049069D01*
X0282141Y0047981D02*
X0283333Y0047981D01*
X0283333Y0046982D02*
X0282708Y0046982D01*
X0283121Y0045984D02*
X0283333Y0045984D01*
X0283333Y0044985D02*
X0283133Y0044985D01*
X0283109Y0043987D02*
X0283333Y0043987D01*
X0283333Y0042988D02*
X0282695Y0042988D01*
X0282111Y0041990D02*
X0283333Y0041990D01*
X0283333Y0040991D02*
X0281113Y0040991D01*
X0283333Y0039993D02*
X0199750Y0039993D01*
X0198833Y0039993D02*
X0197833Y0039993D01*
X0196917Y0039993D02*
X0189750Y0039993D01*
X0188833Y0039993D02*
X0187833Y0039993D01*
X0186917Y0039993D02*
X0090771Y0039993D01*
X0091198Y0040991D02*
X0135554Y0040991D01*
X0135614Y0040931D02*
X0134264Y0042281D01*
X0133533Y0044045D01*
X0133533Y0045955D01*
X0134264Y0047719D01*
X0135614Y0049069D01*
X0137379Y0049800D01*
X0139288Y0049800D01*
X0141052Y0049069D01*
X0142403Y0047719D01*
X0143133Y0045955D01*
X0143133Y0044045D01*
X0142403Y0042281D01*
X0141052Y0040931D01*
X0139288Y0040200D01*
X0137379Y0040200D01*
X0135614Y0040931D01*
X0134556Y0041990D02*
X0091611Y0041990D01*
X0092025Y0042988D02*
X0133971Y0042988D01*
X0133558Y0043987D02*
X0092133Y0043987D01*
X0092133Y0044985D02*
X0133533Y0044985D01*
X0133545Y0045984D02*
X0092133Y0045984D01*
X0092037Y0046982D02*
X0133959Y0046982D01*
X0134526Y0047981D02*
X0123341Y0047981D01*
X0123010Y0047649D02*
X0123790Y0048429D01*
X0124212Y0049448D01*
X0124212Y0050552D01*
X0123790Y0051571D01*
X0123010Y0052351D01*
X0121990Y0052773D01*
X0120887Y0052773D01*
X0119868Y0052351D01*
X0119088Y0051571D01*
X0118666Y0050552D01*
X0118666Y0049448D01*
X0119088Y0048429D01*
X0119868Y0047649D01*
X0120887Y0047227D01*
X0121990Y0047227D01*
X0123010Y0047649D01*
X0124018Y0048979D02*
X0135524Y0048979D01*
X0141142Y0048979D02*
X0143933Y0048979D01*
X0143933Y0047981D02*
X0142141Y0047981D01*
X0142708Y0046982D02*
X0143959Y0046982D01*
X0143545Y0045984D02*
X0143121Y0045984D01*
X0143133Y0044985D02*
X0143533Y0044985D01*
X0143558Y0043987D02*
X0143109Y0043987D01*
X0142695Y0042988D02*
X0143971Y0042988D01*
X0144556Y0041990D02*
X0142111Y0041990D01*
X0141113Y0040991D02*
X0145554Y0040991D01*
X0151113Y0040991D02*
X0155554Y0040991D01*
X0155614Y0040931D02*
X0157379Y0040200D01*
X0159288Y0040200D01*
X0161052Y0040931D01*
X0162403Y0042281D01*
X0163133Y0044045D01*
X0163133Y0045955D01*
X0162403Y0047719D01*
X0161052Y0049069D01*
X0159288Y0049800D01*
X0157379Y0049800D01*
X0155614Y0049069D01*
X0154264Y0047719D01*
X0153533Y0045955D01*
X0153533Y0044045D01*
X0154264Y0042281D01*
X0155614Y0040931D01*
X0154556Y0041990D02*
X0152111Y0041990D01*
X0152695Y0042988D02*
X0153971Y0042988D01*
X0153558Y0043987D02*
X0153109Y0043987D01*
X0153133Y0044985D02*
X0153533Y0044985D01*
X0153545Y0045984D02*
X0153121Y0045984D01*
X0152708Y0046982D02*
X0153959Y0046982D01*
X0154526Y0047981D02*
X0152141Y0047981D01*
X0151142Y0048979D02*
X0155524Y0048979D01*
X0161142Y0048979D02*
X0165524Y0048979D01*
X0164526Y0047981D02*
X0162141Y0047981D01*
X0162708Y0046982D02*
X0163959Y0046982D01*
X0163545Y0045984D02*
X0163121Y0045984D01*
X0163133Y0044985D02*
X0163533Y0044985D01*
X0163558Y0043987D02*
X0163109Y0043987D01*
X0162695Y0042988D02*
X0163971Y0042988D01*
X0164556Y0041990D02*
X0162111Y0041990D01*
X0161113Y0040991D02*
X0165554Y0040991D01*
X0171113Y0040991D02*
X0175554Y0040991D01*
X0174556Y0041990D02*
X0172111Y0041990D01*
X0172695Y0042988D02*
X0173971Y0042988D01*
X0173558Y0043987D02*
X0173109Y0043987D01*
X0173133Y0044985D02*
X0173533Y0044985D01*
X0173545Y0045984D02*
X0173121Y0045984D01*
X0172708Y0046982D02*
X0173959Y0046982D01*
X0174526Y0047981D02*
X0172141Y0047981D01*
X0171533Y0048979D02*
X0175133Y0048979D01*
X0175133Y0049978D02*
X0171533Y0049978D01*
X0171533Y0050976D02*
X0175133Y0050976D01*
X0175133Y0051975D02*
X0171533Y0051975D01*
X0171533Y0052973D02*
X0175133Y0052973D01*
X0175133Y0053972D02*
X0171533Y0053972D01*
X0171533Y0054970D02*
X0175133Y0054970D01*
X0175133Y0055969D02*
X0171533Y0055969D01*
X0168733Y0055969D02*
X0146733Y0055969D01*
X0146733Y0056967D02*
X0167860Y0056967D01*
X0167783Y0057966D02*
X0146733Y0057966D01*
X0146733Y0058964D02*
X0167783Y0058964D01*
X0167783Y0059963D02*
X0146733Y0059963D01*
X0146733Y0060961D02*
X0167783Y0060961D01*
X0167783Y0061960D02*
X0146733Y0061960D01*
X0146733Y0062958D02*
X0167786Y0062958D01*
X0171897Y0063957D02*
X0146733Y0063957D01*
X0142733Y0063957D02*
X0139733Y0063957D01*
X0139704Y0064955D02*
X0142733Y0064955D01*
X0142733Y0065954D02*
X0138706Y0065954D01*
X0137707Y0066952D02*
X0142733Y0066952D01*
X0142733Y0067951D02*
X0137480Y0067951D01*
X0136983Y0068949D02*
X0142733Y0068949D01*
X0142733Y0069948D02*
X0064833Y0069948D01*
X0064833Y0070946D02*
X0142733Y0070946D01*
X0142733Y0071945D02*
X0064833Y0071945D01*
X0064833Y0072943D02*
X0142733Y0072943D01*
X0142733Y0073942D02*
X0064833Y0073942D01*
X0064833Y0074940D02*
X0142733Y0074940D01*
X0142733Y0075939D02*
X0064833Y0075939D01*
X0064833Y0076937D02*
X0142733Y0076937D01*
X0142733Y0077936D02*
X0064833Y0077936D01*
X0064833Y0078934D02*
X0142733Y0078934D01*
X0142733Y0079933D02*
X0126413Y0079933D01*
X0127262Y0080932D02*
X0142733Y0080932D01*
X0142733Y0081930D02*
X0127262Y0081930D01*
X0127021Y0082929D02*
X0142733Y0082929D01*
X0142733Y0083927D02*
X0126662Y0083927D01*
X0126662Y0084926D02*
X0142733Y0084926D01*
X0142733Y0094911D02*
X0126662Y0094911D01*
X0126662Y0095909D02*
X0142733Y0095909D01*
X0142733Y0096908D02*
X0126295Y0096908D01*
X0125297Y0097906D02*
X0142733Y0097906D01*
X0142733Y0098905D02*
X0124298Y0098905D01*
X0123300Y0099903D02*
X0142733Y0099903D01*
X0142733Y0100902D02*
X0122301Y0100902D01*
X0121303Y0101900D02*
X0142733Y0101900D01*
X0142733Y0102899D02*
X0120304Y0102899D01*
X0119306Y0103897D02*
X0142733Y0103897D01*
X0142733Y0104896D02*
X0118307Y0104896D01*
X0117309Y0105894D02*
X0142733Y0105894D01*
X0142800Y0123868D02*
X0142213Y0123868D01*
X0138469Y0123868D02*
X0138132Y0123868D01*
X0109453Y0122300D02*
X0104386Y0122300D01*
X0103786Y0122900D01*
X0101881Y0122900D01*
X0101147Y0122166D01*
X0101147Y0130607D01*
X0101594Y0130159D01*
X0102483Y0129270D01*
X0109453Y0122300D01*
X0108884Y0122869D02*
X0103817Y0122869D01*
X0101850Y0122869D02*
X0101147Y0122869D01*
X0101147Y0123868D02*
X0107886Y0123868D01*
X0106887Y0124866D02*
X0101147Y0124866D01*
X0101147Y0125865D02*
X0105889Y0125865D01*
X0104890Y0126863D02*
X0101147Y0126863D01*
X0101147Y0127862D02*
X0103892Y0127862D01*
X0102893Y0128860D02*
X0101147Y0128860D01*
X0101147Y0129859D02*
X0101895Y0129859D01*
X0082664Y0161811D02*
X0079561Y0161811D01*
X0080559Y0162809D02*
X0083663Y0162809D01*
X0096081Y0230708D02*
X0101152Y0230708D01*
X0099838Y0231707D02*
X0096494Y0231707D01*
X0096908Y0232705D02*
X0099088Y0232705D01*
X0098675Y0233704D02*
X0097133Y0233704D01*
X0097133Y0234702D02*
X0098533Y0234702D01*
X0098533Y0235701D02*
X0097133Y0235701D01*
X0097133Y0236699D02*
X0098842Y0236699D01*
X0099255Y0237698D02*
X0096741Y0237698D01*
X0096327Y0238696D02*
X0100241Y0238696D01*
X0102125Y0239695D02*
X0095914Y0239695D01*
X0095794Y0239985D02*
X0095794Y0239985D01*
X0116425Y0238696D02*
X0119676Y0238696D01*
X0118872Y0237698D02*
X0117411Y0237698D01*
X0117825Y0236699D02*
X0118418Y0236699D01*
X0118180Y0235701D02*
X0118133Y0235701D01*
X0132833Y0233704D02*
X0133833Y0233704D01*
X0133833Y0232705D02*
X0132833Y0232705D01*
X0132833Y0231707D02*
X0133833Y0231707D01*
X0133833Y0230708D02*
X0132833Y0230708D01*
X0122462Y0085924D02*
X0064833Y0085924D01*
X0064833Y0084926D02*
X0122462Y0084926D01*
X0122462Y0083927D02*
X0064833Y0083927D01*
X0064833Y0082929D02*
X0122462Y0082929D01*
X0122462Y0081930D02*
X0064833Y0081930D01*
X0064833Y0080932D02*
X0122662Y0080932D01*
X0123511Y0079933D02*
X0064833Y0079933D01*
X0064833Y0068949D02*
X0119730Y0068949D01*
X0119233Y0067951D02*
X0064833Y0067951D01*
X0064833Y0066952D02*
X0119233Y0066952D01*
X0119827Y0065954D02*
X0064833Y0065954D01*
X0064833Y0064955D02*
X0135745Y0064955D01*
X0136743Y0063957D02*
X0064833Y0063957D01*
X0064833Y0062958D02*
X0134733Y0062958D01*
X0134733Y0061960D02*
X0064833Y0061960D01*
X0064833Y0060961D02*
X0134733Y0060961D01*
X0134733Y0059963D02*
X0064833Y0059963D01*
X0064833Y0058964D02*
X0134733Y0058964D01*
X0134733Y0057966D02*
X0064833Y0057966D01*
X0065987Y0056967D02*
X0117061Y0056967D01*
X0117385Y0057291D02*
X0116043Y0055949D01*
X0116043Y0054051D01*
X0117385Y0052709D01*
X0119282Y0052709D01*
X0119473Y0052900D01*
X0127094Y0052900D01*
X0127285Y0052709D01*
X0129182Y0052709D01*
X0130524Y0054051D01*
X0130524Y0055949D01*
X0129182Y0057291D01*
X0127285Y0057291D01*
X0127094Y0057100D01*
X0119473Y0057100D01*
X0119282Y0057291D01*
X0117385Y0057291D01*
X0116063Y0055969D02*
X0070040Y0055969D01*
X0070438Y0054970D02*
X0116043Y0054970D01*
X0116122Y0053972D02*
X0070093Y0053972D01*
X0069286Y0052973D02*
X0079587Y0052973D01*
X0077863Y0051975D02*
X0069873Y0051975D01*
X0070433Y0050976D02*
X0076864Y0050976D01*
X0075870Y0049978D02*
X0070433Y0049978D01*
X0069936Y0048979D02*
X0075457Y0048979D01*
X0075043Y0047981D02*
X0068893Y0047981D01*
X0069553Y0048443D02*
X0069553Y0048443D01*
X0068996Y0046982D02*
X0074629Y0046982D01*
X0074533Y0045984D02*
X0068956Y0045984D01*
X0069026Y0044985D02*
X0074533Y0044985D01*
X0074533Y0043987D02*
X0067865Y0043987D01*
X0067024Y0043987D02*
X0066468Y0043987D01*
X0067467Y0042988D02*
X0074642Y0042988D01*
X0075055Y0041990D02*
X0068465Y0041990D01*
X0069464Y0040991D02*
X0075469Y0040991D01*
X0075873Y0040015D02*
X0075873Y0040015D01*
X0075896Y0039993D02*
X0070462Y0039993D01*
X0071461Y0038994D02*
X0076894Y0038994D01*
X0077893Y0037996D02*
X0072459Y0037996D01*
X0073458Y0036997D02*
X0079659Y0036997D01*
X0078349Y0037540D02*
X0078349Y0037540D01*
X0087008Y0036997D02*
X0283333Y0036997D01*
X0283333Y0037996D02*
X0088774Y0037996D01*
X0089772Y0038994D02*
X0283333Y0038994D01*
X0275554Y0040991D02*
X0271113Y0040991D01*
X0271052Y0040931D02*
X0272403Y0042281D01*
X0273133Y0044045D01*
X0273133Y0045955D01*
X0272403Y0047719D01*
X0271052Y0049069D01*
X0269288Y0049800D01*
X0267379Y0049800D01*
X0265614Y0049069D01*
X0264264Y0047719D01*
X0263533Y0045955D01*
X0263533Y0044045D01*
X0264264Y0042281D01*
X0265614Y0040931D01*
X0267379Y0040200D01*
X0269288Y0040200D01*
X0271052Y0040931D01*
X0272111Y0041990D02*
X0274556Y0041990D01*
X0273971Y0042988D02*
X0272695Y0042988D01*
X0273109Y0043987D02*
X0273558Y0043987D01*
X0273533Y0044985D02*
X0273133Y0044985D01*
X0273121Y0045984D02*
X0273545Y0045984D01*
X0273959Y0046982D02*
X0272708Y0046982D01*
X0272141Y0047981D02*
X0274526Y0047981D01*
X0275524Y0048979D02*
X0271142Y0048979D01*
X0265524Y0048979D02*
X0261142Y0048979D01*
X0261052Y0049069D02*
X0259288Y0049800D01*
X0257379Y0049800D01*
X0255614Y0049069D01*
X0254264Y0047719D01*
X0253533Y0045955D01*
X0253533Y0044045D01*
X0254264Y0042281D01*
X0255614Y0040931D01*
X0257379Y0040200D01*
X0259288Y0040200D01*
X0261052Y0040931D01*
X0262403Y0042281D01*
X0263133Y0044045D01*
X0263133Y0045955D01*
X0262403Y0047719D01*
X0261052Y0049069D01*
X0262141Y0047981D02*
X0264526Y0047981D01*
X0263959Y0046982D02*
X0262708Y0046982D01*
X0263121Y0045984D02*
X0263545Y0045984D01*
X0263533Y0044985D02*
X0263133Y0044985D01*
X0263109Y0043987D02*
X0263558Y0043987D01*
X0263971Y0042988D02*
X0262695Y0042988D01*
X0262111Y0041990D02*
X0264556Y0041990D01*
X0265554Y0040991D02*
X0261113Y0040991D01*
X0255554Y0040991D02*
X0251113Y0040991D01*
X0251052Y0040931D02*
X0252403Y0042281D01*
X0253133Y0044045D01*
X0253133Y0045955D01*
X0252403Y0047719D01*
X0251052Y0049069D01*
X0249288Y0049800D01*
X0247379Y0049800D01*
X0245614Y0049069D01*
X0244264Y0047719D01*
X0243533Y0045955D01*
X0243533Y0044045D01*
X0244264Y0042281D01*
X0245614Y0040931D01*
X0247379Y0040200D01*
X0249288Y0040200D01*
X0251052Y0040931D01*
X0252111Y0041990D02*
X0254556Y0041990D01*
X0253971Y0042988D02*
X0252695Y0042988D01*
X0253109Y0043987D02*
X0253558Y0043987D01*
X0253533Y0044985D02*
X0253133Y0044985D01*
X0253121Y0045984D02*
X0253545Y0045984D01*
X0253959Y0046982D02*
X0252708Y0046982D01*
X0252141Y0047981D02*
X0254526Y0047981D01*
X0255524Y0048979D02*
X0251142Y0048979D01*
X0245524Y0048979D02*
X0241142Y0048979D01*
X0241052Y0049069D02*
X0239288Y0049800D01*
X0237379Y0049800D01*
X0235614Y0049069D01*
X0234264Y0047719D01*
X0233533Y0045955D01*
X0233533Y0044045D01*
X0234264Y0042281D01*
X0235614Y0040931D01*
X0237379Y0040200D01*
X0239288Y0040200D01*
X0241052Y0040931D01*
X0242403Y0042281D01*
X0243133Y0044045D01*
X0243133Y0045955D01*
X0242403Y0047719D01*
X0241052Y0049069D01*
X0242141Y0047981D02*
X0244526Y0047981D01*
X0243959Y0046982D02*
X0242708Y0046982D01*
X0243121Y0045984D02*
X0243545Y0045984D01*
X0243533Y0044985D02*
X0243133Y0044985D01*
X0243109Y0043987D02*
X0243558Y0043987D01*
X0243971Y0042988D02*
X0242695Y0042988D01*
X0242111Y0041990D02*
X0244556Y0041990D01*
X0245554Y0040991D02*
X0241113Y0040991D01*
X0235554Y0040991D02*
X0231113Y0040991D01*
X0231052Y0040931D02*
X0232403Y0042281D01*
X0233133Y0044045D01*
X0233133Y0045955D01*
X0232403Y0047719D01*
X0231052Y0049069D01*
X0229288Y0049800D01*
X0227379Y0049800D01*
X0225614Y0049069D01*
X0224264Y0047719D01*
X0223533Y0045955D01*
X0223533Y0044045D01*
X0224264Y0042281D01*
X0225614Y0040931D01*
X0227379Y0040200D01*
X0229288Y0040200D01*
X0231052Y0040931D01*
X0232111Y0041990D02*
X0234556Y0041990D01*
X0233971Y0042988D02*
X0232695Y0042988D01*
X0233109Y0043987D02*
X0233558Y0043987D01*
X0233533Y0044985D02*
X0233133Y0044985D01*
X0233121Y0045984D02*
X0233545Y0045984D01*
X0233959Y0046982D02*
X0232708Y0046982D01*
X0232141Y0047981D02*
X0234526Y0047981D01*
X0235524Y0048979D02*
X0231142Y0048979D01*
X0225524Y0048979D02*
X0211142Y0048979D01*
X0211052Y0049069D02*
X0209288Y0049800D01*
X0207379Y0049800D01*
X0205614Y0049069D01*
X0204264Y0047719D01*
X0203533Y0045955D01*
X0203533Y0044045D01*
X0204264Y0042281D01*
X0205614Y0040931D01*
X0207379Y0040200D01*
X0209288Y0040200D01*
X0211052Y0040931D01*
X0212403Y0042281D01*
X0213133Y0044045D01*
X0213133Y0045955D01*
X0212403Y0047719D01*
X0211052Y0049069D01*
X0212141Y0047981D02*
X0224526Y0047981D01*
X0223959Y0046982D02*
X0212708Y0046982D01*
X0213121Y0045984D02*
X0223545Y0045984D01*
X0223533Y0044985D02*
X0213133Y0044985D01*
X0213109Y0043987D02*
X0223558Y0043987D01*
X0223971Y0042988D02*
X0212695Y0042988D01*
X0212111Y0041990D02*
X0224556Y0041990D01*
X0225554Y0040991D02*
X0211113Y0040991D01*
X0205554Y0040991D02*
X0201662Y0040991D01*
X0202574Y0041990D02*
X0204556Y0041990D01*
X0203971Y0042988D02*
X0203144Y0042988D01*
X0203438Y0043987D02*
X0203558Y0043987D01*
X0203533Y0044985D02*
X0198833Y0044985D01*
X0198833Y0043987D02*
X0197833Y0043987D01*
X0197833Y0044985D02*
X0188833Y0044985D01*
X0188833Y0043987D02*
X0187833Y0043987D01*
X0187833Y0044985D02*
X0183133Y0044985D01*
X0183121Y0045984D02*
X0183224Y0045984D01*
X0183510Y0046982D02*
X0182708Y0046982D01*
X0182141Y0047981D02*
X0184071Y0047981D01*
X0184963Y0048979D02*
X0181142Y0048979D01*
X0183109Y0043987D02*
X0183229Y0043987D01*
X0183522Y0042988D02*
X0182695Y0042988D01*
X0182111Y0041990D02*
X0184093Y0041990D01*
X0185004Y0040991D02*
X0181113Y0040991D01*
X0187833Y0040991D02*
X0188833Y0040991D01*
X0188833Y0041990D02*
X0187833Y0041990D01*
X0187833Y0042988D02*
X0188833Y0042988D01*
X0188833Y0045984D02*
X0187833Y0045984D01*
X0187833Y0046982D02*
X0188833Y0046982D01*
X0188833Y0047981D02*
X0187833Y0047981D01*
X0187833Y0048979D02*
X0188833Y0048979D01*
X0191703Y0048979D02*
X0194963Y0048979D01*
X0194071Y0047981D02*
X0192595Y0047981D01*
X0193157Y0046982D02*
X0193510Y0046982D01*
X0193522Y0042988D02*
X0193144Y0042988D01*
X0192574Y0041990D02*
X0194093Y0041990D01*
X0195004Y0040991D02*
X0191662Y0040991D01*
X0197833Y0040991D02*
X0198833Y0040991D01*
X0198833Y0041990D02*
X0197833Y0041990D01*
X0197833Y0042988D02*
X0198833Y0042988D01*
X0198833Y0045984D02*
X0197833Y0045984D01*
X0197833Y0046982D02*
X0198833Y0046982D01*
X0198833Y0047981D02*
X0197833Y0047981D01*
X0197833Y0048979D02*
X0198833Y0048979D01*
X0201703Y0048979D02*
X0205524Y0048979D01*
X0204526Y0047981D02*
X0202595Y0047981D01*
X0203157Y0046982D02*
X0203959Y0046982D01*
X0203545Y0045984D02*
X0203442Y0045984D01*
X0168733Y0049978D02*
X0146733Y0049978D01*
X0146733Y0050976D02*
X0168733Y0050976D01*
X0168733Y0051975D02*
X0146733Y0051975D01*
X0146733Y0052973D02*
X0168733Y0052973D01*
X0168733Y0053972D02*
X0146733Y0053972D01*
X0146733Y0054970D02*
X0168733Y0054970D01*
X0143933Y0054970D02*
X0130524Y0054970D01*
X0130504Y0055969D02*
X0143933Y0055969D01*
X0143933Y0056967D02*
X0141933Y0056967D01*
X0143879Y0057966D02*
X0143933Y0057966D01*
X0142733Y0060961D02*
X0141933Y0060961D01*
X0141933Y0061960D02*
X0142733Y0061960D01*
X0142733Y0062958D02*
X0141933Y0062958D01*
X0134733Y0056967D02*
X0129505Y0056967D01*
X0130444Y0053972D02*
X0143933Y0053972D01*
X0143933Y0052973D02*
X0129446Y0052973D01*
X0124036Y0050976D02*
X0143933Y0050976D01*
X0143933Y0049978D02*
X0124212Y0049978D01*
X0123386Y0051975D02*
X0143933Y0051975D01*
X0119492Y0051975D02*
X0111575Y0051975D01*
X0111199Y0052351D02*
X0111979Y0051571D01*
X0112401Y0050552D01*
X0112401Y0049448D01*
X0111979Y0048429D01*
X0111199Y0047649D01*
X0110179Y0047227D01*
X0109076Y0047227D01*
X0108057Y0047649D01*
X0107277Y0048429D01*
X0106855Y0049448D01*
X0106855Y0050552D01*
X0107277Y0051571D01*
X0108057Y0052351D01*
X0109076Y0052773D01*
X0110179Y0052773D01*
X0111199Y0052351D01*
X0112225Y0050976D02*
X0118841Y0050976D01*
X0118666Y0049978D02*
X0112401Y0049978D01*
X0112207Y0048979D02*
X0118860Y0048979D01*
X0119536Y0047981D02*
X0111530Y0047981D01*
X0107725Y0047981D02*
X0091624Y0047981D01*
X0091210Y0048979D02*
X0107049Y0048979D01*
X0106855Y0049978D02*
X0090797Y0049978D01*
X0090794Y0049985D02*
X0090794Y0049985D01*
X0089802Y0050976D02*
X0107030Y0050976D01*
X0107681Y0051975D02*
X0088804Y0051975D01*
X0088318Y0052460D02*
X0088318Y0052460D01*
X0087080Y0052973D02*
X0117121Y0052973D01*
D22*
X0118333Y0055000D02*
X0128233Y0055000D01*
X0121533Y0067500D02*
X0135180Y0067500D01*
X0124962Y0081735D02*
X0124562Y0082135D01*
X0124562Y0095671D01*
X0116783Y0103450D01*
X0105833Y0114400D01*
X0131968Y0092128D02*
X0127974Y0088135D01*
X0127408Y0088135D01*
D23*
X0114593Y0090000D02*
X0114593Y0102770D01*
X0104848Y0112515D01*
X0103733Y0113630D01*
X0103733Y0116864D01*
X0104969Y0118100D01*
X0103883Y0129850D02*
X0117120Y0116614D01*
X0139225Y0116614D01*
X0144133Y0111705D01*
X0144133Y0060200D01*
X0142333Y0058400D01*
X0138333Y0058400D01*
X0138333Y0061600D02*
X0138333Y0064346D01*
X0135180Y0067500D01*
X0145333Y0066000D02*
X0145333Y0065000D01*
X0145333Y0048000D01*
X0148333Y0045000D01*
X0168333Y0045000D02*
X0170133Y0046800D01*
X0170133Y0060000D01*
X0173333Y0060000D02*
X0173333Y0064500D01*
X0171833Y0066000D01*
X0148333Y0066000D01*
X0145333Y0066000D01*
X0145333Y0065000D02*
X0145333Y0112202D01*
X0139722Y0117814D01*
X0117617Y0117814D01*
X0103383Y0132047D01*
X0103383Y0152036D01*
X0103374Y0152046D01*
X0103374Y0160694D01*
X0102483Y0161584D01*
X0102483Y0181425D01*
X0104146Y0183087D01*
X0101283Y0183184D02*
X0105349Y0187250D01*
X0127333Y0187250D01*
X0124727Y0191741D02*
X0104749Y0191741D01*
X0097683Y0184675D01*
X0097683Y0170600D01*
X0089087Y0162004D01*
X0084837Y0162004D01*
X0078333Y0155500D01*
X0078333Y0151250D01*
X0078083Y0148125D02*
X0076288Y0148125D01*
X0070860Y0142698D01*
X0076288Y0148125D02*
X0078083Y0148125D01*
X0095483Y0148125D01*
X0095483Y0150000D01*
X0100083Y0155000D02*
X0097993Y0157091D01*
X0097993Y0160197D01*
X0098883Y0161087D01*
X0098883Y0184178D01*
X0105246Y0190541D01*
X0138738Y0190541D01*
X0139403Y0191206D01*
X0136946Y0189341D02*
X0105743Y0189341D01*
X0100083Y0183681D01*
X0100083Y0159331D01*
X0101283Y0161087D02*
X0101283Y0183184D01*
X0096483Y0185172D02*
X0104252Y0192941D01*
X0122971Y0192941D01*
X0134349Y0204319D01*
X0165833Y0204319D01*
X0170833Y0206409D02*
X0134743Y0206409D01*
X0122474Y0194141D01*
X0103754Y0194141D01*
X0095283Y0185669D01*
X0095283Y0171594D01*
X0091721Y0168031D01*
X0078605Y0168031D01*
X0079605Y0165094D02*
X0078605Y0164094D01*
X0079605Y0165094D02*
X0090481Y0165094D01*
X0096483Y0171097D01*
X0096483Y0185172D01*
X0094083Y0186166D02*
X0094083Y0179020D01*
X0093183Y0178120D01*
X0094083Y0186166D02*
X0097073Y0189157D01*
X0097073Y0204040D01*
X0105833Y0205000D02*
X0113333Y0205000D01*
X0118083Y0209750D01*
X0205066Y0209750D01*
X0208316Y0213000D01*
X0210066Y0213000D01*
X0210066Y0217000D02*
X0210066Y0226732D01*
X0218333Y0235000D01*
X0220066Y0226732D02*
X0228333Y0235000D01*
X0220066Y0226732D02*
X0220066Y0217000D01*
X0220066Y0213000D02*
X0215566Y0208500D01*
X0131674Y0208500D01*
X0130833Y0207659D01*
X0125618Y0192631D02*
X0124727Y0191741D01*
X0136946Y0189341D02*
X0138430Y0187856D01*
X0153333Y0177500D02*
X0162133Y0186300D01*
X0182845Y0186300D01*
X0182848Y0186296D01*
X0201730Y0186296D01*
X0223483Y0208050D01*
X0223483Y0208370D01*
X0224713Y0209600D01*
X0225033Y0209600D01*
X0230433Y0215000D01*
X0233333Y0215000D01*
X0238333Y0215000D01*
X0233333Y0215000D02*
X0230433Y0215000D01*
X0228333Y0210000D02*
X0227130Y0210000D01*
X0225530Y0208400D01*
X0225211Y0208400D01*
X0224683Y0207873D01*
X0224683Y0207553D01*
X0202227Y0185096D01*
X0182351Y0185096D01*
X0182348Y0185100D01*
X0165433Y0185100D01*
X0157833Y0177500D01*
X0160833Y0177500D02*
X0167233Y0183900D01*
X0181851Y0183900D01*
X0181854Y0183896D01*
X0202724Y0183896D01*
X0207927Y0189100D01*
X0207933Y0189100D01*
X0218833Y0200000D01*
X0233333Y0200000D01*
X0238333Y0205000D01*
X0230833Y0205000D01*
X0228333Y0210000D02*
X0243333Y0210000D01*
X0248333Y0215000D01*
X0255833Y0215000D01*
X0248333Y0205000D02*
X0243333Y0200000D01*
X0235030Y0200000D01*
X0233830Y0198800D01*
X0219333Y0198800D01*
X0207833Y0187300D01*
X0207825Y0187300D01*
X0203221Y0182696D01*
X0181357Y0182696D01*
X0181354Y0182700D01*
X0174414Y0182700D01*
X0169333Y0177619D01*
X0172314Y0177500D02*
X0176314Y0181500D01*
X0180857Y0181500D01*
X0180860Y0181496D01*
X0203718Y0181496D01*
X0208322Y0186100D01*
X0208330Y0186100D01*
X0217230Y0195000D01*
X0238333Y0195000D01*
X0243333Y0190000D02*
X0248333Y0195000D01*
X0243333Y0190000D02*
X0213927Y0190000D01*
X0208827Y0184900D01*
X0208819Y0184900D01*
X0204215Y0180296D01*
X0180363Y0180296D01*
X0180360Y0180300D01*
X0178096Y0180300D01*
X0175296Y0177500D01*
X0183714Y0188387D02*
X0180447Y0191655D01*
X0180447Y0194000D01*
X0190066Y0203619D01*
X0200066Y0212000D02*
X0200066Y0219965D01*
X0193333Y0226697D01*
X0193333Y0235000D01*
X0183333Y0235000D02*
X0196316Y0222018D01*
X0196316Y0216122D01*
X0180833Y0220486D02*
X0180348Y0220000D01*
X0068333Y0220000D01*
X0076048Y0222286D02*
X0068333Y0230000D01*
X0076048Y0222286D02*
X0175833Y0222286D01*
X0180447Y0194000D02*
X0156816Y0194000D01*
X0102174Y0160197D02*
X0102174Y0151549D01*
X0102183Y0151539D01*
X0102183Y0145469D01*
X0102174Y0145459D01*
X0102174Y0131559D01*
X0103883Y0129850D01*
X0088643Y0123691D02*
X0087262Y0125071D01*
X0083583Y0128750D01*
X0075333Y0137000D01*
X0070833Y0137000D01*
X0088643Y0123691D02*
X0088643Y0115134D01*
X0131680Y0122750D02*
X0135416Y0119014D01*
X0138333Y0119014D01*
X0140219Y0119014D01*
X0146533Y0112699D01*
X0146533Y0089800D01*
X0148833Y0087500D01*
X0148833Y0081634D01*
X0150467Y0080000D01*
X0168333Y0080000D01*
X0166191Y0082100D02*
X0165791Y0082500D01*
X0153333Y0082500D01*
X0150924Y0082500D01*
X0150924Y0084591D01*
X0150924Y0088366D01*
X0147733Y0091556D01*
X0147733Y0113196D01*
X0140716Y0120214D01*
X0138547Y0120214D01*
X0136010Y0122750D01*
X0140341Y0122500D02*
X0140341Y0121992D01*
X0140920Y0121414D01*
X0141213Y0121414D01*
X0148933Y0113694D01*
X0148933Y0093400D01*
X0149833Y0092500D01*
X0149833Y0091154D01*
X0156387Y0084600D01*
X0164448Y0084600D01*
X0151083Y0102500D02*
X0150133Y0103450D01*
X0150133Y0114191D01*
X0144672Y0119652D01*
X0144672Y0122500D01*
X0102174Y0160197D02*
X0101283Y0161087D01*
X0227130Y0210000D02*
X0228333Y0210000D01*
X0176533Y0060000D02*
X0176533Y0046800D01*
X0178333Y0045000D01*
D24*
X0138833Y0109500D02*
X0133220Y0115114D01*
X0116498Y0115114D01*
X0111012Y0120600D01*
X0102833Y0120600D01*
X0105833Y0115000D02*
X0105833Y0114400D01*
X0095283Y0120600D02*
X0095283Y0149900D01*
X0095483Y0150100D01*
X0095483Y0150000D01*
X0095483Y0150100D02*
X0095483Y0165350D01*
X0095443Y0165390D01*
M02*
