G75*
%MOIN*%
%OFA0B0*%
%FSLAX25Y25*%
%IPPOS*%
%LPD*%
%AMOC8*
5,1,8,0,0,1.08239X$1,22.5*
%
%ADD10C,0.00800*%
%ADD11C,0.00079*%
%ADD12C,0.00000*%
D10*
X0063333Y0045000D02*
X0063333Y0245000D01*
X0331333Y0245000D01*
X0331333Y0035000D01*
X0073333Y0035000D01*
X0063333Y0045000D01*
D11*
X0071030Y0097374D02*
X0073392Y0097374D01*
X0073463Y0097384D01*
X0073532Y0097398D01*
X0073601Y0097416D01*
X0073669Y0097437D01*
X0073736Y0097462D01*
X0073801Y0097491D01*
X0073865Y0097523D01*
X0073926Y0097558D01*
X0073986Y0097596D01*
X0074044Y0097638D01*
X0074099Y0097683D01*
X0074153Y0097730D01*
X0074203Y0097780D01*
X0074251Y0097833D01*
X0074296Y0097888D01*
X0074337Y0097946D01*
X0074376Y0098005D01*
X0074412Y0098067D01*
X0074444Y0098130D01*
X0074473Y0098196D01*
X0074498Y0098262D01*
X0074520Y0098330D01*
X0074538Y0098399D01*
X0074553Y0098468D01*
X0074563Y0098538D01*
X0074570Y0098609D01*
X0074574Y0098680D01*
X0074573Y0098751D01*
X0074573Y0098752D02*
X0074574Y0098823D01*
X0074570Y0098894D01*
X0074563Y0098965D01*
X0074553Y0099035D01*
X0074538Y0099104D01*
X0074520Y0099173D01*
X0074498Y0099241D01*
X0074473Y0099307D01*
X0074444Y0099373D01*
X0074412Y0099436D01*
X0074376Y0099498D01*
X0074337Y0099557D01*
X0074296Y0099615D01*
X0074251Y0099670D01*
X0074203Y0099723D01*
X0074153Y0099773D01*
X0074099Y0099820D01*
X0074044Y0099865D01*
X0073986Y0099907D01*
X0073926Y0099945D01*
X0073865Y0099980D01*
X0073801Y0100012D01*
X0073736Y0100041D01*
X0073669Y0100066D01*
X0073601Y0100087D01*
X0073532Y0100105D01*
X0073463Y0100119D01*
X0073392Y0100129D01*
X0073392Y0100130D02*
X0071030Y0100130D01*
X0071031Y0100129D02*
X0070960Y0100119D01*
X0070891Y0100105D01*
X0070822Y0100087D01*
X0070754Y0100066D01*
X0070687Y0100041D01*
X0070622Y0100012D01*
X0070558Y0099980D01*
X0070497Y0099945D01*
X0070437Y0099907D01*
X0070379Y0099865D01*
X0070324Y0099820D01*
X0070270Y0099773D01*
X0070220Y0099723D01*
X0070172Y0099670D01*
X0070127Y0099615D01*
X0070086Y0099557D01*
X0070047Y0099498D01*
X0070011Y0099436D01*
X0069979Y0099373D01*
X0069950Y0099307D01*
X0069925Y0099241D01*
X0069903Y0099173D01*
X0069885Y0099104D01*
X0069870Y0099035D01*
X0069860Y0098965D01*
X0069853Y0098894D01*
X0069849Y0098823D01*
X0069850Y0098752D01*
X0069850Y0098751D02*
X0069849Y0098680D01*
X0069853Y0098609D01*
X0069860Y0098538D01*
X0069870Y0098468D01*
X0069885Y0098399D01*
X0069903Y0098330D01*
X0069925Y0098262D01*
X0069950Y0098196D01*
X0069979Y0098130D01*
X0070011Y0098067D01*
X0070047Y0098005D01*
X0070086Y0097946D01*
X0070127Y0097888D01*
X0070172Y0097833D01*
X0070220Y0097780D01*
X0070270Y0097730D01*
X0070324Y0097683D01*
X0070379Y0097638D01*
X0070437Y0097596D01*
X0070497Y0097558D01*
X0070558Y0097523D01*
X0070622Y0097491D01*
X0070687Y0097462D01*
X0070754Y0097437D01*
X0070822Y0097416D01*
X0070891Y0097398D01*
X0070960Y0097384D01*
X0071031Y0097374D01*
X0083353Y0098654D02*
X0084928Y0098654D01*
X0084928Y0098653D02*
X0084997Y0098655D01*
X0085066Y0098661D01*
X0085135Y0098670D01*
X0085203Y0098683D01*
X0085270Y0098700D01*
X0085337Y0098720D01*
X0085402Y0098744D01*
X0085465Y0098771D01*
X0085528Y0098802D01*
X0085588Y0098836D01*
X0085646Y0098874D01*
X0085703Y0098914D01*
X0085757Y0098957D01*
X0085808Y0099004D01*
X0085857Y0099053D01*
X0085904Y0099104D01*
X0085947Y0099158D01*
X0085987Y0099215D01*
X0086025Y0099273D01*
X0086059Y0099333D01*
X0086090Y0099396D01*
X0086117Y0099459D01*
X0086141Y0099524D01*
X0086161Y0099591D01*
X0086178Y0099658D01*
X0086191Y0099726D01*
X0086200Y0099795D01*
X0086206Y0099864D01*
X0086208Y0099933D01*
X0086207Y0100003D01*
X0086202Y0100072D01*
X0086194Y0100141D01*
X0086182Y0100210D01*
X0086166Y0100277D01*
X0086146Y0100344D01*
X0086122Y0100410D01*
X0086095Y0100474D01*
X0086065Y0100536D01*
X0086031Y0100597D01*
X0085994Y0100656D01*
X0085953Y0100713D01*
X0085910Y0100767D01*
X0085863Y0100819D01*
X0085814Y0100868D01*
X0085762Y0100915D01*
X0085708Y0100958D01*
X0085651Y0100999D01*
X0085592Y0101036D01*
X0085531Y0101070D01*
X0085469Y0101100D01*
X0085405Y0101127D01*
X0085339Y0101151D01*
X0085272Y0101171D01*
X0085205Y0101187D01*
X0085136Y0101199D01*
X0085067Y0101207D01*
X0084998Y0101212D01*
X0084928Y0101213D01*
X0083353Y0101213D01*
X0083281Y0101208D01*
X0083209Y0101199D01*
X0083138Y0101186D01*
X0083067Y0101169D01*
X0082998Y0101149D01*
X0082930Y0101124D01*
X0082863Y0101097D01*
X0082798Y0101065D01*
X0082734Y0101030D01*
X0082673Y0100992D01*
X0082614Y0100951D01*
X0082557Y0100906D01*
X0082502Y0100858D01*
X0082451Y0100808D01*
X0082402Y0100754D01*
X0082356Y0100699D01*
X0082313Y0100640D01*
X0082273Y0100580D01*
X0082237Y0100517D01*
X0082204Y0100453D01*
X0082174Y0100387D01*
X0082149Y0100319D01*
X0082126Y0100250D01*
X0082108Y0100180D01*
X0082094Y0100109D01*
X0082083Y0100038D01*
X0082076Y0099966D01*
X0082073Y0099893D01*
X0082074Y0099893D02*
X0082072Y0099826D01*
X0082074Y0099759D01*
X0082080Y0099692D01*
X0082090Y0099625D01*
X0082103Y0099559D01*
X0082120Y0099494D01*
X0082141Y0099430D01*
X0082166Y0099368D01*
X0082194Y0099306D01*
X0082226Y0099247D01*
X0082260Y0099189D01*
X0082298Y0099134D01*
X0082340Y0099081D01*
X0082384Y0099030D01*
X0082431Y0098982D01*
X0082480Y0098936D01*
X0082533Y0098894D01*
X0082587Y0098854D01*
X0082644Y0098818D01*
X0082702Y0098785D01*
X0082763Y0098755D01*
X0082825Y0098729D01*
X0082888Y0098707D01*
X0082953Y0098688D01*
X0083018Y0098672D01*
X0083085Y0098661D01*
X0083151Y0098653D01*
X0083219Y0098649D01*
X0083286Y0098649D01*
X0083353Y0098653D01*
X0083353Y0117787D02*
X0084928Y0117787D01*
X0084997Y0117789D01*
X0085066Y0117795D01*
X0085135Y0117804D01*
X0085203Y0117817D01*
X0085270Y0117834D01*
X0085337Y0117854D01*
X0085402Y0117878D01*
X0085465Y0117905D01*
X0085528Y0117936D01*
X0085588Y0117970D01*
X0085646Y0118008D01*
X0085703Y0118048D01*
X0085757Y0118091D01*
X0085808Y0118138D01*
X0085857Y0118187D01*
X0085904Y0118238D01*
X0085947Y0118292D01*
X0085987Y0118349D01*
X0086025Y0118407D01*
X0086059Y0118467D01*
X0086090Y0118530D01*
X0086117Y0118593D01*
X0086141Y0118658D01*
X0086161Y0118725D01*
X0086178Y0118792D01*
X0086191Y0118860D01*
X0086200Y0118929D01*
X0086206Y0118998D01*
X0086208Y0119067D01*
X0086207Y0119137D01*
X0086202Y0119206D01*
X0086194Y0119275D01*
X0086182Y0119344D01*
X0086166Y0119411D01*
X0086146Y0119478D01*
X0086122Y0119544D01*
X0086095Y0119608D01*
X0086065Y0119670D01*
X0086031Y0119731D01*
X0085994Y0119790D01*
X0085953Y0119847D01*
X0085910Y0119901D01*
X0085863Y0119953D01*
X0085814Y0120002D01*
X0085762Y0120049D01*
X0085708Y0120092D01*
X0085651Y0120133D01*
X0085592Y0120170D01*
X0085531Y0120204D01*
X0085469Y0120234D01*
X0085405Y0120261D01*
X0085339Y0120285D01*
X0085272Y0120305D01*
X0085205Y0120321D01*
X0085136Y0120333D01*
X0085067Y0120341D01*
X0084998Y0120346D01*
X0084928Y0120347D01*
X0084928Y0120346D02*
X0083353Y0120346D01*
X0083353Y0120347D02*
X0083281Y0120342D01*
X0083209Y0120333D01*
X0083138Y0120320D01*
X0083067Y0120303D01*
X0082998Y0120283D01*
X0082930Y0120258D01*
X0082863Y0120231D01*
X0082798Y0120199D01*
X0082734Y0120164D01*
X0082673Y0120126D01*
X0082614Y0120085D01*
X0082557Y0120040D01*
X0082502Y0119992D01*
X0082451Y0119942D01*
X0082402Y0119888D01*
X0082356Y0119833D01*
X0082313Y0119774D01*
X0082273Y0119714D01*
X0082237Y0119651D01*
X0082204Y0119587D01*
X0082174Y0119521D01*
X0082149Y0119453D01*
X0082126Y0119384D01*
X0082108Y0119314D01*
X0082094Y0119243D01*
X0082083Y0119172D01*
X0082076Y0119100D01*
X0082073Y0119027D01*
X0082074Y0119027D02*
X0082072Y0118960D01*
X0082074Y0118893D01*
X0082080Y0118826D01*
X0082090Y0118759D01*
X0082103Y0118693D01*
X0082120Y0118628D01*
X0082141Y0118564D01*
X0082166Y0118502D01*
X0082194Y0118440D01*
X0082226Y0118381D01*
X0082260Y0118323D01*
X0082298Y0118268D01*
X0082340Y0118215D01*
X0082384Y0118164D01*
X0082431Y0118116D01*
X0082480Y0118070D01*
X0082533Y0118028D01*
X0082587Y0117988D01*
X0082644Y0117952D01*
X0082702Y0117919D01*
X0082763Y0117889D01*
X0082825Y0117863D01*
X0082888Y0117841D01*
X0082953Y0117822D01*
X0083018Y0117806D01*
X0083085Y0117795D01*
X0083151Y0117787D01*
X0083219Y0117783D01*
X0083286Y0117783D01*
X0083353Y0117787D01*
X0073392Y0118870D02*
X0071030Y0118870D01*
X0071031Y0118871D02*
X0070960Y0118881D01*
X0070891Y0118895D01*
X0070822Y0118913D01*
X0070754Y0118934D01*
X0070687Y0118959D01*
X0070622Y0118988D01*
X0070558Y0119020D01*
X0070497Y0119055D01*
X0070437Y0119093D01*
X0070379Y0119135D01*
X0070324Y0119180D01*
X0070270Y0119227D01*
X0070220Y0119277D01*
X0070172Y0119330D01*
X0070127Y0119385D01*
X0070086Y0119443D01*
X0070047Y0119502D01*
X0070011Y0119564D01*
X0069979Y0119627D01*
X0069950Y0119693D01*
X0069925Y0119759D01*
X0069903Y0119827D01*
X0069885Y0119896D01*
X0069870Y0119965D01*
X0069860Y0120035D01*
X0069853Y0120106D01*
X0069849Y0120177D01*
X0069850Y0120248D01*
X0069850Y0120249D02*
X0069849Y0120320D01*
X0069853Y0120391D01*
X0069860Y0120462D01*
X0069870Y0120532D01*
X0069885Y0120601D01*
X0069903Y0120670D01*
X0069925Y0120738D01*
X0069950Y0120804D01*
X0069979Y0120870D01*
X0070011Y0120933D01*
X0070047Y0120995D01*
X0070086Y0121054D01*
X0070127Y0121112D01*
X0070172Y0121167D01*
X0070220Y0121220D01*
X0070270Y0121270D01*
X0070324Y0121317D01*
X0070379Y0121362D01*
X0070437Y0121404D01*
X0070497Y0121442D01*
X0070558Y0121477D01*
X0070622Y0121509D01*
X0070687Y0121538D01*
X0070754Y0121563D01*
X0070822Y0121584D01*
X0070891Y0121602D01*
X0070960Y0121616D01*
X0071031Y0121626D01*
X0071030Y0121626D02*
X0073392Y0121626D01*
X0073463Y0121616D01*
X0073532Y0121602D01*
X0073601Y0121584D01*
X0073669Y0121563D01*
X0073736Y0121538D01*
X0073801Y0121509D01*
X0073865Y0121477D01*
X0073926Y0121442D01*
X0073986Y0121404D01*
X0074044Y0121362D01*
X0074099Y0121317D01*
X0074153Y0121270D01*
X0074203Y0121220D01*
X0074251Y0121167D01*
X0074296Y0121112D01*
X0074337Y0121054D01*
X0074376Y0120995D01*
X0074412Y0120933D01*
X0074444Y0120870D01*
X0074473Y0120804D01*
X0074498Y0120738D01*
X0074520Y0120670D01*
X0074538Y0120601D01*
X0074553Y0120532D01*
X0074563Y0120462D01*
X0074570Y0120391D01*
X0074574Y0120320D01*
X0074573Y0120249D01*
X0074573Y0120248D02*
X0074574Y0120177D01*
X0074570Y0120106D01*
X0074563Y0120035D01*
X0074553Y0119965D01*
X0074538Y0119896D01*
X0074520Y0119827D01*
X0074498Y0119759D01*
X0074473Y0119693D01*
X0074444Y0119627D01*
X0074412Y0119564D01*
X0074376Y0119502D01*
X0074337Y0119443D01*
X0074296Y0119385D01*
X0074251Y0119330D01*
X0074203Y0119277D01*
X0074153Y0119227D01*
X0074099Y0119180D01*
X0074044Y0119135D01*
X0073986Y0119093D01*
X0073926Y0119055D01*
X0073865Y0119020D01*
X0073801Y0118988D01*
X0073736Y0118959D01*
X0073669Y0118934D01*
X0073601Y0118913D01*
X0073532Y0118895D01*
X0073463Y0118881D01*
X0073392Y0118871D01*
D12*
X0107955Y0050000D02*
X0107957Y0050081D01*
X0107963Y0050163D01*
X0107973Y0050244D01*
X0107987Y0050324D01*
X0108004Y0050403D01*
X0108026Y0050482D01*
X0108051Y0050559D01*
X0108080Y0050636D01*
X0108113Y0050710D01*
X0108150Y0050783D01*
X0108189Y0050854D01*
X0108233Y0050923D01*
X0108279Y0050990D01*
X0108329Y0051054D01*
X0108382Y0051116D01*
X0108438Y0051176D01*
X0108496Y0051232D01*
X0108558Y0051286D01*
X0108622Y0051337D01*
X0108688Y0051384D01*
X0108756Y0051428D01*
X0108827Y0051469D01*
X0108899Y0051506D01*
X0108974Y0051540D01*
X0109049Y0051570D01*
X0109127Y0051596D01*
X0109205Y0051619D01*
X0109284Y0051637D01*
X0109364Y0051652D01*
X0109445Y0051663D01*
X0109526Y0051670D01*
X0109608Y0051673D01*
X0109689Y0051672D01*
X0109770Y0051667D01*
X0109851Y0051658D01*
X0109932Y0051645D01*
X0110012Y0051628D01*
X0110090Y0051608D01*
X0110168Y0051583D01*
X0110245Y0051555D01*
X0110320Y0051523D01*
X0110393Y0051488D01*
X0110464Y0051449D01*
X0110534Y0051406D01*
X0110601Y0051361D01*
X0110667Y0051312D01*
X0110729Y0051260D01*
X0110789Y0051204D01*
X0110846Y0051146D01*
X0110901Y0051086D01*
X0110952Y0051022D01*
X0111000Y0050957D01*
X0111045Y0050889D01*
X0111087Y0050819D01*
X0111125Y0050747D01*
X0111160Y0050673D01*
X0111191Y0050598D01*
X0111218Y0050521D01*
X0111241Y0050443D01*
X0111261Y0050364D01*
X0111277Y0050284D01*
X0111289Y0050203D01*
X0111297Y0050122D01*
X0111301Y0050041D01*
X0111301Y0049959D01*
X0111297Y0049878D01*
X0111289Y0049797D01*
X0111277Y0049716D01*
X0111261Y0049636D01*
X0111241Y0049557D01*
X0111218Y0049479D01*
X0111191Y0049402D01*
X0111160Y0049327D01*
X0111125Y0049253D01*
X0111087Y0049181D01*
X0111045Y0049111D01*
X0111000Y0049043D01*
X0110952Y0048978D01*
X0110901Y0048914D01*
X0110846Y0048854D01*
X0110789Y0048796D01*
X0110729Y0048740D01*
X0110667Y0048688D01*
X0110601Y0048639D01*
X0110534Y0048594D01*
X0110465Y0048551D01*
X0110393Y0048512D01*
X0110320Y0048477D01*
X0110245Y0048445D01*
X0110168Y0048417D01*
X0110090Y0048392D01*
X0110012Y0048372D01*
X0109932Y0048355D01*
X0109851Y0048342D01*
X0109770Y0048333D01*
X0109689Y0048328D01*
X0109608Y0048327D01*
X0109526Y0048330D01*
X0109445Y0048337D01*
X0109364Y0048348D01*
X0109284Y0048363D01*
X0109205Y0048381D01*
X0109127Y0048404D01*
X0109049Y0048430D01*
X0108974Y0048460D01*
X0108899Y0048494D01*
X0108827Y0048531D01*
X0108756Y0048572D01*
X0108688Y0048616D01*
X0108622Y0048663D01*
X0108558Y0048714D01*
X0108496Y0048768D01*
X0108438Y0048824D01*
X0108382Y0048884D01*
X0108329Y0048946D01*
X0108279Y0049010D01*
X0108233Y0049077D01*
X0108189Y0049146D01*
X0108150Y0049217D01*
X0108113Y0049290D01*
X0108080Y0049364D01*
X0108051Y0049441D01*
X0108026Y0049518D01*
X0108004Y0049597D01*
X0107987Y0049676D01*
X0107973Y0049756D01*
X0107963Y0049837D01*
X0107957Y0049919D01*
X0107955Y0050000D01*
X0119766Y0050000D02*
X0119768Y0050081D01*
X0119774Y0050163D01*
X0119784Y0050244D01*
X0119798Y0050324D01*
X0119815Y0050403D01*
X0119837Y0050482D01*
X0119862Y0050559D01*
X0119891Y0050636D01*
X0119924Y0050710D01*
X0119961Y0050783D01*
X0120000Y0050854D01*
X0120044Y0050923D01*
X0120090Y0050990D01*
X0120140Y0051054D01*
X0120193Y0051116D01*
X0120249Y0051176D01*
X0120307Y0051232D01*
X0120369Y0051286D01*
X0120433Y0051337D01*
X0120499Y0051384D01*
X0120567Y0051428D01*
X0120638Y0051469D01*
X0120710Y0051506D01*
X0120785Y0051540D01*
X0120860Y0051570D01*
X0120938Y0051596D01*
X0121016Y0051619D01*
X0121095Y0051637D01*
X0121175Y0051652D01*
X0121256Y0051663D01*
X0121337Y0051670D01*
X0121419Y0051673D01*
X0121500Y0051672D01*
X0121581Y0051667D01*
X0121662Y0051658D01*
X0121743Y0051645D01*
X0121823Y0051628D01*
X0121901Y0051608D01*
X0121979Y0051583D01*
X0122056Y0051555D01*
X0122131Y0051523D01*
X0122204Y0051488D01*
X0122275Y0051449D01*
X0122345Y0051406D01*
X0122412Y0051361D01*
X0122478Y0051312D01*
X0122540Y0051260D01*
X0122600Y0051204D01*
X0122657Y0051146D01*
X0122712Y0051086D01*
X0122763Y0051022D01*
X0122811Y0050957D01*
X0122856Y0050889D01*
X0122898Y0050819D01*
X0122936Y0050747D01*
X0122971Y0050673D01*
X0123002Y0050598D01*
X0123029Y0050521D01*
X0123052Y0050443D01*
X0123072Y0050364D01*
X0123088Y0050284D01*
X0123100Y0050203D01*
X0123108Y0050122D01*
X0123112Y0050041D01*
X0123112Y0049959D01*
X0123108Y0049878D01*
X0123100Y0049797D01*
X0123088Y0049716D01*
X0123072Y0049636D01*
X0123052Y0049557D01*
X0123029Y0049479D01*
X0123002Y0049402D01*
X0122971Y0049327D01*
X0122936Y0049253D01*
X0122898Y0049181D01*
X0122856Y0049111D01*
X0122811Y0049043D01*
X0122763Y0048978D01*
X0122712Y0048914D01*
X0122657Y0048854D01*
X0122600Y0048796D01*
X0122540Y0048740D01*
X0122478Y0048688D01*
X0122412Y0048639D01*
X0122345Y0048594D01*
X0122276Y0048551D01*
X0122204Y0048512D01*
X0122131Y0048477D01*
X0122056Y0048445D01*
X0121979Y0048417D01*
X0121901Y0048392D01*
X0121823Y0048372D01*
X0121743Y0048355D01*
X0121662Y0048342D01*
X0121581Y0048333D01*
X0121500Y0048328D01*
X0121419Y0048327D01*
X0121337Y0048330D01*
X0121256Y0048337D01*
X0121175Y0048348D01*
X0121095Y0048363D01*
X0121016Y0048381D01*
X0120938Y0048404D01*
X0120860Y0048430D01*
X0120785Y0048460D01*
X0120710Y0048494D01*
X0120638Y0048531D01*
X0120567Y0048572D01*
X0120499Y0048616D01*
X0120433Y0048663D01*
X0120369Y0048714D01*
X0120307Y0048768D01*
X0120249Y0048824D01*
X0120193Y0048884D01*
X0120140Y0048946D01*
X0120090Y0049010D01*
X0120044Y0049077D01*
X0120000Y0049146D01*
X0119961Y0049217D01*
X0119924Y0049290D01*
X0119891Y0049364D01*
X0119862Y0049441D01*
X0119837Y0049518D01*
X0119815Y0049597D01*
X0119798Y0049676D01*
X0119784Y0049756D01*
X0119774Y0049837D01*
X0119768Y0049919D01*
X0119766Y0050000D01*
X0076833Y0045000D02*
X0076835Y0045161D01*
X0076841Y0045321D01*
X0076851Y0045482D01*
X0076865Y0045642D01*
X0076883Y0045802D01*
X0076904Y0045961D01*
X0076930Y0046120D01*
X0076960Y0046278D01*
X0076993Y0046435D01*
X0077031Y0046592D01*
X0077072Y0046747D01*
X0077117Y0046901D01*
X0077166Y0047054D01*
X0077219Y0047206D01*
X0077275Y0047357D01*
X0077336Y0047506D01*
X0077399Y0047654D01*
X0077467Y0047800D01*
X0077538Y0047944D01*
X0077612Y0048086D01*
X0077690Y0048227D01*
X0077772Y0048365D01*
X0077857Y0048502D01*
X0077945Y0048636D01*
X0078037Y0048768D01*
X0078132Y0048898D01*
X0078230Y0049026D01*
X0078331Y0049151D01*
X0078435Y0049273D01*
X0078542Y0049393D01*
X0078652Y0049510D01*
X0078765Y0049625D01*
X0078881Y0049736D01*
X0079000Y0049845D01*
X0079121Y0049950D01*
X0079245Y0050053D01*
X0079371Y0050153D01*
X0079499Y0050249D01*
X0079630Y0050342D01*
X0079764Y0050432D01*
X0079899Y0050519D01*
X0080037Y0050602D01*
X0080176Y0050682D01*
X0080318Y0050758D01*
X0080461Y0050831D01*
X0080606Y0050900D01*
X0080753Y0050966D01*
X0080901Y0051028D01*
X0081051Y0051086D01*
X0081202Y0051141D01*
X0081355Y0051192D01*
X0081509Y0051239D01*
X0081664Y0051282D01*
X0081820Y0051321D01*
X0081976Y0051357D01*
X0082134Y0051388D01*
X0082292Y0051416D01*
X0082451Y0051440D01*
X0082611Y0051460D01*
X0082771Y0051476D01*
X0082931Y0051488D01*
X0083092Y0051496D01*
X0083253Y0051500D01*
X0083413Y0051500D01*
X0083574Y0051496D01*
X0083735Y0051488D01*
X0083895Y0051476D01*
X0084055Y0051460D01*
X0084215Y0051440D01*
X0084374Y0051416D01*
X0084532Y0051388D01*
X0084690Y0051357D01*
X0084846Y0051321D01*
X0085002Y0051282D01*
X0085157Y0051239D01*
X0085311Y0051192D01*
X0085464Y0051141D01*
X0085615Y0051086D01*
X0085765Y0051028D01*
X0085913Y0050966D01*
X0086060Y0050900D01*
X0086205Y0050831D01*
X0086348Y0050758D01*
X0086490Y0050682D01*
X0086629Y0050602D01*
X0086767Y0050519D01*
X0086902Y0050432D01*
X0087036Y0050342D01*
X0087167Y0050249D01*
X0087295Y0050153D01*
X0087421Y0050053D01*
X0087545Y0049950D01*
X0087666Y0049845D01*
X0087785Y0049736D01*
X0087901Y0049625D01*
X0088014Y0049510D01*
X0088124Y0049393D01*
X0088231Y0049273D01*
X0088335Y0049151D01*
X0088436Y0049026D01*
X0088534Y0048898D01*
X0088629Y0048768D01*
X0088721Y0048636D01*
X0088809Y0048502D01*
X0088894Y0048365D01*
X0088976Y0048227D01*
X0089054Y0048086D01*
X0089128Y0047944D01*
X0089199Y0047800D01*
X0089267Y0047654D01*
X0089330Y0047506D01*
X0089391Y0047357D01*
X0089447Y0047206D01*
X0089500Y0047054D01*
X0089549Y0046901D01*
X0089594Y0046747D01*
X0089635Y0046592D01*
X0089673Y0046435D01*
X0089706Y0046278D01*
X0089736Y0046120D01*
X0089762Y0045961D01*
X0089783Y0045802D01*
X0089801Y0045642D01*
X0089815Y0045482D01*
X0089825Y0045321D01*
X0089831Y0045161D01*
X0089833Y0045000D01*
X0089831Y0044839D01*
X0089825Y0044679D01*
X0089815Y0044518D01*
X0089801Y0044358D01*
X0089783Y0044198D01*
X0089762Y0044039D01*
X0089736Y0043880D01*
X0089706Y0043722D01*
X0089673Y0043565D01*
X0089635Y0043408D01*
X0089594Y0043253D01*
X0089549Y0043099D01*
X0089500Y0042946D01*
X0089447Y0042794D01*
X0089391Y0042643D01*
X0089330Y0042494D01*
X0089267Y0042346D01*
X0089199Y0042200D01*
X0089128Y0042056D01*
X0089054Y0041914D01*
X0088976Y0041773D01*
X0088894Y0041635D01*
X0088809Y0041498D01*
X0088721Y0041364D01*
X0088629Y0041232D01*
X0088534Y0041102D01*
X0088436Y0040974D01*
X0088335Y0040849D01*
X0088231Y0040727D01*
X0088124Y0040607D01*
X0088014Y0040490D01*
X0087901Y0040375D01*
X0087785Y0040264D01*
X0087666Y0040155D01*
X0087545Y0040050D01*
X0087421Y0039947D01*
X0087295Y0039847D01*
X0087167Y0039751D01*
X0087036Y0039658D01*
X0086902Y0039568D01*
X0086767Y0039481D01*
X0086629Y0039398D01*
X0086490Y0039318D01*
X0086348Y0039242D01*
X0086205Y0039169D01*
X0086060Y0039100D01*
X0085913Y0039034D01*
X0085765Y0038972D01*
X0085615Y0038914D01*
X0085464Y0038859D01*
X0085311Y0038808D01*
X0085157Y0038761D01*
X0085002Y0038718D01*
X0084846Y0038679D01*
X0084690Y0038643D01*
X0084532Y0038612D01*
X0084374Y0038584D01*
X0084215Y0038560D01*
X0084055Y0038540D01*
X0083895Y0038524D01*
X0083735Y0038512D01*
X0083574Y0038504D01*
X0083413Y0038500D01*
X0083253Y0038500D01*
X0083092Y0038504D01*
X0082931Y0038512D01*
X0082771Y0038524D01*
X0082611Y0038540D01*
X0082451Y0038560D01*
X0082292Y0038584D01*
X0082134Y0038612D01*
X0081976Y0038643D01*
X0081820Y0038679D01*
X0081664Y0038718D01*
X0081509Y0038761D01*
X0081355Y0038808D01*
X0081202Y0038859D01*
X0081051Y0038914D01*
X0080901Y0038972D01*
X0080753Y0039034D01*
X0080606Y0039100D01*
X0080461Y0039169D01*
X0080318Y0039242D01*
X0080176Y0039318D01*
X0080037Y0039398D01*
X0079899Y0039481D01*
X0079764Y0039568D01*
X0079630Y0039658D01*
X0079499Y0039751D01*
X0079371Y0039847D01*
X0079245Y0039947D01*
X0079121Y0040050D01*
X0079000Y0040155D01*
X0078881Y0040264D01*
X0078765Y0040375D01*
X0078652Y0040490D01*
X0078542Y0040607D01*
X0078435Y0040727D01*
X0078331Y0040849D01*
X0078230Y0040974D01*
X0078132Y0041102D01*
X0078037Y0041232D01*
X0077945Y0041364D01*
X0077857Y0041498D01*
X0077772Y0041635D01*
X0077690Y0041773D01*
X0077612Y0041914D01*
X0077538Y0042056D01*
X0077467Y0042200D01*
X0077399Y0042346D01*
X0077336Y0042494D01*
X0077275Y0042643D01*
X0077219Y0042794D01*
X0077166Y0042946D01*
X0077117Y0043099D01*
X0077072Y0043253D01*
X0077031Y0043408D01*
X0076993Y0043565D01*
X0076960Y0043722D01*
X0076930Y0043880D01*
X0076904Y0044039D01*
X0076883Y0044198D01*
X0076865Y0044358D01*
X0076851Y0044518D01*
X0076841Y0044679D01*
X0076835Y0044839D01*
X0076833Y0045000D01*
X0281333Y0065000D02*
X0281335Y0065161D01*
X0281341Y0065321D01*
X0281351Y0065482D01*
X0281365Y0065642D01*
X0281383Y0065802D01*
X0281404Y0065961D01*
X0281430Y0066120D01*
X0281460Y0066278D01*
X0281493Y0066435D01*
X0281531Y0066592D01*
X0281572Y0066747D01*
X0281617Y0066901D01*
X0281666Y0067054D01*
X0281719Y0067206D01*
X0281775Y0067357D01*
X0281836Y0067506D01*
X0281899Y0067654D01*
X0281967Y0067800D01*
X0282038Y0067944D01*
X0282112Y0068086D01*
X0282190Y0068227D01*
X0282272Y0068365D01*
X0282357Y0068502D01*
X0282445Y0068636D01*
X0282537Y0068768D01*
X0282632Y0068898D01*
X0282730Y0069026D01*
X0282831Y0069151D01*
X0282935Y0069273D01*
X0283042Y0069393D01*
X0283152Y0069510D01*
X0283265Y0069625D01*
X0283381Y0069736D01*
X0283500Y0069845D01*
X0283621Y0069950D01*
X0283745Y0070053D01*
X0283871Y0070153D01*
X0283999Y0070249D01*
X0284130Y0070342D01*
X0284264Y0070432D01*
X0284399Y0070519D01*
X0284537Y0070602D01*
X0284676Y0070682D01*
X0284818Y0070758D01*
X0284961Y0070831D01*
X0285106Y0070900D01*
X0285253Y0070966D01*
X0285401Y0071028D01*
X0285551Y0071086D01*
X0285702Y0071141D01*
X0285855Y0071192D01*
X0286009Y0071239D01*
X0286164Y0071282D01*
X0286320Y0071321D01*
X0286476Y0071357D01*
X0286634Y0071388D01*
X0286792Y0071416D01*
X0286951Y0071440D01*
X0287111Y0071460D01*
X0287271Y0071476D01*
X0287431Y0071488D01*
X0287592Y0071496D01*
X0287753Y0071500D01*
X0287913Y0071500D01*
X0288074Y0071496D01*
X0288235Y0071488D01*
X0288395Y0071476D01*
X0288555Y0071460D01*
X0288715Y0071440D01*
X0288874Y0071416D01*
X0289032Y0071388D01*
X0289190Y0071357D01*
X0289346Y0071321D01*
X0289502Y0071282D01*
X0289657Y0071239D01*
X0289811Y0071192D01*
X0289964Y0071141D01*
X0290115Y0071086D01*
X0290265Y0071028D01*
X0290413Y0070966D01*
X0290560Y0070900D01*
X0290705Y0070831D01*
X0290848Y0070758D01*
X0290990Y0070682D01*
X0291129Y0070602D01*
X0291267Y0070519D01*
X0291402Y0070432D01*
X0291536Y0070342D01*
X0291667Y0070249D01*
X0291795Y0070153D01*
X0291921Y0070053D01*
X0292045Y0069950D01*
X0292166Y0069845D01*
X0292285Y0069736D01*
X0292401Y0069625D01*
X0292514Y0069510D01*
X0292624Y0069393D01*
X0292731Y0069273D01*
X0292835Y0069151D01*
X0292936Y0069026D01*
X0293034Y0068898D01*
X0293129Y0068768D01*
X0293221Y0068636D01*
X0293309Y0068502D01*
X0293394Y0068365D01*
X0293476Y0068227D01*
X0293554Y0068086D01*
X0293628Y0067944D01*
X0293699Y0067800D01*
X0293767Y0067654D01*
X0293830Y0067506D01*
X0293891Y0067357D01*
X0293947Y0067206D01*
X0294000Y0067054D01*
X0294049Y0066901D01*
X0294094Y0066747D01*
X0294135Y0066592D01*
X0294173Y0066435D01*
X0294206Y0066278D01*
X0294236Y0066120D01*
X0294262Y0065961D01*
X0294283Y0065802D01*
X0294301Y0065642D01*
X0294315Y0065482D01*
X0294325Y0065321D01*
X0294331Y0065161D01*
X0294333Y0065000D01*
X0294331Y0064839D01*
X0294325Y0064679D01*
X0294315Y0064518D01*
X0294301Y0064358D01*
X0294283Y0064198D01*
X0294262Y0064039D01*
X0294236Y0063880D01*
X0294206Y0063722D01*
X0294173Y0063565D01*
X0294135Y0063408D01*
X0294094Y0063253D01*
X0294049Y0063099D01*
X0294000Y0062946D01*
X0293947Y0062794D01*
X0293891Y0062643D01*
X0293830Y0062494D01*
X0293767Y0062346D01*
X0293699Y0062200D01*
X0293628Y0062056D01*
X0293554Y0061914D01*
X0293476Y0061773D01*
X0293394Y0061635D01*
X0293309Y0061498D01*
X0293221Y0061364D01*
X0293129Y0061232D01*
X0293034Y0061102D01*
X0292936Y0060974D01*
X0292835Y0060849D01*
X0292731Y0060727D01*
X0292624Y0060607D01*
X0292514Y0060490D01*
X0292401Y0060375D01*
X0292285Y0060264D01*
X0292166Y0060155D01*
X0292045Y0060050D01*
X0291921Y0059947D01*
X0291795Y0059847D01*
X0291667Y0059751D01*
X0291536Y0059658D01*
X0291402Y0059568D01*
X0291267Y0059481D01*
X0291129Y0059398D01*
X0290990Y0059318D01*
X0290848Y0059242D01*
X0290705Y0059169D01*
X0290560Y0059100D01*
X0290413Y0059034D01*
X0290265Y0058972D01*
X0290115Y0058914D01*
X0289964Y0058859D01*
X0289811Y0058808D01*
X0289657Y0058761D01*
X0289502Y0058718D01*
X0289346Y0058679D01*
X0289190Y0058643D01*
X0289032Y0058612D01*
X0288874Y0058584D01*
X0288715Y0058560D01*
X0288555Y0058540D01*
X0288395Y0058524D01*
X0288235Y0058512D01*
X0288074Y0058504D01*
X0287913Y0058500D01*
X0287753Y0058500D01*
X0287592Y0058504D01*
X0287431Y0058512D01*
X0287271Y0058524D01*
X0287111Y0058540D01*
X0286951Y0058560D01*
X0286792Y0058584D01*
X0286634Y0058612D01*
X0286476Y0058643D01*
X0286320Y0058679D01*
X0286164Y0058718D01*
X0286009Y0058761D01*
X0285855Y0058808D01*
X0285702Y0058859D01*
X0285551Y0058914D01*
X0285401Y0058972D01*
X0285253Y0059034D01*
X0285106Y0059100D01*
X0284961Y0059169D01*
X0284818Y0059242D01*
X0284676Y0059318D01*
X0284537Y0059398D01*
X0284399Y0059481D01*
X0284264Y0059568D01*
X0284130Y0059658D01*
X0283999Y0059751D01*
X0283871Y0059847D01*
X0283745Y0059947D01*
X0283621Y0060050D01*
X0283500Y0060155D01*
X0283381Y0060264D01*
X0283265Y0060375D01*
X0283152Y0060490D01*
X0283042Y0060607D01*
X0282935Y0060727D01*
X0282831Y0060849D01*
X0282730Y0060974D01*
X0282632Y0061102D01*
X0282537Y0061232D01*
X0282445Y0061364D01*
X0282357Y0061498D01*
X0282272Y0061635D01*
X0282190Y0061773D01*
X0282112Y0061914D01*
X0282038Y0062056D01*
X0281967Y0062200D01*
X0281899Y0062346D01*
X0281836Y0062494D01*
X0281775Y0062643D01*
X0281719Y0062794D01*
X0281666Y0062946D01*
X0281617Y0063099D01*
X0281572Y0063253D01*
X0281531Y0063408D01*
X0281493Y0063565D01*
X0281460Y0063722D01*
X0281430Y0063880D01*
X0281404Y0064039D01*
X0281383Y0064198D01*
X0281365Y0064358D01*
X0281351Y0064518D01*
X0281341Y0064679D01*
X0281335Y0064839D01*
X0281333Y0065000D01*
X0215066Y0205000D02*
X0215068Y0205081D01*
X0215074Y0205163D01*
X0215084Y0205244D01*
X0215098Y0205324D01*
X0215115Y0205403D01*
X0215137Y0205482D01*
X0215162Y0205559D01*
X0215191Y0205636D01*
X0215224Y0205710D01*
X0215261Y0205783D01*
X0215300Y0205854D01*
X0215344Y0205923D01*
X0215390Y0205990D01*
X0215440Y0206054D01*
X0215493Y0206116D01*
X0215549Y0206176D01*
X0215607Y0206232D01*
X0215669Y0206286D01*
X0215733Y0206337D01*
X0215799Y0206384D01*
X0215867Y0206428D01*
X0215938Y0206469D01*
X0216010Y0206506D01*
X0216085Y0206540D01*
X0216160Y0206570D01*
X0216238Y0206596D01*
X0216316Y0206619D01*
X0216395Y0206637D01*
X0216475Y0206652D01*
X0216556Y0206663D01*
X0216637Y0206670D01*
X0216719Y0206673D01*
X0216800Y0206672D01*
X0216881Y0206667D01*
X0216962Y0206658D01*
X0217043Y0206645D01*
X0217123Y0206628D01*
X0217201Y0206608D01*
X0217279Y0206583D01*
X0217356Y0206555D01*
X0217431Y0206523D01*
X0217504Y0206488D01*
X0217575Y0206449D01*
X0217645Y0206406D01*
X0217712Y0206361D01*
X0217778Y0206312D01*
X0217840Y0206260D01*
X0217900Y0206204D01*
X0217957Y0206146D01*
X0218012Y0206086D01*
X0218063Y0206022D01*
X0218111Y0205957D01*
X0218156Y0205889D01*
X0218198Y0205819D01*
X0218236Y0205747D01*
X0218271Y0205673D01*
X0218302Y0205598D01*
X0218329Y0205521D01*
X0218352Y0205443D01*
X0218372Y0205364D01*
X0218388Y0205284D01*
X0218400Y0205203D01*
X0218408Y0205122D01*
X0218412Y0205041D01*
X0218412Y0204959D01*
X0218408Y0204878D01*
X0218400Y0204797D01*
X0218388Y0204716D01*
X0218372Y0204636D01*
X0218352Y0204557D01*
X0218329Y0204479D01*
X0218302Y0204402D01*
X0218271Y0204327D01*
X0218236Y0204253D01*
X0218198Y0204181D01*
X0218156Y0204111D01*
X0218111Y0204043D01*
X0218063Y0203978D01*
X0218012Y0203914D01*
X0217957Y0203854D01*
X0217900Y0203796D01*
X0217840Y0203740D01*
X0217778Y0203688D01*
X0217712Y0203639D01*
X0217645Y0203594D01*
X0217576Y0203551D01*
X0217504Y0203512D01*
X0217431Y0203477D01*
X0217356Y0203445D01*
X0217279Y0203417D01*
X0217201Y0203392D01*
X0217123Y0203372D01*
X0217043Y0203355D01*
X0216962Y0203342D01*
X0216881Y0203333D01*
X0216800Y0203328D01*
X0216719Y0203327D01*
X0216637Y0203330D01*
X0216556Y0203337D01*
X0216475Y0203348D01*
X0216395Y0203363D01*
X0216316Y0203381D01*
X0216238Y0203404D01*
X0216160Y0203430D01*
X0216085Y0203460D01*
X0216010Y0203494D01*
X0215938Y0203531D01*
X0215867Y0203572D01*
X0215799Y0203616D01*
X0215733Y0203663D01*
X0215669Y0203714D01*
X0215607Y0203768D01*
X0215549Y0203824D01*
X0215493Y0203884D01*
X0215440Y0203946D01*
X0215390Y0204010D01*
X0215344Y0204077D01*
X0215300Y0204146D01*
X0215261Y0204217D01*
X0215224Y0204290D01*
X0215191Y0204364D01*
X0215162Y0204441D01*
X0215137Y0204518D01*
X0215115Y0204597D01*
X0215098Y0204676D01*
X0215084Y0204756D01*
X0215074Y0204837D01*
X0215068Y0204919D01*
X0215066Y0205000D01*
X0203255Y0205000D02*
X0203257Y0205081D01*
X0203263Y0205163D01*
X0203273Y0205244D01*
X0203287Y0205324D01*
X0203304Y0205403D01*
X0203326Y0205482D01*
X0203351Y0205559D01*
X0203380Y0205636D01*
X0203413Y0205710D01*
X0203450Y0205783D01*
X0203489Y0205854D01*
X0203533Y0205923D01*
X0203579Y0205990D01*
X0203629Y0206054D01*
X0203682Y0206116D01*
X0203738Y0206176D01*
X0203796Y0206232D01*
X0203858Y0206286D01*
X0203922Y0206337D01*
X0203988Y0206384D01*
X0204056Y0206428D01*
X0204127Y0206469D01*
X0204199Y0206506D01*
X0204274Y0206540D01*
X0204349Y0206570D01*
X0204427Y0206596D01*
X0204505Y0206619D01*
X0204584Y0206637D01*
X0204664Y0206652D01*
X0204745Y0206663D01*
X0204826Y0206670D01*
X0204908Y0206673D01*
X0204989Y0206672D01*
X0205070Y0206667D01*
X0205151Y0206658D01*
X0205232Y0206645D01*
X0205312Y0206628D01*
X0205390Y0206608D01*
X0205468Y0206583D01*
X0205545Y0206555D01*
X0205620Y0206523D01*
X0205693Y0206488D01*
X0205764Y0206449D01*
X0205834Y0206406D01*
X0205901Y0206361D01*
X0205967Y0206312D01*
X0206029Y0206260D01*
X0206089Y0206204D01*
X0206146Y0206146D01*
X0206201Y0206086D01*
X0206252Y0206022D01*
X0206300Y0205957D01*
X0206345Y0205889D01*
X0206387Y0205819D01*
X0206425Y0205747D01*
X0206460Y0205673D01*
X0206491Y0205598D01*
X0206518Y0205521D01*
X0206541Y0205443D01*
X0206561Y0205364D01*
X0206577Y0205284D01*
X0206589Y0205203D01*
X0206597Y0205122D01*
X0206601Y0205041D01*
X0206601Y0204959D01*
X0206597Y0204878D01*
X0206589Y0204797D01*
X0206577Y0204716D01*
X0206561Y0204636D01*
X0206541Y0204557D01*
X0206518Y0204479D01*
X0206491Y0204402D01*
X0206460Y0204327D01*
X0206425Y0204253D01*
X0206387Y0204181D01*
X0206345Y0204111D01*
X0206300Y0204043D01*
X0206252Y0203978D01*
X0206201Y0203914D01*
X0206146Y0203854D01*
X0206089Y0203796D01*
X0206029Y0203740D01*
X0205967Y0203688D01*
X0205901Y0203639D01*
X0205834Y0203594D01*
X0205765Y0203551D01*
X0205693Y0203512D01*
X0205620Y0203477D01*
X0205545Y0203445D01*
X0205468Y0203417D01*
X0205390Y0203392D01*
X0205312Y0203372D01*
X0205232Y0203355D01*
X0205151Y0203342D01*
X0205070Y0203333D01*
X0204989Y0203328D01*
X0204908Y0203327D01*
X0204826Y0203330D01*
X0204745Y0203337D01*
X0204664Y0203348D01*
X0204584Y0203363D01*
X0204505Y0203381D01*
X0204427Y0203404D01*
X0204349Y0203430D01*
X0204274Y0203460D01*
X0204199Y0203494D01*
X0204127Y0203531D01*
X0204056Y0203572D01*
X0203988Y0203616D01*
X0203922Y0203663D01*
X0203858Y0203714D01*
X0203796Y0203768D01*
X0203738Y0203824D01*
X0203682Y0203884D01*
X0203629Y0203946D01*
X0203579Y0204010D01*
X0203533Y0204077D01*
X0203489Y0204146D01*
X0203450Y0204217D01*
X0203413Y0204290D01*
X0203380Y0204364D01*
X0203351Y0204441D01*
X0203326Y0204518D01*
X0203304Y0204597D01*
X0203287Y0204676D01*
X0203273Y0204756D01*
X0203263Y0204837D01*
X0203257Y0204919D01*
X0203255Y0205000D01*
X0081833Y0235000D02*
X0081835Y0235161D01*
X0081841Y0235321D01*
X0081851Y0235482D01*
X0081865Y0235642D01*
X0081883Y0235802D01*
X0081904Y0235961D01*
X0081930Y0236120D01*
X0081960Y0236278D01*
X0081993Y0236435D01*
X0082031Y0236592D01*
X0082072Y0236747D01*
X0082117Y0236901D01*
X0082166Y0237054D01*
X0082219Y0237206D01*
X0082275Y0237357D01*
X0082336Y0237506D01*
X0082399Y0237654D01*
X0082467Y0237800D01*
X0082538Y0237944D01*
X0082612Y0238086D01*
X0082690Y0238227D01*
X0082772Y0238365D01*
X0082857Y0238502D01*
X0082945Y0238636D01*
X0083037Y0238768D01*
X0083132Y0238898D01*
X0083230Y0239026D01*
X0083331Y0239151D01*
X0083435Y0239273D01*
X0083542Y0239393D01*
X0083652Y0239510D01*
X0083765Y0239625D01*
X0083881Y0239736D01*
X0084000Y0239845D01*
X0084121Y0239950D01*
X0084245Y0240053D01*
X0084371Y0240153D01*
X0084499Y0240249D01*
X0084630Y0240342D01*
X0084764Y0240432D01*
X0084899Y0240519D01*
X0085037Y0240602D01*
X0085176Y0240682D01*
X0085318Y0240758D01*
X0085461Y0240831D01*
X0085606Y0240900D01*
X0085753Y0240966D01*
X0085901Y0241028D01*
X0086051Y0241086D01*
X0086202Y0241141D01*
X0086355Y0241192D01*
X0086509Y0241239D01*
X0086664Y0241282D01*
X0086820Y0241321D01*
X0086976Y0241357D01*
X0087134Y0241388D01*
X0087292Y0241416D01*
X0087451Y0241440D01*
X0087611Y0241460D01*
X0087771Y0241476D01*
X0087931Y0241488D01*
X0088092Y0241496D01*
X0088253Y0241500D01*
X0088413Y0241500D01*
X0088574Y0241496D01*
X0088735Y0241488D01*
X0088895Y0241476D01*
X0089055Y0241460D01*
X0089215Y0241440D01*
X0089374Y0241416D01*
X0089532Y0241388D01*
X0089690Y0241357D01*
X0089846Y0241321D01*
X0090002Y0241282D01*
X0090157Y0241239D01*
X0090311Y0241192D01*
X0090464Y0241141D01*
X0090615Y0241086D01*
X0090765Y0241028D01*
X0090913Y0240966D01*
X0091060Y0240900D01*
X0091205Y0240831D01*
X0091348Y0240758D01*
X0091490Y0240682D01*
X0091629Y0240602D01*
X0091767Y0240519D01*
X0091902Y0240432D01*
X0092036Y0240342D01*
X0092167Y0240249D01*
X0092295Y0240153D01*
X0092421Y0240053D01*
X0092545Y0239950D01*
X0092666Y0239845D01*
X0092785Y0239736D01*
X0092901Y0239625D01*
X0093014Y0239510D01*
X0093124Y0239393D01*
X0093231Y0239273D01*
X0093335Y0239151D01*
X0093436Y0239026D01*
X0093534Y0238898D01*
X0093629Y0238768D01*
X0093721Y0238636D01*
X0093809Y0238502D01*
X0093894Y0238365D01*
X0093976Y0238227D01*
X0094054Y0238086D01*
X0094128Y0237944D01*
X0094199Y0237800D01*
X0094267Y0237654D01*
X0094330Y0237506D01*
X0094391Y0237357D01*
X0094447Y0237206D01*
X0094500Y0237054D01*
X0094549Y0236901D01*
X0094594Y0236747D01*
X0094635Y0236592D01*
X0094673Y0236435D01*
X0094706Y0236278D01*
X0094736Y0236120D01*
X0094762Y0235961D01*
X0094783Y0235802D01*
X0094801Y0235642D01*
X0094815Y0235482D01*
X0094825Y0235321D01*
X0094831Y0235161D01*
X0094833Y0235000D01*
X0094831Y0234839D01*
X0094825Y0234679D01*
X0094815Y0234518D01*
X0094801Y0234358D01*
X0094783Y0234198D01*
X0094762Y0234039D01*
X0094736Y0233880D01*
X0094706Y0233722D01*
X0094673Y0233565D01*
X0094635Y0233408D01*
X0094594Y0233253D01*
X0094549Y0233099D01*
X0094500Y0232946D01*
X0094447Y0232794D01*
X0094391Y0232643D01*
X0094330Y0232494D01*
X0094267Y0232346D01*
X0094199Y0232200D01*
X0094128Y0232056D01*
X0094054Y0231914D01*
X0093976Y0231773D01*
X0093894Y0231635D01*
X0093809Y0231498D01*
X0093721Y0231364D01*
X0093629Y0231232D01*
X0093534Y0231102D01*
X0093436Y0230974D01*
X0093335Y0230849D01*
X0093231Y0230727D01*
X0093124Y0230607D01*
X0093014Y0230490D01*
X0092901Y0230375D01*
X0092785Y0230264D01*
X0092666Y0230155D01*
X0092545Y0230050D01*
X0092421Y0229947D01*
X0092295Y0229847D01*
X0092167Y0229751D01*
X0092036Y0229658D01*
X0091902Y0229568D01*
X0091767Y0229481D01*
X0091629Y0229398D01*
X0091490Y0229318D01*
X0091348Y0229242D01*
X0091205Y0229169D01*
X0091060Y0229100D01*
X0090913Y0229034D01*
X0090765Y0228972D01*
X0090615Y0228914D01*
X0090464Y0228859D01*
X0090311Y0228808D01*
X0090157Y0228761D01*
X0090002Y0228718D01*
X0089846Y0228679D01*
X0089690Y0228643D01*
X0089532Y0228612D01*
X0089374Y0228584D01*
X0089215Y0228560D01*
X0089055Y0228540D01*
X0088895Y0228524D01*
X0088735Y0228512D01*
X0088574Y0228504D01*
X0088413Y0228500D01*
X0088253Y0228500D01*
X0088092Y0228504D01*
X0087931Y0228512D01*
X0087771Y0228524D01*
X0087611Y0228540D01*
X0087451Y0228560D01*
X0087292Y0228584D01*
X0087134Y0228612D01*
X0086976Y0228643D01*
X0086820Y0228679D01*
X0086664Y0228718D01*
X0086509Y0228761D01*
X0086355Y0228808D01*
X0086202Y0228859D01*
X0086051Y0228914D01*
X0085901Y0228972D01*
X0085753Y0229034D01*
X0085606Y0229100D01*
X0085461Y0229169D01*
X0085318Y0229242D01*
X0085176Y0229318D01*
X0085037Y0229398D01*
X0084899Y0229481D01*
X0084764Y0229568D01*
X0084630Y0229658D01*
X0084499Y0229751D01*
X0084371Y0229847D01*
X0084245Y0229947D01*
X0084121Y0230050D01*
X0084000Y0230155D01*
X0083881Y0230264D01*
X0083765Y0230375D01*
X0083652Y0230490D01*
X0083542Y0230607D01*
X0083435Y0230727D01*
X0083331Y0230849D01*
X0083230Y0230974D01*
X0083132Y0231102D01*
X0083037Y0231232D01*
X0082945Y0231364D01*
X0082857Y0231498D01*
X0082772Y0231635D01*
X0082690Y0231773D01*
X0082612Y0231914D01*
X0082538Y0232056D01*
X0082467Y0232200D01*
X0082399Y0232346D01*
X0082336Y0232494D01*
X0082275Y0232643D01*
X0082219Y0232794D01*
X0082166Y0232946D01*
X0082117Y0233099D01*
X0082072Y0233253D01*
X0082031Y0233408D01*
X0081993Y0233565D01*
X0081960Y0233722D01*
X0081930Y0233880D01*
X0081904Y0234039D01*
X0081883Y0234198D01*
X0081865Y0234358D01*
X0081851Y0234518D01*
X0081841Y0234679D01*
X0081835Y0234839D01*
X0081833Y0235000D01*
M02*
