G75*
%MOIN*%
%OFA0B0*%
%FSLAX25Y25*%
%IPPOS*%
%LPD*%
%AMOC8*
5,1,8,0,0,1.08239X$1,22.5*
%
%ADD10R,0.02953X0.06102*%
%ADD11R,0.06102X0.02953*%
%ADD12R,0.04134X0.04134*%
%ADD13R,0.05748X0.07874*%
%ADD14R,0.09843X0.05610*%
%ADD15C,0.00400*%
%ADD16C,0.00197*%
%ADD17R,0.07874X0.04724*%
%ADD18R,0.05315X0.02362*%
%ADD19R,0.18110X0.03937*%
%ADD20R,0.13386X0.06299*%
%ADD21R,0.03000X0.06000*%
%ADD22R,0.02165X0.04724*%
%ADD23R,0.04331X0.03937*%
%ADD24R,0.02480X0.03268*%
%ADD25C,0.01181*%
%ADD26R,0.03543X0.03150*%
%ADD27R,0.03937X0.04331*%
%ADD28R,0.02559X0.01181*%
%ADD29R,0.03150X0.05413*%
%ADD30R,0.03937X0.04528*%
%ADD31R,0.05118X0.02559*%
%ADD32R,0.07087X0.01890*%
%ADD33R,0.03937X0.04055*%
%ADD34R,0.08661X0.03346*%
%ADD35R,0.04134X0.03937*%
%ADD36R,0.02362X0.04724*%
%ADD37R,0.07087X0.06299*%
%ADD38R,0.22047X0.10236*%
%ADD39R,0.14567X0.05512*%
%ADD40R,0.02402X0.00984*%
%ADD41R,0.02205X0.00984*%
%ADD42R,0.04724X0.02362*%
D10*
X0110026Y0127441D03*
X0114357Y0127441D03*
X0118688Y0127441D03*
X0123018Y0127441D03*
X0127349Y0127441D03*
X0131680Y0127441D03*
X0136010Y0127441D03*
X0140341Y0127441D03*
X0144672Y0127441D03*
X0149003Y0127441D03*
X0153333Y0127441D03*
X0157664Y0127441D03*
X0161995Y0127441D03*
X0166325Y0127441D03*
X0170656Y0127441D03*
X0174987Y0127441D03*
X0179318Y0127441D03*
X0183648Y0127441D03*
X0187979Y0127441D03*
X0192310Y0127441D03*
X0196640Y0127441D03*
X0196640Y0182559D03*
X0192310Y0182559D03*
X0187979Y0182559D03*
X0183648Y0182559D03*
X0179318Y0182559D03*
X0174987Y0182559D03*
X0170656Y0182559D03*
X0166325Y0182559D03*
X0161995Y0182559D03*
X0157664Y0182559D03*
X0153333Y0182559D03*
X0149003Y0182559D03*
X0144672Y0182559D03*
X0140341Y0182559D03*
X0136010Y0182559D03*
X0131680Y0182559D03*
X0127349Y0182559D03*
X0123018Y0182559D03*
X0118688Y0182559D03*
X0114357Y0182559D03*
X0110026Y0182559D03*
D11*
X0106089Y0176654D03*
X0106089Y0172323D03*
X0106089Y0167992D03*
X0106089Y0163661D03*
X0106089Y0159331D03*
X0106089Y0155000D03*
X0106089Y0150669D03*
X0106089Y0146339D03*
X0106089Y0142008D03*
X0106089Y0137677D03*
X0106089Y0133346D03*
X0200577Y0133346D03*
X0200577Y0137677D03*
X0200577Y0142008D03*
X0200577Y0146339D03*
X0200577Y0150669D03*
X0200577Y0155000D03*
X0200577Y0159331D03*
X0200577Y0163661D03*
X0200577Y0167992D03*
X0200577Y0172323D03*
X0200577Y0176654D03*
D12*
X0193688Y0175669D03*
X0186601Y0175669D03*
X0179514Y0175669D03*
X0186601Y0167402D03*
X0193688Y0167402D03*
X0193688Y0159134D03*
X0186601Y0159134D03*
X0186601Y0150866D03*
X0193688Y0150866D03*
X0193688Y0142598D03*
X0186601Y0142598D03*
X0186601Y0134331D03*
X0179514Y0134331D03*
X0165341Y0134331D03*
X0141325Y0134331D03*
X0127152Y0134331D03*
X0120066Y0134331D03*
X0112979Y0134331D03*
X0112979Y0142598D03*
X0120066Y0142598D03*
X0120066Y0150866D03*
X0112979Y0150866D03*
X0112979Y0159134D03*
X0120066Y0159134D03*
X0120066Y0167402D03*
X0112979Y0167402D03*
X0112979Y0175669D03*
X0120066Y0175669D03*
X0127152Y0175669D03*
X0141325Y0175669D03*
X0165341Y0175669D03*
X0193688Y0134331D03*
D13*
X0084416Y0120917D03*
X0084416Y0098083D03*
D14*
X0072802Y0105711D03*
X0072802Y0113289D03*
D15*
X0070773Y0117357D02*
X0070484Y0117389D01*
X0070209Y0117486D01*
X0069963Y0117640D01*
X0069757Y0117846D01*
X0069602Y0118093D01*
X0069506Y0118368D01*
X0069473Y0118657D01*
X0069473Y0121557D01*
X0069504Y0121824D01*
X0069592Y0122077D01*
X0069735Y0122305D01*
X0069925Y0122495D01*
X0070153Y0122638D01*
X0070406Y0122727D01*
X0070673Y0122757D01*
X0077573Y0122757D01*
X0077612Y0122764D01*
X0077644Y0122786D01*
X0077666Y0122819D01*
X0077673Y0122857D01*
X0077673Y0124757D01*
X0080773Y0124757D01*
X0080773Y0117357D01*
X0070773Y0117357D01*
X0070199Y0117492D02*
X0080773Y0117492D01*
X0080773Y0117890D02*
X0069729Y0117890D01*
X0069534Y0118289D02*
X0080773Y0118289D01*
X0080773Y0118687D02*
X0069473Y0118687D01*
X0069473Y0119086D02*
X0080773Y0119086D01*
X0080773Y0119484D02*
X0069473Y0119484D01*
X0069473Y0119883D02*
X0080773Y0119883D01*
X0080773Y0120281D02*
X0069473Y0120281D01*
X0069473Y0120680D02*
X0080773Y0120680D01*
X0080773Y0121078D02*
X0069473Y0121078D01*
X0069473Y0121477D02*
X0080773Y0121477D01*
X0080773Y0121875D02*
X0069522Y0121875D01*
X0069716Y0122274D02*
X0080773Y0122274D01*
X0080773Y0122672D02*
X0070251Y0122672D01*
X0077673Y0123071D02*
X0080773Y0123071D01*
X0080773Y0123470D02*
X0077673Y0123470D01*
X0077673Y0123868D02*
X0080773Y0123868D01*
X0080773Y0124267D02*
X0077673Y0124267D01*
X0077673Y0124665D02*
X0080773Y0124665D01*
X0080773Y0101694D02*
X0070773Y0101694D01*
X0070484Y0101661D01*
X0070209Y0101565D01*
X0069963Y0101410D01*
X0069757Y0101204D01*
X0069602Y0100958D01*
X0069506Y0100683D01*
X0069473Y0100394D01*
X0069473Y0097494D01*
X0069504Y0097227D01*
X0069592Y0096973D01*
X0069735Y0096746D01*
X0069925Y0096555D01*
X0070153Y0096413D01*
X0070406Y0096324D01*
X0070673Y0096294D01*
X0077573Y0096294D01*
X0077612Y0096286D01*
X0077644Y0096264D01*
X0077666Y0096232D01*
X0077673Y0096194D01*
X0077673Y0094294D01*
X0080773Y0094294D01*
X0080773Y0101694D01*
X0080773Y0101551D02*
X0070188Y0101551D01*
X0069725Y0101153D02*
X0080773Y0101153D01*
X0080773Y0100754D02*
X0069531Y0100754D01*
X0069473Y0100356D02*
X0080773Y0100356D01*
X0080773Y0099957D02*
X0069473Y0099957D01*
X0069473Y0099559D02*
X0080773Y0099559D01*
X0080773Y0099160D02*
X0069473Y0099160D01*
X0069473Y0098762D02*
X0080773Y0098762D01*
X0080773Y0098363D02*
X0069473Y0098363D01*
X0069473Y0097965D02*
X0080773Y0097965D01*
X0080773Y0097566D02*
X0069473Y0097566D01*
X0069524Y0097168D02*
X0080773Y0097168D01*
X0080773Y0096769D02*
X0069720Y0096769D01*
X0070272Y0096371D02*
X0080773Y0096371D01*
X0080773Y0095972D02*
X0077673Y0095972D01*
X0077673Y0095574D02*
X0080773Y0095574D01*
X0080773Y0095175D02*
X0077673Y0095175D01*
X0077673Y0094777D02*
X0080773Y0094777D01*
X0080773Y0094378D02*
X0077673Y0094378D01*
D16*
X0080160Y0103890D02*
X0080160Y0104874D01*
X0086558Y0104874D01*
X0086558Y0103890D01*
X0080160Y0103890D01*
X0080160Y0103963D02*
X0086558Y0103963D01*
X0086558Y0104158D02*
X0080160Y0104158D01*
X0080160Y0104353D02*
X0086558Y0104353D01*
X0086558Y0104549D02*
X0080160Y0104549D01*
X0080160Y0104744D02*
X0086558Y0104744D01*
X0086558Y0106449D02*
X0080160Y0106449D01*
X0080160Y0107433D01*
X0086558Y0107433D01*
X0086558Y0106449D01*
X0086558Y0106502D02*
X0080160Y0106502D01*
X0080160Y0106698D02*
X0086558Y0106698D01*
X0086558Y0106893D02*
X0080160Y0106893D01*
X0080160Y0107088D02*
X0086558Y0107088D01*
X0086558Y0107284D02*
X0080160Y0107284D01*
X0080160Y0109008D02*
X0080160Y0109992D01*
X0086558Y0109992D01*
X0086558Y0109008D01*
X0080160Y0109008D01*
X0080160Y0109042D02*
X0086558Y0109042D01*
X0086558Y0109237D02*
X0080160Y0109237D01*
X0080160Y0109433D02*
X0086558Y0109433D01*
X0086558Y0109628D02*
X0080160Y0109628D01*
X0080160Y0109824D02*
X0086558Y0109824D01*
X0086558Y0111567D02*
X0080160Y0111567D01*
X0080160Y0112551D01*
X0086558Y0112551D01*
X0086558Y0111567D01*
X0086558Y0111582D02*
X0080160Y0111582D01*
X0080160Y0111777D02*
X0086558Y0111777D01*
X0086558Y0111973D02*
X0080160Y0111973D01*
X0080160Y0112168D02*
X0086558Y0112168D01*
X0086558Y0112363D02*
X0080160Y0112363D01*
X0080160Y0114126D02*
X0080160Y0115110D01*
X0086558Y0115110D01*
X0086558Y0114126D01*
X0080160Y0114126D01*
X0080160Y0114317D02*
X0086558Y0114317D01*
X0086558Y0114512D02*
X0080160Y0114512D01*
X0080160Y0114708D02*
X0086558Y0114708D01*
X0086558Y0114903D02*
X0080160Y0114903D01*
X0080160Y0115098D02*
X0086558Y0115098D01*
D17*
X0068865Y0158976D03*
X0068865Y0181024D03*
D18*
X0083333Y0175906D03*
X0083333Y0171969D03*
X0083333Y0168031D03*
X0083333Y0164094D03*
D19*
X0091900Y0076937D03*
X0091900Y0069063D03*
D20*
X0071428Y0059614D03*
X0071428Y0086386D03*
D21*
X0105833Y0194000D03*
X0120833Y0194000D03*
X0130833Y0194000D03*
X0145833Y0194000D03*
X0145833Y0216000D03*
X0130833Y0216000D03*
X0120833Y0216000D03*
X0105833Y0216000D03*
D22*
X0097073Y0210119D03*
X0089593Y0210119D03*
X0089593Y0199881D03*
X0093333Y0199881D03*
X0097073Y0199881D03*
X0114593Y0095119D03*
X0122073Y0095119D03*
X0122073Y0084881D03*
X0118333Y0084881D03*
X0114593Y0084881D03*
D23*
X0112987Y0078500D03*
X0119680Y0078500D03*
X0128487Y0072500D03*
X0135180Y0072500D03*
X0116680Y0118500D03*
X0109987Y0118500D03*
X0095680Y0128000D03*
X0095680Y0134000D03*
X0088987Y0134000D03*
X0088987Y0128000D03*
X0088987Y0140000D03*
X0095680Y0140000D03*
X0096680Y0188000D03*
X0096680Y0194000D03*
X0089987Y0194000D03*
X0089987Y0188000D03*
X0089987Y0217100D03*
X0096680Y0217100D03*
X0214987Y0142008D03*
X0221680Y0142008D03*
X0234987Y0142008D03*
X0241680Y0142008D03*
X0238487Y0155000D03*
X0245180Y0155000D03*
D24*
X0136861Y0078500D03*
X0127806Y0078500D03*
D25*
X0075664Y0126622D02*
X0075664Y0129378D01*
X0075664Y0126622D02*
X0072908Y0126622D01*
X0072908Y0129378D01*
X0075664Y0129378D01*
X0075664Y0127744D02*
X0072908Y0127744D01*
X0072908Y0128866D02*
X0075664Y0128866D01*
X0072908Y0132622D02*
X0072908Y0135378D01*
X0075664Y0135378D01*
X0075664Y0132622D01*
X0072908Y0132622D01*
X0072908Y0133744D02*
X0075664Y0133744D01*
X0075664Y0134866D02*
X0072908Y0134866D01*
X0066003Y0135378D02*
X0066003Y0132622D01*
X0066003Y0135378D02*
X0068759Y0135378D01*
X0068759Y0132622D01*
X0066003Y0132622D01*
X0066003Y0133744D02*
X0068759Y0133744D01*
X0068759Y0134866D02*
X0066003Y0134866D01*
X0066003Y0138622D02*
X0066003Y0141378D01*
X0068759Y0141378D01*
X0068759Y0138622D01*
X0066003Y0138622D01*
X0066003Y0139744D02*
X0068759Y0139744D01*
X0068759Y0140866D02*
X0066003Y0140866D01*
X0072908Y0141378D02*
X0072908Y0138622D01*
X0072908Y0141378D02*
X0075664Y0141378D01*
X0075664Y0138622D01*
X0072908Y0138622D01*
X0072908Y0139744D02*
X0075664Y0139744D01*
X0075664Y0140866D02*
X0072908Y0140866D01*
X0068759Y0129378D02*
X0068759Y0126622D01*
X0066003Y0126622D01*
X0066003Y0129378D01*
X0068759Y0129378D01*
X0068759Y0127744D02*
X0066003Y0127744D01*
X0066003Y0128866D02*
X0068759Y0128866D01*
D26*
X0074396Y0146260D03*
X0082664Y0150000D03*
X0074396Y0153740D03*
X0128396Y0092240D03*
X0128396Y0084760D03*
X0136664Y0088500D03*
D27*
X0125333Y0104154D03*
X0125333Y0110846D03*
X0108333Y0093346D03*
X0108333Y0086654D03*
X0143833Y0070846D03*
X0149833Y0070846D03*
X0155833Y0070846D03*
X0161833Y0070846D03*
X0168333Y0070846D03*
X0168333Y0064154D03*
X0161833Y0064154D03*
X0155833Y0064154D03*
X0149833Y0064154D03*
X0143833Y0064154D03*
X0211333Y0121654D03*
X0217333Y0121654D03*
X0223333Y0121654D03*
X0229333Y0121654D03*
X0229333Y0128346D03*
X0223333Y0128346D03*
X0217333Y0128346D03*
X0211333Y0128346D03*
X0228333Y0141992D03*
X0228333Y0148685D03*
X0238333Y0161154D03*
X0238333Y0167846D03*
X0247987Y0148846D03*
X0247987Y0142154D03*
X0152566Y0194154D03*
X0152566Y0200846D03*
X0152566Y0209154D03*
X0152566Y0215846D03*
X0068333Y0153346D03*
X0068333Y0146654D03*
D28*
X0107920Y0111839D03*
X0107920Y0109280D03*
X0107920Y0106720D03*
X0107920Y0104161D03*
X0118747Y0104161D03*
X0118747Y0106720D03*
X0118747Y0109280D03*
X0118747Y0111839D03*
D29*
X0113333Y0108000D03*
D30*
X0115533Y0061122D03*
X0105691Y0061122D03*
X0125376Y0061122D03*
X0125376Y0038878D03*
X0115533Y0038878D03*
X0105691Y0038878D03*
X0200991Y0193878D03*
X0210833Y0193878D03*
X0220676Y0193878D03*
X0220676Y0216122D03*
X0210833Y0216122D03*
X0200991Y0216122D03*
D31*
X0143727Y0107500D03*
X0143727Y0102500D03*
X0143727Y0097500D03*
X0143727Y0092500D03*
X0143727Y0087500D03*
X0143727Y0082500D03*
D32*
X0146365Y0076535D03*
X0169003Y0076535D03*
X0169003Y0113346D03*
X0146365Y0113346D03*
D33*
X0191522Y0112579D03*
X0191522Y0077421D03*
D34*
X0270833Y0136594D03*
X0270833Y0147421D03*
D35*
X0264829Y0142008D03*
X0276837Y0142008D03*
D36*
X0190833Y0193976D03*
X0185833Y0193976D03*
X0180833Y0193976D03*
X0175833Y0193976D03*
X0170833Y0193976D03*
X0165833Y0193976D03*
X0160833Y0193976D03*
X0160833Y0216024D03*
X0165833Y0216024D03*
X0170833Y0216024D03*
X0175833Y0216024D03*
X0180833Y0216024D03*
X0185833Y0216024D03*
X0190833Y0216024D03*
D37*
X0133333Y0115512D03*
X0133333Y0104488D03*
D38*
X0313333Y0088697D03*
X0313333Y0238303D03*
D39*
X0309593Y0122161D03*
X0309593Y0114287D03*
D40*
X0094239Y0111969D03*
D41*
X0094140Y0110000D03*
X0094140Y0108031D03*
X0097526Y0108031D03*
X0097526Y0110000D03*
X0097526Y0111969D03*
D42*
X0183806Y0069740D03*
X0183806Y0066000D03*
X0183806Y0062260D03*
X0192861Y0062260D03*
X0192861Y0066000D03*
X0192861Y0069740D03*
M02*
