G75*
%MOIN*%
%OFA0B0*%
%FSLAX25Y25*%
%IPPOS*%
%LPD*%
%AMOC8*
5,1,8,0,0,1.08239X$1,22.5*
%
%ADD10C,0.05000*%
%ADD11R,0.03950X0.06706*%
%ADD12R,0.06706X0.03950*%
%ADD13R,0.05131X0.05131*%
%ADD14R,0.07690X0.02375*%
%ADD15R,0.06548X0.08674*%
%ADD16R,0.10643X0.06410*%
%ADD17C,0.00400*%
%ADD18R,0.08674X0.05524*%
%ADD19R,0.06115X0.03162*%
%ADD20R,0.18910X0.04737*%
%ADD21R,0.14186X0.07099*%
%ADD22R,0.03800X0.06800*%
%ADD23C,0.08200*%
%ADD24R,0.02965X0.05524*%
%ADD25R,0.05131X0.04737*%
%ADD26R,0.03280X0.04068*%
%ADD27C,0.01990*%
%ADD28R,0.04343X0.03950*%
%ADD29R,0.04737X0.05131*%
%ADD30R,0.03359X0.01981*%
%ADD31R,0.07099X0.10052*%
%ADD32R,0.04737X0.05328*%
%ADD33C,0.04146*%
%ADD34R,0.05918X0.03359*%
%ADD35R,0.07887X0.02690*%
%ADD36R,0.04737X0.04855*%
%ADD37R,0.09461X0.04146*%
%ADD38R,0.04934X0.04737*%
%ADD39R,0.07887X0.07099*%
%ADD40R,0.22847X0.11036*%
%ADD41R,0.15367X0.06312*%
%ADD42C,0.13800*%
%ADD43R,0.03300X0.05800*%
%ADD44R,0.05800X0.03300*%
%ADD45C,0.00500*%
%ADD46R,0.03202X0.01784*%
%ADD47R,0.03005X0.01784*%
%ADD48R,0.05524X0.03162*%
%ADD49C,0.03300*%
%ADD50R,0.01784X0.03753*%
%ADD51R,0.02000X0.04700*%
%ADD52C,0.04737*%
%ADD53C,0.06706*%
D10*
X0093959Y0020250D02*
X0093961Y0020369D01*
X0093967Y0020488D01*
X0093977Y0020607D01*
X0093991Y0020725D01*
X0094009Y0020843D01*
X0094030Y0020960D01*
X0094056Y0021076D01*
X0094086Y0021192D01*
X0094119Y0021306D01*
X0094156Y0021419D01*
X0094197Y0021531D01*
X0094242Y0021642D01*
X0094290Y0021751D01*
X0094342Y0021858D01*
X0094398Y0021963D01*
X0094457Y0022067D01*
X0094519Y0022168D01*
X0094585Y0022268D01*
X0094654Y0022365D01*
X0094726Y0022459D01*
X0094802Y0022552D01*
X0094880Y0022641D01*
X0094961Y0022728D01*
X0095046Y0022813D01*
X0095133Y0022894D01*
X0095222Y0022972D01*
X0095315Y0023048D01*
X0095409Y0023120D01*
X0095506Y0023189D01*
X0095606Y0023255D01*
X0095707Y0023317D01*
X0095811Y0023376D01*
X0095916Y0023432D01*
X0096023Y0023484D01*
X0096132Y0023532D01*
X0096243Y0023577D01*
X0096355Y0023618D01*
X0096468Y0023655D01*
X0096582Y0023688D01*
X0096698Y0023718D01*
X0096814Y0023744D01*
X0096931Y0023765D01*
X0097049Y0023783D01*
X0097167Y0023797D01*
X0097286Y0023807D01*
X0097405Y0023813D01*
X0097524Y0023815D01*
X0097643Y0023813D01*
X0097762Y0023807D01*
X0097881Y0023797D01*
X0097999Y0023783D01*
X0098117Y0023765D01*
X0098234Y0023744D01*
X0098350Y0023718D01*
X0098466Y0023688D01*
X0098580Y0023655D01*
X0098693Y0023618D01*
X0098805Y0023577D01*
X0098916Y0023532D01*
X0099025Y0023484D01*
X0099132Y0023432D01*
X0099237Y0023376D01*
X0099341Y0023317D01*
X0099442Y0023255D01*
X0099542Y0023189D01*
X0099639Y0023120D01*
X0099733Y0023048D01*
X0099826Y0022972D01*
X0099915Y0022894D01*
X0100002Y0022813D01*
X0100087Y0022728D01*
X0100168Y0022641D01*
X0100246Y0022552D01*
X0100322Y0022459D01*
X0100394Y0022365D01*
X0100463Y0022268D01*
X0100529Y0022168D01*
X0100591Y0022067D01*
X0100650Y0021963D01*
X0100706Y0021858D01*
X0100758Y0021751D01*
X0100806Y0021642D01*
X0100851Y0021531D01*
X0100892Y0021419D01*
X0100929Y0021306D01*
X0100962Y0021192D01*
X0100992Y0021076D01*
X0101018Y0020960D01*
X0101039Y0020843D01*
X0101057Y0020725D01*
X0101071Y0020607D01*
X0101081Y0020488D01*
X0101087Y0020369D01*
X0101089Y0020250D01*
X0101087Y0020131D01*
X0101081Y0020012D01*
X0101071Y0019893D01*
X0101057Y0019775D01*
X0101039Y0019657D01*
X0101018Y0019540D01*
X0100992Y0019424D01*
X0100962Y0019308D01*
X0100929Y0019194D01*
X0100892Y0019081D01*
X0100851Y0018969D01*
X0100806Y0018858D01*
X0100758Y0018749D01*
X0100706Y0018642D01*
X0100650Y0018537D01*
X0100591Y0018433D01*
X0100529Y0018332D01*
X0100463Y0018232D01*
X0100394Y0018135D01*
X0100322Y0018041D01*
X0100246Y0017948D01*
X0100168Y0017859D01*
X0100087Y0017772D01*
X0100002Y0017687D01*
X0099915Y0017606D01*
X0099826Y0017528D01*
X0099733Y0017452D01*
X0099639Y0017380D01*
X0099542Y0017311D01*
X0099442Y0017245D01*
X0099341Y0017183D01*
X0099237Y0017124D01*
X0099132Y0017068D01*
X0099025Y0017016D01*
X0098916Y0016968D01*
X0098805Y0016923D01*
X0098693Y0016882D01*
X0098580Y0016845D01*
X0098466Y0016812D01*
X0098350Y0016782D01*
X0098234Y0016756D01*
X0098117Y0016735D01*
X0097999Y0016717D01*
X0097881Y0016703D01*
X0097762Y0016693D01*
X0097643Y0016687D01*
X0097524Y0016685D01*
X0097405Y0016687D01*
X0097286Y0016693D01*
X0097167Y0016703D01*
X0097049Y0016717D01*
X0096931Y0016735D01*
X0096814Y0016756D01*
X0096698Y0016782D01*
X0096582Y0016812D01*
X0096468Y0016845D01*
X0096355Y0016882D01*
X0096243Y0016923D01*
X0096132Y0016968D01*
X0096023Y0017016D01*
X0095916Y0017068D01*
X0095811Y0017124D01*
X0095707Y0017183D01*
X0095606Y0017245D01*
X0095506Y0017311D01*
X0095409Y0017380D01*
X0095315Y0017452D01*
X0095222Y0017528D01*
X0095133Y0017606D01*
X0095046Y0017687D01*
X0094961Y0017772D01*
X0094880Y0017859D01*
X0094802Y0017948D01*
X0094726Y0018041D01*
X0094654Y0018135D01*
X0094585Y0018232D01*
X0094519Y0018332D01*
X0094457Y0018433D01*
X0094398Y0018537D01*
X0094342Y0018642D01*
X0094290Y0018749D01*
X0094242Y0018858D01*
X0094197Y0018969D01*
X0094156Y0019081D01*
X0094119Y0019194D01*
X0094086Y0019308D01*
X0094056Y0019424D01*
X0094030Y0019540D01*
X0094009Y0019657D01*
X0093991Y0019775D01*
X0093977Y0019893D01*
X0093967Y0020012D01*
X0093961Y0020131D01*
X0093959Y0020250D01*
X0253524Y0130800D02*
X0253524Y0132400D01*
X0253524Y0132500D02*
X0253524Y0131000D01*
X0531524Y0131000D02*
X0531524Y0132500D01*
X0531524Y0132400D02*
X0531524Y0130800D01*
X0531524Y0342800D02*
X0531524Y0344400D01*
X0531524Y0344500D02*
X0531524Y0343000D01*
X0253524Y0343000D02*
X0253524Y0344500D01*
X0253524Y0344400D02*
X0253524Y0342800D01*
D11*
X0195831Y0333138D03*
X0191500Y0333138D03*
X0187169Y0333138D03*
X0182839Y0333138D03*
X0178508Y0333138D03*
X0174177Y0333138D03*
X0169846Y0333138D03*
X0165516Y0333138D03*
X0161185Y0333138D03*
X0156854Y0333138D03*
X0152524Y0333138D03*
X0148193Y0333138D03*
X0143862Y0333138D03*
X0139531Y0333138D03*
X0135201Y0333138D03*
X0130870Y0333138D03*
X0126539Y0333138D03*
X0122209Y0333138D03*
X0117878Y0333138D03*
X0113547Y0333138D03*
X0109217Y0333138D03*
X0109217Y0387862D03*
X0113547Y0387862D03*
X0117878Y0387862D03*
X0122209Y0387862D03*
X0126539Y0387862D03*
X0130870Y0387862D03*
X0135201Y0387862D03*
X0139531Y0387862D03*
X0143862Y0387862D03*
X0148193Y0387862D03*
X0152524Y0387862D03*
X0156854Y0387862D03*
X0161185Y0387862D03*
X0165516Y0387862D03*
X0169846Y0387862D03*
X0174177Y0387862D03*
X0178508Y0387862D03*
X0182839Y0387862D03*
X0187169Y0387862D03*
X0191500Y0387862D03*
X0195831Y0387862D03*
X0387217Y0387862D03*
X0391547Y0387862D03*
X0395878Y0387862D03*
X0400209Y0387862D03*
X0404539Y0387862D03*
X0408870Y0387862D03*
X0413201Y0387862D03*
X0417531Y0387862D03*
X0421862Y0387862D03*
X0426193Y0387862D03*
X0430524Y0387862D03*
X0434854Y0387862D03*
X0439185Y0387862D03*
X0443516Y0387862D03*
X0447846Y0387862D03*
X0452177Y0387862D03*
X0456508Y0387862D03*
X0460839Y0387862D03*
X0465169Y0387862D03*
X0469500Y0387862D03*
X0473831Y0387862D03*
X0473831Y0333138D03*
X0469500Y0333138D03*
X0465169Y0333138D03*
X0460839Y0333138D03*
X0456508Y0333138D03*
X0452177Y0333138D03*
X0447846Y0333138D03*
X0443516Y0333138D03*
X0439185Y0333138D03*
X0434854Y0333138D03*
X0430524Y0333138D03*
X0426193Y0333138D03*
X0421862Y0333138D03*
X0417531Y0333138D03*
X0413201Y0333138D03*
X0408870Y0333138D03*
X0404539Y0333138D03*
X0400209Y0333138D03*
X0395878Y0333138D03*
X0391547Y0333138D03*
X0387217Y0333138D03*
X0387217Y0175862D03*
X0391547Y0175862D03*
X0395878Y0175862D03*
X0400209Y0175862D03*
X0404539Y0175862D03*
X0408870Y0175862D03*
X0413201Y0175862D03*
X0417531Y0175862D03*
X0421862Y0175862D03*
X0426193Y0175862D03*
X0430524Y0175862D03*
X0434854Y0175862D03*
X0439185Y0175862D03*
X0443516Y0175862D03*
X0447846Y0175862D03*
X0452177Y0175862D03*
X0456508Y0175862D03*
X0460839Y0175862D03*
X0465169Y0175862D03*
X0469500Y0175862D03*
X0473831Y0175862D03*
X0473831Y0121138D03*
X0469500Y0121138D03*
X0465169Y0121138D03*
X0460839Y0121138D03*
X0456508Y0121138D03*
X0452177Y0121138D03*
X0447846Y0121138D03*
X0443516Y0121138D03*
X0439185Y0121138D03*
X0434854Y0121138D03*
X0430524Y0121138D03*
X0426193Y0121138D03*
X0421862Y0121138D03*
X0417531Y0121138D03*
X0413201Y0121138D03*
X0408870Y0121138D03*
X0404539Y0121138D03*
X0400209Y0121138D03*
X0395878Y0121138D03*
X0391547Y0121138D03*
X0387217Y0121138D03*
X0195831Y0121138D03*
X0191500Y0121138D03*
X0187169Y0121138D03*
X0182839Y0121138D03*
X0178508Y0121138D03*
X0174177Y0121138D03*
X0169846Y0121138D03*
X0165516Y0121138D03*
X0161185Y0121138D03*
X0156854Y0121138D03*
X0152524Y0121138D03*
X0148193Y0121138D03*
X0143862Y0121138D03*
X0139531Y0121138D03*
X0135201Y0121138D03*
X0130870Y0121138D03*
X0126539Y0121138D03*
X0122209Y0121138D03*
X0117878Y0121138D03*
X0113547Y0121138D03*
X0109217Y0121138D03*
X0109217Y0175862D03*
X0113547Y0175862D03*
X0117878Y0175862D03*
X0122209Y0175862D03*
X0126539Y0175862D03*
X0130870Y0175862D03*
X0135201Y0175862D03*
X0139531Y0175862D03*
X0143862Y0175862D03*
X0148193Y0175862D03*
X0152524Y0175862D03*
X0156854Y0175862D03*
X0161185Y0175862D03*
X0165516Y0175862D03*
X0169846Y0175862D03*
X0174177Y0175862D03*
X0178508Y0175862D03*
X0182839Y0175862D03*
X0187169Y0175862D03*
X0191500Y0175862D03*
X0195831Y0175862D03*
D12*
X0199571Y0170154D03*
X0199571Y0165823D03*
X0199571Y0161492D03*
X0199571Y0157161D03*
X0199571Y0152831D03*
X0199571Y0148500D03*
X0199571Y0144169D03*
X0199571Y0139839D03*
X0199571Y0135508D03*
X0199571Y0131177D03*
X0199571Y0126846D03*
X0105476Y0126846D03*
X0105476Y0131177D03*
X0105476Y0135508D03*
X0105476Y0139839D03*
X0105476Y0144169D03*
X0105476Y0148500D03*
X0105476Y0152831D03*
X0105476Y0157161D03*
X0105476Y0161492D03*
X0105476Y0165823D03*
X0105476Y0170154D03*
X0105476Y0338846D03*
X0105476Y0343177D03*
X0105476Y0347508D03*
X0105476Y0351839D03*
X0105476Y0356169D03*
X0105476Y0360500D03*
X0105476Y0364831D03*
X0105476Y0369161D03*
X0105476Y0373492D03*
X0105476Y0377823D03*
X0105476Y0382154D03*
X0199571Y0382154D03*
X0199571Y0377823D03*
X0199571Y0373492D03*
X0199571Y0369161D03*
X0199571Y0364831D03*
X0199571Y0360500D03*
X0199571Y0356169D03*
X0199571Y0351839D03*
X0199571Y0347508D03*
X0199571Y0343177D03*
X0199571Y0338846D03*
X0383476Y0338846D03*
X0383476Y0343177D03*
X0383476Y0347508D03*
X0383476Y0351839D03*
X0383476Y0356169D03*
X0383476Y0360500D03*
X0383476Y0364831D03*
X0383476Y0369161D03*
X0383476Y0373492D03*
X0383476Y0377823D03*
X0383476Y0382154D03*
X0477571Y0382154D03*
X0477571Y0377823D03*
X0477571Y0373492D03*
X0477571Y0369161D03*
X0477571Y0364831D03*
X0477571Y0360500D03*
X0477571Y0356169D03*
X0477571Y0351839D03*
X0477571Y0347508D03*
X0477571Y0343177D03*
X0477571Y0338846D03*
X0477571Y0170154D03*
X0477571Y0165823D03*
X0477571Y0161492D03*
X0477571Y0157161D03*
X0477571Y0152831D03*
X0477571Y0148500D03*
X0477571Y0144169D03*
X0477571Y0139839D03*
X0477571Y0135508D03*
X0477571Y0131177D03*
X0477571Y0126846D03*
X0383476Y0126846D03*
X0383476Y0131177D03*
X0383476Y0135508D03*
X0383476Y0139839D03*
X0383476Y0144169D03*
X0383476Y0148500D03*
X0383476Y0152831D03*
X0383476Y0157161D03*
X0383476Y0161492D03*
X0383476Y0165823D03*
X0383476Y0170154D03*
D13*
X0390169Y0169169D03*
X0397256Y0169169D03*
X0404343Y0169169D03*
X0397256Y0160902D03*
X0390169Y0160902D03*
X0390169Y0152634D03*
X0397256Y0152634D03*
X0397256Y0144366D03*
X0390169Y0144366D03*
X0390169Y0136098D03*
X0397256Y0136098D03*
X0397256Y0127831D03*
X0404343Y0127831D03*
X0418516Y0127831D03*
X0442531Y0127831D03*
X0456705Y0127831D03*
X0463791Y0127831D03*
X0470878Y0127831D03*
X0470878Y0136098D03*
X0463791Y0136098D03*
X0463791Y0144366D03*
X0470878Y0144366D03*
X0470878Y0152634D03*
X0463791Y0152634D03*
X0463791Y0160902D03*
X0470878Y0160902D03*
X0470878Y0169169D03*
X0463791Y0169169D03*
X0456705Y0169169D03*
X0442531Y0169169D03*
X0418516Y0169169D03*
X0390169Y0127831D03*
X0192878Y0127831D03*
X0185791Y0127831D03*
X0178705Y0127831D03*
X0185791Y0136098D03*
X0192878Y0136098D03*
X0192878Y0144366D03*
X0185791Y0144366D03*
X0185791Y0152634D03*
X0192878Y0152634D03*
X0192878Y0160902D03*
X0185791Y0160902D03*
X0185791Y0169169D03*
X0178705Y0169169D03*
X0192878Y0169169D03*
X0164531Y0169169D03*
X0140516Y0169169D03*
X0126343Y0169169D03*
X0119256Y0169169D03*
X0112169Y0169169D03*
X0112169Y0160902D03*
X0119256Y0160902D03*
X0119256Y0152634D03*
X0112169Y0152634D03*
X0112169Y0144366D03*
X0119256Y0144366D03*
X0119256Y0136098D03*
X0112169Y0136098D03*
X0112169Y0127831D03*
X0119256Y0127831D03*
X0126343Y0127831D03*
X0140516Y0127831D03*
X0164531Y0127831D03*
X0164531Y0339831D03*
X0178705Y0339831D03*
X0185791Y0339831D03*
X0192878Y0339831D03*
X0192878Y0348098D03*
X0185791Y0348098D03*
X0185791Y0356366D03*
X0192878Y0356366D03*
X0192878Y0364634D03*
X0185791Y0364634D03*
X0185791Y0372902D03*
X0192878Y0372902D03*
X0192878Y0381169D03*
X0185791Y0381169D03*
X0178705Y0381169D03*
X0164531Y0381169D03*
X0140516Y0381169D03*
X0126343Y0381169D03*
X0119256Y0381169D03*
X0112169Y0381169D03*
X0112169Y0372902D03*
X0119256Y0372902D03*
X0119256Y0364634D03*
X0112169Y0364634D03*
X0112169Y0356366D03*
X0119256Y0356366D03*
X0119256Y0348098D03*
X0112169Y0348098D03*
X0112169Y0339831D03*
X0119256Y0339831D03*
X0126343Y0339831D03*
X0140516Y0339831D03*
X0390169Y0339831D03*
X0397256Y0339831D03*
X0404343Y0339831D03*
X0397256Y0348098D03*
X0390169Y0348098D03*
X0390169Y0356366D03*
X0397256Y0356366D03*
X0397256Y0364634D03*
X0390169Y0364634D03*
X0390169Y0372902D03*
X0397256Y0372902D03*
X0397256Y0381169D03*
X0404343Y0381169D03*
X0418516Y0381169D03*
X0442531Y0381169D03*
X0456705Y0381169D03*
X0463791Y0381169D03*
X0470878Y0381169D03*
X0470878Y0372902D03*
X0463791Y0372902D03*
X0463791Y0364634D03*
X0470878Y0364634D03*
X0470878Y0356366D03*
X0463791Y0356366D03*
X0463791Y0348098D03*
X0470878Y0348098D03*
X0470878Y0339831D03*
X0463791Y0339831D03*
X0456705Y0339831D03*
X0442531Y0339831D03*
X0418516Y0339831D03*
X0390169Y0381169D03*
D14*
X0360524Y0320118D03*
X0360524Y0317559D03*
X0360524Y0315000D03*
X0360524Y0312441D03*
X0360524Y0309882D03*
X0082524Y0309882D03*
X0082524Y0312441D03*
X0082524Y0315000D03*
X0082524Y0317559D03*
X0082524Y0320118D03*
X0082524Y0108118D03*
X0082524Y0105559D03*
X0082524Y0103000D03*
X0082524Y0100441D03*
X0082524Y0097882D03*
X0360524Y0097882D03*
X0360524Y0100441D03*
X0360524Y0103000D03*
X0360524Y0105559D03*
X0360524Y0108118D03*
D15*
X0361606Y0114417D03*
X0361606Y0091583D03*
X0083606Y0091583D03*
X0083606Y0114417D03*
X0083606Y0303583D03*
X0083606Y0326417D03*
X0361606Y0326417D03*
X0361606Y0303583D03*
D16*
X0349992Y0311211D03*
X0349992Y0318789D03*
X0071992Y0318789D03*
X0071992Y0311211D03*
X0071992Y0106789D03*
X0071992Y0099211D03*
X0349992Y0099211D03*
X0349992Y0106789D03*
D17*
X0347827Y0110874D02*
X0347515Y0110865D01*
X0347209Y0110925D01*
X0346925Y0111052D01*
X0346675Y0111239D01*
X0346474Y0111477D01*
X0346330Y0111753D01*
X0346252Y0112055D01*
X0346252Y0114811D01*
X0346291Y0115161D01*
X0346408Y0115494D01*
X0346596Y0115793D01*
X0346845Y0116042D01*
X0347143Y0116230D01*
X0347476Y0116346D01*
X0347827Y0116386D01*
X0354913Y0116386D01*
X0354913Y0117961D01*
X0358063Y0117961D01*
X0358063Y0110874D01*
X0347827Y0110874D01*
X0347060Y0110992D02*
X0358063Y0110992D01*
X0358063Y0111390D02*
X0346547Y0111390D01*
X0346321Y0111789D02*
X0358063Y0111789D01*
X0358063Y0112187D02*
X0346252Y0112187D01*
X0346252Y0112586D02*
X0358063Y0112586D01*
X0358063Y0112984D02*
X0346252Y0112984D01*
X0346252Y0113383D02*
X0358063Y0113383D01*
X0358063Y0113781D02*
X0346252Y0113781D01*
X0346252Y0114180D02*
X0358063Y0114180D01*
X0358063Y0114578D02*
X0346252Y0114578D01*
X0346271Y0114977D02*
X0358063Y0114977D01*
X0358063Y0115375D02*
X0346366Y0115375D01*
X0346584Y0115774D02*
X0358063Y0115774D01*
X0358063Y0116172D02*
X0347052Y0116172D01*
X0354913Y0116571D02*
X0358063Y0116571D01*
X0358063Y0116970D02*
X0354913Y0116970D01*
X0354913Y0117368D02*
X0358063Y0117368D01*
X0358063Y0117767D02*
X0354913Y0117767D01*
X0358063Y0095126D02*
X0347433Y0095126D01*
X0347170Y0095096D01*
X0346921Y0095009D01*
X0346697Y0094868D01*
X0346510Y0094681D01*
X0346369Y0094457D01*
X0346282Y0094208D01*
X0346252Y0093945D01*
X0346252Y0090795D01*
X0346243Y0090484D01*
X0346303Y0090178D01*
X0346430Y0089893D01*
X0346617Y0089644D01*
X0346855Y0089442D01*
X0347131Y0089299D01*
X0347433Y0089220D01*
X0354913Y0089220D01*
X0354913Y0088039D01*
X0358063Y0088039D01*
X0358063Y0095126D01*
X0358063Y0095051D02*
X0347042Y0095051D01*
X0346492Y0094653D02*
X0358063Y0094653D01*
X0358063Y0094254D02*
X0346298Y0094254D01*
X0346252Y0093856D02*
X0358063Y0093856D01*
X0358063Y0093457D02*
X0346252Y0093457D01*
X0346252Y0093059D02*
X0358063Y0093059D01*
X0358063Y0092660D02*
X0346252Y0092660D01*
X0346252Y0092262D02*
X0358063Y0092262D01*
X0358063Y0091863D02*
X0346252Y0091863D01*
X0346252Y0091465D02*
X0358063Y0091465D01*
X0358063Y0091066D02*
X0346252Y0091066D01*
X0346248Y0090668D02*
X0358063Y0090668D01*
X0358063Y0090269D02*
X0346285Y0090269D01*
X0346447Y0089871D02*
X0358063Y0089871D01*
X0358063Y0089472D02*
X0346819Y0089472D01*
X0354913Y0089074D02*
X0358063Y0089074D01*
X0358063Y0088675D02*
X0354913Y0088675D01*
X0354913Y0088277D02*
X0358063Y0088277D01*
X0080063Y0088277D02*
X0076913Y0088277D01*
X0076913Y0088039D02*
X0076913Y0089220D01*
X0069433Y0089220D01*
X0069131Y0089299D01*
X0068855Y0089442D01*
X0068617Y0089644D01*
X0068430Y0089893D01*
X0068303Y0090178D01*
X0068243Y0090484D01*
X0068252Y0090795D01*
X0068252Y0093945D01*
X0068282Y0094208D01*
X0068369Y0094457D01*
X0068510Y0094681D01*
X0068697Y0094868D01*
X0068921Y0095009D01*
X0069170Y0095096D01*
X0069433Y0095126D01*
X0080063Y0095126D01*
X0080063Y0088039D01*
X0076913Y0088039D01*
X0076913Y0088675D02*
X0080063Y0088675D01*
X0080063Y0089074D02*
X0076913Y0089074D01*
X0080063Y0089472D02*
X0068819Y0089472D01*
X0068447Y0089871D02*
X0080063Y0089871D01*
X0080063Y0090269D02*
X0068285Y0090269D01*
X0068248Y0090668D02*
X0080063Y0090668D01*
X0080063Y0091066D02*
X0068252Y0091066D01*
X0068252Y0091465D02*
X0080063Y0091465D01*
X0080063Y0091863D02*
X0068252Y0091863D01*
X0068252Y0092262D02*
X0080063Y0092262D01*
X0080063Y0092660D02*
X0068252Y0092660D01*
X0068252Y0093059D02*
X0080063Y0093059D01*
X0080063Y0093457D02*
X0068252Y0093457D01*
X0068252Y0093856D02*
X0080063Y0093856D01*
X0080063Y0094254D02*
X0068298Y0094254D01*
X0068492Y0094653D02*
X0080063Y0094653D01*
X0080063Y0095051D02*
X0069042Y0095051D01*
X0069515Y0110865D02*
X0069209Y0110925D01*
X0068925Y0111052D01*
X0068675Y0111239D01*
X0068474Y0111477D01*
X0068330Y0111753D01*
X0068252Y0112055D01*
X0068252Y0114811D01*
X0068291Y0115161D01*
X0068408Y0115494D01*
X0068596Y0115793D01*
X0068845Y0116042D01*
X0069143Y0116230D01*
X0069476Y0116346D01*
X0069827Y0116386D01*
X0076913Y0116386D01*
X0076913Y0117961D01*
X0080063Y0117961D01*
X0080063Y0110874D01*
X0069827Y0110874D01*
X0069515Y0110865D01*
X0069060Y0110992D02*
X0080063Y0110992D01*
X0080063Y0111390D02*
X0068547Y0111390D01*
X0068321Y0111789D02*
X0080063Y0111789D01*
X0080063Y0112187D02*
X0068252Y0112187D01*
X0068252Y0112586D02*
X0080063Y0112586D01*
X0080063Y0112984D02*
X0068252Y0112984D01*
X0068252Y0113383D02*
X0080063Y0113383D01*
X0080063Y0113781D02*
X0068252Y0113781D01*
X0068252Y0114180D02*
X0080063Y0114180D01*
X0080063Y0114578D02*
X0068252Y0114578D01*
X0068271Y0114977D02*
X0080063Y0114977D01*
X0080063Y0115375D02*
X0068366Y0115375D01*
X0068584Y0115774D02*
X0080063Y0115774D01*
X0080063Y0116172D02*
X0069052Y0116172D01*
X0076913Y0116571D02*
X0080063Y0116571D01*
X0080063Y0116970D02*
X0076913Y0116970D01*
X0076913Y0117368D02*
X0080063Y0117368D01*
X0080063Y0117767D02*
X0076913Y0117767D01*
X0076913Y0300039D02*
X0076913Y0301220D01*
X0069433Y0301220D01*
X0069131Y0301299D01*
X0068855Y0301442D01*
X0068617Y0301644D01*
X0068430Y0301893D01*
X0068303Y0302178D01*
X0068243Y0302484D01*
X0068252Y0302795D01*
X0068252Y0305945D01*
X0068282Y0306208D01*
X0068369Y0306457D01*
X0068510Y0306681D01*
X0068697Y0306868D01*
X0068921Y0307009D01*
X0069170Y0307096D01*
X0069433Y0307126D01*
X0080063Y0307126D01*
X0080063Y0300039D01*
X0076913Y0300039D01*
X0076913Y0300285D02*
X0080063Y0300285D01*
X0080063Y0300683D02*
X0076913Y0300683D01*
X0076913Y0301082D02*
X0080063Y0301082D01*
X0080063Y0301480D02*
X0068810Y0301480D01*
X0068441Y0301879D02*
X0080063Y0301879D01*
X0080063Y0302277D02*
X0068283Y0302277D01*
X0068248Y0302676D02*
X0080063Y0302676D01*
X0080063Y0303074D02*
X0068252Y0303074D01*
X0068252Y0303473D02*
X0080063Y0303473D01*
X0080063Y0303871D02*
X0068252Y0303871D01*
X0068252Y0304270D02*
X0080063Y0304270D01*
X0080063Y0304668D02*
X0068252Y0304668D01*
X0068252Y0305067D02*
X0080063Y0305067D01*
X0080063Y0305465D02*
X0068252Y0305465D01*
X0068252Y0305864D02*
X0080063Y0305864D01*
X0080063Y0306262D02*
X0068301Y0306262D01*
X0068497Y0306661D02*
X0080063Y0306661D01*
X0080063Y0307059D02*
X0069065Y0307059D01*
X0069515Y0322865D02*
X0069209Y0322925D01*
X0068925Y0323052D01*
X0068675Y0323239D01*
X0068474Y0323477D01*
X0068330Y0323753D01*
X0068252Y0324055D01*
X0068252Y0326811D01*
X0068291Y0327161D01*
X0068408Y0327494D01*
X0068596Y0327793D01*
X0068845Y0328042D01*
X0069143Y0328230D01*
X0069476Y0328346D01*
X0069827Y0328386D01*
X0076913Y0328386D01*
X0076913Y0329961D01*
X0080063Y0329961D01*
X0080063Y0322874D01*
X0069827Y0322874D01*
X0069515Y0322865D01*
X0069042Y0323000D02*
X0080063Y0323000D01*
X0080063Y0323398D02*
X0068540Y0323398D01*
X0068319Y0323797D02*
X0080063Y0323797D01*
X0080063Y0324195D02*
X0068252Y0324195D01*
X0068252Y0324594D02*
X0080063Y0324594D01*
X0080063Y0324992D02*
X0068252Y0324992D01*
X0068252Y0325391D02*
X0080063Y0325391D01*
X0080063Y0325789D02*
X0068252Y0325789D01*
X0068252Y0326188D02*
X0080063Y0326188D01*
X0080063Y0326586D02*
X0068252Y0326586D01*
X0068272Y0326985D02*
X0080063Y0326985D01*
X0080063Y0327383D02*
X0068369Y0327383D01*
X0068589Y0327782D02*
X0080063Y0327782D01*
X0080063Y0328181D02*
X0069065Y0328181D01*
X0076913Y0328579D02*
X0080063Y0328579D01*
X0080063Y0328978D02*
X0076913Y0328978D01*
X0076913Y0329376D02*
X0080063Y0329376D01*
X0080063Y0329775D02*
X0076913Y0329775D01*
X0346252Y0326811D02*
X0346252Y0324055D01*
X0346330Y0323753D01*
X0346474Y0323477D01*
X0346675Y0323239D01*
X0346925Y0323052D01*
X0347209Y0322925D01*
X0347515Y0322865D01*
X0347827Y0322874D01*
X0358063Y0322874D01*
X0358063Y0329961D01*
X0354913Y0329961D01*
X0354913Y0328386D01*
X0347827Y0328386D01*
X0347476Y0328346D01*
X0347143Y0328230D01*
X0346845Y0328042D01*
X0346596Y0327793D01*
X0346408Y0327494D01*
X0346291Y0327161D01*
X0346252Y0326811D01*
X0346272Y0326985D02*
X0358063Y0326985D01*
X0358063Y0327383D02*
X0346369Y0327383D01*
X0346589Y0327782D02*
X0358063Y0327782D01*
X0358063Y0328181D02*
X0347065Y0328181D01*
X0346252Y0326586D02*
X0358063Y0326586D01*
X0358063Y0326188D02*
X0346252Y0326188D01*
X0346252Y0325789D02*
X0358063Y0325789D01*
X0358063Y0325391D02*
X0346252Y0325391D01*
X0346252Y0324992D02*
X0358063Y0324992D01*
X0358063Y0324594D02*
X0346252Y0324594D01*
X0346252Y0324195D02*
X0358063Y0324195D01*
X0358063Y0323797D02*
X0346319Y0323797D01*
X0346540Y0323398D02*
X0358063Y0323398D01*
X0358063Y0323000D02*
X0347042Y0323000D01*
X0354913Y0328579D02*
X0358063Y0328579D01*
X0358063Y0328978D02*
X0354913Y0328978D01*
X0354913Y0329376D02*
X0358063Y0329376D01*
X0358063Y0329775D02*
X0354913Y0329775D01*
X0358063Y0307126D02*
X0347433Y0307126D01*
X0347170Y0307096D01*
X0346921Y0307009D01*
X0346697Y0306868D01*
X0346510Y0306681D01*
X0346369Y0306457D01*
X0346282Y0306208D01*
X0346252Y0305945D01*
X0346252Y0302795D01*
X0346243Y0302484D01*
X0346303Y0302178D01*
X0346430Y0301893D01*
X0346617Y0301644D01*
X0346855Y0301442D01*
X0347131Y0301299D01*
X0347433Y0301220D01*
X0354913Y0301220D01*
X0354913Y0300039D01*
X0358063Y0300039D01*
X0358063Y0307126D01*
X0358063Y0307059D02*
X0347065Y0307059D01*
X0346497Y0306661D02*
X0358063Y0306661D01*
X0358063Y0306262D02*
X0346301Y0306262D01*
X0346252Y0305864D02*
X0358063Y0305864D01*
X0358063Y0305465D02*
X0346252Y0305465D01*
X0346252Y0305067D02*
X0358063Y0305067D01*
X0358063Y0304668D02*
X0346252Y0304668D01*
X0346252Y0304270D02*
X0358063Y0304270D01*
X0358063Y0303871D02*
X0346252Y0303871D01*
X0346252Y0303473D02*
X0358063Y0303473D01*
X0358063Y0303074D02*
X0346252Y0303074D01*
X0346248Y0302676D02*
X0358063Y0302676D01*
X0358063Y0302277D02*
X0346283Y0302277D01*
X0346441Y0301879D02*
X0358063Y0301879D01*
X0358063Y0301480D02*
X0346810Y0301480D01*
X0354913Y0301082D02*
X0358063Y0301082D01*
X0358063Y0300683D02*
X0354913Y0300683D01*
X0354913Y0300285D02*
X0358063Y0300285D01*
D18*
X0346055Y0364476D03*
X0346055Y0386524D03*
X0068055Y0386524D03*
X0068055Y0364476D03*
X0068055Y0174524D03*
X0068055Y0152476D03*
X0346055Y0152476D03*
X0346055Y0174524D03*
D19*
X0360524Y0169406D03*
X0360524Y0165469D03*
X0360524Y0161531D03*
X0360524Y0157594D03*
X0082524Y0157594D03*
X0082524Y0161531D03*
X0082524Y0165469D03*
X0082524Y0169406D03*
X0082524Y0369594D03*
X0082524Y0373531D03*
X0082524Y0377469D03*
X0082524Y0381406D03*
X0360524Y0381406D03*
X0360524Y0377469D03*
X0360524Y0373531D03*
X0360524Y0369594D03*
D20*
X0369091Y0282437D03*
X0369091Y0274563D03*
X0091091Y0274563D03*
X0091091Y0282437D03*
X0091091Y0070437D03*
X0091091Y0062563D03*
X0369091Y0062563D03*
X0369091Y0070437D03*
D21*
X0070618Y0053114D03*
X0070618Y0079886D03*
X0070618Y0265114D03*
X0070618Y0291886D03*
X0348618Y0291886D03*
X0348618Y0265114D03*
X0348618Y0079886D03*
X0348618Y0053114D03*
D22*
X0383024Y0187500D03*
X0398024Y0187500D03*
X0408024Y0187500D03*
X0423024Y0187500D03*
X0423024Y0209500D03*
X0408024Y0209500D03*
X0398024Y0209500D03*
X0383024Y0209500D03*
X0145024Y0209500D03*
X0130024Y0209500D03*
X0120024Y0209500D03*
X0105024Y0209500D03*
X0105024Y0187500D03*
X0120024Y0187500D03*
X0130024Y0187500D03*
X0145024Y0187500D03*
X0145024Y0399500D03*
X0130024Y0399500D03*
X0120024Y0399500D03*
X0105024Y0399500D03*
X0105024Y0421500D03*
X0120024Y0421500D03*
X0130024Y0421500D03*
X0145024Y0421500D03*
X0383024Y0421500D03*
X0398024Y0421500D03*
X0408024Y0421500D03*
X0423024Y0421500D03*
X0423024Y0399500D03*
X0408024Y0399500D03*
X0398024Y0399500D03*
X0383024Y0399500D03*
D23*
X0353024Y0381000D03*
X0353024Y0371000D03*
X0365524Y0360500D03*
X0345524Y0395500D03*
X0345524Y0405500D03*
X0345524Y0415500D03*
X0345524Y0425500D03*
X0345524Y0435500D03*
X0345524Y0445500D03*
X0380524Y0440500D03*
X0390524Y0440500D03*
X0400524Y0440500D03*
X0410524Y0440500D03*
X0420524Y0440500D03*
X0430524Y0440500D03*
X0440524Y0440500D03*
X0450524Y0440500D03*
X0460524Y0440500D03*
X0470524Y0440500D03*
X0485524Y0440500D03*
X0495524Y0440500D03*
X0505524Y0440500D03*
X0515524Y0440500D03*
X0525524Y0440500D03*
X0535524Y0440500D03*
X0545524Y0440500D03*
X0555524Y0440500D03*
X0525524Y0420500D03*
X0525524Y0410500D03*
X0525524Y0400500D03*
X0515524Y0400500D03*
X0515524Y0410500D03*
X0515524Y0420500D03*
X0345524Y0283500D03*
X0345524Y0273500D03*
X0345524Y0233500D03*
X0345524Y0223500D03*
X0345524Y0213500D03*
X0345524Y0203500D03*
X0345524Y0193500D03*
X0345524Y0183500D03*
X0353024Y0169000D03*
X0353024Y0159000D03*
X0365524Y0148500D03*
X0380524Y0228500D03*
X0390524Y0228500D03*
X0400524Y0228500D03*
X0410524Y0228500D03*
X0420524Y0228500D03*
X0430524Y0228500D03*
X0440524Y0228500D03*
X0450524Y0228500D03*
X0460524Y0228500D03*
X0470524Y0228500D03*
X0485524Y0228500D03*
X0495524Y0228500D03*
X0505524Y0228500D03*
X0515524Y0228500D03*
X0525524Y0228500D03*
X0535524Y0228500D03*
X0545524Y0228500D03*
X0555524Y0228500D03*
X0525524Y0208500D03*
X0525524Y0198500D03*
X0525524Y0188500D03*
X0515524Y0188500D03*
X0515524Y0198500D03*
X0515524Y0208500D03*
X0515524Y0250500D03*
X0505524Y0250500D03*
X0525524Y0250500D03*
X0535524Y0250500D03*
X0545524Y0250500D03*
X0555524Y0250500D03*
X0485524Y0250500D03*
X0475524Y0250500D03*
X0465524Y0250500D03*
X0455524Y0250500D03*
X0445524Y0250500D03*
X0435524Y0250500D03*
X0425524Y0250500D03*
X0415524Y0250500D03*
X0277524Y0250500D03*
X0267524Y0250500D03*
X0257524Y0250500D03*
X0247524Y0250500D03*
X0237524Y0250500D03*
X0227524Y0250500D03*
X0207524Y0250500D03*
X0197524Y0250500D03*
X0187524Y0250500D03*
X0177524Y0250500D03*
X0167524Y0250500D03*
X0157524Y0250500D03*
X0147524Y0250500D03*
X0137524Y0250500D03*
X0142524Y0228500D03*
X0132524Y0228500D03*
X0122524Y0228500D03*
X0112524Y0228500D03*
X0102524Y0228500D03*
X0067524Y0223500D03*
X0067524Y0213500D03*
X0067524Y0203500D03*
X0067524Y0193500D03*
X0067524Y0183500D03*
X0075024Y0169000D03*
X0075024Y0159000D03*
X0087524Y0148500D03*
X0152524Y0228500D03*
X0162524Y0228500D03*
X0172524Y0228500D03*
X0182524Y0228500D03*
X0192524Y0228500D03*
X0207524Y0228500D03*
X0217524Y0228500D03*
X0227524Y0228500D03*
X0237524Y0228500D03*
X0247524Y0228500D03*
X0257524Y0228500D03*
X0267524Y0228500D03*
X0277524Y0228500D03*
X0247524Y0208500D03*
X0237524Y0208500D03*
X0237524Y0198500D03*
X0247524Y0198500D03*
X0247524Y0188500D03*
X0237524Y0188500D03*
X0067524Y0233500D03*
X0067524Y0273500D03*
X0067524Y0283500D03*
X0087524Y0360500D03*
X0075024Y0371000D03*
X0075024Y0381000D03*
X0067524Y0395500D03*
X0067524Y0405500D03*
X0067524Y0415500D03*
X0067524Y0425500D03*
X0067524Y0435500D03*
X0067524Y0445500D03*
X0102524Y0440500D03*
X0112524Y0440500D03*
X0122524Y0440500D03*
X0132524Y0440500D03*
X0142524Y0440500D03*
X0152524Y0440500D03*
X0162524Y0440500D03*
X0172524Y0440500D03*
X0182524Y0440500D03*
X0192524Y0440500D03*
X0207524Y0440500D03*
X0217524Y0440500D03*
X0227524Y0440500D03*
X0237524Y0440500D03*
X0247524Y0440500D03*
X0257524Y0440500D03*
X0267524Y0440500D03*
X0277524Y0440500D03*
X0247524Y0420500D03*
X0237524Y0420500D03*
X0237524Y0410500D03*
X0247524Y0410500D03*
X0247524Y0400500D03*
X0237524Y0400500D03*
X0345524Y0071500D03*
X0345524Y0061500D03*
X0415524Y0038500D03*
X0425524Y0038500D03*
X0435524Y0038500D03*
X0445524Y0038500D03*
X0455524Y0038500D03*
X0465524Y0038500D03*
X0475524Y0038500D03*
X0485524Y0038500D03*
X0505524Y0038500D03*
X0515524Y0038500D03*
X0525524Y0038500D03*
X0535524Y0038500D03*
X0545524Y0038500D03*
X0555524Y0038500D03*
X0277524Y0038500D03*
X0267524Y0038500D03*
X0257524Y0038500D03*
X0247524Y0038500D03*
X0237524Y0038500D03*
X0227524Y0038500D03*
X0207524Y0038500D03*
X0197524Y0038500D03*
X0187524Y0038500D03*
X0177524Y0038500D03*
X0167524Y0038500D03*
X0157524Y0038500D03*
X0147524Y0038500D03*
X0137524Y0038500D03*
X0067524Y0061500D03*
X0067524Y0071500D03*
D24*
X0113783Y0078381D03*
X0117524Y0078381D03*
X0121264Y0078381D03*
X0121264Y0088619D03*
X0113783Y0088619D03*
X0096264Y0193381D03*
X0092524Y0193381D03*
X0088783Y0193381D03*
X0088783Y0203619D03*
X0096264Y0203619D03*
X0113783Y0290381D03*
X0117524Y0290381D03*
X0121264Y0290381D03*
X0121264Y0300619D03*
X0113783Y0300619D03*
X0096264Y0405381D03*
X0092524Y0405381D03*
X0088783Y0405381D03*
X0088783Y0415619D03*
X0096264Y0415619D03*
X0366783Y0415619D03*
X0374264Y0415619D03*
X0374264Y0405381D03*
X0370524Y0405381D03*
X0366783Y0405381D03*
X0391783Y0300619D03*
X0399264Y0300619D03*
X0399264Y0290381D03*
X0395524Y0290381D03*
X0391783Y0290381D03*
X0374264Y0203619D03*
X0366783Y0203619D03*
X0366783Y0193381D03*
X0370524Y0193381D03*
X0374264Y0193381D03*
X0391783Y0088619D03*
X0399264Y0088619D03*
X0399264Y0078381D03*
X0395524Y0078381D03*
X0391783Y0078381D03*
D25*
X0390177Y0072000D03*
X0396870Y0072000D03*
X0405677Y0066000D03*
X0412370Y0066000D03*
X0393870Y0112000D03*
X0387177Y0112000D03*
X0372870Y0121500D03*
X0372870Y0127500D03*
X0372870Y0133500D03*
X0366177Y0133500D03*
X0366177Y0127500D03*
X0366177Y0121500D03*
X0367177Y0181500D03*
X0373870Y0181500D03*
X0373870Y0187500D03*
X0367177Y0187500D03*
X0367177Y0210600D03*
X0373870Y0210600D03*
X0405677Y0278000D03*
X0412370Y0278000D03*
X0396870Y0284000D03*
X0390177Y0284000D03*
X0387177Y0324000D03*
X0393870Y0324000D03*
X0372870Y0333500D03*
X0372870Y0339500D03*
X0366177Y0339500D03*
X0366177Y0333500D03*
X0366177Y0345500D03*
X0372870Y0345500D03*
X0373870Y0393500D03*
X0373870Y0399500D03*
X0367177Y0399500D03*
X0367177Y0393500D03*
X0367177Y0422600D03*
X0373870Y0422600D03*
X0492177Y0347508D03*
X0498870Y0347508D03*
X0512177Y0347508D03*
X0518870Y0347508D03*
X0515677Y0360500D03*
X0522370Y0360500D03*
X0244370Y0360500D03*
X0237677Y0360500D03*
X0240870Y0347508D03*
X0234177Y0347508D03*
X0220870Y0347508D03*
X0214177Y0347508D03*
X0115870Y0324000D03*
X0109177Y0324000D03*
X0094870Y0333500D03*
X0094870Y0339500D03*
X0088177Y0339500D03*
X0088177Y0333500D03*
X0088177Y0345500D03*
X0094870Y0345500D03*
X0095870Y0393500D03*
X0095870Y0399500D03*
X0089177Y0399500D03*
X0089177Y0393500D03*
X0089177Y0422600D03*
X0095870Y0422600D03*
X0112177Y0284000D03*
X0118870Y0284000D03*
X0127677Y0278000D03*
X0134370Y0278000D03*
X0095870Y0210600D03*
X0089177Y0210600D03*
X0089177Y0187500D03*
X0095870Y0187500D03*
X0095870Y0181500D03*
X0089177Y0181500D03*
X0088177Y0133500D03*
X0088177Y0127500D03*
X0088177Y0121500D03*
X0094870Y0121500D03*
X0094870Y0127500D03*
X0094870Y0133500D03*
X0109177Y0112000D03*
X0115870Y0112000D03*
X0118870Y0072000D03*
X0112177Y0072000D03*
X0127677Y0066000D03*
X0134370Y0066000D03*
X0214177Y0135508D03*
X0220870Y0135508D03*
X0234177Y0135508D03*
X0240870Y0135508D03*
X0237677Y0148500D03*
X0244370Y0148500D03*
X0492177Y0135508D03*
X0498870Y0135508D03*
X0512177Y0135508D03*
X0518870Y0135508D03*
X0515677Y0148500D03*
X0522370Y0148500D03*
D26*
X0414051Y0072000D03*
X0404996Y0072000D03*
X0136051Y0072000D03*
X0126996Y0072000D03*
X0126996Y0284000D03*
X0136051Y0284000D03*
X0404996Y0284000D03*
X0414051Y0284000D03*
D27*
X0352849Y0332127D02*
X0352849Y0334873D01*
X0352849Y0332127D02*
X0350103Y0332127D01*
X0350103Y0334873D01*
X0352849Y0334873D01*
X0352849Y0334017D02*
X0350103Y0334017D01*
X0345944Y0334873D02*
X0345944Y0332127D01*
X0343198Y0332127D01*
X0343198Y0334873D01*
X0345944Y0334873D01*
X0345944Y0334017D02*
X0343198Y0334017D01*
X0343198Y0338127D02*
X0343198Y0340873D01*
X0345944Y0340873D01*
X0345944Y0338127D01*
X0343198Y0338127D01*
X0343198Y0340017D02*
X0345944Y0340017D01*
X0350103Y0340873D02*
X0350103Y0338127D01*
X0350103Y0340873D02*
X0352849Y0340873D01*
X0352849Y0338127D01*
X0350103Y0338127D01*
X0350103Y0340017D02*
X0352849Y0340017D01*
X0350103Y0344127D02*
X0350103Y0346873D01*
X0352849Y0346873D01*
X0352849Y0344127D01*
X0350103Y0344127D01*
X0350103Y0346017D02*
X0352849Y0346017D01*
X0343198Y0346873D02*
X0343198Y0344127D01*
X0343198Y0346873D02*
X0345944Y0346873D01*
X0345944Y0344127D01*
X0343198Y0344127D01*
X0343198Y0346017D02*
X0345944Y0346017D01*
X0072103Y0346873D02*
X0072103Y0344127D01*
X0072103Y0346873D02*
X0074849Y0346873D01*
X0074849Y0344127D01*
X0072103Y0344127D01*
X0072103Y0346017D02*
X0074849Y0346017D01*
X0065198Y0346873D02*
X0065198Y0344127D01*
X0065198Y0346873D02*
X0067944Y0346873D01*
X0067944Y0344127D01*
X0065198Y0344127D01*
X0065198Y0346017D02*
X0067944Y0346017D01*
X0065198Y0340873D02*
X0065198Y0338127D01*
X0065198Y0340873D02*
X0067944Y0340873D01*
X0067944Y0338127D01*
X0065198Y0338127D01*
X0065198Y0340017D02*
X0067944Y0340017D01*
X0072103Y0340873D02*
X0072103Y0338127D01*
X0072103Y0340873D02*
X0074849Y0340873D01*
X0074849Y0338127D01*
X0072103Y0338127D01*
X0072103Y0340017D02*
X0074849Y0340017D01*
X0074849Y0334873D02*
X0074849Y0332127D01*
X0072103Y0332127D01*
X0072103Y0334873D01*
X0074849Y0334873D01*
X0074849Y0334017D02*
X0072103Y0334017D01*
X0067944Y0334873D02*
X0067944Y0332127D01*
X0065198Y0332127D01*
X0065198Y0334873D01*
X0067944Y0334873D01*
X0067944Y0334017D02*
X0065198Y0334017D01*
X0065198Y0134873D02*
X0065198Y0132127D01*
X0065198Y0134873D02*
X0067944Y0134873D01*
X0067944Y0132127D01*
X0065198Y0132127D01*
X0065198Y0134017D02*
X0067944Y0134017D01*
X0072103Y0134873D02*
X0072103Y0132127D01*
X0072103Y0134873D02*
X0074849Y0134873D01*
X0074849Y0132127D01*
X0072103Y0132127D01*
X0072103Y0134017D02*
X0074849Y0134017D01*
X0072103Y0128873D02*
X0072103Y0126127D01*
X0072103Y0128873D02*
X0074849Y0128873D01*
X0074849Y0126127D01*
X0072103Y0126127D01*
X0072103Y0128017D02*
X0074849Y0128017D01*
X0074849Y0122873D02*
X0074849Y0120127D01*
X0072103Y0120127D01*
X0072103Y0122873D01*
X0074849Y0122873D01*
X0074849Y0122017D02*
X0072103Y0122017D01*
X0067944Y0122873D02*
X0067944Y0120127D01*
X0065198Y0120127D01*
X0065198Y0122873D01*
X0067944Y0122873D01*
X0067944Y0122017D02*
X0065198Y0122017D01*
X0065198Y0126127D02*
X0065198Y0128873D01*
X0067944Y0128873D01*
X0067944Y0126127D01*
X0065198Y0126127D01*
X0065198Y0128017D02*
X0067944Y0128017D01*
X0343198Y0128873D02*
X0343198Y0126127D01*
X0343198Y0128873D02*
X0345944Y0128873D01*
X0345944Y0126127D01*
X0343198Y0126127D01*
X0343198Y0128017D02*
X0345944Y0128017D01*
X0350103Y0128873D02*
X0350103Y0126127D01*
X0350103Y0128873D02*
X0352849Y0128873D01*
X0352849Y0126127D01*
X0350103Y0126127D01*
X0350103Y0128017D02*
X0352849Y0128017D01*
X0350103Y0132127D02*
X0350103Y0134873D01*
X0352849Y0134873D01*
X0352849Y0132127D01*
X0350103Y0132127D01*
X0350103Y0134017D02*
X0352849Y0134017D01*
X0343198Y0134873D02*
X0343198Y0132127D01*
X0343198Y0134873D02*
X0345944Y0134873D01*
X0345944Y0132127D01*
X0343198Y0132127D01*
X0343198Y0134017D02*
X0345944Y0134017D01*
X0345944Y0122873D02*
X0345944Y0120127D01*
X0343198Y0120127D01*
X0343198Y0122873D01*
X0345944Y0122873D01*
X0345944Y0122017D02*
X0343198Y0122017D01*
X0352849Y0122873D02*
X0352849Y0120127D01*
X0350103Y0120127D01*
X0350103Y0122873D01*
X0352849Y0122873D01*
X0352849Y0122017D02*
X0350103Y0122017D01*
D28*
X0351587Y0139760D03*
X0351587Y0147240D03*
X0359854Y0143500D03*
X0405587Y0085740D03*
X0405587Y0078260D03*
X0413854Y0082000D03*
X0135854Y0082000D03*
X0127587Y0078260D03*
X0127587Y0085740D03*
X0081854Y0143500D03*
X0073587Y0147240D03*
X0073587Y0139760D03*
X0127587Y0290260D03*
X0135854Y0294000D03*
X0127587Y0297740D03*
X0073587Y0351760D03*
X0073587Y0359240D03*
X0081854Y0355500D03*
X0351587Y0351760D03*
X0351587Y0359240D03*
X0359854Y0355500D03*
X0405587Y0297740D03*
X0413854Y0294000D03*
X0405587Y0290260D03*
D29*
X0385524Y0292154D03*
X0385524Y0298846D03*
X0402524Y0309654D03*
X0402524Y0316346D03*
X0345524Y0352154D03*
X0345524Y0358846D03*
X0445524Y0399654D03*
X0445524Y0406346D03*
X0445524Y0414654D03*
X0445524Y0421346D03*
X0515524Y0373346D03*
X0515524Y0366654D03*
X0525177Y0354346D03*
X0525177Y0347654D03*
X0505524Y0347492D03*
X0505524Y0354185D03*
X0506524Y0333846D03*
X0500524Y0333846D03*
X0494524Y0333846D03*
X0488524Y0333846D03*
X0488524Y0327154D03*
X0494524Y0327154D03*
X0500524Y0327154D03*
X0506524Y0327154D03*
X0445524Y0276346D03*
X0439024Y0276346D03*
X0433024Y0276346D03*
X0427024Y0276346D03*
X0421024Y0276346D03*
X0421024Y0269654D03*
X0427024Y0269654D03*
X0433024Y0269654D03*
X0439024Y0269654D03*
X0445524Y0269654D03*
X0445524Y0209346D03*
X0445524Y0202654D03*
X0445524Y0194346D03*
X0445524Y0187654D03*
X0515524Y0161346D03*
X0515524Y0154654D03*
X0525177Y0142346D03*
X0525177Y0135654D03*
X0505524Y0135492D03*
X0505524Y0142185D03*
X0506524Y0121846D03*
X0500524Y0121846D03*
X0494524Y0121846D03*
X0488524Y0121846D03*
X0488524Y0115154D03*
X0494524Y0115154D03*
X0500524Y0115154D03*
X0506524Y0115154D03*
X0445524Y0064346D03*
X0439024Y0064346D03*
X0433024Y0064346D03*
X0427024Y0064346D03*
X0421024Y0064346D03*
X0421024Y0057654D03*
X0427024Y0057654D03*
X0433024Y0057654D03*
X0439024Y0057654D03*
X0445524Y0057654D03*
X0402524Y0097654D03*
X0402524Y0104346D03*
X0385524Y0086846D03*
X0385524Y0080154D03*
X0345524Y0140154D03*
X0345524Y0146846D03*
X0247177Y0142346D03*
X0247177Y0135654D03*
X0227524Y0135492D03*
X0227524Y0142185D03*
X0237524Y0154654D03*
X0237524Y0161346D03*
X0228524Y0121846D03*
X0222524Y0121846D03*
X0216524Y0121846D03*
X0210524Y0121846D03*
X0210524Y0115154D03*
X0216524Y0115154D03*
X0222524Y0115154D03*
X0228524Y0115154D03*
X0167524Y0064346D03*
X0161024Y0064346D03*
X0155024Y0064346D03*
X0149024Y0064346D03*
X0143024Y0064346D03*
X0143024Y0057654D03*
X0149024Y0057654D03*
X0155024Y0057654D03*
X0161024Y0057654D03*
X0167524Y0057654D03*
X0124524Y0097654D03*
X0124524Y0104346D03*
X0107524Y0086846D03*
X0107524Y0080154D03*
X0067524Y0140154D03*
X0067524Y0146846D03*
X0167524Y0187654D03*
X0167524Y0194346D03*
X0167524Y0202654D03*
X0167524Y0209346D03*
X0167524Y0269654D03*
X0161024Y0269654D03*
X0155024Y0269654D03*
X0149024Y0269654D03*
X0143024Y0269654D03*
X0143024Y0276346D03*
X0149024Y0276346D03*
X0155024Y0276346D03*
X0161024Y0276346D03*
X0167524Y0276346D03*
X0124524Y0309654D03*
X0124524Y0316346D03*
X0107524Y0298846D03*
X0107524Y0292154D03*
X0067524Y0352154D03*
X0067524Y0358846D03*
X0167524Y0399654D03*
X0167524Y0406346D03*
X0167524Y0414654D03*
X0167524Y0421346D03*
X0237524Y0373346D03*
X0237524Y0366654D03*
X0247177Y0354346D03*
X0247177Y0347654D03*
X0227524Y0347492D03*
X0227524Y0354185D03*
X0228524Y0333846D03*
X0222524Y0333846D03*
X0216524Y0333846D03*
X0210524Y0333846D03*
X0210524Y0327154D03*
X0216524Y0327154D03*
X0222524Y0327154D03*
X0228524Y0327154D03*
D30*
X0117937Y0317339D03*
X0117937Y0314780D03*
X0117937Y0312220D03*
X0117937Y0309661D03*
X0107110Y0309661D03*
X0107110Y0312220D03*
X0107110Y0314780D03*
X0107110Y0317339D03*
X0385110Y0317339D03*
X0385110Y0314780D03*
X0385110Y0312220D03*
X0385110Y0309661D03*
X0395937Y0309661D03*
X0395937Y0312220D03*
X0395937Y0314780D03*
X0395937Y0317339D03*
X0395937Y0105339D03*
X0395937Y0102780D03*
X0395937Y0100220D03*
X0395937Y0097661D03*
X0385110Y0097661D03*
X0385110Y0100220D03*
X0385110Y0102780D03*
X0385110Y0105339D03*
X0117937Y0105339D03*
X0117937Y0102780D03*
X0117937Y0100220D03*
X0117937Y0097661D03*
X0107110Y0097661D03*
X0107110Y0100220D03*
X0107110Y0102780D03*
X0107110Y0105339D03*
D31*
X0112524Y0101500D03*
X0390524Y0101500D03*
X0390524Y0313500D03*
X0112524Y0313500D03*
D32*
X0114724Y0266622D03*
X0104881Y0266622D03*
X0124566Y0266622D03*
X0124566Y0244378D03*
X0114724Y0244378D03*
X0104881Y0244378D03*
X0200181Y0209622D03*
X0210024Y0209622D03*
X0219866Y0209622D03*
X0219866Y0187378D03*
X0210024Y0187378D03*
X0200181Y0187378D03*
X0382881Y0244378D03*
X0392724Y0244378D03*
X0402566Y0244378D03*
X0402566Y0266622D03*
X0392724Y0266622D03*
X0382881Y0266622D03*
X0478181Y0209622D03*
X0488024Y0209622D03*
X0497866Y0209622D03*
X0497866Y0187378D03*
X0488024Y0187378D03*
X0478181Y0187378D03*
X0402566Y0054622D03*
X0392724Y0054622D03*
X0382881Y0054622D03*
X0382881Y0032378D03*
X0392724Y0032378D03*
X0402566Y0032378D03*
X0124566Y0032378D03*
X0114724Y0032378D03*
X0104881Y0032378D03*
X0104881Y0054622D03*
X0114724Y0054622D03*
X0124566Y0054622D03*
X0200181Y0399378D03*
X0210024Y0399378D03*
X0219866Y0399378D03*
X0219866Y0421622D03*
X0210024Y0421622D03*
X0200181Y0421622D03*
X0478181Y0421622D03*
X0488024Y0421622D03*
X0497866Y0421622D03*
X0497866Y0399378D03*
X0488024Y0399378D03*
X0478181Y0399378D03*
D33*
X0482118Y0410500D03*
X0493929Y0410500D03*
X0398629Y0255500D03*
X0386818Y0255500D03*
X0482118Y0198500D03*
X0493929Y0198500D03*
X0398629Y0043500D03*
X0386818Y0043500D03*
X0215929Y0198500D03*
X0204118Y0198500D03*
X0120629Y0255500D03*
X0108818Y0255500D03*
X0204118Y0410500D03*
X0215929Y0410500D03*
X0120629Y0043500D03*
X0108818Y0043500D03*
D34*
X0142917Y0076000D03*
X0142917Y0081000D03*
X0142917Y0086000D03*
X0142917Y0091000D03*
X0142917Y0096000D03*
X0142917Y0101000D03*
X0142917Y0288000D03*
X0142917Y0293000D03*
X0142917Y0298000D03*
X0142917Y0303000D03*
X0142917Y0308000D03*
X0142917Y0313000D03*
X0420917Y0313000D03*
X0420917Y0308000D03*
X0420917Y0303000D03*
X0420917Y0298000D03*
X0420917Y0293000D03*
X0420917Y0288000D03*
X0420917Y0101000D03*
X0420917Y0096000D03*
X0420917Y0091000D03*
X0420917Y0086000D03*
X0420917Y0081000D03*
X0420917Y0076000D03*
D35*
X0423555Y0070035D03*
X0446193Y0070035D03*
X0446193Y0106846D03*
X0423555Y0106846D03*
X0168193Y0106846D03*
X0145555Y0106846D03*
X0145555Y0070035D03*
X0168193Y0070035D03*
X0168193Y0282035D03*
X0145555Y0282035D03*
X0145555Y0318846D03*
X0168193Y0318846D03*
X0423555Y0318846D03*
X0446193Y0318846D03*
X0446193Y0282035D03*
X0423555Y0282035D03*
D36*
X0468713Y0282921D03*
X0468713Y0318079D03*
X0190713Y0318079D03*
X0190713Y0282921D03*
X0190713Y0106079D03*
X0190713Y0070921D03*
X0468713Y0070921D03*
X0468713Y0106079D03*
D37*
X0548024Y0130094D03*
X0548024Y0140921D03*
X0270024Y0140921D03*
X0270024Y0130094D03*
X0270024Y0342094D03*
X0270024Y0352921D03*
X0548024Y0352921D03*
X0548024Y0342094D03*
D38*
X0554028Y0347508D03*
X0542020Y0347508D03*
X0276028Y0347508D03*
X0264020Y0347508D03*
X0264020Y0135508D03*
X0276028Y0135508D03*
X0542020Y0135508D03*
X0554028Y0135508D03*
D39*
X0410524Y0109012D03*
X0410524Y0097988D03*
X0132524Y0097988D03*
X0132524Y0109012D03*
X0132524Y0309988D03*
X0132524Y0321012D03*
X0410524Y0321012D03*
X0410524Y0309988D03*
D40*
X0312524Y0294197D03*
X0312524Y0231803D03*
X0312524Y0082197D03*
X0590524Y0082197D03*
X0590524Y0231803D03*
X0590524Y0294197D03*
X0590524Y0443803D03*
X0312524Y0443803D03*
D41*
X0308783Y0327661D03*
X0308783Y0319787D03*
X0586783Y0319787D03*
X0586783Y0327661D03*
X0586783Y0115661D03*
X0586783Y0107787D03*
X0308783Y0107787D03*
X0308783Y0115661D03*
D42*
X0287024Y0058500D03*
X0360524Y0038500D03*
X0565024Y0058500D03*
X0365524Y0228500D03*
X0360524Y0250500D03*
X0287024Y0270500D03*
X0087524Y0228500D03*
X0082524Y0250500D03*
X0087524Y0440500D03*
X0365524Y0440500D03*
X0565024Y0270500D03*
X0082524Y0038500D03*
D43*
X0254924Y0135492D03*
X0258124Y0135492D03*
X0532924Y0135492D03*
X0536124Y0135492D03*
X0536124Y0347492D03*
X0532924Y0347492D03*
X0258124Y0347492D03*
X0254924Y0347492D03*
D44*
X0253524Y0346000D03*
X0253524Y0342000D03*
X0531524Y0342000D03*
X0531524Y0346000D03*
X0531524Y0134000D03*
X0531524Y0130000D03*
X0253524Y0130000D03*
X0253524Y0134000D03*
D45*
X0253024Y0132750D02*
X0254024Y0132750D01*
X0254024Y0131250D01*
X0253024Y0131250D01*
X0253024Y0132750D01*
X0253024Y0132689D02*
X0254024Y0132689D01*
X0254024Y0132190D02*
X0253024Y0132190D01*
X0253024Y0131692D02*
X0254024Y0131692D01*
X0531024Y0131692D02*
X0532024Y0131692D01*
X0532024Y0131250D02*
X0531024Y0131250D01*
X0531024Y0132750D01*
X0532024Y0132750D01*
X0532024Y0131250D01*
X0532024Y0132190D02*
X0531024Y0132190D01*
X0531024Y0132689D02*
X0532024Y0132689D01*
X0532024Y0343250D02*
X0531024Y0343250D01*
X0531024Y0344750D01*
X0532024Y0344750D01*
X0532024Y0343250D01*
X0532024Y0343559D02*
X0531024Y0343559D01*
X0531024Y0344058D02*
X0532024Y0344058D01*
X0532024Y0344556D02*
X0531024Y0344556D01*
X0254024Y0344556D02*
X0253024Y0344556D01*
X0253024Y0344750D02*
X0254024Y0344750D01*
X0254024Y0343250D01*
X0253024Y0343250D01*
X0253024Y0344750D01*
X0253024Y0344058D02*
X0254024Y0344058D01*
X0254024Y0343559D02*
X0253024Y0343559D01*
D46*
X0371429Y0317469D03*
X0093429Y0317469D03*
X0093429Y0105469D03*
X0371429Y0105469D03*
D47*
X0371331Y0103500D03*
X0371331Y0101531D03*
X0374717Y0101531D03*
X0374717Y0103500D03*
X0374717Y0105469D03*
X0096717Y0105469D03*
X0096717Y0103500D03*
X0096717Y0101531D03*
X0093331Y0101531D03*
X0093331Y0103500D03*
X0093331Y0313531D03*
X0093331Y0315500D03*
X0096717Y0315500D03*
X0096717Y0313531D03*
X0096717Y0317469D03*
X0371331Y0315500D03*
X0371331Y0313531D03*
X0374717Y0313531D03*
X0374717Y0315500D03*
X0374717Y0317469D03*
D48*
X0460996Y0275240D03*
X0460996Y0271500D03*
X0460996Y0267760D03*
X0470051Y0267760D03*
X0470051Y0271500D03*
X0470051Y0275240D03*
X0192051Y0275240D03*
X0192051Y0271500D03*
X0192051Y0267760D03*
X0182996Y0267760D03*
X0182996Y0271500D03*
X0182996Y0275240D03*
X0182996Y0063240D03*
X0182996Y0059500D03*
X0182996Y0055760D03*
X0192051Y0055760D03*
X0192051Y0059500D03*
X0192051Y0063240D03*
X0460996Y0063240D03*
X0460996Y0059500D03*
X0460996Y0055760D03*
X0470051Y0055760D03*
X0470051Y0059500D03*
X0470051Y0063240D03*
D49*
X0606024Y0031000D03*
X0328024Y0031000D03*
X0353024Y0235500D03*
X0328024Y0243000D03*
X0075024Y0235500D03*
X0075024Y0447500D03*
X0353024Y0447500D03*
X0606024Y0243000D03*
D50*
X0438476Y0204996D03*
X0436508Y0204996D03*
X0434539Y0204996D03*
X0432571Y0204996D03*
X0432571Y0192004D03*
X0434539Y0192004D03*
X0436508Y0192004D03*
X0438476Y0192004D03*
X0160476Y0192004D03*
X0158508Y0192004D03*
X0156539Y0192004D03*
X0154571Y0192004D03*
X0154571Y0204996D03*
X0156539Y0204996D03*
X0158508Y0204996D03*
X0160476Y0204996D03*
X0160476Y0404004D03*
X0158508Y0404004D03*
X0156539Y0404004D03*
X0154571Y0404004D03*
X0154571Y0416996D03*
X0156539Y0416996D03*
X0158508Y0416996D03*
X0160476Y0416996D03*
X0432571Y0416996D03*
X0434539Y0416996D03*
X0436508Y0416996D03*
X0438476Y0416996D03*
X0438476Y0404004D03*
X0436508Y0404004D03*
X0434539Y0404004D03*
X0432571Y0404004D03*
D51*
X0452846Y0399013D03*
X0455406Y0399013D03*
X0457965Y0399013D03*
X0460524Y0399013D03*
X0463083Y0399013D03*
X0465642Y0399013D03*
X0468201Y0399013D03*
X0468201Y0421987D03*
X0465642Y0421987D03*
X0463083Y0421987D03*
X0460524Y0421987D03*
X0457965Y0421987D03*
X0455406Y0421987D03*
X0452846Y0421987D03*
X0190201Y0421987D03*
X0187642Y0421987D03*
X0185083Y0421987D03*
X0182524Y0421987D03*
X0179965Y0421987D03*
X0177406Y0421987D03*
X0174846Y0421987D03*
X0174846Y0399013D03*
X0177406Y0399013D03*
X0179965Y0399013D03*
X0182524Y0399013D03*
X0185083Y0399013D03*
X0187642Y0399013D03*
X0190201Y0399013D03*
X0190201Y0209987D03*
X0187642Y0209987D03*
X0185083Y0209987D03*
X0182524Y0209987D03*
X0179965Y0209987D03*
X0177406Y0209987D03*
X0174846Y0209987D03*
X0174846Y0187013D03*
X0177406Y0187013D03*
X0179965Y0187013D03*
X0182524Y0187013D03*
X0185083Y0187013D03*
X0187642Y0187013D03*
X0190201Y0187013D03*
X0452846Y0187013D03*
X0455406Y0187013D03*
X0457965Y0187013D03*
X0460524Y0187013D03*
X0463083Y0187013D03*
X0465642Y0187013D03*
X0468201Y0187013D03*
X0468201Y0209987D03*
X0465642Y0209987D03*
X0463083Y0209987D03*
X0460524Y0209987D03*
X0457965Y0209987D03*
X0455406Y0209987D03*
X0452846Y0209987D03*
D52*
X0573524Y0458750D03*
X0097524Y0458750D03*
D53*
X0097524Y0020250D03*
M02*
