G75*
%MOIN*%
%OFA0B0*%
%FSLAX25Y25*%
%IPPOS*%
%LPD*%
%AMOC8*
5,1,8,0,0,1.08239X$1,22.5*
%
%ADD10C,0.01500*%
%ADD11C,0.01100*%
%ADD12C,0.00079*%
D10*
X0027524Y0027500D02*
X0668524Y0027500D01*
X0668524Y0239500D02*
X0027524Y0239500D01*
X0027524Y0451500D02*
X0668524Y0451500D01*
D11*
X0681315Y0452483D02*
X0682626Y0448550D01*
X0683937Y0452483D01*
X0686608Y0450844D02*
X0690541Y0450844D01*
X0693909Y0450844D02*
X0695548Y0450189D01*
X0695600Y0450166D01*
X0695651Y0450139D01*
X0695700Y0450109D01*
X0695747Y0450076D01*
X0695792Y0450040D01*
X0695834Y0450000D01*
X0695873Y0449958D01*
X0695909Y0449914D01*
X0695942Y0449867D01*
X0695972Y0449817D01*
X0695999Y0449766D01*
X0696022Y0449714D01*
X0696041Y0449660D01*
X0696057Y0449604D01*
X0696069Y0449548D01*
X0696077Y0449491D01*
X0696081Y0449434D01*
X0696082Y0449376D01*
X0696078Y0449319D01*
X0696071Y0449262D01*
X0696059Y0449205D01*
X0696044Y0449150D01*
X0696026Y0449095D01*
X0696003Y0449042D01*
X0695977Y0448991D01*
X0695948Y0448942D01*
X0695915Y0448894D01*
X0695879Y0448849D01*
X0695841Y0448807D01*
X0695799Y0448767D01*
X0695755Y0448730D01*
X0695708Y0448696D01*
X0695660Y0448665D01*
X0695609Y0448638D01*
X0695557Y0448614D01*
X0695503Y0448594D01*
X0695448Y0448578D01*
X0695392Y0448565D01*
X0695335Y0448556D01*
X0695277Y0448551D01*
X0695220Y0448550D01*
X0695712Y0452155D02*
X0695605Y0452201D01*
X0695496Y0452244D01*
X0695386Y0452284D01*
X0695274Y0452320D01*
X0695162Y0452352D01*
X0695048Y0452381D01*
X0694934Y0452407D01*
X0694819Y0452428D01*
X0694704Y0452447D01*
X0694587Y0452461D01*
X0694471Y0452472D01*
X0694354Y0452479D01*
X0694237Y0452483D01*
X0694237Y0452484D02*
X0694180Y0452483D01*
X0694122Y0452478D01*
X0694065Y0452469D01*
X0694009Y0452456D01*
X0693954Y0452440D01*
X0693900Y0452420D01*
X0693848Y0452396D01*
X0693797Y0452369D01*
X0693749Y0452338D01*
X0693702Y0452304D01*
X0693658Y0452267D01*
X0693616Y0452227D01*
X0693578Y0452185D01*
X0693542Y0452140D01*
X0693509Y0452092D01*
X0693480Y0452043D01*
X0693454Y0451992D01*
X0693431Y0451939D01*
X0693413Y0451884D01*
X0693398Y0451829D01*
X0693386Y0451772D01*
X0693379Y0451715D01*
X0693375Y0451658D01*
X0693376Y0451600D01*
X0693380Y0451543D01*
X0693388Y0451486D01*
X0693400Y0451430D01*
X0693416Y0451374D01*
X0693435Y0451320D01*
X0693458Y0451268D01*
X0693485Y0451217D01*
X0693515Y0451167D01*
X0693548Y0451120D01*
X0693584Y0451076D01*
X0693623Y0451034D01*
X0693665Y0450994D01*
X0693710Y0450958D01*
X0693757Y0450925D01*
X0693806Y0450895D01*
X0693857Y0450868D01*
X0693909Y0450845D01*
X0693418Y0448878D02*
X0693552Y0448832D01*
X0693687Y0448789D01*
X0693823Y0448750D01*
X0693960Y0448714D01*
X0694097Y0448682D01*
X0694236Y0448653D01*
X0694375Y0448627D01*
X0694515Y0448606D01*
X0694656Y0448587D01*
X0694796Y0448573D01*
X0694938Y0448562D01*
X0695079Y0448554D01*
X0695221Y0448551D01*
X0698761Y0449533D02*
X0698761Y0451500D01*
X0698762Y0451500D02*
X0698764Y0451562D01*
X0698770Y0451623D01*
X0698779Y0451684D01*
X0698793Y0451744D01*
X0698810Y0451804D01*
X0698831Y0451862D01*
X0698856Y0451919D01*
X0698884Y0451974D01*
X0698915Y0452027D01*
X0698950Y0452078D01*
X0698988Y0452127D01*
X0699028Y0452173D01*
X0699072Y0452217D01*
X0699118Y0452257D01*
X0699167Y0452295D01*
X0699218Y0452330D01*
X0699271Y0452361D01*
X0699326Y0452389D01*
X0699383Y0452414D01*
X0699441Y0452435D01*
X0699501Y0452452D01*
X0699561Y0452466D01*
X0699622Y0452475D01*
X0699683Y0452481D01*
X0699745Y0452483D01*
X0701056Y0452483D01*
X0703469Y0451172D02*
X0703469Y0449861D01*
X0703471Y0449790D01*
X0703477Y0449719D01*
X0703486Y0449649D01*
X0703500Y0449579D01*
X0703517Y0449510D01*
X0703538Y0449442D01*
X0703562Y0449376D01*
X0703590Y0449311D01*
X0703622Y0449247D01*
X0703657Y0449185D01*
X0703695Y0449125D01*
X0703736Y0449068D01*
X0703781Y0449012D01*
X0703828Y0448959D01*
X0703878Y0448909D01*
X0703931Y0448862D01*
X0703987Y0448817D01*
X0704044Y0448776D01*
X0704104Y0448738D01*
X0704166Y0448703D01*
X0704230Y0448671D01*
X0704295Y0448643D01*
X0704361Y0448619D01*
X0704429Y0448598D01*
X0704498Y0448581D01*
X0704568Y0448567D01*
X0704638Y0448558D01*
X0704709Y0448552D01*
X0704780Y0448550D01*
X0704851Y0448552D01*
X0704922Y0448558D01*
X0704992Y0448567D01*
X0705062Y0448581D01*
X0705131Y0448598D01*
X0705199Y0448619D01*
X0705265Y0448643D01*
X0705330Y0448671D01*
X0705394Y0448703D01*
X0705456Y0448738D01*
X0705516Y0448776D01*
X0705573Y0448817D01*
X0705629Y0448862D01*
X0705682Y0448909D01*
X0705732Y0448959D01*
X0705779Y0449012D01*
X0705824Y0449068D01*
X0705865Y0449125D01*
X0705903Y0449185D01*
X0705938Y0449247D01*
X0705970Y0449311D01*
X0705998Y0449376D01*
X0706022Y0449442D01*
X0706043Y0449510D01*
X0706060Y0449579D01*
X0706074Y0449649D01*
X0706083Y0449719D01*
X0706089Y0449790D01*
X0706091Y0449861D01*
X0706091Y0451172D01*
X0706089Y0451243D01*
X0706083Y0451314D01*
X0706074Y0451384D01*
X0706060Y0451454D01*
X0706043Y0451523D01*
X0706022Y0451591D01*
X0705998Y0451657D01*
X0705970Y0451722D01*
X0705938Y0451786D01*
X0705903Y0451848D01*
X0705865Y0451908D01*
X0705824Y0451965D01*
X0705779Y0452021D01*
X0705732Y0452074D01*
X0705682Y0452124D01*
X0705629Y0452171D01*
X0705573Y0452216D01*
X0705516Y0452257D01*
X0705456Y0452295D01*
X0705394Y0452330D01*
X0705330Y0452362D01*
X0705265Y0452390D01*
X0705199Y0452414D01*
X0705131Y0452435D01*
X0705062Y0452452D01*
X0704992Y0452466D01*
X0704922Y0452475D01*
X0704851Y0452481D01*
X0704780Y0452483D01*
X0704709Y0452481D01*
X0704638Y0452475D01*
X0704568Y0452466D01*
X0704498Y0452452D01*
X0704429Y0452435D01*
X0704361Y0452414D01*
X0704295Y0452390D01*
X0704230Y0452362D01*
X0704166Y0452330D01*
X0704104Y0452295D01*
X0704044Y0452257D01*
X0703987Y0452216D01*
X0703931Y0452171D01*
X0703878Y0452124D01*
X0703828Y0452074D01*
X0703781Y0452021D01*
X0703736Y0451965D01*
X0703695Y0451908D01*
X0703657Y0451848D01*
X0703622Y0451786D01*
X0703590Y0451722D01*
X0703562Y0451657D01*
X0703538Y0451591D01*
X0703517Y0451523D01*
X0703500Y0451454D01*
X0703486Y0451384D01*
X0703477Y0451314D01*
X0703471Y0451243D01*
X0703469Y0451172D01*
X0701056Y0448550D02*
X0699745Y0448550D01*
X0699683Y0448552D01*
X0699622Y0448558D01*
X0699561Y0448567D01*
X0699501Y0448581D01*
X0699441Y0448598D01*
X0699383Y0448619D01*
X0699326Y0448644D01*
X0699271Y0448672D01*
X0699218Y0448703D01*
X0699167Y0448738D01*
X0699118Y0448776D01*
X0699072Y0448816D01*
X0699028Y0448860D01*
X0698988Y0448906D01*
X0698950Y0448955D01*
X0698915Y0449006D01*
X0698884Y0449059D01*
X0698856Y0449114D01*
X0698831Y0449171D01*
X0698810Y0449229D01*
X0698793Y0449289D01*
X0698779Y0449349D01*
X0698770Y0449410D01*
X0698764Y0449471D01*
X0698762Y0449533D01*
X0709058Y0448550D02*
X0709058Y0452483D01*
X0711025Y0452483D01*
X0711025Y0451828D01*
X0713110Y0451172D02*
X0713110Y0449533D01*
X0713110Y0450517D02*
X0715733Y0450517D01*
X0715733Y0451172D01*
X0715731Y0451243D01*
X0715725Y0451314D01*
X0715716Y0451384D01*
X0715702Y0451454D01*
X0715685Y0451523D01*
X0715664Y0451591D01*
X0715640Y0451657D01*
X0715612Y0451722D01*
X0715580Y0451786D01*
X0715545Y0451848D01*
X0715507Y0451908D01*
X0715466Y0451965D01*
X0715421Y0452021D01*
X0715374Y0452074D01*
X0715324Y0452124D01*
X0715271Y0452171D01*
X0715215Y0452216D01*
X0715158Y0452257D01*
X0715098Y0452295D01*
X0715036Y0452330D01*
X0714972Y0452362D01*
X0714907Y0452390D01*
X0714841Y0452414D01*
X0714773Y0452435D01*
X0714704Y0452452D01*
X0714634Y0452466D01*
X0714564Y0452475D01*
X0714493Y0452481D01*
X0714422Y0452483D01*
X0714351Y0452481D01*
X0714280Y0452475D01*
X0714210Y0452466D01*
X0714140Y0452452D01*
X0714071Y0452435D01*
X0714003Y0452414D01*
X0713937Y0452390D01*
X0713872Y0452362D01*
X0713808Y0452330D01*
X0713746Y0452295D01*
X0713686Y0452257D01*
X0713629Y0452216D01*
X0713573Y0452171D01*
X0713520Y0452124D01*
X0713470Y0452074D01*
X0713423Y0452021D01*
X0713378Y0451965D01*
X0713337Y0451908D01*
X0713299Y0451848D01*
X0713264Y0451786D01*
X0713232Y0451722D01*
X0713204Y0451657D01*
X0713180Y0451591D01*
X0713159Y0451523D01*
X0713142Y0451454D01*
X0713128Y0451384D01*
X0713119Y0451314D01*
X0713113Y0451243D01*
X0713111Y0451172D01*
X0713111Y0449533D02*
X0713113Y0449471D01*
X0713119Y0449410D01*
X0713128Y0449349D01*
X0713142Y0449289D01*
X0713159Y0449229D01*
X0713180Y0449171D01*
X0713205Y0449114D01*
X0713233Y0449059D01*
X0713264Y0449006D01*
X0713299Y0448955D01*
X0713337Y0448906D01*
X0713377Y0448860D01*
X0713421Y0448816D01*
X0713467Y0448776D01*
X0713516Y0448738D01*
X0713567Y0448703D01*
X0713620Y0448672D01*
X0713675Y0448644D01*
X0713732Y0448619D01*
X0713790Y0448598D01*
X0713850Y0448581D01*
X0713910Y0448567D01*
X0713971Y0448558D01*
X0714032Y0448552D01*
X0714094Y0448550D01*
X0715733Y0448550D01*
X0693418Y0236878D02*
X0693552Y0236832D01*
X0693687Y0236789D01*
X0693823Y0236750D01*
X0693960Y0236714D01*
X0694097Y0236682D01*
X0694236Y0236653D01*
X0694375Y0236627D01*
X0694515Y0236606D01*
X0694656Y0236587D01*
X0694796Y0236573D01*
X0694938Y0236562D01*
X0695079Y0236554D01*
X0695221Y0236551D01*
X0695220Y0236550D02*
X0695277Y0236551D01*
X0695335Y0236556D01*
X0695392Y0236565D01*
X0695448Y0236578D01*
X0695503Y0236594D01*
X0695557Y0236614D01*
X0695609Y0236638D01*
X0695660Y0236665D01*
X0695708Y0236696D01*
X0695755Y0236730D01*
X0695799Y0236767D01*
X0695841Y0236807D01*
X0695879Y0236849D01*
X0695915Y0236894D01*
X0695948Y0236942D01*
X0695977Y0236991D01*
X0696003Y0237042D01*
X0696026Y0237095D01*
X0696044Y0237150D01*
X0696059Y0237205D01*
X0696071Y0237262D01*
X0696078Y0237319D01*
X0696082Y0237376D01*
X0696081Y0237434D01*
X0696077Y0237491D01*
X0696069Y0237548D01*
X0696057Y0237604D01*
X0696041Y0237660D01*
X0696022Y0237714D01*
X0695999Y0237766D01*
X0695972Y0237817D01*
X0695942Y0237867D01*
X0695909Y0237914D01*
X0695873Y0237958D01*
X0695834Y0238000D01*
X0695792Y0238040D01*
X0695747Y0238076D01*
X0695700Y0238109D01*
X0695651Y0238139D01*
X0695600Y0238166D01*
X0695548Y0238189D01*
X0693909Y0238844D01*
X0693909Y0238845D02*
X0693857Y0238868D01*
X0693806Y0238895D01*
X0693757Y0238925D01*
X0693710Y0238958D01*
X0693665Y0238994D01*
X0693623Y0239034D01*
X0693584Y0239076D01*
X0693548Y0239120D01*
X0693515Y0239167D01*
X0693485Y0239217D01*
X0693458Y0239268D01*
X0693435Y0239320D01*
X0693416Y0239374D01*
X0693400Y0239430D01*
X0693388Y0239486D01*
X0693380Y0239543D01*
X0693376Y0239600D01*
X0693375Y0239658D01*
X0693379Y0239715D01*
X0693386Y0239772D01*
X0693398Y0239829D01*
X0693413Y0239884D01*
X0693431Y0239939D01*
X0693454Y0239992D01*
X0693480Y0240043D01*
X0693509Y0240092D01*
X0693542Y0240140D01*
X0693578Y0240185D01*
X0693616Y0240227D01*
X0693658Y0240267D01*
X0693702Y0240304D01*
X0693749Y0240338D01*
X0693797Y0240369D01*
X0693848Y0240396D01*
X0693900Y0240420D01*
X0693954Y0240440D01*
X0694009Y0240456D01*
X0694065Y0240469D01*
X0694122Y0240478D01*
X0694180Y0240483D01*
X0694237Y0240484D01*
X0694237Y0240483D02*
X0694354Y0240479D01*
X0694471Y0240472D01*
X0694587Y0240461D01*
X0694704Y0240447D01*
X0694819Y0240428D01*
X0694934Y0240407D01*
X0695048Y0240381D01*
X0695162Y0240352D01*
X0695274Y0240320D01*
X0695386Y0240284D01*
X0695496Y0240244D01*
X0695605Y0240201D01*
X0695712Y0240155D01*
X0698761Y0239500D02*
X0698761Y0237533D01*
X0698762Y0237533D02*
X0698764Y0237471D01*
X0698770Y0237410D01*
X0698779Y0237349D01*
X0698793Y0237289D01*
X0698810Y0237229D01*
X0698831Y0237171D01*
X0698856Y0237114D01*
X0698884Y0237059D01*
X0698915Y0237006D01*
X0698950Y0236955D01*
X0698988Y0236906D01*
X0699028Y0236860D01*
X0699072Y0236816D01*
X0699118Y0236776D01*
X0699167Y0236738D01*
X0699218Y0236703D01*
X0699271Y0236672D01*
X0699326Y0236644D01*
X0699383Y0236619D01*
X0699441Y0236598D01*
X0699501Y0236581D01*
X0699561Y0236567D01*
X0699622Y0236558D01*
X0699683Y0236552D01*
X0699745Y0236550D01*
X0701056Y0236550D01*
X0703469Y0237861D02*
X0703469Y0239172D01*
X0703471Y0239243D01*
X0703477Y0239314D01*
X0703486Y0239384D01*
X0703500Y0239454D01*
X0703517Y0239523D01*
X0703538Y0239591D01*
X0703562Y0239657D01*
X0703590Y0239722D01*
X0703622Y0239786D01*
X0703657Y0239848D01*
X0703695Y0239908D01*
X0703736Y0239965D01*
X0703781Y0240021D01*
X0703828Y0240074D01*
X0703878Y0240124D01*
X0703931Y0240171D01*
X0703987Y0240216D01*
X0704044Y0240257D01*
X0704104Y0240295D01*
X0704166Y0240330D01*
X0704230Y0240362D01*
X0704295Y0240390D01*
X0704361Y0240414D01*
X0704429Y0240435D01*
X0704498Y0240452D01*
X0704568Y0240466D01*
X0704638Y0240475D01*
X0704709Y0240481D01*
X0704780Y0240483D01*
X0704851Y0240481D01*
X0704922Y0240475D01*
X0704992Y0240466D01*
X0705062Y0240452D01*
X0705131Y0240435D01*
X0705199Y0240414D01*
X0705265Y0240390D01*
X0705330Y0240362D01*
X0705394Y0240330D01*
X0705456Y0240295D01*
X0705516Y0240257D01*
X0705573Y0240216D01*
X0705629Y0240171D01*
X0705682Y0240124D01*
X0705732Y0240074D01*
X0705779Y0240021D01*
X0705824Y0239965D01*
X0705865Y0239908D01*
X0705903Y0239848D01*
X0705938Y0239786D01*
X0705970Y0239722D01*
X0705998Y0239657D01*
X0706022Y0239591D01*
X0706043Y0239523D01*
X0706060Y0239454D01*
X0706074Y0239384D01*
X0706083Y0239314D01*
X0706089Y0239243D01*
X0706091Y0239172D01*
X0706091Y0237861D01*
X0706089Y0237790D01*
X0706083Y0237719D01*
X0706074Y0237649D01*
X0706060Y0237579D01*
X0706043Y0237510D01*
X0706022Y0237442D01*
X0705998Y0237376D01*
X0705970Y0237311D01*
X0705938Y0237247D01*
X0705903Y0237185D01*
X0705865Y0237125D01*
X0705824Y0237068D01*
X0705779Y0237012D01*
X0705732Y0236959D01*
X0705682Y0236909D01*
X0705629Y0236862D01*
X0705573Y0236817D01*
X0705516Y0236776D01*
X0705456Y0236738D01*
X0705394Y0236703D01*
X0705330Y0236671D01*
X0705265Y0236643D01*
X0705199Y0236619D01*
X0705131Y0236598D01*
X0705062Y0236581D01*
X0704992Y0236567D01*
X0704922Y0236558D01*
X0704851Y0236552D01*
X0704780Y0236550D01*
X0704709Y0236552D01*
X0704638Y0236558D01*
X0704568Y0236567D01*
X0704498Y0236581D01*
X0704429Y0236598D01*
X0704361Y0236619D01*
X0704295Y0236643D01*
X0704230Y0236671D01*
X0704166Y0236703D01*
X0704104Y0236738D01*
X0704044Y0236776D01*
X0703987Y0236817D01*
X0703931Y0236862D01*
X0703878Y0236909D01*
X0703828Y0236959D01*
X0703781Y0237012D01*
X0703736Y0237068D01*
X0703695Y0237125D01*
X0703657Y0237185D01*
X0703622Y0237247D01*
X0703590Y0237311D01*
X0703562Y0237376D01*
X0703538Y0237442D01*
X0703517Y0237510D01*
X0703500Y0237579D01*
X0703486Y0237649D01*
X0703477Y0237719D01*
X0703471Y0237790D01*
X0703469Y0237861D01*
X0701056Y0240483D02*
X0699745Y0240483D01*
X0699683Y0240481D01*
X0699622Y0240475D01*
X0699561Y0240466D01*
X0699501Y0240452D01*
X0699441Y0240435D01*
X0699383Y0240414D01*
X0699326Y0240389D01*
X0699271Y0240361D01*
X0699218Y0240330D01*
X0699167Y0240295D01*
X0699118Y0240257D01*
X0699072Y0240217D01*
X0699028Y0240173D01*
X0698988Y0240127D01*
X0698950Y0240078D01*
X0698915Y0240027D01*
X0698884Y0239974D01*
X0698856Y0239919D01*
X0698831Y0239862D01*
X0698810Y0239804D01*
X0698793Y0239744D01*
X0698779Y0239684D01*
X0698770Y0239623D01*
X0698764Y0239562D01*
X0698762Y0239500D01*
X0709058Y0240483D02*
X0709058Y0236550D01*
X0711025Y0239828D02*
X0711025Y0240483D01*
X0709058Y0240483D01*
X0713110Y0239172D02*
X0713110Y0237533D01*
X0713110Y0238517D02*
X0715733Y0238517D01*
X0715733Y0239172D01*
X0715731Y0239243D01*
X0715725Y0239314D01*
X0715716Y0239384D01*
X0715702Y0239454D01*
X0715685Y0239523D01*
X0715664Y0239591D01*
X0715640Y0239657D01*
X0715612Y0239722D01*
X0715580Y0239786D01*
X0715545Y0239848D01*
X0715507Y0239908D01*
X0715466Y0239965D01*
X0715421Y0240021D01*
X0715374Y0240074D01*
X0715324Y0240124D01*
X0715271Y0240171D01*
X0715215Y0240216D01*
X0715158Y0240257D01*
X0715098Y0240295D01*
X0715036Y0240330D01*
X0714972Y0240362D01*
X0714907Y0240390D01*
X0714841Y0240414D01*
X0714773Y0240435D01*
X0714704Y0240452D01*
X0714634Y0240466D01*
X0714564Y0240475D01*
X0714493Y0240481D01*
X0714422Y0240483D01*
X0714351Y0240481D01*
X0714280Y0240475D01*
X0714210Y0240466D01*
X0714140Y0240452D01*
X0714071Y0240435D01*
X0714003Y0240414D01*
X0713937Y0240390D01*
X0713872Y0240362D01*
X0713808Y0240330D01*
X0713746Y0240295D01*
X0713686Y0240257D01*
X0713629Y0240216D01*
X0713573Y0240171D01*
X0713520Y0240124D01*
X0713470Y0240074D01*
X0713423Y0240021D01*
X0713378Y0239965D01*
X0713337Y0239908D01*
X0713299Y0239848D01*
X0713264Y0239786D01*
X0713232Y0239722D01*
X0713204Y0239657D01*
X0713180Y0239591D01*
X0713159Y0239523D01*
X0713142Y0239454D01*
X0713128Y0239384D01*
X0713119Y0239314D01*
X0713113Y0239243D01*
X0713111Y0239172D01*
X0713111Y0237533D02*
X0713113Y0237471D01*
X0713119Y0237410D01*
X0713128Y0237349D01*
X0713142Y0237289D01*
X0713159Y0237229D01*
X0713180Y0237171D01*
X0713205Y0237114D01*
X0713233Y0237059D01*
X0713264Y0237006D01*
X0713299Y0236955D01*
X0713337Y0236906D01*
X0713377Y0236860D01*
X0713421Y0236816D01*
X0713467Y0236776D01*
X0713516Y0236738D01*
X0713567Y0236703D01*
X0713620Y0236672D01*
X0713675Y0236644D01*
X0713732Y0236619D01*
X0713790Y0236598D01*
X0713850Y0236581D01*
X0713910Y0236567D01*
X0713971Y0236558D01*
X0714032Y0236552D01*
X0714094Y0236550D01*
X0715733Y0236550D01*
X0690541Y0238844D02*
X0686608Y0238844D01*
X0683937Y0240483D02*
X0682626Y0236550D01*
X0681315Y0240483D01*
X0693418Y0024878D02*
X0693552Y0024832D01*
X0693687Y0024789D01*
X0693823Y0024750D01*
X0693960Y0024714D01*
X0694097Y0024682D01*
X0694236Y0024653D01*
X0694375Y0024627D01*
X0694515Y0024606D01*
X0694656Y0024587D01*
X0694796Y0024573D01*
X0694938Y0024562D01*
X0695079Y0024554D01*
X0695221Y0024551D01*
X0695220Y0024550D02*
X0695277Y0024551D01*
X0695335Y0024556D01*
X0695392Y0024565D01*
X0695448Y0024578D01*
X0695503Y0024594D01*
X0695557Y0024614D01*
X0695609Y0024638D01*
X0695660Y0024665D01*
X0695708Y0024696D01*
X0695755Y0024730D01*
X0695799Y0024767D01*
X0695841Y0024807D01*
X0695879Y0024849D01*
X0695915Y0024894D01*
X0695948Y0024942D01*
X0695977Y0024991D01*
X0696003Y0025042D01*
X0696026Y0025095D01*
X0696044Y0025150D01*
X0696059Y0025205D01*
X0696071Y0025262D01*
X0696078Y0025319D01*
X0696082Y0025376D01*
X0696081Y0025434D01*
X0696077Y0025491D01*
X0696069Y0025548D01*
X0696057Y0025604D01*
X0696041Y0025660D01*
X0696022Y0025714D01*
X0695999Y0025766D01*
X0695972Y0025817D01*
X0695942Y0025867D01*
X0695909Y0025914D01*
X0695873Y0025958D01*
X0695834Y0026000D01*
X0695792Y0026040D01*
X0695747Y0026076D01*
X0695700Y0026109D01*
X0695651Y0026139D01*
X0695600Y0026166D01*
X0695548Y0026189D01*
X0693909Y0026844D01*
X0693909Y0026845D02*
X0693857Y0026868D01*
X0693806Y0026895D01*
X0693757Y0026925D01*
X0693710Y0026958D01*
X0693665Y0026994D01*
X0693623Y0027034D01*
X0693584Y0027076D01*
X0693548Y0027120D01*
X0693515Y0027167D01*
X0693485Y0027217D01*
X0693458Y0027268D01*
X0693435Y0027320D01*
X0693416Y0027374D01*
X0693400Y0027430D01*
X0693388Y0027486D01*
X0693380Y0027543D01*
X0693376Y0027600D01*
X0693375Y0027658D01*
X0693379Y0027715D01*
X0693386Y0027772D01*
X0693398Y0027829D01*
X0693413Y0027884D01*
X0693431Y0027939D01*
X0693454Y0027992D01*
X0693480Y0028043D01*
X0693509Y0028092D01*
X0693542Y0028140D01*
X0693578Y0028185D01*
X0693616Y0028227D01*
X0693658Y0028267D01*
X0693702Y0028304D01*
X0693749Y0028338D01*
X0693797Y0028369D01*
X0693848Y0028396D01*
X0693900Y0028420D01*
X0693954Y0028440D01*
X0694009Y0028456D01*
X0694065Y0028469D01*
X0694122Y0028478D01*
X0694180Y0028483D01*
X0694237Y0028484D01*
X0694237Y0028483D02*
X0694354Y0028479D01*
X0694471Y0028472D01*
X0694587Y0028461D01*
X0694704Y0028447D01*
X0694819Y0028428D01*
X0694934Y0028407D01*
X0695048Y0028381D01*
X0695162Y0028352D01*
X0695274Y0028320D01*
X0695386Y0028284D01*
X0695496Y0028244D01*
X0695605Y0028201D01*
X0695712Y0028155D01*
X0698761Y0027500D02*
X0698761Y0025533D01*
X0698762Y0025533D02*
X0698764Y0025471D01*
X0698770Y0025410D01*
X0698779Y0025349D01*
X0698793Y0025289D01*
X0698810Y0025229D01*
X0698831Y0025171D01*
X0698856Y0025114D01*
X0698884Y0025059D01*
X0698915Y0025006D01*
X0698950Y0024955D01*
X0698988Y0024906D01*
X0699028Y0024860D01*
X0699072Y0024816D01*
X0699118Y0024776D01*
X0699167Y0024738D01*
X0699218Y0024703D01*
X0699271Y0024672D01*
X0699326Y0024644D01*
X0699383Y0024619D01*
X0699441Y0024598D01*
X0699501Y0024581D01*
X0699561Y0024567D01*
X0699622Y0024558D01*
X0699683Y0024552D01*
X0699745Y0024550D01*
X0701056Y0024550D01*
X0703469Y0025861D02*
X0703469Y0027172D01*
X0703471Y0027243D01*
X0703477Y0027314D01*
X0703486Y0027384D01*
X0703500Y0027454D01*
X0703517Y0027523D01*
X0703538Y0027591D01*
X0703562Y0027657D01*
X0703590Y0027722D01*
X0703622Y0027786D01*
X0703657Y0027848D01*
X0703695Y0027908D01*
X0703736Y0027965D01*
X0703781Y0028021D01*
X0703828Y0028074D01*
X0703878Y0028124D01*
X0703931Y0028171D01*
X0703987Y0028216D01*
X0704044Y0028257D01*
X0704104Y0028295D01*
X0704166Y0028330D01*
X0704230Y0028362D01*
X0704295Y0028390D01*
X0704361Y0028414D01*
X0704429Y0028435D01*
X0704498Y0028452D01*
X0704568Y0028466D01*
X0704638Y0028475D01*
X0704709Y0028481D01*
X0704780Y0028483D01*
X0704851Y0028481D01*
X0704922Y0028475D01*
X0704992Y0028466D01*
X0705062Y0028452D01*
X0705131Y0028435D01*
X0705199Y0028414D01*
X0705265Y0028390D01*
X0705330Y0028362D01*
X0705394Y0028330D01*
X0705456Y0028295D01*
X0705516Y0028257D01*
X0705573Y0028216D01*
X0705629Y0028171D01*
X0705682Y0028124D01*
X0705732Y0028074D01*
X0705779Y0028021D01*
X0705824Y0027965D01*
X0705865Y0027908D01*
X0705903Y0027848D01*
X0705938Y0027786D01*
X0705970Y0027722D01*
X0705998Y0027657D01*
X0706022Y0027591D01*
X0706043Y0027523D01*
X0706060Y0027454D01*
X0706074Y0027384D01*
X0706083Y0027314D01*
X0706089Y0027243D01*
X0706091Y0027172D01*
X0706091Y0025861D01*
X0706089Y0025790D01*
X0706083Y0025719D01*
X0706074Y0025649D01*
X0706060Y0025579D01*
X0706043Y0025510D01*
X0706022Y0025442D01*
X0705998Y0025376D01*
X0705970Y0025311D01*
X0705938Y0025247D01*
X0705903Y0025185D01*
X0705865Y0025125D01*
X0705824Y0025068D01*
X0705779Y0025012D01*
X0705732Y0024959D01*
X0705682Y0024909D01*
X0705629Y0024862D01*
X0705573Y0024817D01*
X0705516Y0024776D01*
X0705456Y0024738D01*
X0705394Y0024703D01*
X0705330Y0024671D01*
X0705265Y0024643D01*
X0705199Y0024619D01*
X0705131Y0024598D01*
X0705062Y0024581D01*
X0704992Y0024567D01*
X0704922Y0024558D01*
X0704851Y0024552D01*
X0704780Y0024550D01*
X0704709Y0024552D01*
X0704638Y0024558D01*
X0704568Y0024567D01*
X0704498Y0024581D01*
X0704429Y0024598D01*
X0704361Y0024619D01*
X0704295Y0024643D01*
X0704230Y0024671D01*
X0704166Y0024703D01*
X0704104Y0024738D01*
X0704044Y0024776D01*
X0703987Y0024817D01*
X0703931Y0024862D01*
X0703878Y0024909D01*
X0703828Y0024959D01*
X0703781Y0025012D01*
X0703736Y0025068D01*
X0703695Y0025125D01*
X0703657Y0025185D01*
X0703622Y0025247D01*
X0703590Y0025311D01*
X0703562Y0025376D01*
X0703538Y0025442D01*
X0703517Y0025510D01*
X0703500Y0025579D01*
X0703486Y0025649D01*
X0703477Y0025719D01*
X0703471Y0025790D01*
X0703469Y0025861D01*
X0701056Y0028483D02*
X0699745Y0028483D01*
X0699683Y0028481D01*
X0699622Y0028475D01*
X0699561Y0028466D01*
X0699501Y0028452D01*
X0699441Y0028435D01*
X0699383Y0028414D01*
X0699326Y0028389D01*
X0699271Y0028361D01*
X0699218Y0028330D01*
X0699167Y0028295D01*
X0699118Y0028257D01*
X0699072Y0028217D01*
X0699028Y0028173D01*
X0698988Y0028127D01*
X0698950Y0028078D01*
X0698915Y0028027D01*
X0698884Y0027974D01*
X0698856Y0027919D01*
X0698831Y0027862D01*
X0698810Y0027804D01*
X0698793Y0027744D01*
X0698779Y0027684D01*
X0698770Y0027623D01*
X0698764Y0027562D01*
X0698762Y0027500D01*
X0709058Y0028483D02*
X0711025Y0028483D01*
X0711025Y0027828D01*
X0709058Y0028483D02*
X0709058Y0024550D01*
X0713110Y0025533D02*
X0713110Y0027172D01*
X0713110Y0026517D02*
X0715733Y0026517D01*
X0715733Y0027172D01*
X0715731Y0027243D01*
X0715725Y0027314D01*
X0715716Y0027384D01*
X0715702Y0027454D01*
X0715685Y0027523D01*
X0715664Y0027591D01*
X0715640Y0027657D01*
X0715612Y0027722D01*
X0715580Y0027786D01*
X0715545Y0027848D01*
X0715507Y0027908D01*
X0715466Y0027965D01*
X0715421Y0028021D01*
X0715374Y0028074D01*
X0715324Y0028124D01*
X0715271Y0028171D01*
X0715215Y0028216D01*
X0715158Y0028257D01*
X0715098Y0028295D01*
X0715036Y0028330D01*
X0714972Y0028362D01*
X0714907Y0028390D01*
X0714841Y0028414D01*
X0714773Y0028435D01*
X0714704Y0028452D01*
X0714634Y0028466D01*
X0714564Y0028475D01*
X0714493Y0028481D01*
X0714422Y0028483D01*
X0714351Y0028481D01*
X0714280Y0028475D01*
X0714210Y0028466D01*
X0714140Y0028452D01*
X0714071Y0028435D01*
X0714003Y0028414D01*
X0713937Y0028390D01*
X0713872Y0028362D01*
X0713808Y0028330D01*
X0713746Y0028295D01*
X0713686Y0028257D01*
X0713629Y0028216D01*
X0713573Y0028171D01*
X0713520Y0028124D01*
X0713470Y0028074D01*
X0713423Y0028021D01*
X0713378Y0027965D01*
X0713337Y0027908D01*
X0713299Y0027848D01*
X0713264Y0027786D01*
X0713232Y0027722D01*
X0713204Y0027657D01*
X0713180Y0027591D01*
X0713159Y0027523D01*
X0713142Y0027454D01*
X0713128Y0027384D01*
X0713119Y0027314D01*
X0713113Y0027243D01*
X0713111Y0027172D01*
X0713111Y0025533D02*
X0713113Y0025471D01*
X0713119Y0025410D01*
X0713128Y0025349D01*
X0713142Y0025289D01*
X0713159Y0025229D01*
X0713180Y0025171D01*
X0713205Y0025114D01*
X0713233Y0025059D01*
X0713264Y0025006D01*
X0713299Y0024955D01*
X0713337Y0024906D01*
X0713377Y0024860D01*
X0713421Y0024816D01*
X0713467Y0024776D01*
X0713516Y0024738D01*
X0713567Y0024703D01*
X0713620Y0024672D01*
X0713675Y0024644D01*
X0713732Y0024619D01*
X0713790Y0024598D01*
X0713850Y0024581D01*
X0713910Y0024567D01*
X0713971Y0024558D01*
X0714032Y0024552D01*
X0714094Y0024550D01*
X0715733Y0024550D01*
X0690541Y0026844D02*
X0686608Y0026844D01*
X0683937Y0028483D02*
X0682626Y0024550D01*
X0681315Y0028483D01*
D12*
X0362118Y0092154D02*
X0360543Y0092154D01*
X0360543Y0092153D02*
X0360476Y0092149D01*
X0360409Y0092149D01*
X0360341Y0092153D01*
X0360275Y0092161D01*
X0360208Y0092172D01*
X0360143Y0092188D01*
X0360078Y0092207D01*
X0360015Y0092229D01*
X0359953Y0092255D01*
X0359892Y0092285D01*
X0359834Y0092318D01*
X0359777Y0092354D01*
X0359723Y0092394D01*
X0359670Y0092436D01*
X0359621Y0092482D01*
X0359574Y0092530D01*
X0359530Y0092581D01*
X0359488Y0092634D01*
X0359450Y0092689D01*
X0359416Y0092747D01*
X0359384Y0092806D01*
X0359356Y0092868D01*
X0359331Y0092930D01*
X0359310Y0092994D01*
X0359293Y0093059D01*
X0359280Y0093125D01*
X0359270Y0093192D01*
X0359264Y0093259D01*
X0359262Y0093326D01*
X0359264Y0093393D01*
X0359263Y0093393D02*
X0359266Y0093466D01*
X0359273Y0093538D01*
X0359284Y0093609D01*
X0359298Y0093680D01*
X0359316Y0093750D01*
X0359339Y0093819D01*
X0359364Y0093887D01*
X0359394Y0093953D01*
X0359427Y0094017D01*
X0359463Y0094080D01*
X0359503Y0094140D01*
X0359546Y0094199D01*
X0359592Y0094254D01*
X0359641Y0094308D01*
X0359692Y0094358D01*
X0359747Y0094406D01*
X0359804Y0094451D01*
X0359863Y0094492D01*
X0359924Y0094530D01*
X0359988Y0094565D01*
X0360053Y0094597D01*
X0360120Y0094624D01*
X0360188Y0094649D01*
X0360257Y0094669D01*
X0360328Y0094686D01*
X0360399Y0094699D01*
X0360471Y0094708D01*
X0360543Y0094713D01*
X0362118Y0094713D01*
X0362188Y0094712D01*
X0362257Y0094707D01*
X0362326Y0094699D01*
X0362395Y0094687D01*
X0362462Y0094671D01*
X0362529Y0094651D01*
X0362595Y0094627D01*
X0362659Y0094600D01*
X0362721Y0094570D01*
X0362782Y0094536D01*
X0362841Y0094499D01*
X0362898Y0094458D01*
X0362952Y0094415D01*
X0363004Y0094368D01*
X0363053Y0094319D01*
X0363100Y0094267D01*
X0363143Y0094213D01*
X0363184Y0094156D01*
X0363221Y0094097D01*
X0363255Y0094036D01*
X0363285Y0093974D01*
X0363312Y0093910D01*
X0363336Y0093844D01*
X0363356Y0093777D01*
X0363372Y0093710D01*
X0363384Y0093641D01*
X0363392Y0093572D01*
X0363397Y0093503D01*
X0363398Y0093433D01*
X0363396Y0093364D01*
X0363390Y0093295D01*
X0363381Y0093226D01*
X0363368Y0093158D01*
X0363351Y0093091D01*
X0363331Y0093024D01*
X0363307Y0092959D01*
X0363280Y0092896D01*
X0363249Y0092833D01*
X0363215Y0092773D01*
X0363177Y0092715D01*
X0363137Y0092658D01*
X0363094Y0092604D01*
X0363047Y0092553D01*
X0362998Y0092504D01*
X0362947Y0092457D01*
X0362893Y0092414D01*
X0362836Y0092374D01*
X0362778Y0092336D01*
X0362718Y0092302D01*
X0362655Y0092271D01*
X0362592Y0092244D01*
X0362527Y0092220D01*
X0362460Y0092200D01*
X0362393Y0092183D01*
X0362325Y0092170D01*
X0362256Y0092161D01*
X0362187Y0092155D01*
X0362118Y0092153D01*
X0350583Y0090874D02*
X0348220Y0090874D01*
X0348221Y0090874D02*
X0348150Y0090884D01*
X0348081Y0090898D01*
X0348012Y0090916D01*
X0347944Y0090937D01*
X0347877Y0090962D01*
X0347812Y0090991D01*
X0347748Y0091023D01*
X0347687Y0091058D01*
X0347627Y0091096D01*
X0347569Y0091138D01*
X0347514Y0091183D01*
X0347460Y0091230D01*
X0347410Y0091280D01*
X0347362Y0091333D01*
X0347317Y0091388D01*
X0347276Y0091446D01*
X0347237Y0091505D01*
X0347201Y0091567D01*
X0347169Y0091630D01*
X0347140Y0091696D01*
X0347115Y0091762D01*
X0347093Y0091830D01*
X0347075Y0091899D01*
X0347060Y0091968D01*
X0347050Y0092038D01*
X0347043Y0092109D01*
X0347039Y0092180D01*
X0347040Y0092251D01*
X0347040Y0092252D02*
X0347039Y0092323D01*
X0347043Y0092394D01*
X0347050Y0092465D01*
X0347060Y0092535D01*
X0347075Y0092604D01*
X0347093Y0092673D01*
X0347115Y0092741D01*
X0347140Y0092807D01*
X0347169Y0092873D01*
X0347201Y0092936D01*
X0347237Y0092998D01*
X0347276Y0093057D01*
X0347317Y0093115D01*
X0347362Y0093170D01*
X0347410Y0093223D01*
X0347460Y0093273D01*
X0347514Y0093320D01*
X0347569Y0093365D01*
X0347627Y0093407D01*
X0347687Y0093445D01*
X0347748Y0093480D01*
X0347812Y0093512D01*
X0347877Y0093541D01*
X0347944Y0093566D01*
X0348012Y0093587D01*
X0348081Y0093605D01*
X0348150Y0093619D01*
X0348221Y0093629D01*
X0348220Y0093630D02*
X0350583Y0093630D01*
X0350582Y0093629D02*
X0350653Y0093619D01*
X0350722Y0093605D01*
X0350791Y0093587D01*
X0350859Y0093566D01*
X0350926Y0093541D01*
X0350991Y0093512D01*
X0351055Y0093480D01*
X0351116Y0093445D01*
X0351176Y0093407D01*
X0351234Y0093365D01*
X0351289Y0093320D01*
X0351343Y0093273D01*
X0351393Y0093223D01*
X0351441Y0093170D01*
X0351486Y0093115D01*
X0351527Y0093057D01*
X0351566Y0092998D01*
X0351602Y0092936D01*
X0351634Y0092873D01*
X0351663Y0092807D01*
X0351688Y0092741D01*
X0351710Y0092673D01*
X0351728Y0092604D01*
X0351743Y0092535D01*
X0351753Y0092465D01*
X0351760Y0092394D01*
X0351764Y0092323D01*
X0351763Y0092252D01*
X0351763Y0092251D02*
X0351764Y0092180D01*
X0351760Y0092109D01*
X0351753Y0092038D01*
X0351743Y0091968D01*
X0351728Y0091899D01*
X0351710Y0091830D01*
X0351688Y0091762D01*
X0351663Y0091696D01*
X0351634Y0091630D01*
X0351602Y0091567D01*
X0351566Y0091505D01*
X0351527Y0091446D01*
X0351486Y0091388D01*
X0351441Y0091333D01*
X0351393Y0091280D01*
X0351343Y0091230D01*
X0351289Y0091183D01*
X0351234Y0091138D01*
X0351176Y0091096D01*
X0351116Y0091058D01*
X0351055Y0091023D01*
X0350991Y0090991D01*
X0350926Y0090962D01*
X0350859Y0090937D01*
X0350791Y0090916D01*
X0350722Y0090898D01*
X0350653Y0090884D01*
X0350582Y0090874D01*
X0350583Y0112370D02*
X0348220Y0112370D01*
X0348221Y0112371D02*
X0348150Y0112381D01*
X0348081Y0112395D01*
X0348012Y0112413D01*
X0347944Y0112434D01*
X0347877Y0112459D01*
X0347812Y0112488D01*
X0347748Y0112520D01*
X0347687Y0112555D01*
X0347627Y0112593D01*
X0347569Y0112635D01*
X0347514Y0112680D01*
X0347460Y0112727D01*
X0347410Y0112777D01*
X0347362Y0112830D01*
X0347317Y0112885D01*
X0347276Y0112943D01*
X0347237Y0113002D01*
X0347201Y0113064D01*
X0347169Y0113127D01*
X0347140Y0113193D01*
X0347115Y0113259D01*
X0347093Y0113327D01*
X0347075Y0113396D01*
X0347060Y0113465D01*
X0347050Y0113535D01*
X0347043Y0113606D01*
X0347039Y0113677D01*
X0347040Y0113748D01*
X0347040Y0113749D02*
X0347039Y0113820D01*
X0347043Y0113891D01*
X0347050Y0113962D01*
X0347060Y0114032D01*
X0347075Y0114101D01*
X0347093Y0114170D01*
X0347115Y0114238D01*
X0347140Y0114304D01*
X0347169Y0114370D01*
X0347201Y0114433D01*
X0347237Y0114495D01*
X0347276Y0114554D01*
X0347317Y0114612D01*
X0347362Y0114667D01*
X0347410Y0114720D01*
X0347460Y0114770D01*
X0347514Y0114817D01*
X0347569Y0114862D01*
X0347627Y0114904D01*
X0347687Y0114942D01*
X0347748Y0114977D01*
X0347812Y0115009D01*
X0347877Y0115038D01*
X0347944Y0115063D01*
X0348012Y0115084D01*
X0348081Y0115102D01*
X0348150Y0115116D01*
X0348221Y0115126D01*
X0348220Y0115126D02*
X0350583Y0115126D01*
X0350582Y0115126D02*
X0350653Y0115116D01*
X0350722Y0115102D01*
X0350791Y0115084D01*
X0350859Y0115063D01*
X0350926Y0115038D01*
X0350991Y0115009D01*
X0351055Y0114977D01*
X0351116Y0114942D01*
X0351176Y0114904D01*
X0351234Y0114862D01*
X0351289Y0114817D01*
X0351343Y0114770D01*
X0351393Y0114720D01*
X0351441Y0114667D01*
X0351486Y0114612D01*
X0351527Y0114554D01*
X0351566Y0114495D01*
X0351602Y0114433D01*
X0351634Y0114370D01*
X0351663Y0114304D01*
X0351688Y0114238D01*
X0351710Y0114170D01*
X0351728Y0114101D01*
X0351743Y0114032D01*
X0351753Y0113962D01*
X0351760Y0113891D01*
X0351764Y0113820D01*
X0351763Y0113749D01*
X0351763Y0113748D02*
X0351764Y0113677D01*
X0351760Y0113606D01*
X0351753Y0113535D01*
X0351743Y0113465D01*
X0351728Y0113396D01*
X0351710Y0113327D01*
X0351688Y0113259D01*
X0351663Y0113193D01*
X0351634Y0113127D01*
X0351602Y0113064D01*
X0351566Y0113002D01*
X0351527Y0112943D01*
X0351486Y0112885D01*
X0351441Y0112830D01*
X0351393Y0112777D01*
X0351343Y0112727D01*
X0351289Y0112680D01*
X0351234Y0112635D01*
X0351176Y0112593D01*
X0351116Y0112555D01*
X0351055Y0112520D01*
X0350991Y0112488D01*
X0350926Y0112459D01*
X0350859Y0112434D01*
X0350791Y0112413D01*
X0350722Y0112395D01*
X0350653Y0112381D01*
X0350582Y0112371D01*
X0359264Y0112527D02*
X0359262Y0112460D01*
X0359264Y0112393D01*
X0359270Y0112326D01*
X0359280Y0112259D01*
X0359293Y0112193D01*
X0359310Y0112128D01*
X0359331Y0112064D01*
X0359356Y0112002D01*
X0359384Y0111940D01*
X0359416Y0111881D01*
X0359450Y0111823D01*
X0359488Y0111768D01*
X0359530Y0111715D01*
X0359574Y0111664D01*
X0359621Y0111616D01*
X0359670Y0111570D01*
X0359723Y0111528D01*
X0359777Y0111488D01*
X0359834Y0111452D01*
X0359892Y0111419D01*
X0359953Y0111389D01*
X0360015Y0111363D01*
X0360078Y0111341D01*
X0360143Y0111322D01*
X0360208Y0111306D01*
X0360275Y0111295D01*
X0360341Y0111287D01*
X0360409Y0111283D01*
X0360476Y0111283D01*
X0360543Y0111287D01*
X0362118Y0111287D01*
X0362187Y0111289D01*
X0362256Y0111295D01*
X0362325Y0111304D01*
X0362393Y0111317D01*
X0362460Y0111334D01*
X0362527Y0111354D01*
X0362592Y0111378D01*
X0362655Y0111405D01*
X0362718Y0111436D01*
X0362778Y0111470D01*
X0362836Y0111508D01*
X0362893Y0111548D01*
X0362947Y0111591D01*
X0362998Y0111638D01*
X0363047Y0111687D01*
X0363094Y0111738D01*
X0363137Y0111792D01*
X0363177Y0111849D01*
X0363215Y0111907D01*
X0363249Y0111967D01*
X0363280Y0112030D01*
X0363307Y0112093D01*
X0363331Y0112158D01*
X0363351Y0112225D01*
X0363368Y0112292D01*
X0363381Y0112360D01*
X0363390Y0112429D01*
X0363396Y0112498D01*
X0363398Y0112567D01*
X0363397Y0112637D01*
X0363392Y0112706D01*
X0363384Y0112775D01*
X0363372Y0112844D01*
X0363356Y0112911D01*
X0363336Y0112978D01*
X0363312Y0113044D01*
X0363285Y0113108D01*
X0363255Y0113170D01*
X0363221Y0113231D01*
X0363184Y0113290D01*
X0363143Y0113347D01*
X0363100Y0113401D01*
X0363053Y0113453D01*
X0363004Y0113502D01*
X0362952Y0113549D01*
X0362898Y0113592D01*
X0362841Y0113633D01*
X0362782Y0113670D01*
X0362721Y0113704D01*
X0362659Y0113734D01*
X0362595Y0113761D01*
X0362529Y0113785D01*
X0362462Y0113805D01*
X0362395Y0113821D01*
X0362326Y0113833D01*
X0362257Y0113841D01*
X0362188Y0113846D01*
X0362118Y0113847D01*
X0362118Y0113846D02*
X0360543Y0113846D01*
X0360543Y0113847D02*
X0360471Y0113842D01*
X0360399Y0113833D01*
X0360328Y0113820D01*
X0360257Y0113803D01*
X0360188Y0113783D01*
X0360120Y0113758D01*
X0360053Y0113731D01*
X0359988Y0113699D01*
X0359924Y0113664D01*
X0359863Y0113626D01*
X0359804Y0113585D01*
X0359747Y0113540D01*
X0359692Y0113492D01*
X0359641Y0113442D01*
X0359592Y0113388D01*
X0359546Y0113333D01*
X0359503Y0113274D01*
X0359463Y0113214D01*
X0359427Y0113151D01*
X0359394Y0113087D01*
X0359364Y0113021D01*
X0359339Y0112953D01*
X0359316Y0112884D01*
X0359298Y0112814D01*
X0359284Y0112743D01*
X0359273Y0112672D01*
X0359266Y0112600D01*
X0359263Y0112527D01*
X0085398Y0112567D02*
X0085397Y0112637D01*
X0085392Y0112706D01*
X0085384Y0112775D01*
X0085372Y0112844D01*
X0085356Y0112911D01*
X0085336Y0112978D01*
X0085312Y0113044D01*
X0085285Y0113108D01*
X0085255Y0113170D01*
X0085221Y0113231D01*
X0085184Y0113290D01*
X0085143Y0113347D01*
X0085100Y0113401D01*
X0085053Y0113453D01*
X0085004Y0113502D01*
X0084952Y0113549D01*
X0084898Y0113592D01*
X0084841Y0113633D01*
X0084782Y0113670D01*
X0084721Y0113704D01*
X0084659Y0113734D01*
X0084595Y0113761D01*
X0084529Y0113785D01*
X0084462Y0113805D01*
X0084395Y0113821D01*
X0084326Y0113833D01*
X0084257Y0113841D01*
X0084188Y0113846D01*
X0084118Y0113847D01*
X0084118Y0113846D02*
X0082543Y0113846D01*
X0082543Y0113847D02*
X0082471Y0113842D01*
X0082399Y0113833D01*
X0082328Y0113820D01*
X0082257Y0113803D01*
X0082188Y0113783D01*
X0082120Y0113758D01*
X0082053Y0113731D01*
X0081988Y0113699D01*
X0081924Y0113664D01*
X0081863Y0113626D01*
X0081804Y0113585D01*
X0081747Y0113540D01*
X0081692Y0113492D01*
X0081641Y0113442D01*
X0081592Y0113388D01*
X0081546Y0113333D01*
X0081503Y0113274D01*
X0081463Y0113214D01*
X0081427Y0113151D01*
X0081394Y0113087D01*
X0081364Y0113021D01*
X0081339Y0112953D01*
X0081316Y0112884D01*
X0081298Y0112814D01*
X0081284Y0112743D01*
X0081273Y0112672D01*
X0081266Y0112600D01*
X0081263Y0112527D01*
X0081264Y0112527D02*
X0081262Y0112460D01*
X0081264Y0112393D01*
X0081270Y0112326D01*
X0081280Y0112259D01*
X0081293Y0112193D01*
X0081310Y0112128D01*
X0081331Y0112064D01*
X0081356Y0112002D01*
X0081384Y0111940D01*
X0081416Y0111881D01*
X0081450Y0111823D01*
X0081488Y0111768D01*
X0081530Y0111715D01*
X0081574Y0111664D01*
X0081621Y0111616D01*
X0081670Y0111570D01*
X0081723Y0111528D01*
X0081777Y0111488D01*
X0081834Y0111452D01*
X0081892Y0111419D01*
X0081953Y0111389D01*
X0082015Y0111363D01*
X0082078Y0111341D01*
X0082143Y0111322D01*
X0082208Y0111306D01*
X0082275Y0111295D01*
X0082341Y0111287D01*
X0082409Y0111283D01*
X0082476Y0111283D01*
X0082543Y0111287D01*
X0084118Y0111287D01*
X0084187Y0111289D01*
X0084256Y0111295D01*
X0084325Y0111304D01*
X0084393Y0111317D01*
X0084460Y0111334D01*
X0084527Y0111354D01*
X0084592Y0111378D01*
X0084655Y0111405D01*
X0084718Y0111436D01*
X0084778Y0111470D01*
X0084836Y0111508D01*
X0084893Y0111548D01*
X0084947Y0111591D01*
X0084998Y0111638D01*
X0085047Y0111687D01*
X0085094Y0111738D01*
X0085137Y0111792D01*
X0085177Y0111849D01*
X0085215Y0111907D01*
X0085249Y0111967D01*
X0085280Y0112030D01*
X0085307Y0112093D01*
X0085331Y0112158D01*
X0085351Y0112225D01*
X0085368Y0112292D01*
X0085381Y0112360D01*
X0085390Y0112429D01*
X0085396Y0112498D01*
X0085398Y0112567D01*
X0072583Y0112370D02*
X0070220Y0112370D01*
X0070221Y0112371D02*
X0070150Y0112381D01*
X0070081Y0112395D01*
X0070012Y0112413D01*
X0069944Y0112434D01*
X0069877Y0112459D01*
X0069812Y0112488D01*
X0069748Y0112520D01*
X0069687Y0112555D01*
X0069627Y0112593D01*
X0069569Y0112635D01*
X0069514Y0112680D01*
X0069460Y0112727D01*
X0069410Y0112777D01*
X0069362Y0112830D01*
X0069317Y0112885D01*
X0069276Y0112943D01*
X0069237Y0113002D01*
X0069201Y0113064D01*
X0069169Y0113127D01*
X0069140Y0113193D01*
X0069115Y0113259D01*
X0069093Y0113327D01*
X0069075Y0113396D01*
X0069060Y0113465D01*
X0069050Y0113535D01*
X0069043Y0113606D01*
X0069039Y0113677D01*
X0069040Y0113748D01*
X0069040Y0113749D02*
X0069039Y0113820D01*
X0069043Y0113891D01*
X0069050Y0113962D01*
X0069060Y0114032D01*
X0069075Y0114101D01*
X0069093Y0114170D01*
X0069115Y0114238D01*
X0069140Y0114304D01*
X0069169Y0114370D01*
X0069201Y0114433D01*
X0069237Y0114495D01*
X0069276Y0114554D01*
X0069317Y0114612D01*
X0069362Y0114667D01*
X0069410Y0114720D01*
X0069460Y0114770D01*
X0069514Y0114817D01*
X0069569Y0114862D01*
X0069627Y0114904D01*
X0069687Y0114942D01*
X0069748Y0114977D01*
X0069812Y0115009D01*
X0069877Y0115038D01*
X0069944Y0115063D01*
X0070012Y0115084D01*
X0070081Y0115102D01*
X0070150Y0115116D01*
X0070221Y0115126D01*
X0070220Y0115126D02*
X0072583Y0115126D01*
X0072582Y0115126D02*
X0072653Y0115116D01*
X0072722Y0115102D01*
X0072791Y0115084D01*
X0072859Y0115063D01*
X0072926Y0115038D01*
X0072991Y0115009D01*
X0073055Y0114977D01*
X0073116Y0114942D01*
X0073176Y0114904D01*
X0073234Y0114862D01*
X0073289Y0114817D01*
X0073343Y0114770D01*
X0073393Y0114720D01*
X0073441Y0114667D01*
X0073486Y0114612D01*
X0073527Y0114554D01*
X0073566Y0114495D01*
X0073602Y0114433D01*
X0073634Y0114370D01*
X0073663Y0114304D01*
X0073688Y0114238D01*
X0073710Y0114170D01*
X0073728Y0114101D01*
X0073743Y0114032D01*
X0073753Y0113962D01*
X0073760Y0113891D01*
X0073764Y0113820D01*
X0073763Y0113749D01*
X0073763Y0113748D02*
X0073764Y0113677D01*
X0073760Y0113606D01*
X0073753Y0113535D01*
X0073743Y0113465D01*
X0073728Y0113396D01*
X0073710Y0113327D01*
X0073688Y0113259D01*
X0073663Y0113193D01*
X0073634Y0113127D01*
X0073602Y0113064D01*
X0073566Y0113002D01*
X0073527Y0112943D01*
X0073486Y0112885D01*
X0073441Y0112830D01*
X0073393Y0112777D01*
X0073343Y0112727D01*
X0073289Y0112680D01*
X0073234Y0112635D01*
X0073176Y0112593D01*
X0073116Y0112555D01*
X0073055Y0112520D01*
X0072991Y0112488D01*
X0072926Y0112459D01*
X0072859Y0112434D01*
X0072791Y0112413D01*
X0072722Y0112395D01*
X0072653Y0112381D01*
X0072582Y0112371D01*
X0072583Y0093630D02*
X0070220Y0093630D01*
X0070221Y0093629D02*
X0070150Y0093619D01*
X0070081Y0093605D01*
X0070012Y0093587D01*
X0069944Y0093566D01*
X0069877Y0093541D01*
X0069812Y0093512D01*
X0069748Y0093480D01*
X0069687Y0093445D01*
X0069627Y0093407D01*
X0069569Y0093365D01*
X0069514Y0093320D01*
X0069460Y0093273D01*
X0069410Y0093223D01*
X0069362Y0093170D01*
X0069317Y0093115D01*
X0069276Y0093057D01*
X0069237Y0092998D01*
X0069201Y0092936D01*
X0069169Y0092873D01*
X0069140Y0092807D01*
X0069115Y0092741D01*
X0069093Y0092673D01*
X0069075Y0092604D01*
X0069060Y0092535D01*
X0069050Y0092465D01*
X0069043Y0092394D01*
X0069039Y0092323D01*
X0069040Y0092252D01*
X0069040Y0092251D02*
X0069039Y0092180D01*
X0069043Y0092109D01*
X0069050Y0092038D01*
X0069060Y0091968D01*
X0069075Y0091899D01*
X0069093Y0091830D01*
X0069115Y0091762D01*
X0069140Y0091696D01*
X0069169Y0091630D01*
X0069201Y0091567D01*
X0069237Y0091505D01*
X0069276Y0091446D01*
X0069317Y0091388D01*
X0069362Y0091333D01*
X0069410Y0091280D01*
X0069460Y0091230D01*
X0069514Y0091183D01*
X0069569Y0091138D01*
X0069627Y0091096D01*
X0069687Y0091058D01*
X0069748Y0091023D01*
X0069812Y0090991D01*
X0069877Y0090962D01*
X0069944Y0090937D01*
X0070012Y0090916D01*
X0070081Y0090898D01*
X0070150Y0090884D01*
X0070221Y0090874D01*
X0070220Y0090874D02*
X0072583Y0090874D01*
X0072582Y0090874D02*
X0072653Y0090884D01*
X0072722Y0090898D01*
X0072791Y0090916D01*
X0072859Y0090937D01*
X0072926Y0090962D01*
X0072991Y0090991D01*
X0073055Y0091023D01*
X0073116Y0091058D01*
X0073176Y0091096D01*
X0073234Y0091138D01*
X0073289Y0091183D01*
X0073343Y0091230D01*
X0073393Y0091280D01*
X0073441Y0091333D01*
X0073486Y0091388D01*
X0073527Y0091446D01*
X0073566Y0091505D01*
X0073602Y0091567D01*
X0073634Y0091630D01*
X0073663Y0091696D01*
X0073688Y0091762D01*
X0073710Y0091830D01*
X0073728Y0091899D01*
X0073743Y0091968D01*
X0073753Y0092038D01*
X0073760Y0092109D01*
X0073764Y0092180D01*
X0073763Y0092251D01*
X0073763Y0092252D02*
X0073764Y0092323D01*
X0073760Y0092394D01*
X0073753Y0092465D01*
X0073743Y0092535D01*
X0073728Y0092604D01*
X0073710Y0092673D01*
X0073688Y0092741D01*
X0073663Y0092807D01*
X0073634Y0092873D01*
X0073602Y0092936D01*
X0073566Y0092998D01*
X0073527Y0093057D01*
X0073486Y0093115D01*
X0073441Y0093170D01*
X0073393Y0093223D01*
X0073343Y0093273D01*
X0073289Y0093320D01*
X0073234Y0093365D01*
X0073176Y0093407D01*
X0073116Y0093445D01*
X0073055Y0093480D01*
X0072991Y0093512D01*
X0072926Y0093541D01*
X0072859Y0093566D01*
X0072791Y0093587D01*
X0072722Y0093605D01*
X0072653Y0093619D01*
X0072582Y0093629D01*
X0081264Y0093393D02*
X0081262Y0093326D01*
X0081264Y0093259D01*
X0081270Y0093192D01*
X0081280Y0093125D01*
X0081293Y0093059D01*
X0081310Y0092994D01*
X0081331Y0092930D01*
X0081356Y0092868D01*
X0081384Y0092806D01*
X0081416Y0092747D01*
X0081450Y0092689D01*
X0081488Y0092634D01*
X0081530Y0092581D01*
X0081574Y0092530D01*
X0081621Y0092482D01*
X0081670Y0092436D01*
X0081723Y0092394D01*
X0081777Y0092354D01*
X0081834Y0092318D01*
X0081892Y0092285D01*
X0081953Y0092255D01*
X0082015Y0092229D01*
X0082078Y0092207D01*
X0082143Y0092188D01*
X0082208Y0092172D01*
X0082275Y0092161D01*
X0082341Y0092153D01*
X0082409Y0092149D01*
X0082476Y0092149D01*
X0082543Y0092153D01*
X0082543Y0092154D02*
X0084118Y0092154D01*
X0084118Y0092153D02*
X0084187Y0092155D01*
X0084256Y0092161D01*
X0084325Y0092170D01*
X0084393Y0092183D01*
X0084460Y0092200D01*
X0084527Y0092220D01*
X0084592Y0092244D01*
X0084655Y0092271D01*
X0084718Y0092302D01*
X0084778Y0092336D01*
X0084836Y0092374D01*
X0084893Y0092414D01*
X0084947Y0092457D01*
X0084998Y0092504D01*
X0085047Y0092553D01*
X0085094Y0092604D01*
X0085137Y0092658D01*
X0085177Y0092715D01*
X0085215Y0092773D01*
X0085249Y0092833D01*
X0085280Y0092896D01*
X0085307Y0092959D01*
X0085331Y0093024D01*
X0085351Y0093091D01*
X0085368Y0093158D01*
X0085381Y0093226D01*
X0085390Y0093295D01*
X0085396Y0093364D01*
X0085398Y0093433D01*
X0085397Y0093503D01*
X0085392Y0093572D01*
X0085384Y0093641D01*
X0085372Y0093710D01*
X0085356Y0093777D01*
X0085336Y0093844D01*
X0085312Y0093910D01*
X0085285Y0093974D01*
X0085255Y0094036D01*
X0085221Y0094097D01*
X0085184Y0094156D01*
X0085143Y0094213D01*
X0085100Y0094267D01*
X0085053Y0094319D01*
X0085004Y0094368D01*
X0084952Y0094415D01*
X0084898Y0094458D01*
X0084841Y0094499D01*
X0084782Y0094536D01*
X0084721Y0094570D01*
X0084659Y0094600D01*
X0084595Y0094627D01*
X0084529Y0094651D01*
X0084462Y0094671D01*
X0084395Y0094687D01*
X0084326Y0094699D01*
X0084257Y0094707D01*
X0084188Y0094712D01*
X0084118Y0094713D01*
X0082543Y0094713D01*
X0082471Y0094708D01*
X0082399Y0094699D01*
X0082328Y0094686D01*
X0082257Y0094669D01*
X0082188Y0094649D01*
X0082120Y0094624D01*
X0082053Y0094597D01*
X0081988Y0094565D01*
X0081924Y0094530D01*
X0081863Y0094492D01*
X0081804Y0094451D01*
X0081747Y0094406D01*
X0081692Y0094358D01*
X0081641Y0094308D01*
X0081592Y0094254D01*
X0081546Y0094199D01*
X0081503Y0094140D01*
X0081463Y0094080D01*
X0081427Y0094017D01*
X0081394Y0093953D01*
X0081364Y0093887D01*
X0081339Y0093819D01*
X0081316Y0093750D01*
X0081298Y0093680D01*
X0081284Y0093609D01*
X0081273Y0093538D01*
X0081266Y0093466D01*
X0081263Y0093393D01*
X0072583Y0302874D02*
X0070220Y0302874D01*
X0070221Y0302874D02*
X0070150Y0302884D01*
X0070081Y0302898D01*
X0070012Y0302916D01*
X0069944Y0302937D01*
X0069877Y0302962D01*
X0069812Y0302991D01*
X0069748Y0303023D01*
X0069687Y0303058D01*
X0069627Y0303096D01*
X0069569Y0303138D01*
X0069514Y0303183D01*
X0069460Y0303230D01*
X0069410Y0303280D01*
X0069362Y0303333D01*
X0069317Y0303388D01*
X0069276Y0303446D01*
X0069237Y0303505D01*
X0069201Y0303567D01*
X0069169Y0303630D01*
X0069140Y0303696D01*
X0069115Y0303762D01*
X0069093Y0303830D01*
X0069075Y0303899D01*
X0069060Y0303968D01*
X0069050Y0304038D01*
X0069043Y0304109D01*
X0069039Y0304180D01*
X0069040Y0304251D01*
X0069040Y0304252D02*
X0069039Y0304323D01*
X0069043Y0304394D01*
X0069050Y0304465D01*
X0069060Y0304535D01*
X0069075Y0304604D01*
X0069093Y0304673D01*
X0069115Y0304741D01*
X0069140Y0304807D01*
X0069169Y0304873D01*
X0069201Y0304936D01*
X0069237Y0304998D01*
X0069276Y0305057D01*
X0069317Y0305115D01*
X0069362Y0305170D01*
X0069410Y0305223D01*
X0069460Y0305273D01*
X0069514Y0305320D01*
X0069569Y0305365D01*
X0069627Y0305407D01*
X0069687Y0305445D01*
X0069748Y0305480D01*
X0069812Y0305512D01*
X0069877Y0305541D01*
X0069944Y0305566D01*
X0070012Y0305587D01*
X0070081Y0305605D01*
X0070150Y0305619D01*
X0070221Y0305629D01*
X0070220Y0305630D02*
X0072583Y0305630D01*
X0072582Y0305629D02*
X0072653Y0305619D01*
X0072722Y0305605D01*
X0072791Y0305587D01*
X0072859Y0305566D01*
X0072926Y0305541D01*
X0072991Y0305512D01*
X0073055Y0305480D01*
X0073116Y0305445D01*
X0073176Y0305407D01*
X0073234Y0305365D01*
X0073289Y0305320D01*
X0073343Y0305273D01*
X0073393Y0305223D01*
X0073441Y0305170D01*
X0073486Y0305115D01*
X0073527Y0305057D01*
X0073566Y0304998D01*
X0073602Y0304936D01*
X0073634Y0304873D01*
X0073663Y0304807D01*
X0073688Y0304741D01*
X0073710Y0304673D01*
X0073728Y0304604D01*
X0073743Y0304535D01*
X0073753Y0304465D01*
X0073760Y0304394D01*
X0073764Y0304323D01*
X0073763Y0304252D01*
X0073763Y0304251D02*
X0073764Y0304180D01*
X0073760Y0304109D01*
X0073753Y0304038D01*
X0073743Y0303968D01*
X0073728Y0303899D01*
X0073710Y0303830D01*
X0073688Y0303762D01*
X0073663Y0303696D01*
X0073634Y0303630D01*
X0073602Y0303567D01*
X0073566Y0303505D01*
X0073527Y0303446D01*
X0073486Y0303388D01*
X0073441Y0303333D01*
X0073393Y0303280D01*
X0073343Y0303230D01*
X0073289Y0303183D01*
X0073234Y0303138D01*
X0073176Y0303096D01*
X0073116Y0303058D01*
X0073055Y0303023D01*
X0072991Y0302991D01*
X0072926Y0302962D01*
X0072859Y0302937D01*
X0072791Y0302916D01*
X0072722Y0302898D01*
X0072653Y0302884D01*
X0072582Y0302874D01*
X0082543Y0304154D02*
X0084118Y0304154D01*
X0084118Y0304153D02*
X0084187Y0304155D01*
X0084256Y0304161D01*
X0084325Y0304170D01*
X0084393Y0304183D01*
X0084460Y0304200D01*
X0084527Y0304220D01*
X0084592Y0304244D01*
X0084655Y0304271D01*
X0084718Y0304302D01*
X0084778Y0304336D01*
X0084836Y0304374D01*
X0084893Y0304414D01*
X0084947Y0304457D01*
X0084998Y0304504D01*
X0085047Y0304553D01*
X0085094Y0304604D01*
X0085137Y0304658D01*
X0085177Y0304715D01*
X0085215Y0304773D01*
X0085249Y0304833D01*
X0085280Y0304896D01*
X0085307Y0304959D01*
X0085331Y0305024D01*
X0085351Y0305091D01*
X0085368Y0305158D01*
X0085381Y0305226D01*
X0085390Y0305295D01*
X0085396Y0305364D01*
X0085398Y0305433D01*
X0085397Y0305503D01*
X0085392Y0305572D01*
X0085384Y0305641D01*
X0085372Y0305710D01*
X0085356Y0305777D01*
X0085336Y0305844D01*
X0085312Y0305910D01*
X0085285Y0305974D01*
X0085255Y0306036D01*
X0085221Y0306097D01*
X0085184Y0306156D01*
X0085143Y0306213D01*
X0085100Y0306267D01*
X0085053Y0306319D01*
X0085004Y0306368D01*
X0084952Y0306415D01*
X0084898Y0306458D01*
X0084841Y0306499D01*
X0084782Y0306536D01*
X0084721Y0306570D01*
X0084659Y0306600D01*
X0084595Y0306627D01*
X0084529Y0306651D01*
X0084462Y0306671D01*
X0084395Y0306687D01*
X0084326Y0306699D01*
X0084257Y0306707D01*
X0084188Y0306712D01*
X0084118Y0306713D01*
X0082543Y0306713D01*
X0082471Y0306708D01*
X0082399Y0306699D01*
X0082328Y0306686D01*
X0082257Y0306669D01*
X0082188Y0306649D01*
X0082120Y0306624D01*
X0082053Y0306597D01*
X0081988Y0306565D01*
X0081924Y0306530D01*
X0081863Y0306492D01*
X0081804Y0306451D01*
X0081747Y0306406D01*
X0081692Y0306358D01*
X0081641Y0306308D01*
X0081592Y0306254D01*
X0081546Y0306199D01*
X0081503Y0306140D01*
X0081463Y0306080D01*
X0081427Y0306017D01*
X0081394Y0305953D01*
X0081364Y0305887D01*
X0081339Y0305819D01*
X0081316Y0305750D01*
X0081298Y0305680D01*
X0081284Y0305609D01*
X0081273Y0305538D01*
X0081266Y0305466D01*
X0081263Y0305393D01*
X0081264Y0305393D02*
X0081262Y0305326D01*
X0081264Y0305259D01*
X0081270Y0305192D01*
X0081280Y0305125D01*
X0081293Y0305059D01*
X0081310Y0304994D01*
X0081331Y0304930D01*
X0081356Y0304868D01*
X0081384Y0304806D01*
X0081416Y0304747D01*
X0081450Y0304689D01*
X0081488Y0304634D01*
X0081530Y0304581D01*
X0081574Y0304530D01*
X0081621Y0304482D01*
X0081670Y0304436D01*
X0081723Y0304394D01*
X0081777Y0304354D01*
X0081834Y0304318D01*
X0081892Y0304285D01*
X0081953Y0304255D01*
X0082015Y0304229D01*
X0082078Y0304207D01*
X0082143Y0304188D01*
X0082208Y0304172D01*
X0082275Y0304161D01*
X0082341Y0304153D01*
X0082409Y0304149D01*
X0082476Y0304149D01*
X0082543Y0304153D01*
X0082543Y0323287D02*
X0084118Y0323287D01*
X0084187Y0323289D01*
X0084256Y0323295D01*
X0084325Y0323304D01*
X0084393Y0323317D01*
X0084460Y0323334D01*
X0084527Y0323354D01*
X0084592Y0323378D01*
X0084655Y0323405D01*
X0084718Y0323436D01*
X0084778Y0323470D01*
X0084836Y0323508D01*
X0084893Y0323548D01*
X0084947Y0323591D01*
X0084998Y0323638D01*
X0085047Y0323687D01*
X0085094Y0323738D01*
X0085137Y0323792D01*
X0085177Y0323849D01*
X0085215Y0323907D01*
X0085249Y0323967D01*
X0085280Y0324030D01*
X0085307Y0324093D01*
X0085331Y0324158D01*
X0085351Y0324225D01*
X0085368Y0324292D01*
X0085381Y0324360D01*
X0085390Y0324429D01*
X0085396Y0324498D01*
X0085398Y0324567D01*
X0085397Y0324637D01*
X0085392Y0324706D01*
X0085384Y0324775D01*
X0085372Y0324844D01*
X0085356Y0324911D01*
X0085336Y0324978D01*
X0085312Y0325044D01*
X0085285Y0325108D01*
X0085255Y0325170D01*
X0085221Y0325231D01*
X0085184Y0325290D01*
X0085143Y0325347D01*
X0085100Y0325401D01*
X0085053Y0325453D01*
X0085004Y0325502D01*
X0084952Y0325549D01*
X0084898Y0325592D01*
X0084841Y0325633D01*
X0084782Y0325670D01*
X0084721Y0325704D01*
X0084659Y0325734D01*
X0084595Y0325761D01*
X0084529Y0325785D01*
X0084462Y0325805D01*
X0084395Y0325821D01*
X0084326Y0325833D01*
X0084257Y0325841D01*
X0084188Y0325846D01*
X0084118Y0325847D01*
X0084118Y0325846D02*
X0082543Y0325846D01*
X0082543Y0325847D02*
X0082471Y0325842D01*
X0082399Y0325833D01*
X0082328Y0325820D01*
X0082257Y0325803D01*
X0082188Y0325783D01*
X0082120Y0325758D01*
X0082053Y0325731D01*
X0081988Y0325699D01*
X0081924Y0325664D01*
X0081863Y0325626D01*
X0081804Y0325585D01*
X0081747Y0325540D01*
X0081692Y0325492D01*
X0081641Y0325442D01*
X0081592Y0325388D01*
X0081546Y0325333D01*
X0081503Y0325274D01*
X0081463Y0325214D01*
X0081427Y0325151D01*
X0081394Y0325087D01*
X0081364Y0325021D01*
X0081339Y0324953D01*
X0081316Y0324884D01*
X0081298Y0324814D01*
X0081284Y0324743D01*
X0081273Y0324672D01*
X0081266Y0324600D01*
X0081263Y0324527D01*
X0081264Y0324527D02*
X0081262Y0324460D01*
X0081264Y0324393D01*
X0081270Y0324326D01*
X0081280Y0324259D01*
X0081293Y0324193D01*
X0081310Y0324128D01*
X0081331Y0324064D01*
X0081356Y0324002D01*
X0081384Y0323940D01*
X0081416Y0323881D01*
X0081450Y0323823D01*
X0081488Y0323768D01*
X0081530Y0323715D01*
X0081574Y0323664D01*
X0081621Y0323616D01*
X0081670Y0323570D01*
X0081723Y0323528D01*
X0081777Y0323488D01*
X0081834Y0323452D01*
X0081892Y0323419D01*
X0081953Y0323389D01*
X0082015Y0323363D01*
X0082078Y0323341D01*
X0082143Y0323322D01*
X0082208Y0323306D01*
X0082275Y0323295D01*
X0082341Y0323287D01*
X0082409Y0323283D01*
X0082476Y0323283D01*
X0082543Y0323287D01*
X0072583Y0324370D02*
X0070220Y0324370D01*
X0070221Y0324371D02*
X0070150Y0324381D01*
X0070081Y0324395D01*
X0070012Y0324413D01*
X0069944Y0324434D01*
X0069877Y0324459D01*
X0069812Y0324488D01*
X0069748Y0324520D01*
X0069687Y0324555D01*
X0069627Y0324593D01*
X0069569Y0324635D01*
X0069514Y0324680D01*
X0069460Y0324727D01*
X0069410Y0324777D01*
X0069362Y0324830D01*
X0069317Y0324885D01*
X0069276Y0324943D01*
X0069237Y0325002D01*
X0069201Y0325064D01*
X0069169Y0325127D01*
X0069140Y0325193D01*
X0069115Y0325259D01*
X0069093Y0325327D01*
X0069075Y0325396D01*
X0069060Y0325465D01*
X0069050Y0325535D01*
X0069043Y0325606D01*
X0069039Y0325677D01*
X0069040Y0325748D01*
X0069040Y0325749D02*
X0069039Y0325820D01*
X0069043Y0325891D01*
X0069050Y0325962D01*
X0069060Y0326032D01*
X0069075Y0326101D01*
X0069093Y0326170D01*
X0069115Y0326238D01*
X0069140Y0326304D01*
X0069169Y0326370D01*
X0069201Y0326433D01*
X0069237Y0326495D01*
X0069276Y0326554D01*
X0069317Y0326612D01*
X0069362Y0326667D01*
X0069410Y0326720D01*
X0069460Y0326770D01*
X0069514Y0326817D01*
X0069569Y0326862D01*
X0069627Y0326904D01*
X0069687Y0326942D01*
X0069748Y0326977D01*
X0069812Y0327009D01*
X0069877Y0327038D01*
X0069944Y0327063D01*
X0070012Y0327084D01*
X0070081Y0327102D01*
X0070150Y0327116D01*
X0070221Y0327126D01*
X0070220Y0327126D02*
X0072583Y0327126D01*
X0072582Y0327126D02*
X0072653Y0327116D01*
X0072722Y0327102D01*
X0072791Y0327084D01*
X0072859Y0327063D01*
X0072926Y0327038D01*
X0072991Y0327009D01*
X0073055Y0326977D01*
X0073116Y0326942D01*
X0073176Y0326904D01*
X0073234Y0326862D01*
X0073289Y0326817D01*
X0073343Y0326770D01*
X0073393Y0326720D01*
X0073441Y0326667D01*
X0073486Y0326612D01*
X0073527Y0326554D01*
X0073566Y0326495D01*
X0073602Y0326433D01*
X0073634Y0326370D01*
X0073663Y0326304D01*
X0073688Y0326238D01*
X0073710Y0326170D01*
X0073728Y0326101D01*
X0073743Y0326032D01*
X0073753Y0325962D01*
X0073760Y0325891D01*
X0073764Y0325820D01*
X0073763Y0325749D01*
X0073763Y0325748D02*
X0073764Y0325677D01*
X0073760Y0325606D01*
X0073753Y0325535D01*
X0073743Y0325465D01*
X0073728Y0325396D01*
X0073710Y0325327D01*
X0073688Y0325259D01*
X0073663Y0325193D01*
X0073634Y0325127D01*
X0073602Y0325064D01*
X0073566Y0325002D01*
X0073527Y0324943D01*
X0073486Y0324885D01*
X0073441Y0324830D01*
X0073393Y0324777D01*
X0073343Y0324727D01*
X0073289Y0324680D01*
X0073234Y0324635D01*
X0073176Y0324593D01*
X0073116Y0324555D01*
X0073055Y0324520D01*
X0072991Y0324488D01*
X0072926Y0324459D01*
X0072859Y0324434D01*
X0072791Y0324413D01*
X0072722Y0324395D01*
X0072653Y0324381D01*
X0072582Y0324371D01*
X0348220Y0324370D02*
X0350583Y0324370D01*
X0350582Y0324371D02*
X0350653Y0324381D01*
X0350722Y0324395D01*
X0350791Y0324413D01*
X0350859Y0324434D01*
X0350926Y0324459D01*
X0350991Y0324488D01*
X0351055Y0324520D01*
X0351116Y0324555D01*
X0351176Y0324593D01*
X0351234Y0324635D01*
X0351289Y0324680D01*
X0351343Y0324727D01*
X0351393Y0324777D01*
X0351441Y0324830D01*
X0351486Y0324885D01*
X0351527Y0324943D01*
X0351566Y0325002D01*
X0351602Y0325064D01*
X0351634Y0325127D01*
X0351663Y0325193D01*
X0351688Y0325259D01*
X0351710Y0325327D01*
X0351728Y0325396D01*
X0351743Y0325465D01*
X0351753Y0325535D01*
X0351760Y0325606D01*
X0351764Y0325677D01*
X0351763Y0325748D01*
X0351763Y0325749D02*
X0351764Y0325820D01*
X0351760Y0325891D01*
X0351753Y0325962D01*
X0351743Y0326032D01*
X0351728Y0326101D01*
X0351710Y0326170D01*
X0351688Y0326238D01*
X0351663Y0326304D01*
X0351634Y0326370D01*
X0351602Y0326433D01*
X0351566Y0326495D01*
X0351527Y0326554D01*
X0351486Y0326612D01*
X0351441Y0326667D01*
X0351393Y0326720D01*
X0351343Y0326770D01*
X0351289Y0326817D01*
X0351234Y0326862D01*
X0351176Y0326904D01*
X0351116Y0326942D01*
X0351055Y0326977D01*
X0350991Y0327009D01*
X0350926Y0327038D01*
X0350859Y0327063D01*
X0350791Y0327084D01*
X0350722Y0327102D01*
X0350653Y0327116D01*
X0350582Y0327126D01*
X0350583Y0327126D02*
X0348220Y0327126D01*
X0348221Y0327126D02*
X0348150Y0327116D01*
X0348081Y0327102D01*
X0348012Y0327084D01*
X0347944Y0327063D01*
X0347877Y0327038D01*
X0347812Y0327009D01*
X0347748Y0326977D01*
X0347687Y0326942D01*
X0347627Y0326904D01*
X0347569Y0326862D01*
X0347514Y0326817D01*
X0347460Y0326770D01*
X0347410Y0326720D01*
X0347362Y0326667D01*
X0347317Y0326612D01*
X0347276Y0326554D01*
X0347237Y0326495D01*
X0347201Y0326433D01*
X0347169Y0326370D01*
X0347140Y0326304D01*
X0347115Y0326238D01*
X0347093Y0326170D01*
X0347075Y0326101D01*
X0347060Y0326032D01*
X0347050Y0325962D01*
X0347043Y0325891D01*
X0347039Y0325820D01*
X0347040Y0325749D01*
X0347040Y0325748D02*
X0347039Y0325677D01*
X0347043Y0325606D01*
X0347050Y0325535D01*
X0347060Y0325465D01*
X0347075Y0325396D01*
X0347093Y0325327D01*
X0347115Y0325259D01*
X0347140Y0325193D01*
X0347169Y0325127D01*
X0347201Y0325064D01*
X0347237Y0325002D01*
X0347276Y0324943D01*
X0347317Y0324885D01*
X0347362Y0324830D01*
X0347410Y0324777D01*
X0347460Y0324727D01*
X0347514Y0324680D01*
X0347569Y0324635D01*
X0347627Y0324593D01*
X0347687Y0324555D01*
X0347748Y0324520D01*
X0347812Y0324488D01*
X0347877Y0324459D01*
X0347944Y0324434D01*
X0348012Y0324413D01*
X0348081Y0324395D01*
X0348150Y0324381D01*
X0348221Y0324371D01*
X0359264Y0324527D02*
X0359262Y0324460D01*
X0359264Y0324393D01*
X0359270Y0324326D01*
X0359280Y0324259D01*
X0359293Y0324193D01*
X0359310Y0324128D01*
X0359331Y0324064D01*
X0359356Y0324002D01*
X0359384Y0323940D01*
X0359416Y0323881D01*
X0359450Y0323823D01*
X0359488Y0323768D01*
X0359530Y0323715D01*
X0359574Y0323664D01*
X0359621Y0323616D01*
X0359670Y0323570D01*
X0359723Y0323528D01*
X0359777Y0323488D01*
X0359834Y0323452D01*
X0359892Y0323419D01*
X0359953Y0323389D01*
X0360015Y0323363D01*
X0360078Y0323341D01*
X0360143Y0323322D01*
X0360208Y0323306D01*
X0360275Y0323295D01*
X0360341Y0323287D01*
X0360409Y0323283D01*
X0360476Y0323283D01*
X0360543Y0323287D01*
X0362118Y0323287D01*
X0362187Y0323289D01*
X0362256Y0323295D01*
X0362325Y0323304D01*
X0362393Y0323317D01*
X0362460Y0323334D01*
X0362527Y0323354D01*
X0362592Y0323378D01*
X0362655Y0323405D01*
X0362718Y0323436D01*
X0362778Y0323470D01*
X0362836Y0323508D01*
X0362893Y0323548D01*
X0362947Y0323591D01*
X0362998Y0323638D01*
X0363047Y0323687D01*
X0363094Y0323738D01*
X0363137Y0323792D01*
X0363177Y0323849D01*
X0363215Y0323907D01*
X0363249Y0323967D01*
X0363280Y0324030D01*
X0363307Y0324093D01*
X0363331Y0324158D01*
X0363351Y0324225D01*
X0363368Y0324292D01*
X0363381Y0324360D01*
X0363390Y0324429D01*
X0363396Y0324498D01*
X0363398Y0324567D01*
X0363397Y0324637D01*
X0363392Y0324706D01*
X0363384Y0324775D01*
X0363372Y0324844D01*
X0363356Y0324911D01*
X0363336Y0324978D01*
X0363312Y0325044D01*
X0363285Y0325108D01*
X0363255Y0325170D01*
X0363221Y0325231D01*
X0363184Y0325290D01*
X0363143Y0325347D01*
X0363100Y0325401D01*
X0363053Y0325453D01*
X0363004Y0325502D01*
X0362952Y0325549D01*
X0362898Y0325592D01*
X0362841Y0325633D01*
X0362782Y0325670D01*
X0362721Y0325704D01*
X0362659Y0325734D01*
X0362595Y0325761D01*
X0362529Y0325785D01*
X0362462Y0325805D01*
X0362395Y0325821D01*
X0362326Y0325833D01*
X0362257Y0325841D01*
X0362188Y0325846D01*
X0362118Y0325847D01*
X0362118Y0325846D02*
X0360543Y0325846D01*
X0360543Y0325847D02*
X0360471Y0325842D01*
X0360399Y0325833D01*
X0360328Y0325820D01*
X0360257Y0325803D01*
X0360188Y0325783D01*
X0360120Y0325758D01*
X0360053Y0325731D01*
X0359988Y0325699D01*
X0359924Y0325664D01*
X0359863Y0325626D01*
X0359804Y0325585D01*
X0359747Y0325540D01*
X0359692Y0325492D01*
X0359641Y0325442D01*
X0359592Y0325388D01*
X0359546Y0325333D01*
X0359503Y0325274D01*
X0359463Y0325214D01*
X0359427Y0325151D01*
X0359394Y0325087D01*
X0359364Y0325021D01*
X0359339Y0324953D01*
X0359316Y0324884D01*
X0359298Y0324814D01*
X0359284Y0324743D01*
X0359273Y0324672D01*
X0359266Y0324600D01*
X0359263Y0324527D01*
X0360543Y0306713D02*
X0362118Y0306713D01*
X0362188Y0306712D01*
X0362257Y0306707D01*
X0362326Y0306699D01*
X0362395Y0306687D01*
X0362462Y0306671D01*
X0362529Y0306651D01*
X0362595Y0306627D01*
X0362659Y0306600D01*
X0362721Y0306570D01*
X0362782Y0306536D01*
X0362841Y0306499D01*
X0362898Y0306458D01*
X0362952Y0306415D01*
X0363004Y0306368D01*
X0363053Y0306319D01*
X0363100Y0306267D01*
X0363143Y0306213D01*
X0363184Y0306156D01*
X0363221Y0306097D01*
X0363255Y0306036D01*
X0363285Y0305974D01*
X0363312Y0305910D01*
X0363336Y0305844D01*
X0363356Y0305777D01*
X0363372Y0305710D01*
X0363384Y0305641D01*
X0363392Y0305572D01*
X0363397Y0305503D01*
X0363398Y0305433D01*
X0363396Y0305364D01*
X0363390Y0305295D01*
X0363381Y0305226D01*
X0363368Y0305158D01*
X0363351Y0305091D01*
X0363331Y0305024D01*
X0363307Y0304959D01*
X0363280Y0304896D01*
X0363249Y0304833D01*
X0363215Y0304773D01*
X0363177Y0304715D01*
X0363137Y0304658D01*
X0363094Y0304604D01*
X0363047Y0304553D01*
X0362998Y0304504D01*
X0362947Y0304457D01*
X0362893Y0304414D01*
X0362836Y0304374D01*
X0362778Y0304336D01*
X0362718Y0304302D01*
X0362655Y0304271D01*
X0362592Y0304244D01*
X0362527Y0304220D01*
X0362460Y0304200D01*
X0362393Y0304183D01*
X0362325Y0304170D01*
X0362256Y0304161D01*
X0362187Y0304155D01*
X0362118Y0304153D01*
X0362118Y0304154D02*
X0360543Y0304154D01*
X0360543Y0304153D02*
X0360476Y0304149D01*
X0360409Y0304149D01*
X0360341Y0304153D01*
X0360275Y0304161D01*
X0360208Y0304172D01*
X0360143Y0304188D01*
X0360078Y0304207D01*
X0360015Y0304229D01*
X0359953Y0304255D01*
X0359892Y0304285D01*
X0359834Y0304318D01*
X0359777Y0304354D01*
X0359723Y0304394D01*
X0359670Y0304436D01*
X0359621Y0304482D01*
X0359574Y0304530D01*
X0359530Y0304581D01*
X0359488Y0304634D01*
X0359450Y0304689D01*
X0359416Y0304747D01*
X0359384Y0304806D01*
X0359356Y0304868D01*
X0359331Y0304930D01*
X0359310Y0304994D01*
X0359293Y0305059D01*
X0359280Y0305125D01*
X0359270Y0305192D01*
X0359264Y0305259D01*
X0359262Y0305326D01*
X0359264Y0305393D01*
X0359263Y0305393D02*
X0359266Y0305466D01*
X0359273Y0305538D01*
X0359284Y0305609D01*
X0359298Y0305680D01*
X0359316Y0305750D01*
X0359339Y0305819D01*
X0359364Y0305887D01*
X0359394Y0305953D01*
X0359427Y0306017D01*
X0359463Y0306080D01*
X0359503Y0306140D01*
X0359546Y0306199D01*
X0359592Y0306254D01*
X0359641Y0306308D01*
X0359692Y0306358D01*
X0359747Y0306406D01*
X0359804Y0306451D01*
X0359863Y0306492D01*
X0359924Y0306530D01*
X0359988Y0306565D01*
X0360053Y0306597D01*
X0360120Y0306624D01*
X0360188Y0306649D01*
X0360257Y0306669D01*
X0360328Y0306686D01*
X0360399Y0306699D01*
X0360471Y0306708D01*
X0360543Y0306713D01*
X0350583Y0305630D02*
X0348220Y0305630D01*
X0348221Y0305629D02*
X0348150Y0305619D01*
X0348081Y0305605D01*
X0348012Y0305587D01*
X0347944Y0305566D01*
X0347877Y0305541D01*
X0347812Y0305512D01*
X0347748Y0305480D01*
X0347687Y0305445D01*
X0347627Y0305407D01*
X0347569Y0305365D01*
X0347514Y0305320D01*
X0347460Y0305273D01*
X0347410Y0305223D01*
X0347362Y0305170D01*
X0347317Y0305115D01*
X0347276Y0305057D01*
X0347237Y0304998D01*
X0347201Y0304936D01*
X0347169Y0304873D01*
X0347140Y0304807D01*
X0347115Y0304741D01*
X0347093Y0304673D01*
X0347075Y0304604D01*
X0347060Y0304535D01*
X0347050Y0304465D01*
X0347043Y0304394D01*
X0347039Y0304323D01*
X0347040Y0304252D01*
X0347040Y0304251D02*
X0347039Y0304180D01*
X0347043Y0304109D01*
X0347050Y0304038D01*
X0347060Y0303968D01*
X0347075Y0303899D01*
X0347093Y0303830D01*
X0347115Y0303762D01*
X0347140Y0303696D01*
X0347169Y0303630D01*
X0347201Y0303567D01*
X0347237Y0303505D01*
X0347276Y0303446D01*
X0347317Y0303388D01*
X0347362Y0303333D01*
X0347410Y0303280D01*
X0347460Y0303230D01*
X0347514Y0303183D01*
X0347569Y0303138D01*
X0347627Y0303096D01*
X0347687Y0303058D01*
X0347748Y0303023D01*
X0347812Y0302991D01*
X0347877Y0302962D01*
X0347944Y0302937D01*
X0348012Y0302916D01*
X0348081Y0302898D01*
X0348150Y0302884D01*
X0348221Y0302874D01*
X0348220Y0302874D02*
X0350583Y0302874D01*
X0350582Y0302874D02*
X0350653Y0302884D01*
X0350722Y0302898D01*
X0350791Y0302916D01*
X0350859Y0302937D01*
X0350926Y0302962D01*
X0350991Y0302991D01*
X0351055Y0303023D01*
X0351116Y0303058D01*
X0351176Y0303096D01*
X0351234Y0303138D01*
X0351289Y0303183D01*
X0351343Y0303230D01*
X0351393Y0303280D01*
X0351441Y0303333D01*
X0351486Y0303388D01*
X0351527Y0303446D01*
X0351566Y0303505D01*
X0351602Y0303567D01*
X0351634Y0303630D01*
X0351663Y0303696D01*
X0351688Y0303762D01*
X0351710Y0303830D01*
X0351728Y0303899D01*
X0351743Y0303968D01*
X0351753Y0304038D01*
X0351760Y0304109D01*
X0351764Y0304180D01*
X0351763Y0304251D01*
X0351763Y0304252D02*
X0351764Y0304323D01*
X0351760Y0304394D01*
X0351753Y0304465D01*
X0351743Y0304535D01*
X0351728Y0304604D01*
X0351710Y0304673D01*
X0351688Y0304741D01*
X0351663Y0304807D01*
X0351634Y0304873D01*
X0351602Y0304936D01*
X0351566Y0304998D01*
X0351527Y0305057D01*
X0351486Y0305115D01*
X0351441Y0305170D01*
X0351393Y0305223D01*
X0351343Y0305273D01*
X0351289Y0305320D01*
X0351234Y0305365D01*
X0351176Y0305407D01*
X0351116Y0305445D01*
X0351055Y0305480D01*
X0350991Y0305512D01*
X0350926Y0305541D01*
X0350859Y0305566D01*
X0350791Y0305587D01*
X0350722Y0305605D01*
X0350653Y0305619D01*
X0350582Y0305629D01*
M02*
