%
M48
M72
T01C0.0118
T02C0.0120
T03C0.0335
T04C0.0400
T05C0.1300
%
T01
X6505Y3936
X6905Y3536
X7355Y3086
X9105Y3086
X10105Y3086
X11752Y4850
X12742Y4850
X13092Y5790
X13922Y6120
X15502Y5130
X17838Y5949
X19658Y5949
X20688Y5689
X21515Y6102
X21515Y5276
X22341Y5689
X23168Y6102
X23168Y5276
X23995Y5689
X24822Y6102
X24822Y5276
X25648Y5689
X26475Y6102
X26475Y5276
X27302Y5689
X27765Y6102
X27302Y6516
X26475Y6929
X25648Y6516
X24822Y6929
X25648Y7343
X24822Y7756
X24822Y8583
X25648Y8996
X25648Y8169
X26475Y7756
X26475Y8583
X27302Y8996
X27302Y8169
X27302Y7343
X28129Y7756
X28129Y8583
X28129Y9409
X28129Y10236
X27461Y10227
X27302Y9823
X26785Y10327
X26217Y10581
X25667Y10995
X25317Y11408
X25067Y11822
X24917Y12235
X24767Y12648
X24767Y13012
X24354Y13012
X23941Y13012
X23527Y13012
X23114Y13012
X22700Y13012
X22287Y13012
X21874Y13012
X21460Y13012
X21047Y13012
X20633Y13012
X20633Y14073
X21047Y14073
X21047Y14437
X21460Y14073
X21874Y14073
X21874Y14437
X22287Y14073
X22287Y14850
X21874Y15263
X21874Y15677
X22287Y15677
X22700Y15677
X22700Y15263
X23114Y15263
X23114Y15677
X23164Y14850
X23165Y14462
X23166Y14073
X23580Y14073
X23580Y14437
X23993Y14073
X24932Y14693
X25132Y14073
X25546Y14073
X25959Y14073
X26322Y14073
X26438Y14681
X25611Y14681
X25611Y15094
X24785Y15507
X24185Y15507
X24185Y16334
X23958Y16748
X23131Y16434
X22304Y16434
X21478Y16434
X20651Y16434
X20633Y15677
X21047Y15677
X21460Y15677
X21047Y15263
X21460Y14850
X20633Y14850
X18933Y14850
X18933Y15677
X18103Y16090
X17276Y16454
X17150Y17100
X16852Y17112
X17449Y17100
X16498Y16092
X15678Y16465
X15702Y17100
X16002Y17100
X15252Y17100
X14845Y16919
X14024Y16465
X14845Y16092
X14024Y15689
X14024Y14862
X14845Y15265
X14845Y14439
X14024Y14035
X14845Y13612
X14024Y13258
X13191Y13612
X12365Y13612
X11569Y14025
X12365Y14439
X13191Y14439
X13191Y15265
X12365Y15265
X11569Y14852
X11569Y15679
X12365Y16092
X13191Y16092
X13191Y16919
X12652Y18075
X12341Y18783
X13626Y18990
X13002Y20116
X15620Y18804
X16760Y19844
X18980Y19154
X19926Y20550
X22252Y19588
X22304Y18088
X21478Y18088
X21478Y17261
X22304Y17261
X23131Y17261
X23131Y18088
X23958Y17574
X24785Y17161
X24785Y16334
X25611Y15921
X25611Y16748
X26438Y17161
X26438Y16334
X27265Y15921
X27265Y16748
X27265Y17574
X26438Y17988
X25611Y18401
X24785Y17988
X25611Y17574
X27265Y18401
X26438Y18815
X25611Y19228
X25611Y20055
X26438Y20468
X26438Y19641
X27265Y19228
X27265Y20055
X27265Y20881
X26438Y21295
X25611Y21708
X24785Y21708
X27265Y21708
X28092Y21295
X28092Y22122
X28155Y23586
X28155Y24286
X27405Y23586
X27155Y24286
X26155Y24286
X26405Y23586
X25405Y23586
X25155Y24286
X24155Y24286
X24405Y23586
X23405Y23586
X23155Y24286
X22405Y23586
X22155Y24286
X21155Y24286
X21405Y23586
X20405Y23586
X20155Y24286
X19155Y24286
X19405Y23586
X18405Y23586
X18155Y24286
X17405Y23586
X17155Y24286
X16155Y24286
X16405Y23586
X15405Y23586
X15155Y24286
X14405Y23586
X14155Y24286
X13155Y24286
X13405Y23586
X12405Y23586
X11405Y23586
X10405Y23586
X10105Y24286
X9405Y23586
X9105Y24286
X8055Y23586
X7355Y24286
X6905Y24736
X6505Y25136
X6505Y25986
X7942Y27460
X10312Y27460
X10752Y28338
X11752Y29538
X14802Y29300
X14902Y29800
X15011Y28800
X13922Y27320
X13092Y26990
X12742Y26050
X11752Y26050
X15502Y26330
X17838Y27149
X19658Y27149
X20688Y26889
X20688Y27716
X21515Y28129
X20688Y28543
X21515Y28956
X20688Y29369
X20738Y29946
X21515Y29783
X21515Y30609
X20688Y31023
X21515Y31436
X20688Y31850
X21515Y32263
X22341Y31850
X23168Y32263
X23995Y32676
X23995Y33503
X24767Y33848
X24767Y34212
X24354Y34212
X23941Y34212
X23527Y34212
X23114Y34212
X22700Y34212
X22287Y34212
X21874Y34212
X21460Y34212
X21047Y34212
X20633Y34212
X20633Y35273
X21047Y35273
X21047Y35637
X21460Y35273
X21874Y35273
X21874Y35637
X22287Y35273
X22287Y36050
X21874Y36463
X21874Y36877
X22287Y36877
X22700Y36877
X22700Y36463
X23114Y36463
X23114Y36877
X23164Y36050
X23165Y35662
X23166Y35273
X23580Y35273
X23580Y35637
X23993Y35273
X24932Y35893
X25132Y35273
X25546Y35273
X25959Y35273
X26322Y35273
X26438Y35881
X25611Y35881
X25611Y36294
X24785Y36707
X24185Y36707
X24185Y37534
X23958Y37948
X23958Y38774
X23131Y38461
X22304Y38461
X21478Y38461
X20651Y38461
X20651Y37634
X21478Y37634
X22304Y37634
X23131Y37634
X24785Y37534
X25611Y37121
X26438Y37534
X25611Y37948
X25611Y38774
X24785Y38361
X24785Y39188
X25611Y39601
X26438Y39188
X26438Y38361
X27265Y37948
X27265Y38774
X27265Y39601
X26438Y40015
X25611Y40428
X26438Y40841
X26438Y41668
X25611Y41255
X26438Y42495
X25611Y42908
X24785Y42908
X27265Y42908
X27265Y42081
X27265Y41255
X27265Y40428
X28092Y40841
X28092Y41668
X28092Y42495
X28092Y43322
X28155Y44786
X27405Y44786
X26405Y44786
X25405Y44786
X24405Y44786
X23405Y44786
X22405Y44786
X21405Y44786
X20405Y44786
X19405Y44786
X18405Y44786
X17405Y44786
X16405Y44786
X15405Y44786
X14405Y44786
X13405Y44786
X12405Y44786
X11405Y44786
X10405Y44786
X9405Y44786
X8055Y44786
X13002Y41316
X13626Y40190
X12341Y39983
X12652Y39275
X13191Y38119
X14024Y37665
X14024Y36889
X14845Y37292
X14845Y36465
X14024Y36062
X14845Y35639
X14024Y35235
X14845Y34812
X14024Y34458
X13191Y34812
X12365Y34812
X11569Y35225
X12365Y35639
X13191Y35639
X13191Y36465
X12365Y36465
X12365Y37292
X13191Y37292
X11569Y36879
X11569Y36052
X9927Y36050
X9927Y36483
X11569Y37706
X10520Y38604
X10334Y39029
X10502Y41050
X6505Y38186
X6502Y37550
X6505Y36886
X7752Y35675
X7802Y35138
X7005Y34820
X7002Y33688
X7952Y34188
X10533Y33462
X11569Y34398
X13191Y33985
X13087Y32825
X13520Y32825
X13953Y32800
X14386Y32800
X14112Y31630
X15152Y31320
X15027Y30800
X15678Y33831
X15678Y34458
X16498Y34812
X15678Y35235
X16498Y35639
X15678Y36062
X16498Y36465
X16498Y37292
X15678Y37665
X15702Y38300
X16002Y38300
X15252Y38300
X14845Y38119
X15678Y36889
X16852Y38312
X17150Y38300
X17449Y38300
X17276Y37654
X18103Y37290
X18103Y36463
X17276Y36050
X17276Y36877
X18103Y35637
X17276Y35223
X18103Y34810
X17276Y34446
X17276Y33820
X18933Y34396
X18933Y35223
X18933Y36050
X18933Y36877
X18933Y37704
X20633Y36877
X21047Y36877
X21460Y36877
X21047Y36463
X21460Y36050
X20633Y36050
X20083Y33262
X22341Y31023
X22341Y30196
X23168Y29783
X23168Y30609
X23995Y30196
X23995Y31023
X24822Y31436
X25648Y31023
X25648Y30196
X24822Y29783
X24822Y30609
X25648Y29369
X24822Y28956
X25648Y28543
X24822Y28129
X25648Y27716
X25648Y26889
X24822Y27302
X24822Y26476
X23995Y26889
X23995Y27716
X23168Y28129
X22341Y27716
X22341Y26889
X23168Y27302
X23168Y26476
X21515Y26476
X21515Y27302
X22341Y28543
X23168Y28956
X22341Y29369
X23995Y29369
X23995Y28543
X26475Y28956
X27302Y29369
X26475Y29783
X26475Y30609
X27302Y30196
X27302Y31023
X27461Y31427
X28129Y31436
X28129Y30609
X28129Y29783
X28129Y28956
X28129Y28129
X27765Y27302
X27302Y26889
X27915Y26476
X27302Y27716
X26475Y28129
X27302Y28543
X26475Y27302
X26475Y26476
X26785Y31527
X26217Y31781
X25667Y32195
X25317Y32608
X25067Y33022
X24917Y33435
X25965Y33864
X25915Y34227
X26115Y33450
X26365Y33037
X26682Y33393
X27082Y32993
X26765Y32724
X27265Y32574
X27678Y32574
X28092Y32574
X27778Y32987
X28092Y33400
X27265Y33400
X28092Y34227
X28092Y35054
X28092Y35881
X28092Y36707
X28092Y37534
X28092Y38361
X28092Y39188
X28092Y40015
X27265Y37121
X26438Y36707
X27265Y36294
X23131Y39288
X22304Y39288
X21478Y39288
X22252Y40788
X19926Y41750
X18980Y40354
X16760Y41044
X15620Y40004
X14845Y33985
X8783Y32063
X8972Y31518
X8852Y31038
X6502Y30550
X6502Y31550
X6502Y32550
X23168Y31436
X23995Y31850
X24822Y32263
X34302Y32550
X34302Y31550
X34302Y30550
X36652Y31038
X36772Y31518
X36583Y32063
X38333Y33462
X39369Y34398
X40165Y34812
X40991Y34812
X40991Y35639
X40165Y35639
X39369Y36052
X39369Y36879
X40165Y37292
X40991Y37292
X40991Y36465
X40165Y36465
X39369Y37706
X38320Y38604
X38134Y39029
X40141Y39983
X40452Y39275
X40991Y38119
X41824Y37665
X41824Y36889
X42645Y37292
X42645Y36465
X41824Y36062
X42645Y35639
X41824Y35235
X42645Y34812
X41824Y34458
X42645Y33985
X43478Y33831
X43478Y34458
X44298Y34812
X45076Y34446
X45076Y33820
X45903Y34810
X45076Y35223
X44298Y35639
X45076Y36050
X45076Y36877
X44298Y36465
X44298Y37292
X45076Y37654
X44950Y38300
X44652Y38312
X45249Y38300
X45903Y37290
X45903Y36463
X46733Y36050
X46733Y36877
X46733Y37704
X48451Y37634
X49278Y37634
X50104Y37634
X50931Y37634
X51758Y37948
X51985Y37534
X52585Y37534
X53411Y37121
X52585Y36707
X51985Y36707
X50914Y36877
X50500Y36877
X50087Y36877
X49674Y36877
X49674Y36463
X50087Y36050
X49674Y35637
X49674Y35273
X50087Y35273
X49260Y35273
X48847Y35273
X48847Y35637
X48433Y35273
X48433Y36050
X48847Y36463
X48847Y36877
X49260Y36877
X48433Y36877
X49260Y36050
X50500Y36463
X50914Y36463
X50964Y36050
X50965Y35662
X50966Y35273
X51380Y35273
X51380Y35637
X51793Y35273
X51741Y34212
X52154Y34212
X52567Y34212
X52567Y33848
X52717Y33435
X52867Y33022
X53117Y32608
X53467Y32195
X54017Y31781
X54585Y31527
X55261Y31427
X55102Y31023
X55102Y30196
X55929Y29783
X55929Y30609
X55929Y31436
X54275Y30609
X54275Y29783
X53448Y30196
X53448Y31023
X52622Y31436
X52622Y30609
X52622Y29783
X53448Y29369
X52622Y28956
X53448Y28543
X52622Y28129
X53448Y27716
X53448Y26889
X52622Y27302
X52622Y26476
X51795Y26889
X51795Y27716
X50968Y28129
X50141Y27716
X50141Y26889
X49315Y27302
X49315Y26476
X48488Y26889
X48488Y27716
X49315Y28129
X50141Y28543
X49315Y28956
X50141Y29369
X49315Y29783
X48538Y29946
X48488Y29369
X48488Y28543
X47458Y27149
X45638Y27149
X43302Y26330
X41722Y27320
X40892Y26990
X40542Y26050
X39552Y26050
X38112Y27460
X38552Y28338
X39552Y29538
X42602Y29300
X42702Y29800
X42811Y28800
X42827Y30800
X42952Y31320
X41912Y31630
X41753Y32800
X42186Y32800
X41320Y32825
X40887Y32825
X40991Y33985
X39369Y35225
X37727Y36050
X37727Y36483
X35552Y35675
X35602Y35138
X34805Y34820
X35752Y34188
X34802Y33688
X34305Y36886
X34302Y37550
X34305Y38186
X38302Y41050
X40802Y41316
X41426Y40190
X43420Y40004
X44560Y41044
X46780Y40354
X47726Y41750
X50052Y40788
X50104Y39288
X49278Y39288
X49278Y38461
X50104Y38461
X50931Y38461
X51758Y38774
X52585Y38361
X52585Y39188
X53411Y39601
X54238Y39188
X54238Y38361
X53411Y37948
X53411Y38774
X54238Y37534
X55065Y37121
X55892Y37534
X55065Y37948
X55065Y38774
X55892Y38361
X55892Y39188
X55065Y39601
X55892Y40015
X55065Y40428
X55892Y40841
X55892Y41668
X55065Y41255
X55065Y42081
X54238Y41668
X54238Y40841
X53411Y40428
X54238Y40015
X53411Y41255
X54238Y42495
X53411Y42908
X52585Y42908
X55065Y42908
X55892Y42495
X55892Y43322
X55955Y44786
X55205Y44786
X54205Y44786
X53205Y44786
X52205Y44786
X51205Y44786
X50205Y44786
X49205Y44786
X48205Y44786
X47205Y44786
X46205Y44786
X45205Y44786
X44205Y44786
X43205Y44786
X42205Y44786
X41205Y44786
X40205Y44786
X39205Y44786
X38205Y44786
X37205Y44786
X35855Y44786
X42645Y38119
X43052Y38300
X43502Y38300
X43802Y38300
X43478Y37665
X43478Y36889
X43478Y36062
X43478Y35235
X45903Y35637
X46733Y35223
X46733Y34396
X47883Y33262
X48433Y34212
X48847Y34212
X49260Y34212
X49674Y34212
X50087Y34212
X50500Y34212
X50914Y34212
X51327Y34212
X51795Y33503
X51795Y32676
X50968Y32263
X50141Y31850
X49315Y32263
X48488Y31850
X49315Y31436
X50141Y31023
X50141Y30196
X49315Y30609
X48488Y31023
X50968Y31436
X51795Y31023
X51795Y30196
X50968Y29783
X50968Y30609
X51795Y29369
X50968Y28956
X51795Y28543
X50968Y27302
X50968Y26476
X50955Y24286
X51205Y23586
X52205Y23586
X51955Y24286
X52955Y24286
X53205Y23586
X53955Y24286
X54205Y23586
X55205Y23586
X54955Y24286
X55955Y24286
X55955Y23586
X55892Y22122
X55065Y21708
X55892Y21295
X55065Y20881
X55892Y20468
X55892Y19641
X55065Y19228
X55065Y20055
X54238Y20468
X54238Y19641
X53411Y19228
X53411Y20055
X54238Y18815
X53411Y18401
X52585Y17988
X53411Y17574
X52585Y17161
X52585Y16334
X51985Y16334
X51758Y16748
X50931Y16434
X50104Y16434
X49278Y16434
X48451Y16434
X48433Y15677
X48847Y15677
X49260Y15677
X49674Y15677
X50087Y15677
X50500Y15677
X50500Y15263
X50914Y15263
X50914Y15677
X50964Y14850
X50965Y14462
X50966Y14073
X51380Y14073
X51380Y14437
X51793Y14073
X51741Y13012
X52154Y13012
X52567Y13012
X52567Y12648
X52717Y12235
X52867Y11822
X53117Y11408
X53467Y10995
X54017Y10581
X54585Y10327
X55261Y10227
X55102Y9823
X55929Y10236
X55929Y9409
X55102Y8996
X55102Y8169
X55929Y7756
X55929Y8583
X55102Y7343
X54275Y7756
X54275Y8583
X53448Y8996
X53448Y8169
X52622Y7756
X52622Y8583
X52622Y9409
X53448Y9823
X52622Y10236
X52622Y11063
X51795Y11476
X51795Y10650
X50968Y11063
X50141Y10650
X49315Y11063
X48488Y10650
X49315Y10236
X50141Y9823
X49315Y9409
X50141Y8996
X50141Y8169
X49315Y7756
X49315Y8583
X48538Y8746
X48488Y8169
X48488Y7343
X49315Y6929
X50141Y6516
X49315Y6102
X49315Y5276
X50141Y5689
X50968Y6102
X50968Y5276
X51795Y5689
X51795Y6516
X50968Y6929
X50141Y7343
X50968Y7756
X50968Y8583
X51795Y8996
X51795Y8169
X51795Y7343
X52622Y6929
X53448Y6516
X52622Y6102
X52622Y5276
X53448Y5689
X54275Y6102
X54275Y5276
X55102Y5689
X55565Y6102
X55102Y6516
X55929Y6929
X54275Y6929
X53448Y7343
X54275Y9409
X55065Y11374
X55478Y11374
X55892Y11374
X55578Y11787
X55892Y12200
X55065Y12200
X54882Y11793
X54565Y11524
X54165Y11837
X54482Y12193
X53915Y12250
X53765Y12664
X53715Y13027
X53759Y14073
X54122Y14073
X54238Y14681
X53411Y14681
X53411Y15094
X52732Y14693
X52932Y14073
X53346Y14073
X55065Y15094
X55892Y14681
X55892Y15507
X55065Y15921
X55065Y16748
X55892Y17161
X55892Y16334
X55065Y17574
X54238Y17161
X54238Y16334
X53411Y15921
X53411Y16748
X52585Y15507
X51985Y15507
X50087Y14850
X49674Y15263
X49260Y14850
X48847Y14437
X48847Y14073
X49260Y14073
X49674Y14073
X49674Y14437
X50087Y14073
X50087Y13012
X49674Y13012
X49260Y13012
X48847Y13012
X48433Y13012
X48433Y14073
X48433Y14850
X48847Y15263
X46733Y14850
X46733Y15677
X45903Y16090
X45076Y16454
X44950Y17100
X44652Y17112
X45249Y17100
X44298Y16092
X45076Y15677
X45076Y14850
X44298Y14439
X44298Y15265
X43478Y14862
X43478Y15689
X42645Y16092
X41824Y16465
X42645Y16919
X43052Y17100
X43502Y17100
X43802Y17100
X43478Y16465
X41824Y15689
X41824Y14862
X42645Y15265
X42645Y14439
X41824Y14035
X42645Y13612
X41824Y13258
X42645Y12785
X43478Y12631
X43478Y13258
X44298Y13612
X45076Y13246
X45076Y12620
X45903Y13610
X45076Y14023
X45903Y14437
X45903Y15263
X46733Y14023
X46733Y13196
X47883Y12062
X50500Y13012
X50914Y13012
X51327Y13012
X51795Y12303
X50968Y10236
X51795Y9823
X50968Y9409
X48488Y9823
X48488Y6516
X48488Y5689
X47458Y5949
X45638Y5949
X43302Y5130
X41722Y6120
X40892Y5790
X40542Y4850
X39552Y4850
X38112Y6260
X38552Y7138
X39552Y8338
X41912Y10430
X42952Y10120
X42827Y9600
X42702Y8600
X42602Y8100
X42811Y7600
X36772Y10318
X36652Y9838
X36583Y10863
X38333Y12262
X39369Y13198
X40165Y13612
X40991Y13612
X40991Y14439
X40991Y15265
X40165Y15265
X40165Y14439
X39369Y14852
X39369Y15679
X40165Y16092
X40991Y16092
X40991Y16919
X40452Y18075
X40141Y18783
X41426Y18990
X40802Y20116
X38302Y19850
X38134Y17829
X38320Y17404
X39369Y16506
X37727Y15283
X37727Y14850
X39369Y14025
X40991Y12785
X40887Y11625
X41320Y11625
X41753Y11600
X42186Y11600
X43478Y14035
X46733Y16504
X48451Y17261
X49278Y17261
X50104Y17261
X50104Y18088
X49278Y18088
X50931Y18088
X50931Y17261
X51758Y17574
X54238Y17988
X55065Y18401
X55892Y17988
X55892Y18815
X54238Y21295
X53411Y21708
X52585Y21708
X50205Y23586
X49955Y24286
X48955Y24286
X49205Y23586
X48205Y23586
X47955Y24286
X46955Y24286
X47205Y23586
X46205Y23586
X45955Y24286
X44955Y24286
X45205Y23586
X44205Y23586
X43955Y24286
X43205Y23586
X42955Y24286
X41955Y24286
X42205Y23586
X41205Y23586
X40955Y24286
X40205Y23586
X39205Y23586
X38205Y23586
X37905Y24286
X37205Y23586
X36905Y24286
X35855Y23586
X35155Y24286
X34705Y24736
X34305Y25136
X34305Y25986
X35742Y27460
X28092Y20468
X28092Y19641
X28092Y18815
X28092Y17988
X28092Y17161
X28092Y16334
X28092Y15507
X28092Y14681
X28092Y13854
X28092Y13027
X28092Y12200
X27778Y11787
X27678Y11374
X27265Y11374
X27082Y11793
X26765Y11524
X26365Y11837
X26682Y12193
X26115Y12250
X25965Y12664
X25915Y13027
X27265Y12200
X28092Y11374
X26475Y9409
X25648Y9823
X24822Y10236
X23995Y9823
X24822Y9409
X23995Y8996
X23995Y8169
X23168Y7756
X23168Y8583
X22341Y8996
X22341Y8169
X22341Y7343
X23168Y6929
X22341Y6516
X21515Y6929
X20688Y6516
X20688Y7343
X21515Y7756
X21515Y8583
X20738Y8746
X20688Y8169
X21515Y9409
X20688Y9823
X21515Y10236
X20688Y10650
X21515Y11063
X22341Y10650
X23168Y11063
X23995Y11476
X23995Y10650
X24822Y11063
X23995Y12303
X23168Y10236
X22341Y9823
X23168Y9409
X23995Y7343
X23995Y6516
X27915Y5276
X28129Y6929
X28155Y3086
X27155Y3086
X26155Y3086
X25155Y3086
X24155Y3086
X23155Y3086
X22155Y3086
X21155Y3086
X20155Y3086
X19155Y3086
X18155Y3086
X17155Y3086
X16155Y3086
X15155Y3086
X14155Y3086
X13155Y3086
X10312Y6260
X10752Y7138
X11752Y8338
X14802Y8100
X14902Y8600
X15011Y7600
X15027Y9600
X15152Y10120
X14112Y10430
X13953Y11600
X14386Y11600
X13520Y11625
X13087Y11625
X13191Y12785
X14845Y12785
X15678Y12631
X15678Y13258
X16498Y13612
X15678Y14035
X16498Y14439
X16498Y15265
X15678Y14862
X15678Y15689
X17276Y15677
X17276Y14850
X18103Y14437
X18103Y15263
X17276Y14023
X18103Y13610
X17276Y13246
X17276Y12620
X18933Y13196
X18933Y14023
X20083Y12062
X18933Y16504
X20651Y17261
X26438Y15507
X27265Y15094
X34305Y15686
X34302Y16350
X34305Y16986
X35552Y14475
X35602Y13938
X34805Y13620
X35752Y12988
X34802Y12488
X34302Y11350
X34302Y10350
X34302Y9350
X35742Y6260
X34305Y4786
X34305Y3936
X34705Y3536
X35155Y3086
X36905Y3086
X37905Y3086
X40955Y3086
X41955Y3086
X42955Y3086
X43955Y3086
X44955Y3086
X45955Y3086
X46955Y3086
X47955Y3086
X48955Y3086
X49955Y3086
X50955Y3086
X51955Y3086
X52955Y3086
X53955Y3086
X54955Y3086
X55955Y3086
X55715Y5276
X55892Y13027
X55892Y13854
X54238Y15507
X50052Y19588
X47726Y20550
X46780Y19154
X44560Y19844
X43420Y18804
X54275Y26476
X54275Y27302
X55102Y26889
X55565Y27302
X55102Y27716
X55929Y28129
X55102Y28543
X55929Y28956
X55102Y29369
X54275Y28956
X54275Y28129
X55715Y26476
X51795Y31850
X52622Y32263
X54165Y33037
X54482Y33393
X54882Y32993
X54565Y32724
X55065Y32574
X55478Y32574
X55892Y32574
X55578Y32987
X55892Y33400
X55065Y33400
X53915Y33450
X53765Y33864
X53715Y34227
X53759Y35273
X54122Y35273
X54238Y35881
X53411Y35881
X53411Y36294
X52732Y35893
X52932Y35273
X53346Y35273
X55065Y36294
X55892Y35881
X55892Y35054
X55892Y34227
X55892Y36707
X54238Y36707
X50931Y39288
X48451Y38461
X11569Y16506
X10520Y17404
X10334Y17829
X10502Y19850
X6505Y16986
X6502Y16350
X6505Y15686
X7752Y14475
X7802Y13938
X7005Y13620
X7002Y12488
X7952Y12988
X10533Y12262
X11569Y13198
X9927Y14850
X9927Y15283
X6502Y11350
X6502Y10350
X6502Y9350
X8852Y9838
X8972Y10318
X8783Y10863
X7942Y6260
X6505Y4786
T02
X10752Y7600
X11378Y8350
X12660Y8163
X13116Y8563
X12415Y7523
X12072Y6100
X13437Y6100
X16364Y7810
X16538Y7560
X16752Y7350
X13802Y10300
X10502Y10850
X10466Y11260
X10252Y11510
X9594Y10781
X9247Y11410
X9672Y9860
X7002Y13050
X9926Y13984
X9927Y14417
X9063Y15489
X10068Y16215
X9117Y17162
X8122Y17280
X8762Y17770
X9252Y19850
X9626Y19754
X11602Y21130
X14102Y21100
X14652Y19860
X14995Y19710
X15512Y19990
X16072Y19845
X16332Y20600
X17742Y19990
X17742Y19080
X17192Y18700
X16052Y18870
X14482Y19290
X14192Y18160
X12002Y19280
X7452Y23180
X12072Y27300
X13437Y27300
X12415Y28723
X12660Y29363
X13116Y29763
X11378Y29550
X10752Y28800
X9672Y31060
X9594Y31981
X10502Y32050
X10466Y32460
X10252Y32710
X9247Y32610
X7002Y34250
X9926Y35184
X9927Y35617
X9063Y36689
X10068Y37415
X9117Y38362
X8762Y38970
X8122Y38480
X9252Y41050
X9626Y40954
X11602Y42330
X14102Y42300
X14652Y41060
X14995Y40910
X15512Y41190
X16072Y41045
X16332Y41800
X17742Y41190
X17742Y40280
X17192Y39900
X16052Y40070
X14482Y40490
X14192Y39360
X12002Y40480
X7452Y44380
X17992Y42790
X18252Y42580
X19691Y43108
X20029Y42996
X19926Y42576
X18368Y39389
X18072Y39260
X13802Y31500
X16364Y29010
X16538Y28760
X16752Y28550
X17992Y21590
X18252Y21380
X19691Y21908
X20029Y21796
X19926Y21376
X18368Y18189
X18072Y18060
X34802Y13050
X37047Y11410
X37394Y10781
X38302Y10850
X38266Y11260
X38052Y11510
X37472Y9860
X39178Y8350
X38552Y7600
X40215Y7523
X40460Y8163
X40916Y8563
X41602Y10300
X44164Y7810
X44338Y7560
X44552Y7350
X41237Y6100
X39872Y6100
X37726Y13984
X37727Y14417
X36863Y15489
X37868Y16215
X36917Y17162
X36562Y17770
X35922Y17280
X37052Y19850
X37426Y19754
X39402Y21130
X39802Y19280
X41992Y18160
X43852Y18870
X43872Y19845
X43312Y19990
X42795Y19710
X42452Y19860
X42282Y19290
X44132Y20600
X45542Y19990
X45542Y19080
X44992Y18700
X45872Y18060
X46168Y18189
X46052Y21380
X45792Y21590
X47491Y21908
X47829Y21796
X47726Y21376
X41902Y21100
X35252Y23180
X39872Y27300
X41237Y27300
X40215Y28723
X40460Y29363
X40916Y29763
X39178Y29550
X38552Y28800
X37472Y31060
X37394Y31981
X37047Y32610
X38052Y32710
X38266Y32460
X38302Y32050
X41602Y31500
X44164Y29010
X44338Y28760
X44552Y28550
X34802Y34250
X37726Y35184
X37727Y35617
X36863Y36689
X37868Y37415
X36917Y38362
X36562Y38970
X35922Y38480
X37052Y41050
X37426Y40954
X39402Y42330
X39802Y40480
X41992Y39360
X42282Y40490
X42452Y41060
X42795Y40910
X43312Y41190
X43872Y41045
X44132Y41800
X45542Y41190
X45542Y40280
X44992Y39900
X45872Y39260
X46168Y39389
X43852Y40070
X41902Y42300
X45792Y42790
X46052Y42580
X47491Y43108
X47829Y42996
X47726Y42576
X35252Y44380
T03
X48212Y41050
X49393Y41050
X39863Y25550
X38682Y25550
X48212Y19850
X49393Y19850
X39863Y4350
X38682Y4350
X21593Y19850
X20412Y19850
X12063Y25550
X10882Y25550
X20412Y41050
X21593Y41050
X12063Y4350
X10882Y4350
T04
X13752Y3850
X14752Y3850
X15752Y3850
X16752Y3850
X17752Y3850
X18752Y3850
X19752Y3850
X20752Y3850
X22752Y3850
X23752Y3850
X24752Y3850
X25752Y3850
X26752Y3850
X27752Y3850
X34552Y6150
X34552Y7150
X41552Y3850
X42552Y3850
X43552Y3850
X44552Y3850
X45552Y3850
X46552Y3850
X47552Y3850
X48552Y3850
X50552Y3850
X51552Y3850
X52552Y3850
X53552Y3850
X54552Y3850
X55552Y3850
X36552Y14850
X35302Y15900
X35302Y16900
X34552Y18350
X34552Y19350
X34552Y20350
X34552Y21350
X34552Y22350
X34552Y23350
X38052Y22850
X39052Y22850
X40052Y22850
X41052Y22850
X42052Y22850
X43052Y22850
X44052Y22850
X45052Y22850
X46052Y22850
X47052Y22850
X48552Y22850
X49552Y22850
X50552Y22850
X51552Y22850
X52552Y22850
X53552Y22850
X54552Y22850
X55552Y22850
X52552Y20850
X51552Y20850
X51552Y19850
X51552Y18850
X52552Y18850
X52552Y19850
X52552Y25050
X53552Y25050
X54552Y25050
X55552Y25050
X51552Y25050
X50552Y25050
X48552Y25050
X47552Y25050
X46552Y25050
X45552Y25050
X44552Y25050
X43552Y25050
X42552Y25050
X41552Y25050
X34552Y27350
X34552Y28350
X27752Y25050
X26752Y25050
X25752Y25050
X24752Y25050
X23752Y25050
X22752Y25050
X20752Y25050
X19752Y25050
X18752Y25050
X17752Y25050
X16752Y25050
X15752Y25050
X14752Y25050
X13752Y25050
X13252Y22850
X12252Y22850
X11252Y22850
X10252Y22850
X6752Y22350
X6752Y21350
X6752Y20350
X6752Y19350
X6752Y18350
X7502Y16900
X7502Y15900
X8752Y14850
X14252Y22850
X15252Y22850
X16252Y22850
X17252Y22850
X18252Y22850
X19252Y22850
X20752Y22850
X21752Y22850
X22752Y22850
X23752Y22850
X24752Y22850
X25752Y22850
X26752Y22850
X27752Y22850
X24752Y20850
X23752Y20850
X23752Y19850
X24752Y19850
X24752Y18850
X23752Y18850
X6752Y23350
X6752Y27350
X6752Y28350
X8752Y36050
X7502Y37100
X7502Y38100
X6752Y39550
X6752Y40550
X6752Y41550
X6752Y42550
X6752Y43550
X6752Y44550
X10252Y44050
X11252Y44050
X12252Y44050
X13252Y44050
X14252Y44050
X15252Y44050
X16252Y44050
X17252Y44050
X18252Y44050
X19252Y44050
X20752Y44050
X21752Y44050
X22752Y44050
X23752Y44050
X24752Y44050
X25752Y44050
X26752Y44050
X27752Y44050
X24752Y42050
X23752Y42050
X23752Y41050
X24752Y41050
X24752Y40050
X23752Y40050
X34552Y39550
X34552Y40550
X34552Y41550
X34552Y42550
X34552Y43550
X34552Y44550
X38052Y44050
X39052Y44050
X40052Y44050
X41052Y44050
X42052Y44050
X43052Y44050
X44052Y44050
X45052Y44050
X46052Y44050
X47052Y44050
X48552Y44050
X49552Y44050
X50552Y44050
X51552Y44050
X52552Y44050
X53552Y44050
X54552Y44050
X55552Y44050
X52552Y42050
X51552Y42050
X51552Y41050
X51552Y40050
X52552Y40050
X52552Y41050
X36552Y36050
X35302Y37100
X35302Y38100
X6752Y7150
X6752Y6150
T05
X8252Y3850
X28702Y5850
X36052Y3850
X56502Y5850
X36552Y22850
X36052Y25050
X28702Y27050
X8752Y22850
X8252Y25050
X8752Y44050
X36552Y44050
X56502Y27050
M30
