G75*
%MOIN*%
%OFA0B0*%
%FSLAX25Y25*%
%IPPOS*%
%LPD*%
%AMOC8*
5,1,8,0,0,1.08239X$1,22.5*
%
%ADD10R,0.02953X0.06102*%
%ADD11R,0.06102X0.02953*%
%ADD12R,0.04134X0.04134*%
%ADD13R,0.05748X0.07874*%
%ADD14R,0.09843X0.05610*%
%ADD15C,0.00400*%
%ADD16C,0.00197*%
%ADD17R,0.07874X0.04724*%
%ADD18R,0.05315X0.02362*%
%ADD19R,0.18110X0.03937*%
%ADD20R,0.13386X0.06299*%
%ADD21R,0.03000X0.06000*%
%ADD22R,0.02165X0.04724*%
%ADD23R,0.04331X0.03937*%
%ADD24R,0.02480X0.03268*%
%ADD25C,0.01181*%
%ADD26R,0.03543X0.03150*%
%ADD27R,0.03937X0.04331*%
%ADD28R,0.02559X0.01181*%
%ADD29R,0.03150X0.05413*%
%ADD30R,0.03937X0.04528*%
%ADD31R,0.05118X0.02559*%
%ADD32R,0.07087X0.01890*%
%ADD33R,0.03937X0.04055*%
%ADD34R,0.08661X0.03346*%
%ADD35R,0.04134X0.03937*%
%ADD36R,0.07087X0.06299*%
%ADD37R,0.22047X0.10236*%
%ADD38R,0.14567X0.05512*%
%ADD39R,0.02402X0.00984*%
%ADD40R,0.02205X0.00984*%
%ADD41R,0.04724X0.02362*%
%ADD42R,0.00984X0.02953*%
%ADD43R,0.01200X0.03900*%
D10*
X0109217Y0120941D03*
X0113547Y0120941D03*
X0117878Y0120941D03*
X0122209Y0120941D03*
X0126539Y0120941D03*
X0130870Y0120941D03*
X0135201Y0120941D03*
X0139531Y0120941D03*
X0143862Y0120941D03*
X0148193Y0120941D03*
X0152524Y0120941D03*
X0156854Y0120941D03*
X0161185Y0120941D03*
X0165516Y0120941D03*
X0169846Y0120941D03*
X0174177Y0120941D03*
X0178508Y0120941D03*
X0182839Y0120941D03*
X0187169Y0120941D03*
X0191500Y0120941D03*
X0195831Y0120941D03*
X0195831Y0176059D03*
X0191500Y0176059D03*
X0187169Y0176059D03*
X0182839Y0176059D03*
X0178508Y0176059D03*
X0174177Y0176059D03*
X0169846Y0176059D03*
X0165516Y0176059D03*
X0161185Y0176059D03*
X0156854Y0176059D03*
X0152524Y0176059D03*
X0148193Y0176059D03*
X0143862Y0176059D03*
X0139531Y0176059D03*
X0135201Y0176059D03*
X0130870Y0176059D03*
X0126539Y0176059D03*
X0122209Y0176059D03*
X0117878Y0176059D03*
X0113547Y0176059D03*
X0109217Y0176059D03*
X0109217Y0332941D03*
X0113547Y0332941D03*
X0117878Y0332941D03*
X0122209Y0332941D03*
X0126539Y0332941D03*
X0130870Y0332941D03*
X0135201Y0332941D03*
X0139531Y0332941D03*
X0143862Y0332941D03*
X0148193Y0332941D03*
X0152524Y0332941D03*
X0156854Y0332941D03*
X0161185Y0332941D03*
X0165516Y0332941D03*
X0169846Y0332941D03*
X0174177Y0332941D03*
X0178508Y0332941D03*
X0182839Y0332941D03*
X0187169Y0332941D03*
X0191500Y0332941D03*
X0195831Y0332941D03*
X0195831Y0388059D03*
X0191500Y0388059D03*
X0187169Y0388059D03*
X0182839Y0388059D03*
X0178508Y0388059D03*
X0174177Y0388059D03*
X0169846Y0388059D03*
X0165516Y0388059D03*
X0161185Y0388059D03*
X0156854Y0388059D03*
X0152524Y0388059D03*
X0148193Y0388059D03*
X0143862Y0388059D03*
X0139531Y0388059D03*
X0135201Y0388059D03*
X0130870Y0388059D03*
X0126539Y0388059D03*
X0122209Y0388059D03*
X0117878Y0388059D03*
X0113547Y0388059D03*
X0109217Y0388059D03*
X0387217Y0388059D03*
X0391547Y0388059D03*
X0395878Y0388059D03*
X0400209Y0388059D03*
X0404539Y0388059D03*
X0408870Y0388059D03*
X0413201Y0388059D03*
X0417531Y0388059D03*
X0421862Y0388059D03*
X0426193Y0388059D03*
X0430524Y0388059D03*
X0434854Y0388059D03*
X0439185Y0388059D03*
X0443516Y0388059D03*
X0447846Y0388059D03*
X0452177Y0388059D03*
X0456508Y0388059D03*
X0460839Y0388059D03*
X0465169Y0388059D03*
X0469500Y0388059D03*
X0473831Y0388059D03*
X0473831Y0332941D03*
X0469500Y0332941D03*
X0465169Y0332941D03*
X0460839Y0332941D03*
X0456508Y0332941D03*
X0452177Y0332941D03*
X0447846Y0332941D03*
X0443516Y0332941D03*
X0439185Y0332941D03*
X0434854Y0332941D03*
X0430524Y0332941D03*
X0426193Y0332941D03*
X0421862Y0332941D03*
X0417531Y0332941D03*
X0413201Y0332941D03*
X0408870Y0332941D03*
X0404539Y0332941D03*
X0400209Y0332941D03*
X0395878Y0332941D03*
X0391547Y0332941D03*
X0387217Y0332941D03*
X0387217Y0176059D03*
X0391547Y0176059D03*
X0395878Y0176059D03*
X0400209Y0176059D03*
X0404539Y0176059D03*
X0408870Y0176059D03*
X0413201Y0176059D03*
X0417531Y0176059D03*
X0421862Y0176059D03*
X0426193Y0176059D03*
X0430524Y0176059D03*
X0434854Y0176059D03*
X0439185Y0176059D03*
X0443516Y0176059D03*
X0447846Y0176059D03*
X0452177Y0176059D03*
X0456508Y0176059D03*
X0460839Y0176059D03*
X0465169Y0176059D03*
X0469500Y0176059D03*
X0473831Y0176059D03*
X0473831Y0120941D03*
X0469500Y0120941D03*
X0465169Y0120941D03*
X0460839Y0120941D03*
X0456508Y0120941D03*
X0452177Y0120941D03*
X0447846Y0120941D03*
X0443516Y0120941D03*
X0439185Y0120941D03*
X0434854Y0120941D03*
X0430524Y0120941D03*
X0426193Y0120941D03*
X0421862Y0120941D03*
X0417531Y0120941D03*
X0413201Y0120941D03*
X0408870Y0120941D03*
X0404539Y0120941D03*
X0400209Y0120941D03*
X0395878Y0120941D03*
X0391547Y0120941D03*
X0387217Y0120941D03*
D11*
X0383280Y0126846D03*
X0383280Y0131177D03*
X0383280Y0135508D03*
X0383280Y0139839D03*
X0383280Y0144169D03*
X0383280Y0148500D03*
X0383280Y0152831D03*
X0383280Y0157161D03*
X0383280Y0161492D03*
X0383280Y0165823D03*
X0383280Y0170154D03*
X0477768Y0170154D03*
X0477768Y0165823D03*
X0477768Y0161492D03*
X0477768Y0157161D03*
X0477768Y0152831D03*
X0477768Y0148500D03*
X0477768Y0144169D03*
X0477768Y0139839D03*
X0477768Y0135508D03*
X0477768Y0131177D03*
X0477768Y0126846D03*
X0199768Y0126846D03*
X0199768Y0131177D03*
X0199768Y0135508D03*
X0199768Y0139839D03*
X0199768Y0144169D03*
X0199768Y0148500D03*
X0199768Y0152831D03*
X0199768Y0157161D03*
X0199768Y0161492D03*
X0199768Y0165823D03*
X0199768Y0170154D03*
X0105280Y0170154D03*
X0105280Y0165823D03*
X0105280Y0161492D03*
X0105280Y0157161D03*
X0105280Y0152831D03*
X0105280Y0148500D03*
X0105280Y0144169D03*
X0105280Y0139839D03*
X0105280Y0135508D03*
X0105280Y0131177D03*
X0105280Y0126846D03*
X0105280Y0338846D03*
X0105280Y0343177D03*
X0105280Y0347508D03*
X0105280Y0351839D03*
X0105280Y0356169D03*
X0105280Y0360500D03*
X0105280Y0364831D03*
X0105280Y0369161D03*
X0105280Y0373492D03*
X0105280Y0377823D03*
X0105280Y0382154D03*
X0199768Y0382154D03*
X0199768Y0377823D03*
X0199768Y0373492D03*
X0199768Y0369161D03*
X0199768Y0364831D03*
X0199768Y0360500D03*
X0199768Y0356169D03*
X0199768Y0351839D03*
X0199768Y0347508D03*
X0199768Y0343177D03*
X0199768Y0338846D03*
X0383280Y0338846D03*
X0383280Y0343177D03*
X0383280Y0347508D03*
X0383280Y0351839D03*
X0383280Y0356169D03*
X0383280Y0360500D03*
X0383280Y0364831D03*
X0383280Y0369161D03*
X0383280Y0373492D03*
X0383280Y0377823D03*
X0383280Y0382154D03*
X0477768Y0382154D03*
X0477768Y0377823D03*
X0477768Y0373492D03*
X0477768Y0369161D03*
X0477768Y0364831D03*
X0477768Y0360500D03*
X0477768Y0356169D03*
X0477768Y0351839D03*
X0477768Y0347508D03*
X0477768Y0343177D03*
X0477768Y0338846D03*
D12*
X0470878Y0339831D03*
X0463791Y0339831D03*
X0456705Y0339831D03*
X0463791Y0348098D03*
X0470878Y0348098D03*
X0470878Y0356366D03*
X0463791Y0356366D03*
X0463791Y0364634D03*
X0470878Y0364634D03*
X0470878Y0372902D03*
X0463791Y0372902D03*
X0463791Y0381169D03*
X0456705Y0381169D03*
X0470878Y0381169D03*
X0442531Y0381169D03*
X0418516Y0381169D03*
X0404343Y0381169D03*
X0397256Y0381169D03*
X0390169Y0381169D03*
X0390169Y0372902D03*
X0397256Y0372902D03*
X0397256Y0364634D03*
X0390169Y0364634D03*
X0390169Y0356366D03*
X0397256Y0356366D03*
X0397256Y0348098D03*
X0390169Y0348098D03*
X0390169Y0339831D03*
X0397256Y0339831D03*
X0404343Y0339831D03*
X0418516Y0339831D03*
X0442531Y0339831D03*
X0442531Y0169169D03*
X0456705Y0169169D03*
X0463791Y0169169D03*
X0470878Y0169169D03*
X0470878Y0160902D03*
X0463791Y0160902D03*
X0463791Y0152634D03*
X0470878Y0152634D03*
X0470878Y0144366D03*
X0463791Y0144366D03*
X0463791Y0136098D03*
X0470878Y0136098D03*
X0470878Y0127831D03*
X0463791Y0127831D03*
X0456705Y0127831D03*
X0442531Y0127831D03*
X0418516Y0127831D03*
X0404343Y0127831D03*
X0397256Y0127831D03*
X0390169Y0127831D03*
X0390169Y0136098D03*
X0397256Y0136098D03*
X0397256Y0144366D03*
X0390169Y0144366D03*
X0390169Y0152634D03*
X0397256Y0152634D03*
X0397256Y0160902D03*
X0390169Y0160902D03*
X0390169Y0169169D03*
X0397256Y0169169D03*
X0404343Y0169169D03*
X0418516Y0169169D03*
X0192878Y0169169D03*
X0185791Y0169169D03*
X0178705Y0169169D03*
X0185791Y0160902D03*
X0192878Y0160902D03*
X0192878Y0152634D03*
X0185791Y0152634D03*
X0185791Y0144366D03*
X0192878Y0144366D03*
X0192878Y0136098D03*
X0185791Y0136098D03*
X0185791Y0127831D03*
X0178705Y0127831D03*
X0192878Y0127831D03*
X0164531Y0127831D03*
X0140516Y0127831D03*
X0126343Y0127831D03*
X0119256Y0127831D03*
X0112169Y0127831D03*
X0112169Y0136098D03*
X0119256Y0136098D03*
X0119256Y0144366D03*
X0112169Y0144366D03*
X0112169Y0152634D03*
X0119256Y0152634D03*
X0119256Y0160902D03*
X0112169Y0160902D03*
X0112169Y0169169D03*
X0119256Y0169169D03*
X0126343Y0169169D03*
X0140516Y0169169D03*
X0164531Y0169169D03*
X0164531Y0339831D03*
X0178705Y0339831D03*
X0185791Y0339831D03*
X0192878Y0339831D03*
X0192878Y0348098D03*
X0185791Y0348098D03*
X0185791Y0356366D03*
X0192878Y0356366D03*
X0192878Y0364634D03*
X0185791Y0364634D03*
X0185791Y0372902D03*
X0192878Y0372902D03*
X0192878Y0381169D03*
X0185791Y0381169D03*
X0178705Y0381169D03*
X0164531Y0381169D03*
X0140516Y0381169D03*
X0126343Y0381169D03*
X0119256Y0381169D03*
X0112169Y0381169D03*
X0112169Y0372902D03*
X0119256Y0372902D03*
X0119256Y0364634D03*
X0112169Y0364634D03*
X0112169Y0356366D03*
X0119256Y0356366D03*
X0119256Y0348098D03*
X0112169Y0348098D03*
X0112169Y0339831D03*
X0119256Y0339831D03*
X0126343Y0339831D03*
X0140516Y0339831D03*
D13*
X0083606Y0326417D03*
X0083606Y0303583D03*
X0361606Y0303583D03*
X0361606Y0326417D03*
X0361606Y0114417D03*
X0361606Y0091583D03*
X0083606Y0091583D03*
X0083606Y0114417D03*
D14*
X0071992Y0106789D03*
X0071992Y0099211D03*
X0349992Y0099211D03*
X0349992Y0106789D03*
X0349992Y0311211D03*
X0349992Y0318789D03*
X0071992Y0318789D03*
X0071992Y0311211D03*
D15*
X0069964Y0307194D02*
X0069675Y0307161D01*
X0069400Y0307065D01*
X0069153Y0306910D01*
X0068947Y0306704D01*
X0068793Y0306458D01*
X0068696Y0306183D01*
X0068664Y0305894D01*
X0068664Y0302994D01*
X0068694Y0302727D01*
X0068783Y0302473D01*
X0068926Y0302246D01*
X0069116Y0302055D01*
X0069343Y0301913D01*
X0069597Y0301824D01*
X0069864Y0301794D01*
X0076764Y0301794D01*
X0076802Y0301786D01*
X0076834Y0301764D01*
X0076856Y0301732D01*
X0076864Y0301694D01*
X0076864Y0299794D01*
X0079964Y0299794D01*
X0079964Y0307194D01*
X0069964Y0307194D01*
X0069391Y0307059D02*
X0079964Y0307059D01*
X0079964Y0306661D02*
X0068920Y0306661D01*
X0068724Y0306262D02*
X0079964Y0306262D01*
X0079964Y0305864D02*
X0068664Y0305864D01*
X0068664Y0305465D02*
X0079964Y0305465D01*
X0079964Y0305067D02*
X0068664Y0305067D01*
X0068664Y0304668D02*
X0079964Y0304668D01*
X0079964Y0304270D02*
X0068664Y0304270D01*
X0068664Y0303871D02*
X0079964Y0303871D01*
X0079964Y0303473D02*
X0068664Y0303473D01*
X0068664Y0303074D02*
X0079964Y0303074D01*
X0079964Y0302676D02*
X0068712Y0302676D01*
X0068906Y0302277D02*
X0079964Y0302277D01*
X0079964Y0301879D02*
X0069440Y0301879D01*
X0076864Y0301480D02*
X0079964Y0301480D01*
X0079964Y0301082D02*
X0076864Y0301082D01*
X0076864Y0300683D02*
X0079964Y0300683D01*
X0079964Y0300285D02*
X0076864Y0300285D01*
X0076864Y0299886D02*
X0079964Y0299886D01*
X0079964Y0322857D02*
X0069964Y0322857D01*
X0069675Y0322889D01*
X0069400Y0322986D01*
X0069153Y0323140D01*
X0068947Y0323346D01*
X0068793Y0323593D01*
X0068696Y0323868D01*
X0068664Y0324157D01*
X0068664Y0327057D01*
X0068694Y0327324D01*
X0068783Y0327577D01*
X0068926Y0327805D01*
X0069116Y0327995D01*
X0069343Y0328138D01*
X0069597Y0328227D01*
X0069864Y0328257D01*
X0076764Y0328257D01*
X0076802Y0328264D01*
X0076834Y0328286D01*
X0076856Y0328319D01*
X0076864Y0328357D01*
X0076864Y0330257D01*
X0079964Y0330257D01*
X0079964Y0322857D01*
X0079964Y0323000D02*
X0069377Y0323000D01*
X0068915Y0323398D02*
X0079964Y0323398D01*
X0079964Y0323797D02*
X0068721Y0323797D01*
X0068664Y0324195D02*
X0079964Y0324195D01*
X0079964Y0324594D02*
X0068664Y0324594D01*
X0068664Y0324992D02*
X0079964Y0324992D01*
X0079964Y0325391D02*
X0068664Y0325391D01*
X0068664Y0325789D02*
X0079964Y0325789D01*
X0079964Y0326188D02*
X0068664Y0326188D01*
X0068664Y0326586D02*
X0079964Y0326586D01*
X0079964Y0326985D02*
X0068664Y0326985D01*
X0068715Y0327383D02*
X0079964Y0327383D01*
X0079964Y0327782D02*
X0068911Y0327782D01*
X0069465Y0328181D02*
X0079964Y0328181D01*
X0079964Y0328579D02*
X0076864Y0328579D01*
X0076864Y0328978D02*
X0079964Y0328978D01*
X0079964Y0329376D02*
X0076864Y0329376D01*
X0076864Y0329775D02*
X0079964Y0329775D01*
X0079964Y0330173D02*
X0076864Y0330173D01*
X0346664Y0327057D02*
X0346664Y0324157D01*
X0346696Y0323868D01*
X0346793Y0323593D01*
X0346947Y0323346D01*
X0347153Y0323140D01*
X0347400Y0322986D01*
X0347675Y0322889D01*
X0347964Y0322857D01*
X0357964Y0322857D01*
X0357964Y0330257D01*
X0354864Y0330257D01*
X0354864Y0328357D01*
X0354856Y0328319D01*
X0354834Y0328286D01*
X0354802Y0328264D01*
X0354764Y0328257D01*
X0347864Y0328257D01*
X0347597Y0328227D01*
X0347343Y0328138D01*
X0347116Y0327995D01*
X0346926Y0327805D01*
X0346783Y0327577D01*
X0346694Y0327324D01*
X0346664Y0327057D01*
X0346664Y0326985D02*
X0357964Y0326985D01*
X0357964Y0327383D02*
X0346715Y0327383D01*
X0346911Y0327782D02*
X0357964Y0327782D01*
X0357964Y0328181D02*
X0347465Y0328181D01*
X0346664Y0326586D02*
X0357964Y0326586D01*
X0357964Y0326188D02*
X0346664Y0326188D01*
X0346664Y0325789D02*
X0357964Y0325789D01*
X0357964Y0325391D02*
X0346664Y0325391D01*
X0346664Y0324992D02*
X0357964Y0324992D01*
X0357964Y0324594D02*
X0346664Y0324594D01*
X0346664Y0324195D02*
X0357964Y0324195D01*
X0357964Y0323797D02*
X0346721Y0323797D01*
X0346915Y0323398D02*
X0357964Y0323398D01*
X0357964Y0323000D02*
X0347377Y0323000D01*
X0354864Y0328579D02*
X0357964Y0328579D01*
X0357964Y0328978D02*
X0354864Y0328978D01*
X0354864Y0329376D02*
X0357964Y0329376D01*
X0357964Y0329775D02*
X0354864Y0329775D01*
X0354864Y0330173D02*
X0357964Y0330173D01*
X0357964Y0307194D02*
X0347964Y0307194D01*
X0347675Y0307161D01*
X0347400Y0307065D01*
X0347153Y0306910D01*
X0346947Y0306704D01*
X0346793Y0306458D01*
X0346696Y0306183D01*
X0346664Y0305894D01*
X0346664Y0302994D01*
X0346694Y0302727D01*
X0346783Y0302473D01*
X0346926Y0302246D01*
X0347116Y0302055D01*
X0347343Y0301913D01*
X0347597Y0301824D01*
X0347864Y0301794D01*
X0354764Y0301794D01*
X0354802Y0301786D01*
X0354834Y0301764D01*
X0354856Y0301732D01*
X0354864Y0301694D01*
X0354864Y0299794D01*
X0357964Y0299794D01*
X0357964Y0307194D01*
X0357964Y0307059D02*
X0347391Y0307059D01*
X0346920Y0306661D02*
X0357964Y0306661D01*
X0357964Y0306262D02*
X0346724Y0306262D01*
X0346664Y0305864D02*
X0357964Y0305864D01*
X0357964Y0305465D02*
X0346664Y0305465D01*
X0346664Y0305067D02*
X0357964Y0305067D01*
X0357964Y0304668D02*
X0346664Y0304668D01*
X0346664Y0304270D02*
X0357964Y0304270D01*
X0357964Y0303871D02*
X0346664Y0303871D01*
X0346664Y0303473D02*
X0357964Y0303473D01*
X0357964Y0303074D02*
X0346664Y0303074D01*
X0346712Y0302676D02*
X0357964Y0302676D01*
X0357964Y0302277D02*
X0346906Y0302277D01*
X0347440Y0301879D02*
X0357964Y0301879D01*
X0357964Y0301480D02*
X0354864Y0301480D01*
X0354864Y0301082D02*
X0357964Y0301082D01*
X0357964Y0300683D02*
X0354864Y0300683D01*
X0354864Y0300285D02*
X0357964Y0300285D01*
X0357964Y0299886D02*
X0354864Y0299886D01*
X0354864Y0118257D02*
X0357964Y0118257D01*
X0357964Y0110857D01*
X0347964Y0110857D01*
X0347675Y0110889D01*
X0347400Y0110986D01*
X0347153Y0111140D01*
X0346947Y0111346D01*
X0346793Y0111593D01*
X0346696Y0111868D01*
X0346664Y0112157D01*
X0346664Y0115057D01*
X0346694Y0115324D01*
X0346783Y0115577D01*
X0346926Y0115805D01*
X0347116Y0115995D01*
X0347343Y0116138D01*
X0347597Y0116227D01*
X0347864Y0116257D01*
X0354764Y0116257D01*
X0354802Y0116264D01*
X0354834Y0116286D01*
X0354856Y0116319D01*
X0354864Y0116357D01*
X0354864Y0118257D01*
X0354864Y0118165D02*
X0357964Y0118165D01*
X0357964Y0117767D02*
X0354864Y0117767D01*
X0354864Y0117368D02*
X0357964Y0117368D01*
X0357964Y0116970D02*
X0354864Y0116970D01*
X0354864Y0116571D02*
X0357964Y0116571D01*
X0357964Y0116172D02*
X0347442Y0116172D01*
X0346906Y0115774D02*
X0357964Y0115774D01*
X0357964Y0115375D02*
X0346712Y0115375D01*
X0346664Y0114977D02*
X0357964Y0114977D01*
X0357964Y0114578D02*
X0346664Y0114578D01*
X0346664Y0114180D02*
X0357964Y0114180D01*
X0357964Y0113781D02*
X0346664Y0113781D01*
X0346664Y0113383D02*
X0357964Y0113383D01*
X0357964Y0112984D02*
X0346664Y0112984D01*
X0346664Y0112586D02*
X0357964Y0112586D01*
X0357964Y0112187D02*
X0346664Y0112187D01*
X0346724Y0111789D02*
X0357964Y0111789D01*
X0357964Y0111390D02*
X0346920Y0111390D01*
X0347390Y0110992D02*
X0357964Y0110992D01*
X0357964Y0095194D02*
X0347964Y0095194D01*
X0347675Y0095161D01*
X0347400Y0095065D01*
X0347153Y0094910D01*
X0346947Y0094704D01*
X0346793Y0094458D01*
X0346696Y0094183D01*
X0346664Y0093894D01*
X0346664Y0090994D01*
X0346694Y0090727D01*
X0346783Y0090473D01*
X0346926Y0090246D01*
X0347116Y0090055D01*
X0347343Y0089913D01*
X0347597Y0089824D01*
X0347864Y0089794D01*
X0354764Y0089794D01*
X0354802Y0089786D01*
X0354834Y0089764D01*
X0354856Y0089732D01*
X0354864Y0089694D01*
X0354864Y0087794D01*
X0357964Y0087794D01*
X0357964Y0095194D01*
X0357964Y0095051D02*
X0347378Y0095051D01*
X0346915Y0094653D02*
X0357964Y0094653D01*
X0357964Y0094254D02*
X0346721Y0094254D01*
X0346664Y0093856D02*
X0357964Y0093856D01*
X0357964Y0093457D02*
X0346664Y0093457D01*
X0346664Y0093059D02*
X0357964Y0093059D01*
X0357964Y0092660D02*
X0346664Y0092660D01*
X0346664Y0092262D02*
X0357964Y0092262D01*
X0357964Y0091863D02*
X0346664Y0091863D01*
X0346664Y0091465D02*
X0357964Y0091465D01*
X0357964Y0091066D02*
X0346664Y0091066D01*
X0346714Y0090668D02*
X0357964Y0090668D01*
X0357964Y0090269D02*
X0346911Y0090269D01*
X0347463Y0089871D02*
X0357964Y0089871D01*
X0357964Y0089472D02*
X0354864Y0089472D01*
X0354864Y0089074D02*
X0357964Y0089074D01*
X0357964Y0088675D02*
X0354864Y0088675D01*
X0354864Y0088277D02*
X0357964Y0088277D01*
X0357964Y0087878D02*
X0354864Y0087878D01*
X0079964Y0087878D02*
X0076864Y0087878D01*
X0076864Y0087794D02*
X0079964Y0087794D01*
X0079964Y0095194D01*
X0069964Y0095194D01*
X0069675Y0095161D01*
X0069400Y0095065D01*
X0069153Y0094910D01*
X0068947Y0094704D01*
X0068793Y0094458D01*
X0068696Y0094183D01*
X0068664Y0093894D01*
X0068664Y0090994D01*
X0068694Y0090727D01*
X0068783Y0090473D01*
X0068926Y0090246D01*
X0069116Y0090055D01*
X0069343Y0089913D01*
X0069597Y0089824D01*
X0069864Y0089794D01*
X0076764Y0089794D01*
X0076802Y0089786D01*
X0076834Y0089764D01*
X0076856Y0089732D01*
X0076864Y0089694D01*
X0076864Y0087794D01*
X0076864Y0088277D02*
X0079964Y0088277D01*
X0079964Y0088675D02*
X0076864Y0088675D01*
X0076864Y0089074D02*
X0079964Y0089074D01*
X0079964Y0089472D02*
X0076864Y0089472D01*
X0079964Y0089871D02*
X0069463Y0089871D01*
X0068911Y0090269D02*
X0079964Y0090269D01*
X0079964Y0090668D02*
X0068714Y0090668D01*
X0068664Y0091066D02*
X0079964Y0091066D01*
X0079964Y0091465D02*
X0068664Y0091465D01*
X0068664Y0091863D02*
X0079964Y0091863D01*
X0079964Y0092262D02*
X0068664Y0092262D01*
X0068664Y0092660D02*
X0079964Y0092660D01*
X0079964Y0093059D02*
X0068664Y0093059D01*
X0068664Y0093457D02*
X0079964Y0093457D01*
X0079964Y0093856D02*
X0068664Y0093856D01*
X0068721Y0094254D02*
X0079964Y0094254D01*
X0079964Y0094653D02*
X0068915Y0094653D01*
X0069378Y0095051D02*
X0079964Y0095051D01*
X0079964Y0110857D02*
X0069964Y0110857D01*
X0069675Y0110889D01*
X0069400Y0110986D01*
X0069153Y0111140D01*
X0068947Y0111346D01*
X0068793Y0111593D01*
X0068696Y0111868D01*
X0068664Y0112157D01*
X0068664Y0115057D01*
X0068694Y0115324D01*
X0068783Y0115577D01*
X0068926Y0115805D01*
X0069116Y0115995D01*
X0069343Y0116138D01*
X0069597Y0116227D01*
X0069864Y0116257D01*
X0076764Y0116257D01*
X0076802Y0116264D01*
X0076834Y0116286D01*
X0076856Y0116319D01*
X0076864Y0116357D01*
X0076864Y0118257D01*
X0079964Y0118257D01*
X0079964Y0110857D01*
X0079964Y0110992D02*
X0069390Y0110992D01*
X0068920Y0111390D02*
X0079964Y0111390D01*
X0079964Y0111789D02*
X0068724Y0111789D01*
X0068664Y0112187D02*
X0079964Y0112187D01*
X0079964Y0112586D02*
X0068664Y0112586D01*
X0068664Y0112984D02*
X0079964Y0112984D01*
X0079964Y0113383D02*
X0068664Y0113383D01*
X0068664Y0113781D02*
X0079964Y0113781D01*
X0079964Y0114180D02*
X0068664Y0114180D01*
X0068664Y0114578D02*
X0079964Y0114578D01*
X0079964Y0114977D02*
X0068664Y0114977D01*
X0068712Y0115375D02*
X0079964Y0115375D01*
X0079964Y0115774D02*
X0068906Y0115774D01*
X0069442Y0116172D02*
X0079964Y0116172D01*
X0079964Y0116571D02*
X0076864Y0116571D01*
X0076864Y0116970D02*
X0079964Y0116970D01*
X0079964Y0117368D02*
X0076864Y0117368D01*
X0076864Y0117767D02*
X0079964Y0117767D01*
X0079964Y0118165D02*
X0076864Y0118165D01*
D16*
X0079351Y0108610D02*
X0085748Y0108610D01*
X0085748Y0107626D01*
X0079351Y0107626D01*
X0079351Y0108610D01*
X0079351Y0108598D02*
X0085748Y0108598D01*
X0085748Y0108403D02*
X0079351Y0108403D01*
X0079351Y0108208D02*
X0085748Y0108208D01*
X0085748Y0108012D02*
X0079351Y0108012D01*
X0079351Y0107817D02*
X0085748Y0107817D01*
X0085748Y0106051D02*
X0079351Y0106051D01*
X0079351Y0105067D01*
X0085748Y0105067D01*
X0085748Y0106051D01*
X0085748Y0105863D02*
X0079351Y0105863D01*
X0079351Y0105668D02*
X0085748Y0105668D01*
X0085748Y0105473D02*
X0079351Y0105473D01*
X0079351Y0105277D02*
X0085748Y0105277D01*
X0085748Y0105082D02*
X0079351Y0105082D01*
X0079351Y0103492D02*
X0085748Y0103492D01*
X0085748Y0102508D01*
X0079351Y0102508D01*
X0079351Y0103492D01*
X0079351Y0103324D02*
X0085748Y0103324D01*
X0085748Y0103128D02*
X0079351Y0103128D01*
X0079351Y0102933D02*
X0085748Y0102933D01*
X0085748Y0102737D02*
X0079351Y0102737D01*
X0079351Y0102542D02*
X0085748Y0102542D01*
X0085748Y0100933D02*
X0079351Y0100933D01*
X0079351Y0099949D01*
X0085748Y0099949D01*
X0085748Y0100933D01*
X0085748Y0100784D02*
X0079351Y0100784D01*
X0079351Y0100588D02*
X0085748Y0100588D01*
X0085748Y0100393D02*
X0079351Y0100393D01*
X0079351Y0100198D02*
X0085748Y0100198D01*
X0085748Y0100002D02*
X0079351Y0100002D01*
X0079351Y0098374D02*
X0085748Y0098374D01*
X0085748Y0097390D01*
X0079351Y0097390D01*
X0079351Y0098374D01*
X0079351Y0098244D02*
X0085748Y0098244D01*
X0085748Y0098049D02*
X0079351Y0098049D01*
X0079351Y0097853D02*
X0085748Y0097853D01*
X0085748Y0097658D02*
X0079351Y0097658D01*
X0079351Y0097463D02*
X0085748Y0097463D01*
X0357351Y0097463D02*
X0363748Y0097463D01*
X0363748Y0097390D02*
X0357351Y0097390D01*
X0357351Y0098374D01*
X0363748Y0098374D01*
X0363748Y0097390D01*
X0363748Y0097658D02*
X0357351Y0097658D01*
X0357351Y0097853D02*
X0363748Y0097853D01*
X0363748Y0098049D02*
X0357351Y0098049D01*
X0357351Y0098244D02*
X0363748Y0098244D01*
X0363748Y0099949D02*
X0357351Y0099949D01*
X0357351Y0100933D01*
X0363748Y0100933D01*
X0363748Y0099949D01*
X0363748Y0100002D02*
X0357351Y0100002D01*
X0357351Y0100198D02*
X0363748Y0100198D01*
X0363748Y0100393D02*
X0357351Y0100393D01*
X0357351Y0100588D02*
X0363748Y0100588D01*
X0363748Y0100784D02*
X0357351Y0100784D01*
X0357351Y0102508D02*
X0357351Y0103492D01*
X0363748Y0103492D01*
X0363748Y0102508D01*
X0357351Y0102508D01*
X0357351Y0102542D02*
X0363748Y0102542D01*
X0363748Y0102737D02*
X0357351Y0102737D01*
X0357351Y0102933D02*
X0363748Y0102933D01*
X0363748Y0103128D02*
X0357351Y0103128D01*
X0357351Y0103324D02*
X0363748Y0103324D01*
X0363748Y0105067D02*
X0357351Y0105067D01*
X0357351Y0106051D01*
X0363748Y0106051D01*
X0363748Y0105067D01*
X0363748Y0105082D02*
X0357351Y0105082D01*
X0357351Y0105277D02*
X0363748Y0105277D01*
X0363748Y0105473D02*
X0357351Y0105473D01*
X0357351Y0105668D02*
X0363748Y0105668D01*
X0363748Y0105863D02*
X0357351Y0105863D01*
X0357351Y0107626D02*
X0357351Y0108610D01*
X0363748Y0108610D01*
X0363748Y0107626D01*
X0357351Y0107626D01*
X0357351Y0107817D02*
X0363748Y0107817D01*
X0363748Y0108012D02*
X0357351Y0108012D01*
X0357351Y0108208D02*
X0363748Y0108208D01*
X0363748Y0108403D02*
X0357351Y0108403D01*
X0357351Y0108598D02*
X0363748Y0108598D01*
X0363748Y0309390D02*
X0357351Y0309390D01*
X0357351Y0310374D01*
X0363748Y0310374D01*
X0363748Y0309390D01*
X0363748Y0309430D02*
X0357351Y0309430D01*
X0357351Y0309626D02*
X0363748Y0309626D01*
X0363748Y0309821D02*
X0357351Y0309821D01*
X0357351Y0310016D02*
X0363748Y0310016D01*
X0363748Y0310212D02*
X0357351Y0310212D01*
X0357351Y0311949D02*
X0357351Y0312933D01*
X0363748Y0312933D01*
X0363748Y0311949D01*
X0357351Y0311949D01*
X0357351Y0311970D02*
X0363748Y0311970D01*
X0363748Y0312165D02*
X0357351Y0312165D01*
X0357351Y0312361D02*
X0363748Y0312361D01*
X0363748Y0312556D02*
X0357351Y0312556D01*
X0357351Y0312751D02*
X0363748Y0312751D01*
X0363748Y0314508D02*
X0357351Y0314508D01*
X0357351Y0315492D01*
X0363748Y0315492D01*
X0363748Y0314508D01*
X0363748Y0314510D02*
X0357351Y0314510D01*
X0357351Y0314705D02*
X0363748Y0314705D01*
X0363748Y0314900D02*
X0357351Y0314900D01*
X0357351Y0315096D02*
X0363748Y0315096D01*
X0363748Y0315291D02*
X0357351Y0315291D01*
X0357351Y0315486D02*
X0363748Y0315486D01*
X0363748Y0317067D02*
X0357351Y0317067D01*
X0357351Y0318051D01*
X0363748Y0318051D01*
X0363748Y0317067D01*
X0363748Y0317245D02*
X0357351Y0317245D01*
X0357351Y0317440D02*
X0363748Y0317440D01*
X0363748Y0317635D02*
X0357351Y0317635D01*
X0357351Y0317831D02*
X0363748Y0317831D01*
X0363748Y0318026D02*
X0357351Y0318026D01*
X0357351Y0319626D02*
X0357351Y0320610D01*
X0363748Y0320610D01*
X0363748Y0319626D01*
X0357351Y0319626D01*
X0357351Y0319784D02*
X0363748Y0319784D01*
X0363748Y0319980D02*
X0357351Y0319980D01*
X0357351Y0320175D02*
X0363748Y0320175D01*
X0363748Y0320370D02*
X0357351Y0320370D01*
X0357351Y0320566D02*
X0363748Y0320566D01*
X0085748Y0320566D02*
X0079351Y0320566D01*
X0079351Y0320610D02*
X0085748Y0320610D01*
X0085748Y0319626D01*
X0079351Y0319626D01*
X0079351Y0320610D01*
X0079351Y0320370D02*
X0085748Y0320370D01*
X0085748Y0320175D02*
X0079351Y0320175D01*
X0079351Y0319980D02*
X0085748Y0319980D01*
X0085748Y0319784D02*
X0079351Y0319784D01*
X0079351Y0318051D02*
X0085748Y0318051D01*
X0085748Y0317067D01*
X0079351Y0317067D01*
X0079351Y0318051D01*
X0079351Y0318026D02*
X0085748Y0318026D01*
X0085748Y0317831D02*
X0079351Y0317831D01*
X0079351Y0317635D02*
X0085748Y0317635D01*
X0085748Y0317440D02*
X0079351Y0317440D01*
X0079351Y0317245D02*
X0085748Y0317245D01*
X0085748Y0315492D02*
X0079351Y0315492D01*
X0079351Y0314508D01*
X0085748Y0314508D01*
X0085748Y0315492D01*
X0085748Y0315486D02*
X0079351Y0315486D01*
X0079351Y0315291D02*
X0085748Y0315291D01*
X0085748Y0315096D02*
X0079351Y0315096D01*
X0079351Y0314900D02*
X0085748Y0314900D01*
X0085748Y0314705D02*
X0079351Y0314705D01*
X0079351Y0314510D02*
X0085748Y0314510D01*
X0085748Y0312933D02*
X0079351Y0312933D01*
X0079351Y0311949D01*
X0085748Y0311949D01*
X0085748Y0312933D01*
X0085748Y0312751D02*
X0079351Y0312751D01*
X0079351Y0312556D02*
X0085748Y0312556D01*
X0085748Y0312361D02*
X0079351Y0312361D01*
X0079351Y0312165D02*
X0085748Y0312165D01*
X0085748Y0311970D02*
X0079351Y0311970D01*
X0079351Y0310374D02*
X0085748Y0310374D01*
X0085748Y0309390D01*
X0079351Y0309390D01*
X0079351Y0310374D01*
X0079351Y0310212D02*
X0085748Y0310212D01*
X0085748Y0310016D02*
X0079351Y0310016D01*
X0079351Y0309821D02*
X0085748Y0309821D01*
X0085748Y0309626D02*
X0079351Y0309626D01*
X0079351Y0309430D02*
X0085748Y0309430D01*
D17*
X0068055Y0364476D03*
X0068055Y0386524D03*
X0346055Y0386524D03*
X0346055Y0364476D03*
X0346055Y0174524D03*
X0346055Y0152476D03*
X0068055Y0152476D03*
X0068055Y0174524D03*
D18*
X0082524Y0169406D03*
X0082524Y0165469D03*
X0082524Y0161531D03*
X0082524Y0157594D03*
X0360524Y0157594D03*
X0360524Y0161531D03*
X0360524Y0165469D03*
X0360524Y0169406D03*
X0360524Y0369594D03*
X0360524Y0373531D03*
X0360524Y0377469D03*
X0360524Y0381406D03*
X0082524Y0381406D03*
X0082524Y0377469D03*
X0082524Y0373531D03*
X0082524Y0369594D03*
D19*
X0091091Y0282437D03*
X0091091Y0274563D03*
X0369091Y0274563D03*
X0369091Y0282437D03*
X0369091Y0070437D03*
X0369091Y0062563D03*
X0091091Y0062563D03*
X0091091Y0070437D03*
D20*
X0070618Y0053114D03*
X0070618Y0079886D03*
X0070618Y0265114D03*
X0070618Y0291886D03*
X0348618Y0291886D03*
X0348618Y0265114D03*
X0348618Y0079886D03*
X0348618Y0053114D03*
D21*
X0383024Y0187500D03*
X0398024Y0187500D03*
X0408024Y0187500D03*
X0423024Y0187500D03*
X0423024Y0209500D03*
X0408024Y0209500D03*
X0398024Y0209500D03*
X0383024Y0209500D03*
X0145024Y0209500D03*
X0130024Y0209500D03*
X0120024Y0209500D03*
X0105024Y0209500D03*
X0105024Y0187500D03*
X0120024Y0187500D03*
X0130024Y0187500D03*
X0145024Y0187500D03*
X0145024Y0399500D03*
X0130024Y0399500D03*
X0120024Y0399500D03*
X0105024Y0399500D03*
X0105024Y0421500D03*
X0120024Y0421500D03*
X0130024Y0421500D03*
X0145024Y0421500D03*
X0383024Y0421500D03*
X0398024Y0421500D03*
X0408024Y0421500D03*
X0423024Y0421500D03*
X0423024Y0399500D03*
X0408024Y0399500D03*
X0398024Y0399500D03*
X0383024Y0399500D03*
D22*
X0374264Y0405381D03*
X0370524Y0405381D03*
X0366783Y0405381D03*
X0366783Y0415619D03*
X0374264Y0415619D03*
X0391783Y0300619D03*
X0399264Y0300619D03*
X0399264Y0290381D03*
X0395524Y0290381D03*
X0391783Y0290381D03*
X0374264Y0203619D03*
X0366783Y0203619D03*
X0366783Y0193381D03*
X0370524Y0193381D03*
X0374264Y0193381D03*
X0391783Y0088619D03*
X0399264Y0088619D03*
X0399264Y0078381D03*
X0395524Y0078381D03*
X0391783Y0078381D03*
X0121264Y0078381D03*
X0117524Y0078381D03*
X0113783Y0078381D03*
X0113783Y0088619D03*
X0121264Y0088619D03*
X0096264Y0193381D03*
X0092524Y0193381D03*
X0088783Y0193381D03*
X0088783Y0203619D03*
X0096264Y0203619D03*
X0113783Y0290381D03*
X0117524Y0290381D03*
X0121264Y0290381D03*
X0121264Y0300619D03*
X0113783Y0300619D03*
X0096264Y0405381D03*
X0092524Y0405381D03*
X0088783Y0405381D03*
X0088783Y0415619D03*
X0096264Y0415619D03*
D23*
X0095870Y0422600D03*
X0089177Y0422600D03*
X0089177Y0399500D03*
X0089177Y0393500D03*
X0095870Y0393500D03*
X0095870Y0399500D03*
X0094870Y0345500D03*
X0088177Y0345500D03*
X0088177Y0339500D03*
X0088177Y0333500D03*
X0094870Y0333500D03*
X0094870Y0339500D03*
X0109177Y0324000D03*
X0115870Y0324000D03*
X0118870Y0284000D03*
X0112177Y0284000D03*
X0127677Y0278000D03*
X0134370Y0278000D03*
X0214177Y0347508D03*
X0220870Y0347508D03*
X0234177Y0347508D03*
X0240870Y0347508D03*
X0237677Y0360500D03*
X0244370Y0360500D03*
X0366177Y0345500D03*
X0372870Y0345500D03*
X0372870Y0339500D03*
X0372870Y0333500D03*
X0366177Y0333500D03*
X0366177Y0339500D03*
X0387177Y0324000D03*
X0393870Y0324000D03*
X0396870Y0284000D03*
X0390177Y0284000D03*
X0405677Y0278000D03*
X0412370Y0278000D03*
X0492177Y0347508D03*
X0498870Y0347508D03*
X0512177Y0347508D03*
X0518870Y0347508D03*
X0515677Y0360500D03*
X0522370Y0360500D03*
X0373870Y0393500D03*
X0373870Y0399500D03*
X0367177Y0399500D03*
X0367177Y0393500D03*
X0367177Y0422600D03*
X0373870Y0422600D03*
X0373870Y0210600D03*
X0367177Y0210600D03*
X0367177Y0187500D03*
X0373870Y0187500D03*
X0373870Y0181500D03*
X0367177Y0181500D03*
X0366177Y0133500D03*
X0366177Y0127500D03*
X0366177Y0121500D03*
X0372870Y0121500D03*
X0372870Y0127500D03*
X0372870Y0133500D03*
X0387177Y0112000D03*
X0393870Y0112000D03*
X0396870Y0072000D03*
X0390177Y0072000D03*
X0405677Y0066000D03*
X0412370Y0066000D03*
X0492177Y0135508D03*
X0498870Y0135508D03*
X0512177Y0135508D03*
X0518870Y0135508D03*
X0515677Y0148500D03*
X0522370Y0148500D03*
X0244370Y0148500D03*
X0237677Y0148500D03*
X0240870Y0135508D03*
X0234177Y0135508D03*
X0220870Y0135508D03*
X0214177Y0135508D03*
X0115870Y0112000D03*
X0109177Y0112000D03*
X0094870Y0121500D03*
X0094870Y0127500D03*
X0094870Y0133500D03*
X0088177Y0133500D03*
X0088177Y0127500D03*
X0088177Y0121500D03*
X0112177Y0072000D03*
X0118870Y0072000D03*
X0127677Y0066000D03*
X0134370Y0066000D03*
X0095870Y0181500D03*
X0089177Y0181500D03*
X0089177Y0187500D03*
X0095870Y0187500D03*
X0095870Y0210600D03*
X0089177Y0210600D03*
D24*
X0126996Y0284000D03*
X0136051Y0284000D03*
X0404996Y0284000D03*
X0414051Y0284000D03*
X0414051Y0072000D03*
X0404996Y0072000D03*
X0136051Y0072000D03*
X0126996Y0072000D03*
D25*
X0074854Y0120122D02*
X0074854Y0122878D01*
X0074854Y0120122D02*
X0072098Y0120122D01*
X0072098Y0122878D01*
X0074854Y0122878D01*
X0074854Y0121244D02*
X0072098Y0121244D01*
X0072098Y0122366D02*
X0074854Y0122366D01*
X0072098Y0126122D02*
X0072098Y0128878D01*
X0074854Y0128878D01*
X0074854Y0126122D01*
X0072098Y0126122D01*
X0072098Y0127244D02*
X0074854Y0127244D01*
X0074854Y0128366D02*
X0072098Y0128366D01*
X0072098Y0132122D02*
X0072098Y0134878D01*
X0074854Y0134878D01*
X0074854Y0132122D01*
X0072098Y0132122D01*
X0072098Y0133244D02*
X0074854Y0133244D01*
X0074854Y0134366D02*
X0072098Y0134366D01*
X0065193Y0134878D02*
X0065193Y0132122D01*
X0065193Y0134878D02*
X0067949Y0134878D01*
X0067949Y0132122D01*
X0065193Y0132122D01*
X0065193Y0133244D02*
X0067949Y0133244D01*
X0067949Y0134366D02*
X0065193Y0134366D01*
X0065193Y0128878D02*
X0065193Y0126122D01*
X0065193Y0128878D02*
X0067949Y0128878D01*
X0067949Y0126122D01*
X0065193Y0126122D01*
X0065193Y0127244D02*
X0067949Y0127244D01*
X0067949Y0128366D02*
X0065193Y0128366D01*
X0067949Y0122878D02*
X0067949Y0120122D01*
X0065193Y0120122D01*
X0065193Y0122878D01*
X0067949Y0122878D01*
X0067949Y0121244D02*
X0065193Y0121244D01*
X0065193Y0122366D02*
X0067949Y0122366D01*
X0345949Y0122878D02*
X0345949Y0120122D01*
X0343193Y0120122D01*
X0343193Y0122878D01*
X0345949Y0122878D01*
X0345949Y0121244D02*
X0343193Y0121244D01*
X0343193Y0122366D02*
X0345949Y0122366D01*
X0343193Y0126122D02*
X0343193Y0128878D01*
X0345949Y0128878D01*
X0345949Y0126122D01*
X0343193Y0126122D01*
X0343193Y0127244D02*
X0345949Y0127244D01*
X0345949Y0128366D02*
X0343193Y0128366D01*
X0343193Y0132122D02*
X0343193Y0134878D01*
X0345949Y0134878D01*
X0345949Y0132122D01*
X0343193Y0132122D01*
X0343193Y0133244D02*
X0345949Y0133244D01*
X0345949Y0134366D02*
X0343193Y0134366D01*
X0350098Y0134878D02*
X0350098Y0132122D01*
X0350098Y0134878D02*
X0352854Y0134878D01*
X0352854Y0132122D01*
X0350098Y0132122D01*
X0350098Y0133244D02*
X0352854Y0133244D01*
X0352854Y0134366D02*
X0350098Y0134366D01*
X0350098Y0128878D02*
X0350098Y0126122D01*
X0350098Y0128878D02*
X0352854Y0128878D01*
X0352854Y0126122D01*
X0350098Y0126122D01*
X0350098Y0127244D02*
X0352854Y0127244D01*
X0352854Y0128366D02*
X0350098Y0128366D01*
X0352854Y0122878D02*
X0352854Y0120122D01*
X0350098Y0120122D01*
X0350098Y0122878D01*
X0352854Y0122878D01*
X0352854Y0121244D02*
X0350098Y0121244D01*
X0350098Y0122366D02*
X0352854Y0122366D01*
X0352854Y0332122D02*
X0352854Y0334878D01*
X0352854Y0332122D02*
X0350098Y0332122D01*
X0350098Y0334878D01*
X0352854Y0334878D01*
X0352854Y0333244D02*
X0350098Y0333244D01*
X0350098Y0334366D02*
X0352854Y0334366D01*
X0350098Y0338122D02*
X0350098Y0340878D01*
X0352854Y0340878D01*
X0352854Y0338122D01*
X0350098Y0338122D01*
X0350098Y0339244D02*
X0352854Y0339244D01*
X0352854Y0340366D02*
X0350098Y0340366D01*
X0350098Y0344122D02*
X0350098Y0346878D01*
X0352854Y0346878D01*
X0352854Y0344122D01*
X0350098Y0344122D01*
X0350098Y0345244D02*
X0352854Y0345244D01*
X0352854Y0346366D02*
X0350098Y0346366D01*
X0343193Y0346878D02*
X0343193Y0344122D01*
X0343193Y0346878D02*
X0345949Y0346878D01*
X0345949Y0344122D01*
X0343193Y0344122D01*
X0343193Y0345244D02*
X0345949Y0345244D01*
X0345949Y0346366D02*
X0343193Y0346366D01*
X0343193Y0340878D02*
X0343193Y0338122D01*
X0343193Y0340878D02*
X0345949Y0340878D01*
X0345949Y0338122D01*
X0343193Y0338122D01*
X0343193Y0339244D02*
X0345949Y0339244D01*
X0345949Y0340366D02*
X0343193Y0340366D01*
X0345949Y0334878D02*
X0345949Y0332122D01*
X0343193Y0332122D01*
X0343193Y0334878D01*
X0345949Y0334878D01*
X0345949Y0333244D02*
X0343193Y0333244D01*
X0343193Y0334366D02*
X0345949Y0334366D01*
X0074854Y0334878D02*
X0074854Y0332122D01*
X0072098Y0332122D01*
X0072098Y0334878D01*
X0074854Y0334878D01*
X0074854Y0333244D02*
X0072098Y0333244D01*
X0072098Y0334366D02*
X0074854Y0334366D01*
X0072098Y0338122D02*
X0072098Y0340878D01*
X0074854Y0340878D01*
X0074854Y0338122D01*
X0072098Y0338122D01*
X0072098Y0339244D02*
X0074854Y0339244D01*
X0074854Y0340366D02*
X0072098Y0340366D01*
X0072098Y0344122D02*
X0072098Y0346878D01*
X0074854Y0346878D01*
X0074854Y0344122D01*
X0072098Y0344122D01*
X0072098Y0345244D02*
X0074854Y0345244D01*
X0074854Y0346366D02*
X0072098Y0346366D01*
X0065193Y0346878D02*
X0065193Y0344122D01*
X0065193Y0346878D02*
X0067949Y0346878D01*
X0067949Y0344122D01*
X0065193Y0344122D01*
X0065193Y0345244D02*
X0067949Y0345244D01*
X0067949Y0346366D02*
X0065193Y0346366D01*
X0065193Y0340878D02*
X0065193Y0338122D01*
X0065193Y0340878D02*
X0067949Y0340878D01*
X0067949Y0338122D01*
X0065193Y0338122D01*
X0065193Y0339244D02*
X0067949Y0339244D01*
X0067949Y0340366D02*
X0065193Y0340366D01*
X0067949Y0334878D02*
X0067949Y0332122D01*
X0065193Y0332122D01*
X0065193Y0334878D01*
X0067949Y0334878D01*
X0067949Y0333244D02*
X0065193Y0333244D01*
X0065193Y0334366D02*
X0067949Y0334366D01*
D26*
X0073587Y0351760D03*
X0073587Y0359240D03*
X0081854Y0355500D03*
X0127587Y0297740D03*
X0135854Y0294000D03*
X0127587Y0290260D03*
X0073587Y0147240D03*
X0073587Y0139760D03*
X0081854Y0143500D03*
X0127587Y0085740D03*
X0127587Y0078260D03*
X0135854Y0082000D03*
X0351587Y0139760D03*
X0351587Y0147240D03*
X0359854Y0143500D03*
X0405587Y0085740D03*
X0405587Y0078260D03*
X0413854Y0082000D03*
X0405587Y0290260D03*
X0413854Y0294000D03*
X0405587Y0297740D03*
X0351587Y0351760D03*
X0351587Y0359240D03*
X0359854Y0355500D03*
D27*
X0345524Y0352154D03*
X0345524Y0358846D03*
X0402524Y0316346D03*
X0402524Y0309654D03*
X0385524Y0298846D03*
X0385524Y0292154D03*
X0421024Y0276346D03*
X0427024Y0276346D03*
X0433024Y0276346D03*
X0439024Y0276346D03*
X0445524Y0276346D03*
X0445524Y0269654D03*
X0439024Y0269654D03*
X0433024Y0269654D03*
X0427024Y0269654D03*
X0421024Y0269654D03*
X0488524Y0327154D03*
X0494524Y0327154D03*
X0500524Y0327154D03*
X0506524Y0327154D03*
X0506524Y0333846D03*
X0500524Y0333846D03*
X0494524Y0333846D03*
X0488524Y0333846D03*
X0505524Y0347492D03*
X0505524Y0354185D03*
X0525177Y0354346D03*
X0525177Y0347654D03*
X0515524Y0366654D03*
X0515524Y0373346D03*
X0445524Y0399654D03*
X0445524Y0406346D03*
X0445524Y0414654D03*
X0445524Y0421346D03*
X0247177Y0354346D03*
X0247177Y0347654D03*
X0227524Y0347492D03*
X0227524Y0354185D03*
X0237524Y0366654D03*
X0237524Y0373346D03*
X0228524Y0333846D03*
X0222524Y0333846D03*
X0216524Y0333846D03*
X0210524Y0333846D03*
X0210524Y0327154D03*
X0216524Y0327154D03*
X0222524Y0327154D03*
X0228524Y0327154D03*
X0167524Y0276346D03*
X0161024Y0276346D03*
X0155024Y0276346D03*
X0149024Y0276346D03*
X0143024Y0276346D03*
X0143024Y0269654D03*
X0149024Y0269654D03*
X0155024Y0269654D03*
X0161024Y0269654D03*
X0167524Y0269654D03*
X0124524Y0309654D03*
X0124524Y0316346D03*
X0107524Y0298846D03*
X0107524Y0292154D03*
X0067524Y0352154D03*
X0067524Y0358846D03*
X0167524Y0399654D03*
X0167524Y0406346D03*
X0167524Y0414654D03*
X0167524Y0421346D03*
X0167524Y0209346D03*
X0167524Y0202654D03*
X0167524Y0194346D03*
X0167524Y0187654D03*
X0237524Y0161346D03*
X0237524Y0154654D03*
X0247177Y0142346D03*
X0247177Y0135654D03*
X0227524Y0135492D03*
X0227524Y0142185D03*
X0228524Y0121846D03*
X0222524Y0121846D03*
X0216524Y0121846D03*
X0210524Y0121846D03*
X0210524Y0115154D03*
X0216524Y0115154D03*
X0222524Y0115154D03*
X0228524Y0115154D03*
X0167524Y0064346D03*
X0161024Y0064346D03*
X0155024Y0064346D03*
X0149024Y0064346D03*
X0143024Y0064346D03*
X0143024Y0057654D03*
X0149024Y0057654D03*
X0155024Y0057654D03*
X0161024Y0057654D03*
X0167524Y0057654D03*
X0124524Y0097654D03*
X0124524Y0104346D03*
X0107524Y0086846D03*
X0107524Y0080154D03*
X0067524Y0140154D03*
X0067524Y0146846D03*
X0345524Y0146846D03*
X0345524Y0140154D03*
X0402524Y0104346D03*
X0402524Y0097654D03*
X0385524Y0086846D03*
X0385524Y0080154D03*
X0421024Y0064346D03*
X0427024Y0064346D03*
X0433024Y0064346D03*
X0439024Y0064346D03*
X0445524Y0064346D03*
X0445524Y0057654D03*
X0439024Y0057654D03*
X0433024Y0057654D03*
X0427024Y0057654D03*
X0421024Y0057654D03*
X0488524Y0115154D03*
X0494524Y0115154D03*
X0500524Y0115154D03*
X0506524Y0115154D03*
X0506524Y0121846D03*
X0500524Y0121846D03*
X0494524Y0121846D03*
X0488524Y0121846D03*
X0505524Y0135492D03*
X0505524Y0142185D03*
X0525177Y0142346D03*
X0525177Y0135654D03*
X0515524Y0154654D03*
X0515524Y0161346D03*
X0445524Y0187654D03*
X0445524Y0194346D03*
X0445524Y0202654D03*
X0445524Y0209346D03*
D28*
X0395937Y0309661D03*
X0395937Y0312220D03*
X0395937Y0314780D03*
X0395937Y0317339D03*
X0385110Y0317339D03*
X0385110Y0314780D03*
X0385110Y0312220D03*
X0385110Y0309661D03*
X0117937Y0309661D03*
X0117937Y0312220D03*
X0117937Y0314780D03*
X0117937Y0317339D03*
X0107110Y0317339D03*
X0107110Y0314780D03*
X0107110Y0312220D03*
X0107110Y0309661D03*
X0107110Y0105339D03*
X0107110Y0102780D03*
X0107110Y0100220D03*
X0107110Y0097661D03*
X0117937Y0097661D03*
X0117937Y0100220D03*
X0117937Y0102780D03*
X0117937Y0105339D03*
X0385110Y0105339D03*
X0385110Y0102780D03*
X0385110Y0100220D03*
X0385110Y0097661D03*
X0395937Y0097661D03*
X0395937Y0100220D03*
X0395937Y0102780D03*
X0395937Y0105339D03*
D29*
X0390524Y0101500D03*
X0112524Y0101500D03*
X0112524Y0313500D03*
X0390524Y0313500D03*
D30*
X0392724Y0266622D03*
X0402566Y0266622D03*
X0382881Y0266622D03*
X0382881Y0244378D03*
X0392724Y0244378D03*
X0402566Y0244378D03*
X0478181Y0209622D03*
X0488024Y0209622D03*
X0497866Y0209622D03*
X0497866Y0187378D03*
X0488024Y0187378D03*
X0478181Y0187378D03*
X0402566Y0054622D03*
X0392724Y0054622D03*
X0382881Y0054622D03*
X0382881Y0032378D03*
X0392724Y0032378D03*
X0402566Y0032378D03*
X0219866Y0187378D03*
X0210024Y0187378D03*
X0200181Y0187378D03*
X0200181Y0209622D03*
X0210024Y0209622D03*
X0219866Y0209622D03*
X0124566Y0244378D03*
X0114724Y0244378D03*
X0104881Y0244378D03*
X0104881Y0266622D03*
X0114724Y0266622D03*
X0124566Y0266622D03*
X0200181Y0399378D03*
X0210024Y0399378D03*
X0219866Y0399378D03*
X0219866Y0421622D03*
X0210024Y0421622D03*
X0200181Y0421622D03*
X0478181Y0421622D03*
X0488024Y0421622D03*
X0497866Y0421622D03*
X0497866Y0399378D03*
X0488024Y0399378D03*
X0478181Y0399378D03*
X0124566Y0054622D03*
X0114724Y0054622D03*
X0104881Y0054622D03*
X0104881Y0032378D03*
X0114724Y0032378D03*
X0124566Y0032378D03*
D31*
X0142917Y0076000D03*
X0142917Y0081000D03*
X0142917Y0086000D03*
X0142917Y0091000D03*
X0142917Y0096000D03*
X0142917Y0101000D03*
X0142917Y0288000D03*
X0142917Y0293000D03*
X0142917Y0298000D03*
X0142917Y0303000D03*
X0142917Y0308000D03*
X0142917Y0313000D03*
X0420917Y0313000D03*
X0420917Y0308000D03*
X0420917Y0303000D03*
X0420917Y0298000D03*
X0420917Y0293000D03*
X0420917Y0288000D03*
X0420917Y0101000D03*
X0420917Y0096000D03*
X0420917Y0091000D03*
X0420917Y0086000D03*
X0420917Y0081000D03*
X0420917Y0076000D03*
D32*
X0423555Y0070035D03*
X0446193Y0070035D03*
X0446193Y0106846D03*
X0423555Y0106846D03*
X0168193Y0106846D03*
X0145555Y0106846D03*
X0145555Y0070035D03*
X0168193Y0070035D03*
X0168193Y0282035D03*
X0145555Y0282035D03*
X0145555Y0318846D03*
X0168193Y0318846D03*
X0423555Y0318846D03*
X0446193Y0318846D03*
X0446193Y0282035D03*
X0423555Y0282035D03*
D33*
X0468713Y0282921D03*
X0468713Y0318079D03*
X0190713Y0318079D03*
X0190713Y0282921D03*
X0190713Y0106079D03*
X0190713Y0070921D03*
X0468713Y0070921D03*
X0468713Y0106079D03*
D34*
X0548024Y0130094D03*
X0548024Y0140921D03*
X0270024Y0140921D03*
X0270024Y0130094D03*
X0270024Y0342094D03*
X0270024Y0352921D03*
X0548024Y0352921D03*
X0548024Y0342094D03*
D35*
X0554028Y0347508D03*
X0542020Y0347508D03*
X0276028Y0347508D03*
X0264020Y0347508D03*
X0264020Y0135508D03*
X0276028Y0135508D03*
X0542020Y0135508D03*
X0554028Y0135508D03*
D36*
X0410524Y0109012D03*
X0410524Y0097988D03*
X0132524Y0097988D03*
X0132524Y0109012D03*
X0132524Y0309988D03*
X0132524Y0321012D03*
X0410524Y0321012D03*
X0410524Y0309988D03*
D37*
X0312524Y0294197D03*
X0312524Y0231803D03*
X0312524Y0082197D03*
X0590524Y0082197D03*
X0590524Y0231803D03*
X0590524Y0294197D03*
X0590524Y0443803D03*
X0312524Y0443803D03*
D38*
X0308783Y0327661D03*
X0308783Y0319787D03*
X0586783Y0319787D03*
X0586783Y0327661D03*
X0586783Y0115661D03*
X0586783Y0107787D03*
X0308783Y0107787D03*
X0308783Y0115661D03*
D39*
X0371429Y0105469D03*
X0093429Y0105469D03*
X0093429Y0317469D03*
X0371429Y0317469D03*
D40*
X0371331Y0315500D03*
X0371331Y0313531D03*
X0374717Y0313531D03*
X0374717Y0315500D03*
X0374717Y0317469D03*
X0096717Y0317469D03*
X0096717Y0315500D03*
X0096717Y0313531D03*
X0093331Y0313531D03*
X0093331Y0315500D03*
X0096717Y0105469D03*
X0096717Y0103500D03*
X0096717Y0101531D03*
X0093331Y0101531D03*
X0093331Y0103500D03*
X0371331Y0103500D03*
X0371331Y0101531D03*
X0374717Y0101531D03*
X0374717Y0103500D03*
X0374717Y0105469D03*
D41*
X0460996Y0063240D03*
X0460996Y0059500D03*
X0460996Y0055760D03*
X0470051Y0055760D03*
X0470051Y0059500D03*
X0470051Y0063240D03*
X0192051Y0063240D03*
X0192051Y0059500D03*
X0192051Y0055760D03*
X0182996Y0055760D03*
X0182996Y0059500D03*
X0182996Y0063240D03*
X0182996Y0267760D03*
X0182996Y0271500D03*
X0182996Y0275240D03*
X0192051Y0275240D03*
X0192051Y0271500D03*
X0192051Y0267760D03*
X0460996Y0267760D03*
X0460996Y0271500D03*
X0460996Y0275240D03*
X0470051Y0275240D03*
X0470051Y0271500D03*
X0470051Y0267760D03*
D42*
X0438476Y0204996D03*
X0436508Y0204996D03*
X0434539Y0204996D03*
X0432571Y0204996D03*
X0432571Y0192004D03*
X0434539Y0192004D03*
X0436508Y0192004D03*
X0438476Y0192004D03*
X0160476Y0192004D03*
X0158508Y0192004D03*
X0156539Y0192004D03*
X0154571Y0192004D03*
X0154571Y0204996D03*
X0156539Y0204996D03*
X0158508Y0204996D03*
X0160476Y0204996D03*
X0160476Y0404004D03*
X0158508Y0404004D03*
X0156539Y0404004D03*
X0154571Y0404004D03*
X0154571Y0416996D03*
X0156539Y0416996D03*
X0158508Y0416996D03*
X0160476Y0416996D03*
X0432571Y0416996D03*
X0434539Y0416996D03*
X0436508Y0416996D03*
X0438476Y0416996D03*
X0438476Y0404004D03*
X0436508Y0404004D03*
X0434539Y0404004D03*
X0432571Y0404004D03*
D43*
X0452846Y0399013D03*
X0455406Y0399013D03*
X0457965Y0399013D03*
X0460524Y0399013D03*
X0463083Y0399013D03*
X0465642Y0399013D03*
X0468201Y0399013D03*
X0468201Y0421987D03*
X0465642Y0421987D03*
X0463083Y0421987D03*
X0460524Y0421987D03*
X0457965Y0421987D03*
X0455406Y0421987D03*
X0452846Y0421987D03*
X0190201Y0421987D03*
X0187642Y0421987D03*
X0185083Y0421987D03*
X0182524Y0421987D03*
X0179965Y0421987D03*
X0177406Y0421987D03*
X0174846Y0421987D03*
X0174846Y0399013D03*
X0177406Y0399013D03*
X0179965Y0399013D03*
X0182524Y0399013D03*
X0185083Y0399013D03*
X0187642Y0399013D03*
X0190201Y0399013D03*
X0190201Y0209987D03*
X0187642Y0209987D03*
X0185083Y0209987D03*
X0182524Y0209987D03*
X0179965Y0209987D03*
X0177406Y0209987D03*
X0174846Y0209987D03*
X0174846Y0187013D03*
X0177406Y0187013D03*
X0179965Y0187013D03*
X0182524Y0187013D03*
X0185083Y0187013D03*
X0187642Y0187013D03*
X0190201Y0187013D03*
X0452846Y0187013D03*
X0455406Y0187013D03*
X0457965Y0187013D03*
X0460524Y0187013D03*
X0463083Y0187013D03*
X0465642Y0187013D03*
X0468201Y0187013D03*
X0468201Y0209987D03*
X0465642Y0209987D03*
X0463083Y0209987D03*
X0460524Y0209987D03*
X0457965Y0209987D03*
X0455406Y0209987D03*
X0452846Y0209987D03*
M02*
