G75*
%MOIN*%
%OFA0B0*%
%FSLAX25Y25*%
%IPPOS*%
%LPD*%
%AMOC8*
5,1,8,0,0,1.08239X$1,22.5*
%
%ADD10C,0.00800*%
%ADD11C,0.01100*%
%ADD12C,0.01000*%
%ADD13C,0.00000*%
D10*
X0062524Y0038500D02*
X0062524Y0238500D01*
X0330524Y0238500D01*
X0330524Y0028500D01*
X0072524Y0028500D01*
X0062524Y0038500D01*
X0340524Y0038500D02*
X0340524Y0238500D01*
X0608524Y0238500D01*
X0608524Y0028500D01*
X0350524Y0028500D01*
X0340524Y0038500D01*
X0350524Y0240500D02*
X0608524Y0240500D01*
X0608524Y0450500D01*
X0340524Y0450500D01*
X0340524Y0250500D01*
X0350524Y0240500D01*
X0330524Y0240500D02*
X0330524Y0450500D01*
X0062524Y0450500D01*
X0062524Y0250500D01*
X0072524Y0240500D01*
X0330524Y0240500D01*
D11*
X0332574Y0324045D02*
X0332574Y0325684D01*
X0332576Y0325763D01*
X0332582Y0325842D01*
X0332591Y0325921D01*
X0332605Y0325999D01*
X0332622Y0326076D01*
X0332642Y0326153D01*
X0332667Y0326228D01*
X0332695Y0326302D01*
X0332727Y0326375D01*
X0332762Y0326446D01*
X0332800Y0326515D01*
X0332842Y0326582D01*
X0332887Y0326647D01*
X0332935Y0326710D01*
X0332986Y0326771D01*
X0333040Y0326829D01*
X0333097Y0326884D01*
X0333156Y0326937D01*
X0333218Y0326986D01*
X0333282Y0327033D01*
X0333348Y0327076D01*
X0333416Y0327116D01*
X0333487Y0327153D01*
X0333558Y0327187D01*
X0333632Y0327216D01*
X0333707Y0327243D01*
X0333782Y0327265D01*
X0333859Y0327284D01*
X0333937Y0327300D01*
X0334015Y0327311D01*
X0334094Y0327319D01*
X0334173Y0327323D01*
X0334253Y0327323D01*
X0334332Y0327319D01*
X0334411Y0327311D01*
X0334489Y0327300D01*
X0334567Y0327284D01*
X0334644Y0327265D01*
X0334719Y0327243D01*
X0334794Y0327216D01*
X0334868Y0327187D01*
X0334939Y0327153D01*
X0335010Y0327116D01*
X0335078Y0327076D01*
X0335144Y0327033D01*
X0335208Y0326986D01*
X0335270Y0326937D01*
X0335329Y0326884D01*
X0335386Y0326829D01*
X0335440Y0326771D01*
X0335491Y0326710D01*
X0335539Y0326647D01*
X0335584Y0326582D01*
X0335626Y0326515D01*
X0335664Y0326446D01*
X0335699Y0326375D01*
X0335731Y0326302D01*
X0335759Y0326228D01*
X0335784Y0326153D01*
X0335804Y0326076D01*
X0335821Y0325999D01*
X0335835Y0325921D01*
X0335844Y0325842D01*
X0335850Y0325763D01*
X0335852Y0325684D01*
X0335851Y0325684D02*
X0335851Y0324045D01*
X0335851Y0326012D02*
X0338474Y0327323D01*
X0337163Y0330062D02*
X0335851Y0330062D01*
X0335780Y0330064D01*
X0335709Y0330070D01*
X0335639Y0330079D01*
X0335569Y0330093D01*
X0335500Y0330110D01*
X0335432Y0330131D01*
X0335366Y0330155D01*
X0335301Y0330183D01*
X0335237Y0330215D01*
X0335175Y0330250D01*
X0335115Y0330288D01*
X0335058Y0330329D01*
X0335002Y0330374D01*
X0334949Y0330421D01*
X0334899Y0330471D01*
X0334852Y0330524D01*
X0334807Y0330580D01*
X0334766Y0330637D01*
X0334728Y0330697D01*
X0334693Y0330759D01*
X0334661Y0330823D01*
X0334633Y0330888D01*
X0334609Y0330954D01*
X0334588Y0331022D01*
X0334571Y0331091D01*
X0334557Y0331161D01*
X0334548Y0331231D01*
X0334542Y0331302D01*
X0334540Y0331373D01*
X0334542Y0331444D01*
X0334548Y0331515D01*
X0334557Y0331585D01*
X0334571Y0331655D01*
X0334588Y0331724D01*
X0334609Y0331792D01*
X0334633Y0331858D01*
X0334661Y0331923D01*
X0334693Y0331987D01*
X0334728Y0332049D01*
X0334766Y0332109D01*
X0334807Y0332166D01*
X0334852Y0332222D01*
X0334899Y0332275D01*
X0334949Y0332325D01*
X0335002Y0332372D01*
X0335058Y0332417D01*
X0335115Y0332458D01*
X0335175Y0332496D01*
X0335237Y0332531D01*
X0335301Y0332563D01*
X0335366Y0332591D01*
X0335432Y0332615D01*
X0335500Y0332636D01*
X0335569Y0332653D01*
X0335639Y0332667D01*
X0335709Y0332676D01*
X0335780Y0332682D01*
X0335851Y0332684D01*
X0337163Y0332684D01*
X0337234Y0332682D01*
X0337305Y0332676D01*
X0337375Y0332667D01*
X0337445Y0332653D01*
X0337514Y0332636D01*
X0337582Y0332615D01*
X0337648Y0332591D01*
X0337713Y0332563D01*
X0337777Y0332531D01*
X0337839Y0332496D01*
X0337899Y0332458D01*
X0337956Y0332417D01*
X0338012Y0332372D01*
X0338065Y0332325D01*
X0338115Y0332275D01*
X0338162Y0332222D01*
X0338207Y0332166D01*
X0338248Y0332109D01*
X0338286Y0332049D01*
X0338321Y0331987D01*
X0338353Y0331923D01*
X0338381Y0331858D01*
X0338405Y0331792D01*
X0338426Y0331724D01*
X0338443Y0331655D01*
X0338457Y0331585D01*
X0338466Y0331515D01*
X0338472Y0331444D01*
X0338474Y0331373D01*
X0338472Y0331302D01*
X0338466Y0331231D01*
X0338457Y0331161D01*
X0338443Y0331091D01*
X0338426Y0331022D01*
X0338405Y0330954D01*
X0338381Y0330888D01*
X0338353Y0330823D01*
X0338321Y0330759D01*
X0338286Y0330697D01*
X0338248Y0330637D01*
X0338207Y0330580D01*
X0338162Y0330524D01*
X0338115Y0330471D01*
X0338065Y0330421D01*
X0338012Y0330374D01*
X0337956Y0330329D01*
X0337899Y0330288D01*
X0337839Y0330250D01*
X0337777Y0330215D01*
X0337713Y0330183D01*
X0337648Y0330155D01*
X0337582Y0330131D01*
X0337514Y0330110D01*
X0337445Y0330093D01*
X0337375Y0330079D01*
X0337305Y0330070D01*
X0337234Y0330064D01*
X0337163Y0330062D01*
X0338474Y0324045D02*
X0332574Y0324045D01*
X0334540Y0335601D02*
X0337490Y0335601D01*
X0337552Y0335603D01*
X0337613Y0335609D01*
X0337674Y0335618D01*
X0337734Y0335632D01*
X0337794Y0335649D01*
X0337852Y0335670D01*
X0337909Y0335695D01*
X0337964Y0335723D01*
X0338017Y0335754D01*
X0338068Y0335789D01*
X0338117Y0335827D01*
X0338163Y0335867D01*
X0338207Y0335911D01*
X0338247Y0335957D01*
X0338285Y0336006D01*
X0338320Y0336057D01*
X0338351Y0336110D01*
X0338379Y0336165D01*
X0338404Y0336222D01*
X0338425Y0336280D01*
X0338442Y0336340D01*
X0338456Y0336400D01*
X0338465Y0336461D01*
X0338471Y0336522D01*
X0338473Y0336584D01*
X0338474Y0336584D02*
X0338474Y0338223D01*
X0334540Y0338223D01*
X0334540Y0340578D02*
X0334540Y0342544D01*
X0332574Y0341233D02*
X0337490Y0341233D01*
X0337552Y0341235D01*
X0337613Y0341241D01*
X0337674Y0341250D01*
X0337734Y0341264D01*
X0337794Y0341281D01*
X0337852Y0341302D01*
X0337909Y0341327D01*
X0337964Y0341355D01*
X0338017Y0341386D01*
X0338068Y0341421D01*
X0338117Y0341459D01*
X0338163Y0341499D01*
X0338207Y0341543D01*
X0338247Y0341589D01*
X0338285Y0341638D01*
X0338320Y0341689D01*
X0338351Y0341742D01*
X0338379Y0341797D01*
X0338404Y0341854D01*
X0338425Y0341912D01*
X0338442Y0341972D01*
X0338456Y0342032D01*
X0338465Y0342093D01*
X0338471Y0342154D01*
X0338473Y0342216D01*
X0338474Y0342216D02*
X0338474Y0342544D01*
X0337490Y0345037D02*
X0335851Y0345037D01*
X0336507Y0345037D02*
X0336507Y0347659D01*
X0335851Y0347659D01*
X0335780Y0347657D01*
X0335709Y0347651D01*
X0335639Y0347642D01*
X0335569Y0347628D01*
X0335500Y0347611D01*
X0335432Y0347590D01*
X0335366Y0347566D01*
X0335301Y0347538D01*
X0335237Y0347506D01*
X0335175Y0347471D01*
X0335115Y0347433D01*
X0335058Y0347392D01*
X0335002Y0347347D01*
X0334949Y0347300D01*
X0334899Y0347250D01*
X0334852Y0347197D01*
X0334807Y0347141D01*
X0334766Y0347084D01*
X0334728Y0347024D01*
X0334693Y0346962D01*
X0334661Y0346898D01*
X0334633Y0346833D01*
X0334609Y0346767D01*
X0334588Y0346699D01*
X0334571Y0346630D01*
X0334557Y0346560D01*
X0334548Y0346490D01*
X0334542Y0346419D01*
X0334540Y0346348D01*
X0334542Y0346277D01*
X0334548Y0346206D01*
X0334557Y0346136D01*
X0334571Y0346066D01*
X0334588Y0345997D01*
X0334609Y0345929D01*
X0334633Y0345863D01*
X0334661Y0345798D01*
X0334693Y0345734D01*
X0334728Y0345672D01*
X0334766Y0345612D01*
X0334807Y0345555D01*
X0334852Y0345499D01*
X0334899Y0345446D01*
X0334949Y0345396D01*
X0335002Y0345349D01*
X0335058Y0345304D01*
X0335115Y0345263D01*
X0335175Y0345225D01*
X0335237Y0345190D01*
X0335301Y0345158D01*
X0335366Y0345130D01*
X0335432Y0345106D01*
X0335500Y0345085D01*
X0335569Y0345068D01*
X0335639Y0345054D01*
X0335709Y0345045D01*
X0335780Y0345039D01*
X0335851Y0345037D01*
X0337490Y0345037D02*
X0337552Y0345039D01*
X0337613Y0345045D01*
X0337674Y0345054D01*
X0337734Y0345068D01*
X0337794Y0345085D01*
X0337852Y0345106D01*
X0337909Y0345131D01*
X0337964Y0345159D01*
X0338017Y0345190D01*
X0338068Y0345225D01*
X0338117Y0345263D01*
X0338163Y0345303D01*
X0338207Y0345347D01*
X0338247Y0345393D01*
X0338285Y0345442D01*
X0338320Y0345493D01*
X0338351Y0345546D01*
X0338379Y0345601D01*
X0338404Y0345658D01*
X0338425Y0345716D01*
X0338442Y0345776D01*
X0338456Y0345836D01*
X0338465Y0345897D01*
X0338471Y0345958D01*
X0338473Y0346020D01*
X0338474Y0346020D02*
X0338474Y0347659D01*
X0336835Y0353735D02*
X0334213Y0353735D01*
X0334134Y0353737D01*
X0334055Y0353743D01*
X0333976Y0353752D01*
X0333898Y0353766D01*
X0333821Y0353783D01*
X0333744Y0353803D01*
X0333669Y0353828D01*
X0333595Y0353856D01*
X0333522Y0353888D01*
X0333451Y0353923D01*
X0333382Y0353961D01*
X0333315Y0354003D01*
X0333250Y0354048D01*
X0333187Y0354096D01*
X0333126Y0354147D01*
X0333068Y0354201D01*
X0333013Y0354258D01*
X0332960Y0354317D01*
X0332911Y0354379D01*
X0332864Y0354443D01*
X0332821Y0354509D01*
X0332781Y0354577D01*
X0332744Y0354648D01*
X0332710Y0354719D01*
X0332681Y0354793D01*
X0332654Y0354868D01*
X0332632Y0354943D01*
X0332613Y0355020D01*
X0332597Y0355098D01*
X0332586Y0355176D01*
X0332578Y0355255D01*
X0332574Y0355334D01*
X0332574Y0355414D01*
X0332578Y0355493D01*
X0332586Y0355572D01*
X0332597Y0355650D01*
X0332613Y0355728D01*
X0332632Y0355805D01*
X0332654Y0355880D01*
X0332681Y0355955D01*
X0332710Y0356029D01*
X0332744Y0356100D01*
X0332781Y0356171D01*
X0332821Y0356239D01*
X0332864Y0356305D01*
X0332911Y0356369D01*
X0332960Y0356431D01*
X0333013Y0356490D01*
X0333068Y0356547D01*
X0333126Y0356601D01*
X0333187Y0356652D01*
X0333250Y0356700D01*
X0333315Y0356745D01*
X0333382Y0356787D01*
X0333451Y0356825D01*
X0333522Y0356860D01*
X0333595Y0356892D01*
X0333669Y0356920D01*
X0333744Y0356945D01*
X0333821Y0356965D01*
X0333898Y0356982D01*
X0333976Y0356996D01*
X0334055Y0357005D01*
X0334134Y0357011D01*
X0334213Y0357013D01*
X0336835Y0357013D01*
X0336914Y0357011D01*
X0336993Y0357005D01*
X0337072Y0356996D01*
X0337150Y0356982D01*
X0337227Y0356965D01*
X0337304Y0356945D01*
X0337379Y0356920D01*
X0337453Y0356892D01*
X0337526Y0356860D01*
X0337597Y0356825D01*
X0337666Y0356787D01*
X0337733Y0356745D01*
X0337798Y0356700D01*
X0337861Y0356652D01*
X0337922Y0356601D01*
X0337980Y0356547D01*
X0338035Y0356490D01*
X0338088Y0356431D01*
X0338137Y0356369D01*
X0338184Y0356305D01*
X0338227Y0356239D01*
X0338267Y0356171D01*
X0338304Y0356100D01*
X0338338Y0356029D01*
X0338367Y0355955D01*
X0338394Y0355880D01*
X0338416Y0355805D01*
X0338435Y0355728D01*
X0338451Y0355650D01*
X0338462Y0355572D01*
X0338470Y0355493D01*
X0338474Y0355414D01*
X0338474Y0355334D01*
X0338470Y0355255D01*
X0338462Y0355176D01*
X0338451Y0355098D01*
X0338435Y0355020D01*
X0338416Y0354943D01*
X0338394Y0354868D01*
X0338367Y0354793D01*
X0338338Y0354719D01*
X0338304Y0354648D01*
X0338267Y0354577D01*
X0338227Y0354509D01*
X0338184Y0354443D01*
X0338137Y0354379D01*
X0338088Y0354317D01*
X0338035Y0354258D01*
X0337980Y0354201D01*
X0337922Y0354147D01*
X0337861Y0354096D01*
X0337798Y0354048D01*
X0337733Y0354003D01*
X0337666Y0353961D01*
X0337597Y0353923D01*
X0337526Y0353888D01*
X0337453Y0353856D01*
X0337379Y0353828D01*
X0337304Y0353803D01*
X0337227Y0353783D01*
X0337150Y0353766D01*
X0337072Y0353752D01*
X0336993Y0353743D01*
X0336914Y0353737D01*
X0336835Y0353735D01*
X0337490Y0360012D02*
X0334540Y0360012D01*
X0334540Y0362634D02*
X0338474Y0362634D01*
X0338474Y0360995D01*
X0338473Y0360995D02*
X0338471Y0360933D01*
X0338465Y0360872D01*
X0338456Y0360811D01*
X0338442Y0360751D01*
X0338425Y0360691D01*
X0338404Y0360633D01*
X0338379Y0360576D01*
X0338351Y0360521D01*
X0338320Y0360468D01*
X0338285Y0360417D01*
X0338247Y0360368D01*
X0338207Y0360322D01*
X0338163Y0360278D01*
X0338117Y0360238D01*
X0338068Y0360200D01*
X0338017Y0360165D01*
X0337964Y0360134D01*
X0337909Y0360106D01*
X0337852Y0360081D01*
X0337794Y0360060D01*
X0337734Y0360043D01*
X0337674Y0360029D01*
X0337613Y0360020D01*
X0337552Y0360014D01*
X0337490Y0360012D01*
X0337490Y0365644D02*
X0332574Y0365644D01*
X0334540Y0364988D02*
X0334540Y0366955D01*
X0337490Y0365644D02*
X0337552Y0365646D01*
X0337613Y0365652D01*
X0337674Y0365661D01*
X0337734Y0365675D01*
X0337794Y0365692D01*
X0337852Y0365713D01*
X0337909Y0365738D01*
X0337964Y0365766D01*
X0338017Y0365797D01*
X0338068Y0365832D01*
X0338117Y0365870D01*
X0338163Y0365910D01*
X0338207Y0365954D01*
X0338247Y0366000D01*
X0338285Y0366049D01*
X0338320Y0366100D01*
X0338351Y0366153D01*
X0338379Y0366208D01*
X0338404Y0366265D01*
X0338425Y0366323D01*
X0338442Y0366383D01*
X0338456Y0366443D01*
X0338465Y0366504D01*
X0338471Y0366565D01*
X0338473Y0366627D01*
X0338474Y0366627D02*
X0338474Y0366955D01*
X0610574Y0365644D02*
X0615490Y0365644D01*
X0615552Y0365646D01*
X0615613Y0365652D01*
X0615674Y0365661D01*
X0615734Y0365675D01*
X0615794Y0365692D01*
X0615852Y0365713D01*
X0615909Y0365738D01*
X0615964Y0365766D01*
X0616017Y0365797D01*
X0616068Y0365832D01*
X0616117Y0365870D01*
X0616163Y0365910D01*
X0616207Y0365954D01*
X0616247Y0366000D01*
X0616285Y0366049D01*
X0616320Y0366100D01*
X0616351Y0366153D01*
X0616379Y0366208D01*
X0616404Y0366265D01*
X0616425Y0366323D01*
X0616442Y0366383D01*
X0616456Y0366443D01*
X0616465Y0366504D01*
X0616471Y0366565D01*
X0616473Y0366627D01*
X0616474Y0366627D02*
X0616474Y0366955D01*
X0612540Y0366955D02*
X0612540Y0364988D01*
X0612540Y0362634D02*
X0616474Y0362634D01*
X0616474Y0360995D01*
X0616473Y0360995D02*
X0616471Y0360933D01*
X0616465Y0360872D01*
X0616456Y0360811D01*
X0616442Y0360751D01*
X0616425Y0360691D01*
X0616404Y0360633D01*
X0616379Y0360576D01*
X0616351Y0360521D01*
X0616320Y0360468D01*
X0616285Y0360417D01*
X0616247Y0360368D01*
X0616207Y0360322D01*
X0616163Y0360278D01*
X0616117Y0360238D01*
X0616068Y0360200D01*
X0616017Y0360165D01*
X0615964Y0360134D01*
X0615909Y0360106D01*
X0615852Y0360081D01*
X0615794Y0360060D01*
X0615734Y0360043D01*
X0615674Y0360029D01*
X0615613Y0360020D01*
X0615552Y0360014D01*
X0615490Y0360012D01*
X0612540Y0360012D01*
X0612213Y0357013D02*
X0614835Y0357013D01*
X0614914Y0357011D01*
X0614993Y0357005D01*
X0615072Y0356996D01*
X0615150Y0356982D01*
X0615227Y0356965D01*
X0615304Y0356945D01*
X0615379Y0356920D01*
X0615453Y0356892D01*
X0615526Y0356860D01*
X0615597Y0356825D01*
X0615666Y0356787D01*
X0615733Y0356745D01*
X0615798Y0356700D01*
X0615861Y0356652D01*
X0615922Y0356601D01*
X0615980Y0356547D01*
X0616035Y0356490D01*
X0616088Y0356431D01*
X0616137Y0356369D01*
X0616184Y0356305D01*
X0616227Y0356239D01*
X0616267Y0356171D01*
X0616304Y0356100D01*
X0616338Y0356029D01*
X0616367Y0355955D01*
X0616394Y0355880D01*
X0616416Y0355805D01*
X0616435Y0355728D01*
X0616451Y0355650D01*
X0616462Y0355572D01*
X0616470Y0355493D01*
X0616474Y0355414D01*
X0616474Y0355334D01*
X0616470Y0355255D01*
X0616462Y0355176D01*
X0616451Y0355098D01*
X0616435Y0355020D01*
X0616416Y0354943D01*
X0616394Y0354868D01*
X0616367Y0354793D01*
X0616338Y0354719D01*
X0616304Y0354648D01*
X0616267Y0354577D01*
X0616227Y0354509D01*
X0616184Y0354443D01*
X0616137Y0354379D01*
X0616088Y0354317D01*
X0616035Y0354258D01*
X0615980Y0354201D01*
X0615922Y0354147D01*
X0615861Y0354096D01*
X0615798Y0354048D01*
X0615733Y0354003D01*
X0615666Y0353961D01*
X0615597Y0353923D01*
X0615526Y0353888D01*
X0615453Y0353856D01*
X0615379Y0353828D01*
X0615304Y0353803D01*
X0615227Y0353783D01*
X0615150Y0353766D01*
X0615072Y0353752D01*
X0614993Y0353743D01*
X0614914Y0353737D01*
X0614835Y0353735D01*
X0612213Y0353735D01*
X0612134Y0353737D01*
X0612055Y0353743D01*
X0611976Y0353752D01*
X0611898Y0353766D01*
X0611821Y0353783D01*
X0611744Y0353803D01*
X0611669Y0353828D01*
X0611595Y0353856D01*
X0611522Y0353888D01*
X0611451Y0353923D01*
X0611382Y0353961D01*
X0611315Y0354003D01*
X0611250Y0354048D01*
X0611187Y0354096D01*
X0611126Y0354147D01*
X0611068Y0354201D01*
X0611013Y0354258D01*
X0610960Y0354317D01*
X0610911Y0354379D01*
X0610864Y0354443D01*
X0610821Y0354509D01*
X0610781Y0354577D01*
X0610744Y0354648D01*
X0610710Y0354719D01*
X0610681Y0354793D01*
X0610654Y0354868D01*
X0610632Y0354943D01*
X0610613Y0355020D01*
X0610597Y0355098D01*
X0610586Y0355176D01*
X0610578Y0355255D01*
X0610574Y0355334D01*
X0610574Y0355414D01*
X0610578Y0355493D01*
X0610586Y0355572D01*
X0610597Y0355650D01*
X0610613Y0355728D01*
X0610632Y0355805D01*
X0610654Y0355880D01*
X0610681Y0355955D01*
X0610710Y0356029D01*
X0610744Y0356100D01*
X0610781Y0356171D01*
X0610821Y0356239D01*
X0610864Y0356305D01*
X0610911Y0356369D01*
X0610960Y0356431D01*
X0611013Y0356490D01*
X0611068Y0356547D01*
X0611126Y0356601D01*
X0611187Y0356652D01*
X0611250Y0356700D01*
X0611315Y0356745D01*
X0611382Y0356787D01*
X0611451Y0356825D01*
X0611522Y0356860D01*
X0611595Y0356892D01*
X0611669Y0356920D01*
X0611744Y0356945D01*
X0611821Y0356965D01*
X0611898Y0356982D01*
X0611976Y0356996D01*
X0612055Y0357005D01*
X0612134Y0357011D01*
X0612213Y0357013D01*
X0613851Y0347659D02*
X0614507Y0347659D01*
X0614507Y0345037D01*
X0613851Y0345037D02*
X0615490Y0345037D01*
X0615552Y0345039D01*
X0615613Y0345045D01*
X0615674Y0345054D01*
X0615734Y0345068D01*
X0615794Y0345085D01*
X0615852Y0345106D01*
X0615909Y0345131D01*
X0615964Y0345159D01*
X0616017Y0345190D01*
X0616068Y0345225D01*
X0616117Y0345263D01*
X0616163Y0345303D01*
X0616207Y0345347D01*
X0616247Y0345393D01*
X0616285Y0345442D01*
X0616320Y0345493D01*
X0616351Y0345546D01*
X0616379Y0345601D01*
X0616404Y0345658D01*
X0616425Y0345716D01*
X0616442Y0345776D01*
X0616456Y0345836D01*
X0616465Y0345897D01*
X0616471Y0345958D01*
X0616473Y0346020D01*
X0616474Y0346020D02*
X0616474Y0347659D01*
X0613851Y0347659D02*
X0613780Y0347657D01*
X0613709Y0347651D01*
X0613639Y0347642D01*
X0613569Y0347628D01*
X0613500Y0347611D01*
X0613432Y0347590D01*
X0613366Y0347566D01*
X0613301Y0347538D01*
X0613237Y0347506D01*
X0613175Y0347471D01*
X0613115Y0347433D01*
X0613058Y0347392D01*
X0613002Y0347347D01*
X0612949Y0347300D01*
X0612899Y0347250D01*
X0612852Y0347197D01*
X0612807Y0347141D01*
X0612766Y0347084D01*
X0612728Y0347024D01*
X0612693Y0346962D01*
X0612661Y0346898D01*
X0612633Y0346833D01*
X0612609Y0346767D01*
X0612588Y0346699D01*
X0612571Y0346630D01*
X0612557Y0346560D01*
X0612548Y0346490D01*
X0612542Y0346419D01*
X0612540Y0346348D01*
X0612542Y0346277D01*
X0612548Y0346206D01*
X0612557Y0346136D01*
X0612571Y0346066D01*
X0612588Y0345997D01*
X0612609Y0345929D01*
X0612633Y0345863D01*
X0612661Y0345798D01*
X0612693Y0345734D01*
X0612728Y0345672D01*
X0612766Y0345612D01*
X0612807Y0345555D01*
X0612852Y0345499D01*
X0612899Y0345446D01*
X0612949Y0345396D01*
X0613002Y0345349D01*
X0613058Y0345304D01*
X0613115Y0345263D01*
X0613175Y0345225D01*
X0613237Y0345190D01*
X0613301Y0345158D01*
X0613366Y0345130D01*
X0613432Y0345106D01*
X0613500Y0345085D01*
X0613569Y0345068D01*
X0613639Y0345054D01*
X0613709Y0345045D01*
X0613780Y0345039D01*
X0613851Y0345037D01*
X0612540Y0342544D02*
X0612540Y0340578D01*
X0610574Y0341233D02*
X0615490Y0341233D01*
X0615552Y0341235D01*
X0615613Y0341241D01*
X0615674Y0341250D01*
X0615734Y0341264D01*
X0615794Y0341281D01*
X0615852Y0341302D01*
X0615909Y0341327D01*
X0615964Y0341355D01*
X0616017Y0341386D01*
X0616068Y0341421D01*
X0616117Y0341459D01*
X0616163Y0341499D01*
X0616207Y0341543D01*
X0616247Y0341589D01*
X0616285Y0341638D01*
X0616320Y0341689D01*
X0616351Y0341742D01*
X0616379Y0341797D01*
X0616404Y0341854D01*
X0616425Y0341912D01*
X0616442Y0341972D01*
X0616456Y0342032D01*
X0616465Y0342093D01*
X0616471Y0342154D01*
X0616473Y0342216D01*
X0616474Y0342216D02*
X0616474Y0342544D01*
X0616474Y0338223D02*
X0612540Y0338223D01*
X0612540Y0335601D02*
X0615490Y0335601D01*
X0615552Y0335603D01*
X0615613Y0335609D01*
X0615674Y0335618D01*
X0615734Y0335632D01*
X0615794Y0335649D01*
X0615852Y0335670D01*
X0615909Y0335695D01*
X0615964Y0335723D01*
X0616017Y0335754D01*
X0616068Y0335789D01*
X0616117Y0335827D01*
X0616163Y0335867D01*
X0616207Y0335911D01*
X0616247Y0335957D01*
X0616285Y0336006D01*
X0616320Y0336057D01*
X0616351Y0336110D01*
X0616379Y0336165D01*
X0616404Y0336222D01*
X0616425Y0336280D01*
X0616442Y0336340D01*
X0616456Y0336400D01*
X0616465Y0336461D01*
X0616471Y0336522D01*
X0616473Y0336584D01*
X0616474Y0336584D02*
X0616474Y0338223D01*
X0615163Y0332684D02*
X0613851Y0332684D01*
X0613780Y0332682D01*
X0613709Y0332676D01*
X0613639Y0332667D01*
X0613569Y0332653D01*
X0613500Y0332636D01*
X0613432Y0332615D01*
X0613366Y0332591D01*
X0613301Y0332563D01*
X0613237Y0332531D01*
X0613175Y0332496D01*
X0613115Y0332458D01*
X0613058Y0332417D01*
X0613002Y0332372D01*
X0612949Y0332325D01*
X0612899Y0332275D01*
X0612852Y0332222D01*
X0612807Y0332166D01*
X0612766Y0332109D01*
X0612728Y0332049D01*
X0612693Y0331987D01*
X0612661Y0331923D01*
X0612633Y0331858D01*
X0612609Y0331792D01*
X0612588Y0331724D01*
X0612571Y0331655D01*
X0612557Y0331585D01*
X0612548Y0331515D01*
X0612542Y0331444D01*
X0612540Y0331373D01*
X0612542Y0331302D01*
X0612548Y0331231D01*
X0612557Y0331161D01*
X0612571Y0331091D01*
X0612588Y0331022D01*
X0612609Y0330954D01*
X0612633Y0330888D01*
X0612661Y0330823D01*
X0612693Y0330759D01*
X0612728Y0330697D01*
X0612766Y0330637D01*
X0612807Y0330580D01*
X0612852Y0330524D01*
X0612899Y0330471D01*
X0612949Y0330421D01*
X0613002Y0330374D01*
X0613058Y0330329D01*
X0613115Y0330288D01*
X0613175Y0330250D01*
X0613237Y0330215D01*
X0613301Y0330183D01*
X0613366Y0330155D01*
X0613432Y0330131D01*
X0613500Y0330110D01*
X0613569Y0330093D01*
X0613639Y0330079D01*
X0613709Y0330070D01*
X0613780Y0330064D01*
X0613851Y0330062D01*
X0615163Y0330062D01*
X0615234Y0330064D01*
X0615305Y0330070D01*
X0615375Y0330079D01*
X0615445Y0330093D01*
X0615514Y0330110D01*
X0615582Y0330131D01*
X0615648Y0330155D01*
X0615713Y0330183D01*
X0615777Y0330215D01*
X0615839Y0330250D01*
X0615899Y0330288D01*
X0615956Y0330329D01*
X0616012Y0330374D01*
X0616065Y0330421D01*
X0616115Y0330471D01*
X0616162Y0330524D01*
X0616207Y0330580D01*
X0616248Y0330637D01*
X0616286Y0330697D01*
X0616321Y0330759D01*
X0616353Y0330823D01*
X0616381Y0330888D01*
X0616405Y0330954D01*
X0616426Y0331022D01*
X0616443Y0331091D01*
X0616457Y0331161D01*
X0616466Y0331231D01*
X0616472Y0331302D01*
X0616474Y0331373D01*
X0616472Y0331444D01*
X0616466Y0331515D01*
X0616457Y0331585D01*
X0616443Y0331655D01*
X0616426Y0331724D01*
X0616405Y0331792D01*
X0616381Y0331858D01*
X0616353Y0331923D01*
X0616321Y0331987D01*
X0616286Y0332049D01*
X0616248Y0332109D01*
X0616207Y0332166D01*
X0616162Y0332222D01*
X0616115Y0332275D01*
X0616065Y0332325D01*
X0616012Y0332372D01*
X0615956Y0332417D01*
X0615899Y0332458D01*
X0615839Y0332496D01*
X0615777Y0332531D01*
X0615713Y0332563D01*
X0615648Y0332591D01*
X0615582Y0332615D01*
X0615514Y0332636D01*
X0615445Y0332653D01*
X0615375Y0332667D01*
X0615305Y0332676D01*
X0615234Y0332682D01*
X0615163Y0332684D01*
X0616474Y0327323D02*
X0613851Y0326012D01*
X0613851Y0325684D02*
X0613851Y0324045D01*
X0613852Y0325684D02*
X0613850Y0325763D01*
X0613844Y0325842D01*
X0613835Y0325921D01*
X0613821Y0325999D01*
X0613804Y0326076D01*
X0613784Y0326153D01*
X0613759Y0326228D01*
X0613731Y0326302D01*
X0613699Y0326375D01*
X0613664Y0326446D01*
X0613626Y0326515D01*
X0613584Y0326582D01*
X0613539Y0326647D01*
X0613491Y0326710D01*
X0613440Y0326771D01*
X0613386Y0326829D01*
X0613329Y0326884D01*
X0613270Y0326937D01*
X0613208Y0326986D01*
X0613144Y0327033D01*
X0613078Y0327076D01*
X0613010Y0327116D01*
X0612939Y0327153D01*
X0612868Y0327187D01*
X0612794Y0327216D01*
X0612719Y0327243D01*
X0612644Y0327265D01*
X0612567Y0327284D01*
X0612489Y0327300D01*
X0612411Y0327311D01*
X0612332Y0327319D01*
X0612253Y0327323D01*
X0612173Y0327323D01*
X0612094Y0327319D01*
X0612015Y0327311D01*
X0611937Y0327300D01*
X0611859Y0327284D01*
X0611782Y0327265D01*
X0611707Y0327243D01*
X0611632Y0327216D01*
X0611558Y0327187D01*
X0611487Y0327153D01*
X0611416Y0327116D01*
X0611348Y0327076D01*
X0611282Y0327033D01*
X0611218Y0326986D01*
X0611156Y0326937D01*
X0611097Y0326884D01*
X0611040Y0326829D01*
X0610986Y0326771D01*
X0610935Y0326710D01*
X0610887Y0326647D01*
X0610842Y0326582D01*
X0610800Y0326515D01*
X0610762Y0326446D01*
X0610727Y0326375D01*
X0610695Y0326302D01*
X0610667Y0326228D01*
X0610642Y0326153D01*
X0610622Y0326076D01*
X0610605Y0325999D01*
X0610591Y0325921D01*
X0610582Y0325842D01*
X0610576Y0325763D01*
X0610574Y0325684D01*
X0610574Y0324045D01*
X0616474Y0324045D01*
X0616474Y0154955D02*
X0616474Y0154627D01*
X0616473Y0154627D02*
X0616471Y0154565D01*
X0616465Y0154504D01*
X0616456Y0154443D01*
X0616442Y0154383D01*
X0616425Y0154323D01*
X0616404Y0154265D01*
X0616379Y0154208D01*
X0616351Y0154153D01*
X0616320Y0154100D01*
X0616285Y0154049D01*
X0616247Y0154000D01*
X0616207Y0153954D01*
X0616163Y0153910D01*
X0616117Y0153870D01*
X0616068Y0153832D01*
X0616017Y0153797D01*
X0615964Y0153766D01*
X0615909Y0153738D01*
X0615852Y0153713D01*
X0615794Y0153692D01*
X0615734Y0153675D01*
X0615674Y0153661D01*
X0615613Y0153652D01*
X0615552Y0153646D01*
X0615490Y0153644D01*
X0610574Y0153644D01*
X0612540Y0152988D02*
X0612540Y0154955D01*
X0612540Y0150634D02*
X0616474Y0150634D01*
X0616474Y0148995D01*
X0616473Y0148995D02*
X0616471Y0148933D01*
X0616465Y0148872D01*
X0616456Y0148811D01*
X0616442Y0148751D01*
X0616425Y0148691D01*
X0616404Y0148633D01*
X0616379Y0148576D01*
X0616351Y0148521D01*
X0616320Y0148468D01*
X0616285Y0148417D01*
X0616247Y0148368D01*
X0616207Y0148322D01*
X0616163Y0148278D01*
X0616117Y0148238D01*
X0616068Y0148200D01*
X0616017Y0148165D01*
X0615964Y0148134D01*
X0615909Y0148106D01*
X0615852Y0148081D01*
X0615794Y0148060D01*
X0615734Y0148043D01*
X0615674Y0148029D01*
X0615613Y0148020D01*
X0615552Y0148014D01*
X0615490Y0148012D01*
X0612540Y0148012D01*
X0612213Y0145013D02*
X0614835Y0145013D01*
X0614914Y0145011D01*
X0614993Y0145005D01*
X0615072Y0144996D01*
X0615150Y0144982D01*
X0615227Y0144965D01*
X0615304Y0144945D01*
X0615379Y0144920D01*
X0615453Y0144892D01*
X0615526Y0144860D01*
X0615597Y0144825D01*
X0615666Y0144787D01*
X0615733Y0144745D01*
X0615798Y0144700D01*
X0615861Y0144652D01*
X0615922Y0144601D01*
X0615980Y0144547D01*
X0616035Y0144490D01*
X0616088Y0144431D01*
X0616137Y0144369D01*
X0616184Y0144305D01*
X0616227Y0144239D01*
X0616267Y0144171D01*
X0616304Y0144100D01*
X0616338Y0144029D01*
X0616367Y0143955D01*
X0616394Y0143880D01*
X0616416Y0143805D01*
X0616435Y0143728D01*
X0616451Y0143650D01*
X0616462Y0143572D01*
X0616470Y0143493D01*
X0616474Y0143414D01*
X0616474Y0143334D01*
X0616470Y0143255D01*
X0616462Y0143176D01*
X0616451Y0143098D01*
X0616435Y0143020D01*
X0616416Y0142943D01*
X0616394Y0142868D01*
X0616367Y0142793D01*
X0616338Y0142719D01*
X0616304Y0142648D01*
X0616267Y0142577D01*
X0616227Y0142509D01*
X0616184Y0142443D01*
X0616137Y0142379D01*
X0616088Y0142317D01*
X0616035Y0142258D01*
X0615980Y0142201D01*
X0615922Y0142147D01*
X0615861Y0142096D01*
X0615798Y0142048D01*
X0615733Y0142003D01*
X0615666Y0141961D01*
X0615597Y0141923D01*
X0615526Y0141888D01*
X0615453Y0141856D01*
X0615379Y0141828D01*
X0615304Y0141803D01*
X0615227Y0141783D01*
X0615150Y0141766D01*
X0615072Y0141752D01*
X0614993Y0141743D01*
X0614914Y0141737D01*
X0614835Y0141735D01*
X0612213Y0141735D01*
X0612134Y0141737D01*
X0612055Y0141743D01*
X0611976Y0141752D01*
X0611898Y0141766D01*
X0611821Y0141783D01*
X0611744Y0141803D01*
X0611669Y0141828D01*
X0611595Y0141856D01*
X0611522Y0141888D01*
X0611451Y0141923D01*
X0611382Y0141961D01*
X0611315Y0142003D01*
X0611250Y0142048D01*
X0611187Y0142096D01*
X0611126Y0142147D01*
X0611068Y0142201D01*
X0611013Y0142258D01*
X0610960Y0142317D01*
X0610911Y0142379D01*
X0610864Y0142443D01*
X0610821Y0142509D01*
X0610781Y0142577D01*
X0610744Y0142648D01*
X0610710Y0142719D01*
X0610681Y0142793D01*
X0610654Y0142868D01*
X0610632Y0142943D01*
X0610613Y0143020D01*
X0610597Y0143098D01*
X0610586Y0143176D01*
X0610578Y0143255D01*
X0610574Y0143334D01*
X0610574Y0143414D01*
X0610578Y0143493D01*
X0610586Y0143572D01*
X0610597Y0143650D01*
X0610613Y0143728D01*
X0610632Y0143805D01*
X0610654Y0143880D01*
X0610681Y0143955D01*
X0610710Y0144029D01*
X0610744Y0144100D01*
X0610781Y0144171D01*
X0610821Y0144239D01*
X0610864Y0144305D01*
X0610911Y0144369D01*
X0610960Y0144431D01*
X0611013Y0144490D01*
X0611068Y0144547D01*
X0611126Y0144601D01*
X0611187Y0144652D01*
X0611250Y0144700D01*
X0611315Y0144745D01*
X0611382Y0144787D01*
X0611451Y0144825D01*
X0611522Y0144860D01*
X0611595Y0144892D01*
X0611669Y0144920D01*
X0611744Y0144945D01*
X0611821Y0144965D01*
X0611898Y0144982D01*
X0611976Y0144996D01*
X0612055Y0145005D01*
X0612134Y0145011D01*
X0612213Y0145013D01*
X0613851Y0135659D02*
X0614507Y0135659D01*
X0614507Y0133037D01*
X0613851Y0133037D02*
X0615490Y0133037D01*
X0615552Y0133039D01*
X0615613Y0133045D01*
X0615674Y0133054D01*
X0615734Y0133068D01*
X0615794Y0133085D01*
X0615852Y0133106D01*
X0615909Y0133131D01*
X0615964Y0133159D01*
X0616017Y0133190D01*
X0616068Y0133225D01*
X0616117Y0133263D01*
X0616163Y0133303D01*
X0616207Y0133347D01*
X0616247Y0133393D01*
X0616285Y0133442D01*
X0616320Y0133493D01*
X0616351Y0133546D01*
X0616379Y0133601D01*
X0616404Y0133658D01*
X0616425Y0133716D01*
X0616442Y0133776D01*
X0616456Y0133836D01*
X0616465Y0133897D01*
X0616471Y0133958D01*
X0616473Y0134020D01*
X0616474Y0134020D02*
X0616474Y0135659D01*
X0613851Y0135659D02*
X0613780Y0135657D01*
X0613709Y0135651D01*
X0613639Y0135642D01*
X0613569Y0135628D01*
X0613500Y0135611D01*
X0613432Y0135590D01*
X0613366Y0135566D01*
X0613301Y0135538D01*
X0613237Y0135506D01*
X0613175Y0135471D01*
X0613115Y0135433D01*
X0613058Y0135392D01*
X0613002Y0135347D01*
X0612949Y0135300D01*
X0612899Y0135250D01*
X0612852Y0135197D01*
X0612807Y0135141D01*
X0612766Y0135084D01*
X0612728Y0135024D01*
X0612693Y0134962D01*
X0612661Y0134898D01*
X0612633Y0134833D01*
X0612609Y0134767D01*
X0612588Y0134699D01*
X0612571Y0134630D01*
X0612557Y0134560D01*
X0612548Y0134490D01*
X0612542Y0134419D01*
X0612540Y0134348D01*
X0612542Y0134277D01*
X0612548Y0134206D01*
X0612557Y0134136D01*
X0612571Y0134066D01*
X0612588Y0133997D01*
X0612609Y0133929D01*
X0612633Y0133863D01*
X0612661Y0133798D01*
X0612693Y0133734D01*
X0612728Y0133672D01*
X0612766Y0133612D01*
X0612807Y0133555D01*
X0612852Y0133499D01*
X0612899Y0133446D01*
X0612949Y0133396D01*
X0613002Y0133349D01*
X0613058Y0133304D01*
X0613115Y0133263D01*
X0613175Y0133225D01*
X0613237Y0133190D01*
X0613301Y0133158D01*
X0613366Y0133130D01*
X0613432Y0133106D01*
X0613500Y0133085D01*
X0613569Y0133068D01*
X0613639Y0133054D01*
X0613709Y0133045D01*
X0613780Y0133039D01*
X0613851Y0133037D01*
X0612540Y0130544D02*
X0612540Y0128578D01*
X0610574Y0129233D02*
X0615490Y0129233D01*
X0615552Y0129235D01*
X0615613Y0129241D01*
X0615674Y0129250D01*
X0615734Y0129264D01*
X0615794Y0129281D01*
X0615852Y0129302D01*
X0615909Y0129327D01*
X0615964Y0129355D01*
X0616017Y0129386D01*
X0616068Y0129421D01*
X0616117Y0129459D01*
X0616163Y0129499D01*
X0616207Y0129543D01*
X0616247Y0129589D01*
X0616285Y0129638D01*
X0616320Y0129689D01*
X0616351Y0129742D01*
X0616379Y0129797D01*
X0616404Y0129854D01*
X0616425Y0129912D01*
X0616442Y0129972D01*
X0616456Y0130032D01*
X0616465Y0130093D01*
X0616471Y0130154D01*
X0616473Y0130216D01*
X0616474Y0130216D02*
X0616474Y0130544D01*
X0616474Y0126223D02*
X0612540Y0126223D01*
X0612540Y0123601D02*
X0615490Y0123601D01*
X0615552Y0123603D01*
X0615613Y0123609D01*
X0615674Y0123618D01*
X0615734Y0123632D01*
X0615794Y0123649D01*
X0615852Y0123670D01*
X0615909Y0123695D01*
X0615964Y0123723D01*
X0616017Y0123754D01*
X0616068Y0123789D01*
X0616117Y0123827D01*
X0616163Y0123867D01*
X0616207Y0123911D01*
X0616247Y0123957D01*
X0616285Y0124006D01*
X0616320Y0124057D01*
X0616351Y0124110D01*
X0616379Y0124165D01*
X0616404Y0124222D01*
X0616425Y0124280D01*
X0616442Y0124340D01*
X0616456Y0124400D01*
X0616465Y0124461D01*
X0616471Y0124522D01*
X0616473Y0124584D01*
X0616474Y0124584D02*
X0616474Y0126223D01*
X0615163Y0120684D02*
X0613851Y0120684D01*
X0613780Y0120682D01*
X0613709Y0120676D01*
X0613639Y0120667D01*
X0613569Y0120653D01*
X0613500Y0120636D01*
X0613432Y0120615D01*
X0613366Y0120591D01*
X0613301Y0120563D01*
X0613237Y0120531D01*
X0613175Y0120496D01*
X0613115Y0120458D01*
X0613058Y0120417D01*
X0613002Y0120372D01*
X0612949Y0120325D01*
X0612899Y0120275D01*
X0612852Y0120222D01*
X0612807Y0120166D01*
X0612766Y0120109D01*
X0612728Y0120049D01*
X0612693Y0119987D01*
X0612661Y0119923D01*
X0612633Y0119858D01*
X0612609Y0119792D01*
X0612588Y0119724D01*
X0612571Y0119655D01*
X0612557Y0119585D01*
X0612548Y0119515D01*
X0612542Y0119444D01*
X0612540Y0119373D01*
X0612542Y0119302D01*
X0612548Y0119231D01*
X0612557Y0119161D01*
X0612571Y0119091D01*
X0612588Y0119022D01*
X0612609Y0118954D01*
X0612633Y0118888D01*
X0612661Y0118823D01*
X0612693Y0118759D01*
X0612728Y0118697D01*
X0612766Y0118637D01*
X0612807Y0118580D01*
X0612852Y0118524D01*
X0612899Y0118471D01*
X0612949Y0118421D01*
X0613002Y0118374D01*
X0613058Y0118329D01*
X0613115Y0118288D01*
X0613175Y0118250D01*
X0613237Y0118215D01*
X0613301Y0118183D01*
X0613366Y0118155D01*
X0613432Y0118131D01*
X0613500Y0118110D01*
X0613569Y0118093D01*
X0613639Y0118079D01*
X0613709Y0118070D01*
X0613780Y0118064D01*
X0613851Y0118062D01*
X0615163Y0118062D01*
X0615234Y0118064D01*
X0615305Y0118070D01*
X0615375Y0118079D01*
X0615445Y0118093D01*
X0615514Y0118110D01*
X0615582Y0118131D01*
X0615648Y0118155D01*
X0615713Y0118183D01*
X0615777Y0118215D01*
X0615839Y0118250D01*
X0615899Y0118288D01*
X0615956Y0118329D01*
X0616012Y0118374D01*
X0616065Y0118421D01*
X0616115Y0118471D01*
X0616162Y0118524D01*
X0616207Y0118580D01*
X0616248Y0118637D01*
X0616286Y0118697D01*
X0616321Y0118759D01*
X0616353Y0118823D01*
X0616381Y0118888D01*
X0616405Y0118954D01*
X0616426Y0119022D01*
X0616443Y0119091D01*
X0616457Y0119161D01*
X0616466Y0119231D01*
X0616472Y0119302D01*
X0616474Y0119373D01*
X0616472Y0119444D01*
X0616466Y0119515D01*
X0616457Y0119585D01*
X0616443Y0119655D01*
X0616426Y0119724D01*
X0616405Y0119792D01*
X0616381Y0119858D01*
X0616353Y0119923D01*
X0616321Y0119987D01*
X0616286Y0120049D01*
X0616248Y0120109D01*
X0616207Y0120166D01*
X0616162Y0120222D01*
X0616115Y0120275D01*
X0616065Y0120325D01*
X0616012Y0120372D01*
X0615956Y0120417D01*
X0615899Y0120458D01*
X0615839Y0120496D01*
X0615777Y0120531D01*
X0615713Y0120563D01*
X0615648Y0120591D01*
X0615582Y0120615D01*
X0615514Y0120636D01*
X0615445Y0120653D01*
X0615375Y0120667D01*
X0615305Y0120676D01*
X0615234Y0120682D01*
X0615163Y0120684D01*
X0616474Y0115323D02*
X0613851Y0114012D01*
X0613851Y0113684D02*
X0613851Y0112045D01*
X0613852Y0113684D02*
X0613850Y0113763D01*
X0613844Y0113842D01*
X0613835Y0113921D01*
X0613821Y0113999D01*
X0613804Y0114076D01*
X0613784Y0114153D01*
X0613759Y0114228D01*
X0613731Y0114302D01*
X0613699Y0114375D01*
X0613664Y0114446D01*
X0613626Y0114515D01*
X0613584Y0114582D01*
X0613539Y0114647D01*
X0613491Y0114710D01*
X0613440Y0114771D01*
X0613386Y0114829D01*
X0613329Y0114884D01*
X0613270Y0114937D01*
X0613208Y0114986D01*
X0613144Y0115033D01*
X0613078Y0115076D01*
X0613010Y0115116D01*
X0612939Y0115153D01*
X0612868Y0115187D01*
X0612794Y0115216D01*
X0612719Y0115243D01*
X0612644Y0115265D01*
X0612567Y0115284D01*
X0612489Y0115300D01*
X0612411Y0115311D01*
X0612332Y0115319D01*
X0612253Y0115323D01*
X0612173Y0115323D01*
X0612094Y0115319D01*
X0612015Y0115311D01*
X0611937Y0115300D01*
X0611859Y0115284D01*
X0611782Y0115265D01*
X0611707Y0115243D01*
X0611632Y0115216D01*
X0611558Y0115187D01*
X0611487Y0115153D01*
X0611416Y0115116D01*
X0611348Y0115076D01*
X0611282Y0115033D01*
X0611218Y0114986D01*
X0611156Y0114937D01*
X0611097Y0114884D01*
X0611040Y0114829D01*
X0610986Y0114771D01*
X0610935Y0114710D01*
X0610887Y0114647D01*
X0610842Y0114582D01*
X0610800Y0114515D01*
X0610762Y0114446D01*
X0610727Y0114375D01*
X0610695Y0114302D01*
X0610667Y0114228D01*
X0610642Y0114153D01*
X0610622Y0114076D01*
X0610605Y0113999D01*
X0610591Y0113921D01*
X0610582Y0113842D01*
X0610576Y0113763D01*
X0610574Y0113684D01*
X0610574Y0112045D01*
X0616474Y0112045D01*
X0338474Y0112045D02*
X0332574Y0112045D01*
X0332574Y0113684D01*
X0332576Y0113763D01*
X0332582Y0113842D01*
X0332591Y0113921D01*
X0332605Y0113999D01*
X0332622Y0114076D01*
X0332642Y0114153D01*
X0332667Y0114228D01*
X0332695Y0114302D01*
X0332727Y0114375D01*
X0332762Y0114446D01*
X0332800Y0114515D01*
X0332842Y0114582D01*
X0332887Y0114647D01*
X0332935Y0114710D01*
X0332986Y0114771D01*
X0333040Y0114829D01*
X0333097Y0114884D01*
X0333156Y0114937D01*
X0333218Y0114986D01*
X0333282Y0115033D01*
X0333348Y0115076D01*
X0333416Y0115116D01*
X0333487Y0115153D01*
X0333558Y0115187D01*
X0333632Y0115216D01*
X0333707Y0115243D01*
X0333782Y0115265D01*
X0333859Y0115284D01*
X0333937Y0115300D01*
X0334015Y0115311D01*
X0334094Y0115319D01*
X0334173Y0115323D01*
X0334253Y0115323D01*
X0334332Y0115319D01*
X0334411Y0115311D01*
X0334489Y0115300D01*
X0334567Y0115284D01*
X0334644Y0115265D01*
X0334719Y0115243D01*
X0334794Y0115216D01*
X0334868Y0115187D01*
X0334939Y0115153D01*
X0335010Y0115116D01*
X0335078Y0115076D01*
X0335144Y0115033D01*
X0335208Y0114986D01*
X0335270Y0114937D01*
X0335329Y0114884D01*
X0335386Y0114829D01*
X0335440Y0114771D01*
X0335491Y0114710D01*
X0335539Y0114647D01*
X0335584Y0114582D01*
X0335626Y0114515D01*
X0335664Y0114446D01*
X0335699Y0114375D01*
X0335731Y0114302D01*
X0335759Y0114228D01*
X0335784Y0114153D01*
X0335804Y0114076D01*
X0335821Y0113999D01*
X0335835Y0113921D01*
X0335844Y0113842D01*
X0335850Y0113763D01*
X0335852Y0113684D01*
X0335851Y0113684D02*
X0335851Y0112045D01*
X0335851Y0114012D02*
X0338474Y0115323D01*
X0337163Y0118062D02*
X0335851Y0118062D01*
X0335780Y0118064D01*
X0335709Y0118070D01*
X0335639Y0118079D01*
X0335569Y0118093D01*
X0335500Y0118110D01*
X0335432Y0118131D01*
X0335366Y0118155D01*
X0335301Y0118183D01*
X0335237Y0118215D01*
X0335175Y0118250D01*
X0335115Y0118288D01*
X0335058Y0118329D01*
X0335002Y0118374D01*
X0334949Y0118421D01*
X0334899Y0118471D01*
X0334852Y0118524D01*
X0334807Y0118580D01*
X0334766Y0118637D01*
X0334728Y0118697D01*
X0334693Y0118759D01*
X0334661Y0118823D01*
X0334633Y0118888D01*
X0334609Y0118954D01*
X0334588Y0119022D01*
X0334571Y0119091D01*
X0334557Y0119161D01*
X0334548Y0119231D01*
X0334542Y0119302D01*
X0334540Y0119373D01*
X0334542Y0119444D01*
X0334548Y0119515D01*
X0334557Y0119585D01*
X0334571Y0119655D01*
X0334588Y0119724D01*
X0334609Y0119792D01*
X0334633Y0119858D01*
X0334661Y0119923D01*
X0334693Y0119987D01*
X0334728Y0120049D01*
X0334766Y0120109D01*
X0334807Y0120166D01*
X0334852Y0120222D01*
X0334899Y0120275D01*
X0334949Y0120325D01*
X0335002Y0120372D01*
X0335058Y0120417D01*
X0335115Y0120458D01*
X0335175Y0120496D01*
X0335237Y0120531D01*
X0335301Y0120563D01*
X0335366Y0120591D01*
X0335432Y0120615D01*
X0335500Y0120636D01*
X0335569Y0120653D01*
X0335639Y0120667D01*
X0335709Y0120676D01*
X0335780Y0120682D01*
X0335851Y0120684D01*
X0337163Y0120684D01*
X0337234Y0120682D01*
X0337305Y0120676D01*
X0337375Y0120667D01*
X0337445Y0120653D01*
X0337514Y0120636D01*
X0337582Y0120615D01*
X0337648Y0120591D01*
X0337713Y0120563D01*
X0337777Y0120531D01*
X0337839Y0120496D01*
X0337899Y0120458D01*
X0337956Y0120417D01*
X0338012Y0120372D01*
X0338065Y0120325D01*
X0338115Y0120275D01*
X0338162Y0120222D01*
X0338207Y0120166D01*
X0338248Y0120109D01*
X0338286Y0120049D01*
X0338321Y0119987D01*
X0338353Y0119923D01*
X0338381Y0119858D01*
X0338405Y0119792D01*
X0338426Y0119724D01*
X0338443Y0119655D01*
X0338457Y0119585D01*
X0338466Y0119515D01*
X0338472Y0119444D01*
X0338474Y0119373D01*
X0338472Y0119302D01*
X0338466Y0119231D01*
X0338457Y0119161D01*
X0338443Y0119091D01*
X0338426Y0119022D01*
X0338405Y0118954D01*
X0338381Y0118888D01*
X0338353Y0118823D01*
X0338321Y0118759D01*
X0338286Y0118697D01*
X0338248Y0118637D01*
X0338207Y0118580D01*
X0338162Y0118524D01*
X0338115Y0118471D01*
X0338065Y0118421D01*
X0338012Y0118374D01*
X0337956Y0118329D01*
X0337899Y0118288D01*
X0337839Y0118250D01*
X0337777Y0118215D01*
X0337713Y0118183D01*
X0337648Y0118155D01*
X0337582Y0118131D01*
X0337514Y0118110D01*
X0337445Y0118093D01*
X0337375Y0118079D01*
X0337305Y0118070D01*
X0337234Y0118064D01*
X0337163Y0118062D01*
X0337490Y0123601D02*
X0334540Y0123601D01*
X0334540Y0126223D02*
X0338474Y0126223D01*
X0338474Y0124584D01*
X0338473Y0124584D02*
X0338471Y0124522D01*
X0338465Y0124461D01*
X0338456Y0124400D01*
X0338442Y0124340D01*
X0338425Y0124280D01*
X0338404Y0124222D01*
X0338379Y0124165D01*
X0338351Y0124110D01*
X0338320Y0124057D01*
X0338285Y0124006D01*
X0338247Y0123957D01*
X0338207Y0123911D01*
X0338163Y0123867D01*
X0338117Y0123827D01*
X0338068Y0123789D01*
X0338017Y0123754D01*
X0337964Y0123723D01*
X0337909Y0123695D01*
X0337852Y0123670D01*
X0337794Y0123649D01*
X0337734Y0123632D01*
X0337674Y0123618D01*
X0337613Y0123609D01*
X0337552Y0123603D01*
X0337490Y0123601D01*
X0337490Y0129233D02*
X0332574Y0129233D01*
X0334540Y0128578D02*
X0334540Y0130544D01*
X0335851Y0133037D02*
X0337490Y0133037D01*
X0336507Y0133037D02*
X0336507Y0135659D01*
X0335851Y0135659D01*
X0335780Y0135657D01*
X0335709Y0135651D01*
X0335639Y0135642D01*
X0335569Y0135628D01*
X0335500Y0135611D01*
X0335432Y0135590D01*
X0335366Y0135566D01*
X0335301Y0135538D01*
X0335237Y0135506D01*
X0335175Y0135471D01*
X0335115Y0135433D01*
X0335058Y0135392D01*
X0335002Y0135347D01*
X0334949Y0135300D01*
X0334899Y0135250D01*
X0334852Y0135197D01*
X0334807Y0135141D01*
X0334766Y0135084D01*
X0334728Y0135024D01*
X0334693Y0134962D01*
X0334661Y0134898D01*
X0334633Y0134833D01*
X0334609Y0134767D01*
X0334588Y0134699D01*
X0334571Y0134630D01*
X0334557Y0134560D01*
X0334548Y0134490D01*
X0334542Y0134419D01*
X0334540Y0134348D01*
X0334542Y0134277D01*
X0334548Y0134206D01*
X0334557Y0134136D01*
X0334571Y0134066D01*
X0334588Y0133997D01*
X0334609Y0133929D01*
X0334633Y0133863D01*
X0334661Y0133798D01*
X0334693Y0133734D01*
X0334728Y0133672D01*
X0334766Y0133612D01*
X0334807Y0133555D01*
X0334852Y0133499D01*
X0334899Y0133446D01*
X0334949Y0133396D01*
X0335002Y0133349D01*
X0335058Y0133304D01*
X0335115Y0133263D01*
X0335175Y0133225D01*
X0335237Y0133190D01*
X0335301Y0133158D01*
X0335366Y0133130D01*
X0335432Y0133106D01*
X0335500Y0133085D01*
X0335569Y0133068D01*
X0335639Y0133054D01*
X0335709Y0133045D01*
X0335780Y0133039D01*
X0335851Y0133037D01*
X0337490Y0133037D02*
X0337552Y0133039D01*
X0337613Y0133045D01*
X0337674Y0133054D01*
X0337734Y0133068D01*
X0337794Y0133085D01*
X0337852Y0133106D01*
X0337909Y0133131D01*
X0337964Y0133159D01*
X0338017Y0133190D01*
X0338068Y0133225D01*
X0338117Y0133263D01*
X0338163Y0133303D01*
X0338207Y0133347D01*
X0338247Y0133393D01*
X0338285Y0133442D01*
X0338320Y0133493D01*
X0338351Y0133546D01*
X0338379Y0133601D01*
X0338404Y0133658D01*
X0338425Y0133716D01*
X0338442Y0133776D01*
X0338456Y0133836D01*
X0338465Y0133897D01*
X0338471Y0133958D01*
X0338473Y0134020D01*
X0338474Y0134020D02*
X0338474Y0135659D01*
X0338474Y0130544D02*
X0338474Y0130216D01*
X0338473Y0130216D02*
X0338471Y0130154D01*
X0338465Y0130093D01*
X0338456Y0130032D01*
X0338442Y0129972D01*
X0338425Y0129912D01*
X0338404Y0129854D01*
X0338379Y0129797D01*
X0338351Y0129742D01*
X0338320Y0129689D01*
X0338285Y0129638D01*
X0338247Y0129589D01*
X0338207Y0129543D01*
X0338163Y0129499D01*
X0338117Y0129459D01*
X0338068Y0129421D01*
X0338017Y0129386D01*
X0337964Y0129355D01*
X0337909Y0129327D01*
X0337852Y0129302D01*
X0337794Y0129281D01*
X0337734Y0129264D01*
X0337674Y0129250D01*
X0337613Y0129241D01*
X0337552Y0129235D01*
X0337490Y0129233D01*
X0336835Y0141735D02*
X0334213Y0141735D01*
X0334134Y0141737D01*
X0334055Y0141743D01*
X0333976Y0141752D01*
X0333898Y0141766D01*
X0333821Y0141783D01*
X0333744Y0141803D01*
X0333669Y0141828D01*
X0333595Y0141856D01*
X0333522Y0141888D01*
X0333451Y0141923D01*
X0333382Y0141961D01*
X0333315Y0142003D01*
X0333250Y0142048D01*
X0333187Y0142096D01*
X0333126Y0142147D01*
X0333068Y0142201D01*
X0333013Y0142258D01*
X0332960Y0142317D01*
X0332911Y0142379D01*
X0332864Y0142443D01*
X0332821Y0142509D01*
X0332781Y0142577D01*
X0332744Y0142648D01*
X0332710Y0142719D01*
X0332681Y0142793D01*
X0332654Y0142868D01*
X0332632Y0142943D01*
X0332613Y0143020D01*
X0332597Y0143098D01*
X0332586Y0143176D01*
X0332578Y0143255D01*
X0332574Y0143334D01*
X0332574Y0143414D01*
X0332578Y0143493D01*
X0332586Y0143572D01*
X0332597Y0143650D01*
X0332613Y0143728D01*
X0332632Y0143805D01*
X0332654Y0143880D01*
X0332681Y0143955D01*
X0332710Y0144029D01*
X0332744Y0144100D01*
X0332781Y0144171D01*
X0332821Y0144239D01*
X0332864Y0144305D01*
X0332911Y0144369D01*
X0332960Y0144431D01*
X0333013Y0144490D01*
X0333068Y0144547D01*
X0333126Y0144601D01*
X0333187Y0144652D01*
X0333250Y0144700D01*
X0333315Y0144745D01*
X0333382Y0144787D01*
X0333451Y0144825D01*
X0333522Y0144860D01*
X0333595Y0144892D01*
X0333669Y0144920D01*
X0333744Y0144945D01*
X0333821Y0144965D01*
X0333898Y0144982D01*
X0333976Y0144996D01*
X0334055Y0145005D01*
X0334134Y0145011D01*
X0334213Y0145013D01*
X0336835Y0145013D01*
X0336914Y0145011D01*
X0336993Y0145005D01*
X0337072Y0144996D01*
X0337150Y0144982D01*
X0337227Y0144965D01*
X0337304Y0144945D01*
X0337379Y0144920D01*
X0337453Y0144892D01*
X0337526Y0144860D01*
X0337597Y0144825D01*
X0337666Y0144787D01*
X0337733Y0144745D01*
X0337798Y0144700D01*
X0337861Y0144652D01*
X0337922Y0144601D01*
X0337980Y0144547D01*
X0338035Y0144490D01*
X0338088Y0144431D01*
X0338137Y0144369D01*
X0338184Y0144305D01*
X0338227Y0144239D01*
X0338267Y0144171D01*
X0338304Y0144100D01*
X0338338Y0144029D01*
X0338367Y0143955D01*
X0338394Y0143880D01*
X0338416Y0143805D01*
X0338435Y0143728D01*
X0338451Y0143650D01*
X0338462Y0143572D01*
X0338470Y0143493D01*
X0338474Y0143414D01*
X0338474Y0143334D01*
X0338470Y0143255D01*
X0338462Y0143176D01*
X0338451Y0143098D01*
X0338435Y0143020D01*
X0338416Y0142943D01*
X0338394Y0142868D01*
X0338367Y0142793D01*
X0338338Y0142719D01*
X0338304Y0142648D01*
X0338267Y0142577D01*
X0338227Y0142509D01*
X0338184Y0142443D01*
X0338137Y0142379D01*
X0338088Y0142317D01*
X0338035Y0142258D01*
X0337980Y0142201D01*
X0337922Y0142147D01*
X0337861Y0142096D01*
X0337798Y0142048D01*
X0337733Y0142003D01*
X0337666Y0141961D01*
X0337597Y0141923D01*
X0337526Y0141888D01*
X0337453Y0141856D01*
X0337379Y0141828D01*
X0337304Y0141803D01*
X0337227Y0141783D01*
X0337150Y0141766D01*
X0337072Y0141752D01*
X0336993Y0141743D01*
X0336914Y0141737D01*
X0336835Y0141735D01*
X0337490Y0148012D02*
X0334540Y0148012D01*
X0334540Y0150634D02*
X0338474Y0150634D01*
X0338474Y0148995D01*
X0338473Y0148995D02*
X0338471Y0148933D01*
X0338465Y0148872D01*
X0338456Y0148811D01*
X0338442Y0148751D01*
X0338425Y0148691D01*
X0338404Y0148633D01*
X0338379Y0148576D01*
X0338351Y0148521D01*
X0338320Y0148468D01*
X0338285Y0148417D01*
X0338247Y0148368D01*
X0338207Y0148322D01*
X0338163Y0148278D01*
X0338117Y0148238D01*
X0338068Y0148200D01*
X0338017Y0148165D01*
X0337964Y0148134D01*
X0337909Y0148106D01*
X0337852Y0148081D01*
X0337794Y0148060D01*
X0337734Y0148043D01*
X0337674Y0148029D01*
X0337613Y0148020D01*
X0337552Y0148014D01*
X0337490Y0148012D01*
X0334540Y0152988D02*
X0334540Y0154955D01*
X0332574Y0153644D02*
X0337490Y0153644D01*
X0337552Y0153646D01*
X0337613Y0153652D01*
X0337674Y0153661D01*
X0337734Y0153675D01*
X0337794Y0153692D01*
X0337852Y0153713D01*
X0337909Y0153738D01*
X0337964Y0153766D01*
X0338017Y0153797D01*
X0338068Y0153832D01*
X0338117Y0153870D01*
X0338163Y0153910D01*
X0338207Y0153954D01*
X0338247Y0154000D01*
X0338285Y0154049D01*
X0338320Y0154100D01*
X0338351Y0154153D01*
X0338379Y0154208D01*
X0338404Y0154265D01*
X0338425Y0154323D01*
X0338442Y0154383D01*
X0338456Y0154443D01*
X0338465Y0154504D01*
X0338471Y0154565D01*
X0338473Y0154627D01*
X0338474Y0154627D02*
X0338474Y0154955D01*
X0060474Y0154627D02*
X0060474Y0154955D01*
X0060473Y0154627D02*
X0060471Y0154565D01*
X0060465Y0154504D01*
X0060456Y0154443D01*
X0060442Y0154383D01*
X0060425Y0154323D01*
X0060404Y0154265D01*
X0060379Y0154208D01*
X0060351Y0154153D01*
X0060320Y0154100D01*
X0060285Y0154049D01*
X0060247Y0154000D01*
X0060207Y0153954D01*
X0060163Y0153910D01*
X0060117Y0153870D01*
X0060068Y0153832D01*
X0060017Y0153797D01*
X0059964Y0153766D01*
X0059909Y0153738D01*
X0059852Y0153713D01*
X0059794Y0153692D01*
X0059734Y0153675D01*
X0059674Y0153661D01*
X0059613Y0153652D01*
X0059552Y0153646D01*
X0059490Y0153644D01*
X0054574Y0153644D01*
X0056540Y0152988D02*
X0056540Y0154955D01*
X0056540Y0150634D02*
X0060474Y0150634D01*
X0060474Y0148995D01*
X0060473Y0148995D02*
X0060471Y0148933D01*
X0060465Y0148872D01*
X0060456Y0148811D01*
X0060442Y0148751D01*
X0060425Y0148691D01*
X0060404Y0148633D01*
X0060379Y0148576D01*
X0060351Y0148521D01*
X0060320Y0148468D01*
X0060285Y0148417D01*
X0060247Y0148368D01*
X0060207Y0148322D01*
X0060163Y0148278D01*
X0060117Y0148238D01*
X0060068Y0148200D01*
X0060017Y0148165D01*
X0059964Y0148134D01*
X0059909Y0148106D01*
X0059852Y0148081D01*
X0059794Y0148060D01*
X0059734Y0148043D01*
X0059674Y0148029D01*
X0059613Y0148020D01*
X0059552Y0148014D01*
X0059490Y0148012D01*
X0056540Y0148012D01*
X0056213Y0145013D02*
X0058835Y0145013D01*
X0058914Y0145011D01*
X0058993Y0145005D01*
X0059072Y0144996D01*
X0059150Y0144982D01*
X0059227Y0144965D01*
X0059304Y0144945D01*
X0059379Y0144920D01*
X0059453Y0144892D01*
X0059526Y0144860D01*
X0059597Y0144825D01*
X0059666Y0144787D01*
X0059733Y0144745D01*
X0059798Y0144700D01*
X0059861Y0144652D01*
X0059922Y0144601D01*
X0059980Y0144547D01*
X0060035Y0144490D01*
X0060088Y0144431D01*
X0060137Y0144369D01*
X0060184Y0144305D01*
X0060227Y0144239D01*
X0060267Y0144171D01*
X0060304Y0144100D01*
X0060338Y0144029D01*
X0060367Y0143955D01*
X0060394Y0143880D01*
X0060416Y0143805D01*
X0060435Y0143728D01*
X0060451Y0143650D01*
X0060462Y0143572D01*
X0060470Y0143493D01*
X0060474Y0143414D01*
X0060474Y0143334D01*
X0060470Y0143255D01*
X0060462Y0143176D01*
X0060451Y0143098D01*
X0060435Y0143020D01*
X0060416Y0142943D01*
X0060394Y0142868D01*
X0060367Y0142793D01*
X0060338Y0142719D01*
X0060304Y0142648D01*
X0060267Y0142577D01*
X0060227Y0142509D01*
X0060184Y0142443D01*
X0060137Y0142379D01*
X0060088Y0142317D01*
X0060035Y0142258D01*
X0059980Y0142201D01*
X0059922Y0142147D01*
X0059861Y0142096D01*
X0059798Y0142048D01*
X0059733Y0142003D01*
X0059666Y0141961D01*
X0059597Y0141923D01*
X0059526Y0141888D01*
X0059453Y0141856D01*
X0059379Y0141828D01*
X0059304Y0141803D01*
X0059227Y0141783D01*
X0059150Y0141766D01*
X0059072Y0141752D01*
X0058993Y0141743D01*
X0058914Y0141737D01*
X0058835Y0141735D01*
X0056213Y0141735D01*
X0056134Y0141737D01*
X0056055Y0141743D01*
X0055976Y0141752D01*
X0055898Y0141766D01*
X0055821Y0141783D01*
X0055744Y0141803D01*
X0055669Y0141828D01*
X0055595Y0141856D01*
X0055522Y0141888D01*
X0055451Y0141923D01*
X0055382Y0141961D01*
X0055315Y0142003D01*
X0055250Y0142048D01*
X0055187Y0142096D01*
X0055126Y0142147D01*
X0055068Y0142201D01*
X0055013Y0142258D01*
X0054960Y0142317D01*
X0054911Y0142379D01*
X0054864Y0142443D01*
X0054821Y0142509D01*
X0054781Y0142577D01*
X0054744Y0142648D01*
X0054710Y0142719D01*
X0054681Y0142793D01*
X0054654Y0142868D01*
X0054632Y0142943D01*
X0054613Y0143020D01*
X0054597Y0143098D01*
X0054586Y0143176D01*
X0054578Y0143255D01*
X0054574Y0143334D01*
X0054574Y0143414D01*
X0054578Y0143493D01*
X0054586Y0143572D01*
X0054597Y0143650D01*
X0054613Y0143728D01*
X0054632Y0143805D01*
X0054654Y0143880D01*
X0054681Y0143955D01*
X0054710Y0144029D01*
X0054744Y0144100D01*
X0054781Y0144171D01*
X0054821Y0144239D01*
X0054864Y0144305D01*
X0054911Y0144369D01*
X0054960Y0144431D01*
X0055013Y0144490D01*
X0055068Y0144547D01*
X0055126Y0144601D01*
X0055187Y0144652D01*
X0055250Y0144700D01*
X0055315Y0144745D01*
X0055382Y0144787D01*
X0055451Y0144825D01*
X0055522Y0144860D01*
X0055595Y0144892D01*
X0055669Y0144920D01*
X0055744Y0144945D01*
X0055821Y0144965D01*
X0055898Y0144982D01*
X0055976Y0144996D01*
X0056055Y0145005D01*
X0056134Y0145011D01*
X0056213Y0145013D01*
X0057851Y0135659D02*
X0058507Y0135659D01*
X0058507Y0133037D01*
X0057851Y0133037D02*
X0059490Y0133037D01*
X0059552Y0133039D01*
X0059613Y0133045D01*
X0059674Y0133054D01*
X0059734Y0133068D01*
X0059794Y0133085D01*
X0059852Y0133106D01*
X0059909Y0133131D01*
X0059964Y0133159D01*
X0060017Y0133190D01*
X0060068Y0133225D01*
X0060117Y0133263D01*
X0060163Y0133303D01*
X0060207Y0133347D01*
X0060247Y0133393D01*
X0060285Y0133442D01*
X0060320Y0133493D01*
X0060351Y0133546D01*
X0060379Y0133601D01*
X0060404Y0133658D01*
X0060425Y0133716D01*
X0060442Y0133776D01*
X0060456Y0133836D01*
X0060465Y0133897D01*
X0060471Y0133958D01*
X0060473Y0134020D01*
X0060474Y0134020D02*
X0060474Y0135659D01*
X0057851Y0135659D02*
X0057780Y0135657D01*
X0057709Y0135651D01*
X0057639Y0135642D01*
X0057569Y0135628D01*
X0057500Y0135611D01*
X0057432Y0135590D01*
X0057366Y0135566D01*
X0057301Y0135538D01*
X0057237Y0135506D01*
X0057175Y0135471D01*
X0057115Y0135433D01*
X0057058Y0135392D01*
X0057002Y0135347D01*
X0056949Y0135300D01*
X0056899Y0135250D01*
X0056852Y0135197D01*
X0056807Y0135141D01*
X0056766Y0135084D01*
X0056728Y0135024D01*
X0056693Y0134962D01*
X0056661Y0134898D01*
X0056633Y0134833D01*
X0056609Y0134767D01*
X0056588Y0134699D01*
X0056571Y0134630D01*
X0056557Y0134560D01*
X0056548Y0134490D01*
X0056542Y0134419D01*
X0056540Y0134348D01*
X0056542Y0134277D01*
X0056548Y0134206D01*
X0056557Y0134136D01*
X0056571Y0134066D01*
X0056588Y0133997D01*
X0056609Y0133929D01*
X0056633Y0133863D01*
X0056661Y0133798D01*
X0056693Y0133734D01*
X0056728Y0133672D01*
X0056766Y0133612D01*
X0056807Y0133555D01*
X0056852Y0133499D01*
X0056899Y0133446D01*
X0056949Y0133396D01*
X0057002Y0133349D01*
X0057058Y0133304D01*
X0057115Y0133263D01*
X0057175Y0133225D01*
X0057237Y0133190D01*
X0057301Y0133158D01*
X0057366Y0133130D01*
X0057432Y0133106D01*
X0057500Y0133085D01*
X0057569Y0133068D01*
X0057639Y0133054D01*
X0057709Y0133045D01*
X0057780Y0133039D01*
X0057851Y0133037D01*
X0056540Y0130544D02*
X0056540Y0128578D01*
X0054574Y0129233D02*
X0059490Y0129233D01*
X0059552Y0129235D01*
X0059613Y0129241D01*
X0059674Y0129250D01*
X0059734Y0129264D01*
X0059794Y0129281D01*
X0059852Y0129302D01*
X0059909Y0129327D01*
X0059964Y0129355D01*
X0060017Y0129386D01*
X0060068Y0129421D01*
X0060117Y0129459D01*
X0060163Y0129499D01*
X0060207Y0129543D01*
X0060247Y0129589D01*
X0060285Y0129638D01*
X0060320Y0129689D01*
X0060351Y0129742D01*
X0060379Y0129797D01*
X0060404Y0129854D01*
X0060425Y0129912D01*
X0060442Y0129972D01*
X0060456Y0130032D01*
X0060465Y0130093D01*
X0060471Y0130154D01*
X0060473Y0130216D01*
X0060474Y0130216D02*
X0060474Y0130544D01*
X0060474Y0126223D02*
X0056540Y0126223D01*
X0056540Y0123601D02*
X0059490Y0123601D01*
X0059552Y0123603D01*
X0059613Y0123609D01*
X0059674Y0123618D01*
X0059734Y0123632D01*
X0059794Y0123649D01*
X0059852Y0123670D01*
X0059909Y0123695D01*
X0059964Y0123723D01*
X0060017Y0123754D01*
X0060068Y0123789D01*
X0060117Y0123827D01*
X0060163Y0123867D01*
X0060207Y0123911D01*
X0060247Y0123957D01*
X0060285Y0124006D01*
X0060320Y0124057D01*
X0060351Y0124110D01*
X0060379Y0124165D01*
X0060404Y0124222D01*
X0060425Y0124280D01*
X0060442Y0124340D01*
X0060456Y0124400D01*
X0060465Y0124461D01*
X0060471Y0124522D01*
X0060473Y0124584D01*
X0060474Y0124584D02*
X0060474Y0126223D01*
X0059163Y0120684D02*
X0057851Y0120684D01*
X0057780Y0120682D01*
X0057709Y0120676D01*
X0057639Y0120667D01*
X0057569Y0120653D01*
X0057500Y0120636D01*
X0057432Y0120615D01*
X0057366Y0120591D01*
X0057301Y0120563D01*
X0057237Y0120531D01*
X0057175Y0120496D01*
X0057115Y0120458D01*
X0057058Y0120417D01*
X0057002Y0120372D01*
X0056949Y0120325D01*
X0056899Y0120275D01*
X0056852Y0120222D01*
X0056807Y0120166D01*
X0056766Y0120109D01*
X0056728Y0120049D01*
X0056693Y0119987D01*
X0056661Y0119923D01*
X0056633Y0119858D01*
X0056609Y0119792D01*
X0056588Y0119724D01*
X0056571Y0119655D01*
X0056557Y0119585D01*
X0056548Y0119515D01*
X0056542Y0119444D01*
X0056540Y0119373D01*
X0056542Y0119302D01*
X0056548Y0119231D01*
X0056557Y0119161D01*
X0056571Y0119091D01*
X0056588Y0119022D01*
X0056609Y0118954D01*
X0056633Y0118888D01*
X0056661Y0118823D01*
X0056693Y0118759D01*
X0056728Y0118697D01*
X0056766Y0118637D01*
X0056807Y0118580D01*
X0056852Y0118524D01*
X0056899Y0118471D01*
X0056949Y0118421D01*
X0057002Y0118374D01*
X0057058Y0118329D01*
X0057115Y0118288D01*
X0057175Y0118250D01*
X0057237Y0118215D01*
X0057301Y0118183D01*
X0057366Y0118155D01*
X0057432Y0118131D01*
X0057500Y0118110D01*
X0057569Y0118093D01*
X0057639Y0118079D01*
X0057709Y0118070D01*
X0057780Y0118064D01*
X0057851Y0118062D01*
X0059163Y0118062D01*
X0059234Y0118064D01*
X0059305Y0118070D01*
X0059375Y0118079D01*
X0059445Y0118093D01*
X0059514Y0118110D01*
X0059582Y0118131D01*
X0059648Y0118155D01*
X0059713Y0118183D01*
X0059777Y0118215D01*
X0059839Y0118250D01*
X0059899Y0118288D01*
X0059956Y0118329D01*
X0060012Y0118374D01*
X0060065Y0118421D01*
X0060115Y0118471D01*
X0060162Y0118524D01*
X0060207Y0118580D01*
X0060248Y0118637D01*
X0060286Y0118697D01*
X0060321Y0118759D01*
X0060353Y0118823D01*
X0060381Y0118888D01*
X0060405Y0118954D01*
X0060426Y0119022D01*
X0060443Y0119091D01*
X0060457Y0119161D01*
X0060466Y0119231D01*
X0060472Y0119302D01*
X0060474Y0119373D01*
X0060472Y0119444D01*
X0060466Y0119515D01*
X0060457Y0119585D01*
X0060443Y0119655D01*
X0060426Y0119724D01*
X0060405Y0119792D01*
X0060381Y0119858D01*
X0060353Y0119923D01*
X0060321Y0119987D01*
X0060286Y0120049D01*
X0060248Y0120109D01*
X0060207Y0120166D01*
X0060162Y0120222D01*
X0060115Y0120275D01*
X0060065Y0120325D01*
X0060012Y0120372D01*
X0059956Y0120417D01*
X0059899Y0120458D01*
X0059839Y0120496D01*
X0059777Y0120531D01*
X0059713Y0120563D01*
X0059648Y0120591D01*
X0059582Y0120615D01*
X0059514Y0120636D01*
X0059445Y0120653D01*
X0059375Y0120667D01*
X0059305Y0120676D01*
X0059234Y0120682D01*
X0059163Y0120684D01*
X0060474Y0115323D02*
X0057851Y0114012D01*
X0057851Y0113684D02*
X0057851Y0112045D01*
X0057852Y0113684D02*
X0057850Y0113763D01*
X0057844Y0113842D01*
X0057835Y0113921D01*
X0057821Y0113999D01*
X0057804Y0114076D01*
X0057784Y0114153D01*
X0057759Y0114228D01*
X0057731Y0114302D01*
X0057699Y0114375D01*
X0057664Y0114446D01*
X0057626Y0114515D01*
X0057584Y0114582D01*
X0057539Y0114647D01*
X0057491Y0114710D01*
X0057440Y0114771D01*
X0057386Y0114829D01*
X0057329Y0114884D01*
X0057270Y0114937D01*
X0057208Y0114986D01*
X0057144Y0115033D01*
X0057078Y0115076D01*
X0057010Y0115116D01*
X0056939Y0115153D01*
X0056868Y0115187D01*
X0056794Y0115216D01*
X0056719Y0115243D01*
X0056644Y0115265D01*
X0056567Y0115284D01*
X0056489Y0115300D01*
X0056411Y0115311D01*
X0056332Y0115319D01*
X0056253Y0115323D01*
X0056173Y0115323D01*
X0056094Y0115319D01*
X0056015Y0115311D01*
X0055937Y0115300D01*
X0055859Y0115284D01*
X0055782Y0115265D01*
X0055707Y0115243D01*
X0055632Y0115216D01*
X0055558Y0115187D01*
X0055487Y0115153D01*
X0055416Y0115116D01*
X0055348Y0115076D01*
X0055282Y0115033D01*
X0055218Y0114986D01*
X0055156Y0114937D01*
X0055097Y0114884D01*
X0055040Y0114829D01*
X0054986Y0114771D01*
X0054935Y0114710D01*
X0054887Y0114647D01*
X0054842Y0114582D01*
X0054800Y0114515D01*
X0054762Y0114446D01*
X0054727Y0114375D01*
X0054695Y0114302D01*
X0054667Y0114228D01*
X0054642Y0114153D01*
X0054622Y0114076D01*
X0054605Y0113999D01*
X0054591Y0113921D01*
X0054582Y0113842D01*
X0054576Y0113763D01*
X0054574Y0113684D01*
X0054574Y0112045D01*
X0060474Y0112045D01*
X0060474Y0324045D02*
X0054574Y0324045D01*
X0054574Y0325684D01*
X0054576Y0325763D01*
X0054582Y0325842D01*
X0054591Y0325921D01*
X0054605Y0325999D01*
X0054622Y0326076D01*
X0054642Y0326153D01*
X0054667Y0326228D01*
X0054695Y0326302D01*
X0054727Y0326375D01*
X0054762Y0326446D01*
X0054800Y0326515D01*
X0054842Y0326582D01*
X0054887Y0326647D01*
X0054935Y0326710D01*
X0054986Y0326771D01*
X0055040Y0326829D01*
X0055097Y0326884D01*
X0055156Y0326937D01*
X0055218Y0326986D01*
X0055282Y0327033D01*
X0055348Y0327076D01*
X0055416Y0327116D01*
X0055487Y0327153D01*
X0055558Y0327187D01*
X0055632Y0327216D01*
X0055707Y0327243D01*
X0055782Y0327265D01*
X0055859Y0327284D01*
X0055937Y0327300D01*
X0056015Y0327311D01*
X0056094Y0327319D01*
X0056173Y0327323D01*
X0056253Y0327323D01*
X0056332Y0327319D01*
X0056411Y0327311D01*
X0056489Y0327300D01*
X0056567Y0327284D01*
X0056644Y0327265D01*
X0056719Y0327243D01*
X0056794Y0327216D01*
X0056868Y0327187D01*
X0056939Y0327153D01*
X0057010Y0327116D01*
X0057078Y0327076D01*
X0057144Y0327033D01*
X0057208Y0326986D01*
X0057270Y0326937D01*
X0057329Y0326884D01*
X0057386Y0326829D01*
X0057440Y0326771D01*
X0057491Y0326710D01*
X0057539Y0326647D01*
X0057584Y0326582D01*
X0057626Y0326515D01*
X0057664Y0326446D01*
X0057699Y0326375D01*
X0057731Y0326302D01*
X0057759Y0326228D01*
X0057784Y0326153D01*
X0057804Y0326076D01*
X0057821Y0325999D01*
X0057835Y0325921D01*
X0057844Y0325842D01*
X0057850Y0325763D01*
X0057852Y0325684D01*
X0057851Y0325684D02*
X0057851Y0324045D01*
X0057851Y0326012D02*
X0060474Y0327323D01*
X0059163Y0330062D02*
X0057851Y0330062D01*
X0057780Y0330064D01*
X0057709Y0330070D01*
X0057639Y0330079D01*
X0057569Y0330093D01*
X0057500Y0330110D01*
X0057432Y0330131D01*
X0057366Y0330155D01*
X0057301Y0330183D01*
X0057237Y0330215D01*
X0057175Y0330250D01*
X0057115Y0330288D01*
X0057058Y0330329D01*
X0057002Y0330374D01*
X0056949Y0330421D01*
X0056899Y0330471D01*
X0056852Y0330524D01*
X0056807Y0330580D01*
X0056766Y0330637D01*
X0056728Y0330697D01*
X0056693Y0330759D01*
X0056661Y0330823D01*
X0056633Y0330888D01*
X0056609Y0330954D01*
X0056588Y0331022D01*
X0056571Y0331091D01*
X0056557Y0331161D01*
X0056548Y0331231D01*
X0056542Y0331302D01*
X0056540Y0331373D01*
X0056542Y0331444D01*
X0056548Y0331515D01*
X0056557Y0331585D01*
X0056571Y0331655D01*
X0056588Y0331724D01*
X0056609Y0331792D01*
X0056633Y0331858D01*
X0056661Y0331923D01*
X0056693Y0331987D01*
X0056728Y0332049D01*
X0056766Y0332109D01*
X0056807Y0332166D01*
X0056852Y0332222D01*
X0056899Y0332275D01*
X0056949Y0332325D01*
X0057002Y0332372D01*
X0057058Y0332417D01*
X0057115Y0332458D01*
X0057175Y0332496D01*
X0057237Y0332531D01*
X0057301Y0332563D01*
X0057366Y0332591D01*
X0057432Y0332615D01*
X0057500Y0332636D01*
X0057569Y0332653D01*
X0057639Y0332667D01*
X0057709Y0332676D01*
X0057780Y0332682D01*
X0057851Y0332684D01*
X0059163Y0332684D01*
X0059234Y0332682D01*
X0059305Y0332676D01*
X0059375Y0332667D01*
X0059445Y0332653D01*
X0059514Y0332636D01*
X0059582Y0332615D01*
X0059648Y0332591D01*
X0059713Y0332563D01*
X0059777Y0332531D01*
X0059839Y0332496D01*
X0059899Y0332458D01*
X0059956Y0332417D01*
X0060012Y0332372D01*
X0060065Y0332325D01*
X0060115Y0332275D01*
X0060162Y0332222D01*
X0060207Y0332166D01*
X0060248Y0332109D01*
X0060286Y0332049D01*
X0060321Y0331987D01*
X0060353Y0331923D01*
X0060381Y0331858D01*
X0060405Y0331792D01*
X0060426Y0331724D01*
X0060443Y0331655D01*
X0060457Y0331585D01*
X0060466Y0331515D01*
X0060472Y0331444D01*
X0060474Y0331373D01*
X0060472Y0331302D01*
X0060466Y0331231D01*
X0060457Y0331161D01*
X0060443Y0331091D01*
X0060426Y0331022D01*
X0060405Y0330954D01*
X0060381Y0330888D01*
X0060353Y0330823D01*
X0060321Y0330759D01*
X0060286Y0330697D01*
X0060248Y0330637D01*
X0060207Y0330580D01*
X0060162Y0330524D01*
X0060115Y0330471D01*
X0060065Y0330421D01*
X0060012Y0330374D01*
X0059956Y0330329D01*
X0059899Y0330288D01*
X0059839Y0330250D01*
X0059777Y0330215D01*
X0059713Y0330183D01*
X0059648Y0330155D01*
X0059582Y0330131D01*
X0059514Y0330110D01*
X0059445Y0330093D01*
X0059375Y0330079D01*
X0059305Y0330070D01*
X0059234Y0330064D01*
X0059163Y0330062D01*
X0059490Y0335601D02*
X0056540Y0335601D01*
X0056540Y0338223D02*
X0060474Y0338223D01*
X0060474Y0336584D01*
X0060473Y0336584D02*
X0060471Y0336522D01*
X0060465Y0336461D01*
X0060456Y0336400D01*
X0060442Y0336340D01*
X0060425Y0336280D01*
X0060404Y0336222D01*
X0060379Y0336165D01*
X0060351Y0336110D01*
X0060320Y0336057D01*
X0060285Y0336006D01*
X0060247Y0335957D01*
X0060207Y0335911D01*
X0060163Y0335867D01*
X0060117Y0335827D01*
X0060068Y0335789D01*
X0060017Y0335754D01*
X0059964Y0335723D01*
X0059909Y0335695D01*
X0059852Y0335670D01*
X0059794Y0335649D01*
X0059734Y0335632D01*
X0059674Y0335618D01*
X0059613Y0335609D01*
X0059552Y0335603D01*
X0059490Y0335601D01*
X0059490Y0341233D02*
X0054574Y0341233D01*
X0056540Y0340578D02*
X0056540Y0342544D01*
X0057851Y0345037D02*
X0059490Y0345037D01*
X0058507Y0345037D02*
X0058507Y0347659D01*
X0057851Y0347659D01*
X0057780Y0347657D01*
X0057709Y0347651D01*
X0057639Y0347642D01*
X0057569Y0347628D01*
X0057500Y0347611D01*
X0057432Y0347590D01*
X0057366Y0347566D01*
X0057301Y0347538D01*
X0057237Y0347506D01*
X0057175Y0347471D01*
X0057115Y0347433D01*
X0057058Y0347392D01*
X0057002Y0347347D01*
X0056949Y0347300D01*
X0056899Y0347250D01*
X0056852Y0347197D01*
X0056807Y0347141D01*
X0056766Y0347084D01*
X0056728Y0347024D01*
X0056693Y0346962D01*
X0056661Y0346898D01*
X0056633Y0346833D01*
X0056609Y0346767D01*
X0056588Y0346699D01*
X0056571Y0346630D01*
X0056557Y0346560D01*
X0056548Y0346490D01*
X0056542Y0346419D01*
X0056540Y0346348D01*
X0056542Y0346277D01*
X0056548Y0346206D01*
X0056557Y0346136D01*
X0056571Y0346066D01*
X0056588Y0345997D01*
X0056609Y0345929D01*
X0056633Y0345863D01*
X0056661Y0345798D01*
X0056693Y0345734D01*
X0056728Y0345672D01*
X0056766Y0345612D01*
X0056807Y0345555D01*
X0056852Y0345499D01*
X0056899Y0345446D01*
X0056949Y0345396D01*
X0057002Y0345349D01*
X0057058Y0345304D01*
X0057115Y0345263D01*
X0057175Y0345225D01*
X0057237Y0345190D01*
X0057301Y0345158D01*
X0057366Y0345130D01*
X0057432Y0345106D01*
X0057500Y0345085D01*
X0057569Y0345068D01*
X0057639Y0345054D01*
X0057709Y0345045D01*
X0057780Y0345039D01*
X0057851Y0345037D01*
X0059490Y0345037D02*
X0059552Y0345039D01*
X0059613Y0345045D01*
X0059674Y0345054D01*
X0059734Y0345068D01*
X0059794Y0345085D01*
X0059852Y0345106D01*
X0059909Y0345131D01*
X0059964Y0345159D01*
X0060017Y0345190D01*
X0060068Y0345225D01*
X0060117Y0345263D01*
X0060163Y0345303D01*
X0060207Y0345347D01*
X0060247Y0345393D01*
X0060285Y0345442D01*
X0060320Y0345493D01*
X0060351Y0345546D01*
X0060379Y0345601D01*
X0060404Y0345658D01*
X0060425Y0345716D01*
X0060442Y0345776D01*
X0060456Y0345836D01*
X0060465Y0345897D01*
X0060471Y0345958D01*
X0060473Y0346020D01*
X0060474Y0346020D02*
X0060474Y0347659D01*
X0060474Y0342544D02*
X0060474Y0342216D01*
X0060473Y0342216D02*
X0060471Y0342154D01*
X0060465Y0342093D01*
X0060456Y0342032D01*
X0060442Y0341972D01*
X0060425Y0341912D01*
X0060404Y0341854D01*
X0060379Y0341797D01*
X0060351Y0341742D01*
X0060320Y0341689D01*
X0060285Y0341638D01*
X0060247Y0341589D01*
X0060207Y0341543D01*
X0060163Y0341499D01*
X0060117Y0341459D01*
X0060068Y0341421D01*
X0060017Y0341386D01*
X0059964Y0341355D01*
X0059909Y0341327D01*
X0059852Y0341302D01*
X0059794Y0341281D01*
X0059734Y0341264D01*
X0059674Y0341250D01*
X0059613Y0341241D01*
X0059552Y0341235D01*
X0059490Y0341233D01*
X0058835Y0353735D02*
X0056213Y0353735D01*
X0056134Y0353737D01*
X0056055Y0353743D01*
X0055976Y0353752D01*
X0055898Y0353766D01*
X0055821Y0353783D01*
X0055744Y0353803D01*
X0055669Y0353828D01*
X0055595Y0353856D01*
X0055522Y0353888D01*
X0055451Y0353923D01*
X0055382Y0353961D01*
X0055315Y0354003D01*
X0055250Y0354048D01*
X0055187Y0354096D01*
X0055126Y0354147D01*
X0055068Y0354201D01*
X0055013Y0354258D01*
X0054960Y0354317D01*
X0054911Y0354379D01*
X0054864Y0354443D01*
X0054821Y0354509D01*
X0054781Y0354577D01*
X0054744Y0354648D01*
X0054710Y0354719D01*
X0054681Y0354793D01*
X0054654Y0354868D01*
X0054632Y0354943D01*
X0054613Y0355020D01*
X0054597Y0355098D01*
X0054586Y0355176D01*
X0054578Y0355255D01*
X0054574Y0355334D01*
X0054574Y0355414D01*
X0054578Y0355493D01*
X0054586Y0355572D01*
X0054597Y0355650D01*
X0054613Y0355728D01*
X0054632Y0355805D01*
X0054654Y0355880D01*
X0054681Y0355955D01*
X0054710Y0356029D01*
X0054744Y0356100D01*
X0054781Y0356171D01*
X0054821Y0356239D01*
X0054864Y0356305D01*
X0054911Y0356369D01*
X0054960Y0356431D01*
X0055013Y0356490D01*
X0055068Y0356547D01*
X0055126Y0356601D01*
X0055187Y0356652D01*
X0055250Y0356700D01*
X0055315Y0356745D01*
X0055382Y0356787D01*
X0055451Y0356825D01*
X0055522Y0356860D01*
X0055595Y0356892D01*
X0055669Y0356920D01*
X0055744Y0356945D01*
X0055821Y0356965D01*
X0055898Y0356982D01*
X0055976Y0356996D01*
X0056055Y0357005D01*
X0056134Y0357011D01*
X0056213Y0357013D01*
X0058835Y0357013D01*
X0058914Y0357011D01*
X0058993Y0357005D01*
X0059072Y0356996D01*
X0059150Y0356982D01*
X0059227Y0356965D01*
X0059304Y0356945D01*
X0059379Y0356920D01*
X0059453Y0356892D01*
X0059526Y0356860D01*
X0059597Y0356825D01*
X0059666Y0356787D01*
X0059733Y0356745D01*
X0059798Y0356700D01*
X0059861Y0356652D01*
X0059922Y0356601D01*
X0059980Y0356547D01*
X0060035Y0356490D01*
X0060088Y0356431D01*
X0060137Y0356369D01*
X0060184Y0356305D01*
X0060227Y0356239D01*
X0060267Y0356171D01*
X0060304Y0356100D01*
X0060338Y0356029D01*
X0060367Y0355955D01*
X0060394Y0355880D01*
X0060416Y0355805D01*
X0060435Y0355728D01*
X0060451Y0355650D01*
X0060462Y0355572D01*
X0060470Y0355493D01*
X0060474Y0355414D01*
X0060474Y0355334D01*
X0060470Y0355255D01*
X0060462Y0355176D01*
X0060451Y0355098D01*
X0060435Y0355020D01*
X0060416Y0354943D01*
X0060394Y0354868D01*
X0060367Y0354793D01*
X0060338Y0354719D01*
X0060304Y0354648D01*
X0060267Y0354577D01*
X0060227Y0354509D01*
X0060184Y0354443D01*
X0060137Y0354379D01*
X0060088Y0354317D01*
X0060035Y0354258D01*
X0059980Y0354201D01*
X0059922Y0354147D01*
X0059861Y0354096D01*
X0059798Y0354048D01*
X0059733Y0354003D01*
X0059666Y0353961D01*
X0059597Y0353923D01*
X0059526Y0353888D01*
X0059453Y0353856D01*
X0059379Y0353828D01*
X0059304Y0353803D01*
X0059227Y0353783D01*
X0059150Y0353766D01*
X0059072Y0353752D01*
X0058993Y0353743D01*
X0058914Y0353737D01*
X0058835Y0353735D01*
X0059490Y0360012D02*
X0056540Y0360012D01*
X0056540Y0362634D02*
X0060474Y0362634D01*
X0060474Y0360995D01*
X0060473Y0360995D02*
X0060471Y0360933D01*
X0060465Y0360872D01*
X0060456Y0360811D01*
X0060442Y0360751D01*
X0060425Y0360691D01*
X0060404Y0360633D01*
X0060379Y0360576D01*
X0060351Y0360521D01*
X0060320Y0360468D01*
X0060285Y0360417D01*
X0060247Y0360368D01*
X0060207Y0360322D01*
X0060163Y0360278D01*
X0060117Y0360238D01*
X0060068Y0360200D01*
X0060017Y0360165D01*
X0059964Y0360134D01*
X0059909Y0360106D01*
X0059852Y0360081D01*
X0059794Y0360060D01*
X0059734Y0360043D01*
X0059674Y0360029D01*
X0059613Y0360020D01*
X0059552Y0360014D01*
X0059490Y0360012D01*
X0059490Y0365644D02*
X0054574Y0365644D01*
X0056540Y0364988D02*
X0056540Y0366955D01*
X0059490Y0365644D02*
X0059552Y0365646D01*
X0059613Y0365652D01*
X0059674Y0365661D01*
X0059734Y0365675D01*
X0059794Y0365692D01*
X0059852Y0365713D01*
X0059909Y0365738D01*
X0059964Y0365766D01*
X0060017Y0365797D01*
X0060068Y0365832D01*
X0060117Y0365870D01*
X0060163Y0365910D01*
X0060207Y0365954D01*
X0060247Y0366000D01*
X0060285Y0366049D01*
X0060320Y0366100D01*
X0060351Y0366153D01*
X0060379Y0366208D01*
X0060404Y0366265D01*
X0060425Y0366323D01*
X0060442Y0366383D01*
X0060456Y0366443D01*
X0060465Y0366504D01*
X0060471Y0366565D01*
X0060473Y0366627D01*
X0060474Y0366627D02*
X0060474Y0366955D01*
D12*
X0027524Y0026500D02*
X0027524Y0001500D01*
X0643524Y0001500D01*
X0643524Y0026500D01*
X0027524Y0026500D01*
X0027524Y0028500D02*
X0027524Y0450500D01*
X0052524Y0450500D01*
X0052524Y0028500D01*
X0027524Y0028500D01*
X0618524Y0028500D02*
X0618524Y0450500D01*
X0643524Y0450500D01*
X0643524Y0028500D01*
X0618524Y0028500D01*
X0643524Y0452500D02*
X0027524Y0452500D01*
X0027524Y0477500D01*
X0643524Y0477500D01*
X0643524Y0452500D01*
D13*
X0492256Y0410500D02*
X0492258Y0410581D01*
X0492264Y0410663D01*
X0492274Y0410744D01*
X0492288Y0410824D01*
X0492305Y0410903D01*
X0492327Y0410982D01*
X0492352Y0411059D01*
X0492381Y0411136D01*
X0492414Y0411210D01*
X0492451Y0411283D01*
X0492490Y0411354D01*
X0492534Y0411423D01*
X0492580Y0411490D01*
X0492630Y0411554D01*
X0492683Y0411616D01*
X0492739Y0411676D01*
X0492797Y0411732D01*
X0492859Y0411786D01*
X0492923Y0411837D01*
X0492989Y0411884D01*
X0493057Y0411928D01*
X0493128Y0411969D01*
X0493200Y0412006D01*
X0493275Y0412040D01*
X0493350Y0412070D01*
X0493428Y0412096D01*
X0493506Y0412119D01*
X0493585Y0412137D01*
X0493665Y0412152D01*
X0493746Y0412163D01*
X0493827Y0412170D01*
X0493909Y0412173D01*
X0493990Y0412172D01*
X0494071Y0412167D01*
X0494152Y0412158D01*
X0494233Y0412145D01*
X0494313Y0412128D01*
X0494391Y0412108D01*
X0494469Y0412083D01*
X0494546Y0412055D01*
X0494621Y0412023D01*
X0494694Y0411988D01*
X0494765Y0411949D01*
X0494835Y0411906D01*
X0494902Y0411861D01*
X0494968Y0411812D01*
X0495030Y0411760D01*
X0495090Y0411704D01*
X0495147Y0411646D01*
X0495202Y0411586D01*
X0495253Y0411522D01*
X0495301Y0411457D01*
X0495346Y0411389D01*
X0495388Y0411319D01*
X0495426Y0411247D01*
X0495461Y0411173D01*
X0495492Y0411098D01*
X0495519Y0411021D01*
X0495542Y0410943D01*
X0495562Y0410864D01*
X0495578Y0410784D01*
X0495590Y0410703D01*
X0495598Y0410622D01*
X0495602Y0410541D01*
X0495602Y0410459D01*
X0495598Y0410378D01*
X0495590Y0410297D01*
X0495578Y0410216D01*
X0495562Y0410136D01*
X0495542Y0410057D01*
X0495519Y0409979D01*
X0495492Y0409902D01*
X0495461Y0409827D01*
X0495426Y0409753D01*
X0495388Y0409681D01*
X0495346Y0409611D01*
X0495301Y0409543D01*
X0495253Y0409478D01*
X0495202Y0409414D01*
X0495147Y0409354D01*
X0495090Y0409296D01*
X0495030Y0409240D01*
X0494968Y0409188D01*
X0494902Y0409139D01*
X0494835Y0409094D01*
X0494766Y0409051D01*
X0494694Y0409012D01*
X0494621Y0408977D01*
X0494546Y0408945D01*
X0494469Y0408917D01*
X0494391Y0408892D01*
X0494313Y0408872D01*
X0494233Y0408855D01*
X0494152Y0408842D01*
X0494071Y0408833D01*
X0493990Y0408828D01*
X0493909Y0408827D01*
X0493827Y0408830D01*
X0493746Y0408837D01*
X0493665Y0408848D01*
X0493585Y0408863D01*
X0493506Y0408881D01*
X0493428Y0408904D01*
X0493350Y0408930D01*
X0493275Y0408960D01*
X0493200Y0408994D01*
X0493128Y0409031D01*
X0493057Y0409072D01*
X0492989Y0409116D01*
X0492923Y0409163D01*
X0492859Y0409214D01*
X0492797Y0409268D01*
X0492739Y0409324D01*
X0492683Y0409384D01*
X0492630Y0409446D01*
X0492580Y0409510D01*
X0492534Y0409577D01*
X0492490Y0409646D01*
X0492451Y0409717D01*
X0492414Y0409790D01*
X0492381Y0409864D01*
X0492352Y0409941D01*
X0492327Y0410018D01*
X0492305Y0410097D01*
X0492288Y0410176D01*
X0492274Y0410256D01*
X0492264Y0410337D01*
X0492258Y0410419D01*
X0492256Y0410500D01*
X0480445Y0410500D02*
X0480447Y0410581D01*
X0480453Y0410663D01*
X0480463Y0410744D01*
X0480477Y0410824D01*
X0480494Y0410903D01*
X0480516Y0410982D01*
X0480541Y0411059D01*
X0480570Y0411136D01*
X0480603Y0411210D01*
X0480640Y0411283D01*
X0480679Y0411354D01*
X0480723Y0411423D01*
X0480769Y0411490D01*
X0480819Y0411554D01*
X0480872Y0411616D01*
X0480928Y0411676D01*
X0480986Y0411732D01*
X0481048Y0411786D01*
X0481112Y0411837D01*
X0481178Y0411884D01*
X0481246Y0411928D01*
X0481317Y0411969D01*
X0481389Y0412006D01*
X0481464Y0412040D01*
X0481539Y0412070D01*
X0481617Y0412096D01*
X0481695Y0412119D01*
X0481774Y0412137D01*
X0481854Y0412152D01*
X0481935Y0412163D01*
X0482016Y0412170D01*
X0482098Y0412173D01*
X0482179Y0412172D01*
X0482260Y0412167D01*
X0482341Y0412158D01*
X0482422Y0412145D01*
X0482502Y0412128D01*
X0482580Y0412108D01*
X0482658Y0412083D01*
X0482735Y0412055D01*
X0482810Y0412023D01*
X0482883Y0411988D01*
X0482954Y0411949D01*
X0483024Y0411906D01*
X0483091Y0411861D01*
X0483157Y0411812D01*
X0483219Y0411760D01*
X0483279Y0411704D01*
X0483336Y0411646D01*
X0483391Y0411586D01*
X0483442Y0411522D01*
X0483490Y0411457D01*
X0483535Y0411389D01*
X0483577Y0411319D01*
X0483615Y0411247D01*
X0483650Y0411173D01*
X0483681Y0411098D01*
X0483708Y0411021D01*
X0483731Y0410943D01*
X0483751Y0410864D01*
X0483767Y0410784D01*
X0483779Y0410703D01*
X0483787Y0410622D01*
X0483791Y0410541D01*
X0483791Y0410459D01*
X0483787Y0410378D01*
X0483779Y0410297D01*
X0483767Y0410216D01*
X0483751Y0410136D01*
X0483731Y0410057D01*
X0483708Y0409979D01*
X0483681Y0409902D01*
X0483650Y0409827D01*
X0483615Y0409753D01*
X0483577Y0409681D01*
X0483535Y0409611D01*
X0483490Y0409543D01*
X0483442Y0409478D01*
X0483391Y0409414D01*
X0483336Y0409354D01*
X0483279Y0409296D01*
X0483219Y0409240D01*
X0483157Y0409188D01*
X0483091Y0409139D01*
X0483024Y0409094D01*
X0482955Y0409051D01*
X0482883Y0409012D01*
X0482810Y0408977D01*
X0482735Y0408945D01*
X0482658Y0408917D01*
X0482580Y0408892D01*
X0482502Y0408872D01*
X0482422Y0408855D01*
X0482341Y0408842D01*
X0482260Y0408833D01*
X0482179Y0408828D01*
X0482098Y0408827D01*
X0482016Y0408830D01*
X0481935Y0408837D01*
X0481854Y0408848D01*
X0481774Y0408863D01*
X0481695Y0408881D01*
X0481617Y0408904D01*
X0481539Y0408930D01*
X0481464Y0408960D01*
X0481389Y0408994D01*
X0481317Y0409031D01*
X0481246Y0409072D01*
X0481178Y0409116D01*
X0481112Y0409163D01*
X0481048Y0409214D01*
X0480986Y0409268D01*
X0480928Y0409324D01*
X0480872Y0409384D01*
X0480819Y0409446D01*
X0480769Y0409510D01*
X0480723Y0409577D01*
X0480679Y0409646D01*
X0480640Y0409717D01*
X0480603Y0409790D01*
X0480570Y0409864D01*
X0480541Y0409941D01*
X0480516Y0410018D01*
X0480494Y0410097D01*
X0480477Y0410176D01*
X0480463Y0410256D01*
X0480453Y0410337D01*
X0480447Y0410419D01*
X0480445Y0410500D01*
X0359024Y0440500D02*
X0359026Y0440661D01*
X0359032Y0440821D01*
X0359042Y0440982D01*
X0359056Y0441142D01*
X0359074Y0441302D01*
X0359095Y0441461D01*
X0359121Y0441620D01*
X0359151Y0441778D01*
X0359184Y0441935D01*
X0359222Y0442092D01*
X0359263Y0442247D01*
X0359308Y0442401D01*
X0359357Y0442554D01*
X0359410Y0442706D01*
X0359466Y0442857D01*
X0359527Y0443006D01*
X0359590Y0443154D01*
X0359658Y0443300D01*
X0359729Y0443444D01*
X0359803Y0443586D01*
X0359881Y0443727D01*
X0359963Y0443865D01*
X0360048Y0444002D01*
X0360136Y0444136D01*
X0360228Y0444268D01*
X0360323Y0444398D01*
X0360421Y0444526D01*
X0360522Y0444651D01*
X0360626Y0444773D01*
X0360733Y0444893D01*
X0360843Y0445010D01*
X0360956Y0445125D01*
X0361072Y0445236D01*
X0361191Y0445345D01*
X0361312Y0445450D01*
X0361436Y0445553D01*
X0361562Y0445653D01*
X0361690Y0445749D01*
X0361821Y0445842D01*
X0361955Y0445932D01*
X0362090Y0446019D01*
X0362228Y0446102D01*
X0362367Y0446182D01*
X0362509Y0446258D01*
X0362652Y0446331D01*
X0362797Y0446400D01*
X0362944Y0446466D01*
X0363092Y0446528D01*
X0363242Y0446586D01*
X0363393Y0446641D01*
X0363546Y0446692D01*
X0363700Y0446739D01*
X0363855Y0446782D01*
X0364011Y0446821D01*
X0364167Y0446857D01*
X0364325Y0446888D01*
X0364483Y0446916D01*
X0364642Y0446940D01*
X0364802Y0446960D01*
X0364962Y0446976D01*
X0365122Y0446988D01*
X0365283Y0446996D01*
X0365444Y0447000D01*
X0365604Y0447000D01*
X0365765Y0446996D01*
X0365926Y0446988D01*
X0366086Y0446976D01*
X0366246Y0446960D01*
X0366406Y0446940D01*
X0366565Y0446916D01*
X0366723Y0446888D01*
X0366881Y0446857D01*
X0367037Y0446821D01*
X0367193Y0446782D01*
X0367348Y0446739D01*
X0367502Y0446692D01*
X0367655Y0446641D01*
X0367806Y0446586D01*
X0367956Y0446528D01*
X0368104Y0446466D01*
X0368251Y0446400D01*
X0368396Y0446331D01*
X0368539Y0446258D01*
X0368681Y0446182D01*
X0368820Y0446102D01*
X0368958Y0446019D01*
X0369093Y0445932D01*
X0369227Y0445842D01*
X0369358Y0445749D01*
X0369486Y0445653D01*
X0369612Y0445553D01*
X0369736Y0445450D01*
X0369857Y0445345D01*
X0369976Y0445236D01*
X0370092Y0445125D01*
X0370205Y0445010D01*
X0370315Y0444893D01*
X0370422Y0444773D01*
X0370526Y0444651D01*
X0370627Y0444526D01*
X0370725Y0444398D01*
X0370820Y0444268D01*
X0370912Y0444136D01*
X0371000Y0444002D01*
X0371085Y0443865D01*
X0371167Y0443727D01*
X0371245Y0443586D01*
X0371319Y0443444D01*
X0371390Y0443300D01*
X0371458Y0443154D01*
X0371521Y0443006D01*
X0371582Y0442857D01*
X0371638Y0442706D01*
X0371691Y0442554D01*
X0371740Y0442401D01*
X0371785Y0442247D01*
X0371826Y0442092D01*
X0371864Y0441935D01*
X0371897Y0441778D01*
X0371927Y0441620D01*
X0371953Y0441461D01*
X0371974Y0441302D01*
X0371992Y0441142D01*
X0372006Y0440982D01*
X0372016Y0440821D01*
X0372022Y0440661D01*
X0372024Y0440500D01*
X0372022Y0440339D01*
X0372016Y0440179D01*
X0372006Y0440018D01*
X0371992Y0439858D01*
X0371974Y0439698D01*
X0371953Y0439539D01*
X0371927Y0439380D01*
X0371897Y0439222D01*
X0371864Y0439065D01*
X0371826Y0438908D01*
X0371785Y0438753D01*
X0371740Y0438599D01*
X0371691Y0438446D01*
X0371638Y0438294D01*
X0371582Y0438143D01*
X0371521Y0437994D01*
X0371458Y0437846D01*
X0371390Y0437700D01*
X0371319Y0437556D01*
X0371245Y0437414D01*
X0371167Y0437273D01*
X0371085Y0437135D01*
X0371000Y0436998D01*
X0370912Y0436864D01*
X0370820Y0436732D01*
X0370725Y0436602D01*
X0370627Y0436474D01*
X0370526Y0436349D01*
X0370422Y0436227D01*
X0370315Y0436107D01*
X0370205Y0435990D01*
X0370092Y0435875D01*
X0369976Y0435764D01*
X0369857Y0435655D01*
X0369736Y0435550D01*
X0369612Y0435447D01*
X0369486Y0435347D01*
X0369358Y0435251D01*
X0369227Y0435158D01*
X0369093Y0435068D01*
X0368958Y0434981D01*
X0368820Y0434898D01*
X0368681Y0434818D01*
X0368539Y0434742D01*
X0368396Y0434669D01*
X0368251Y0434600D01*
X0368104Y0434534D01*
X0367956Y0434472D01*
X0367806Y0434414D01*
X0367655Y0434359D01*
X0367502Y0434308D01*
X0367348Y0434261D01*
X0367193Y0434218D01*
X0367037Y0434179D01*
X0366881Y0434143D01*
X0366723Y0434112D01*
X0366565Y0434084D01*
X0366406Y0434060D01*
X0366246Y0434040D01*
X0366086Y0434024D01*
X0365926Y0434012D01*
X0365765Y0434004D01*
X0365604Y0434000D01*
X0365444Y0434000D01*
X0365283Y0434004D01*
X0365122Y0434012D01*
X0364962Y0434024D01*
X0364802Y0434040D01*
X0364642Y0434060D01*
X0364483Y0434084D01*
X0364325Y0434112D01*
X0364167Y0434143D01*
X0364011Y0434179D01*
X0363855Y0434218D01*
X0363700Y0434261D01*
X0363546Y0434308D01*
X0363393Y0434359D01*
X0363242Y0434414D01*
X0363092Y0434472D01*
X0362944Y0434534D01*
X0362797Y0434600D01*
X0362652Y0434669D01*
X0362509Y0434742D01*
X0362367Y0434818D01*
X0362228Y0434898D01*
X0362090Y0434981D01*
X0361955Y0435068D01*
X0361821Y0435158D01*
X0361690Y0435251D01*
X0361562Y0435347D01*
X0361436Y0435447D01*
X0361312Y0435550D01*
X0361191Y0435655D01*
X0361072Y0435764D01*
X0360956Y0435875D01*
X0360843Y0435990D01*
X0360733Y0436107D01*
X0360626Y0436227D01*
X0360522Y0436349D01*
X0360421Y0436474D01*
X0360323Y0436602D01*
X0360228Y0436732D01*
X0360136Y0436864D01*
X0360048Y0436998D01*
X0359963Y0437135D01*
X0359881Y0437273D01*
X0359803Y0437414D01*
X0359729Y0437556D01*
X0359658Y0437700D01*
X0359590Y0437846D01*
X0359527Y0437994D01*
X0359466Y0438143D01*
X0359410Y0438294D01*
X0359357Y0438446D01*
X0359308Y0438599D01*
X0359263Y0438753D01*
X0359222Y0438908D01*
X0359184Y0439065D01*
X0359151Y0439222D01*
X0359121Y0439380D01*
X0359095Y0439539D01*
X0359074Y0439698D01*
X0359056Y0439858D01*
X0359042Y0440018D01*
X0359032Y0440179D01*
X0359026Y0440339D01*
X0359024Y0440500D01*
X0214256Y0410500D02*
X0214258Y0410581D01*
X0214264Y0410663D01*
X0214274Y0410744D01*
X0214288Y0410824D01*
X0214305Y0410903D01*
X0214327Y0410982D01*
X0214352Y0411059D01*
X0214381Y0411136D01*
X0214414Y0411210D01*
X0214451Y0411283D01*
X0214490Y0411354D01*
X0214534Y0411423D01*
X0214580Y0411490D01*
X0214630Y0411554D01*
X0214683Y0411616D01*
X0214739Y0411676D01*
X0214797Y0411732D01*
X0214859Y0411786D01*
X0214923Y0411837D01*
X0214989Y0411884D01*
X0215057Y0411928D01*
X0215128Y0411969D01*
X0215200Y0412006D01*
X0215275Y0412040D01*
X0215350Y0412070D01*
X0215428Y0412096D01*
X0215506Y0412119D01*
X0215585Y0412137D01*
X0215665Y0412152D01*
X0215746Y0412163D01*
X0215827Y0412170D01*
X0215909Y0412173D01*
X0215990Y0412172D01*
X0216071Y0412167D01*
X0216152Y0412158D01*
X0216233Y0412145D01*
X0216313Y0412128D01*
X0216391Y0412108D01*
X0216469Y0412083D01*
X0216546Y0412055D01*
X0216621Y0412023D01*
X0216694Y0411988D01*
X0216765Y0411949D01*
X0216835Y0411906D01*
X0216902Y0411861D01*
X0216968Y0411812D01*
X0217030Y0411760D01*
X0217090Y0411704D01*
X0217147Y0411646D01*
X0217202Y0411586D01*
X0217253Y0411522D01*
X0217301Y0411457D01*
X0217346Y0411389D01*
X0217388Y0411319D01*
X0217426Y0411247D01*
X0217461Y0411173D01*
X0217492Y0411098D01*
X0217519Y0411021D01*
X0217542Y0410943D01*
X0217562Y0410864D01*
X0217578Y0410784D01*
X0217590Y0410703D01*
X0217598Y0410622D01*
X0217602Y0410541D01*
X0217602Y0410459D01*
X0217598Y0410378D01*
X0217590Y0410297D01*
X0217578Y0410216D01*
X0217562Y0410136D01*
X0217542Y0410057D01*
X0217519Y0409979D01*
X0217492Y0409902D01*
X0217461Y0409827D01*
X0217426Y0409753D01*
X0217388Y0409681D01*
X0217346Y0409611D01*
X0217301Y0409543D01*
X0217253Y0409478D01*
X0217202Y0409414D01*
X0217147Y0409354D01*
X0217090Y0409296D01*
X0217030Y0409240D01*
X0216968Y0409188D01*
X0216902Y0409139D01*
X0216835Y0409094D01*
X0216766Y0409051D01*
X0216694Y0409012D01*
X0216621Y0408977D01*
X0216546Y0408945D01*
X0216469Y0408917D01*
X0216391Y0408892D01*
X0216313Y0408872D01*
X0216233Y0408855D01*
X0216152Y0408842D01*
X0216071Y0408833D01*
X0215990Y0408828D01*
X0215909Y0408827D01*
X0215827Y0408830D01*
X0215746Y0408837D01*
X0215665Y0408848D01*
X0215585Y0408863D01*
X0215506Y0408881D01*
X0215428Y0408904D01*
X0215350Y0408930D01*
X0215275Y0408960D01*
X0215200Y0408994D01*
X0215128Y0409031D01*
X0215057Y0409072D01*
X0214989Y0409116D01*
X0214923Y0409163D01*
X0214859Y0409214D01*
X0214797Y0409268D01*
X0214739Y0409324D01*
X0214683Y0409384D01*
X0214630Y0409446D01*
X0214580Y0409510D01*
X0214534Y0409577D01*
X0214490Y0409646D01*
X0214451Y0409717D01*
X0214414Y0409790D01*
X0214381Y0409864D01*
X0214352Y0409941D01*
X0214327Y0410018D01*
X0214305Y0410097D01*
X0214288Y0410176D01*
X0214274Y0410256D01*
X0214264Y0410337D01*
X0214258Y0410419D01*
X0214256Y0410500D01*
X0202445Y0410500D02*
X0202447Y0410581D01*
X0202453Y0410663D01*
X0202463Y0410744D01*
X0202477Y0410824D01*
X0202494Y0410903D01*
X0202516Y0410982D01*
X0202541Y0411059D01*
X0202570Y0411136D01*
X0202603Y0411210D01*
X0202640Y0411283D01*
X0202679Y0411354D01*
X0202723Y0411423D01*
X0202769Y0411490D01*
X0202819Y0411554D01*
X0202872Y0411616D01*
X0202928Y0411676D01*
X0202986Y0411732D01*
X0203048Y0411786D01*
X0203112Y0411837D01*
X0203178Y0411884D01*
X0203246Y0411928D01*
X0203317Y0411969D01*
X0203389Y0412006D01*
X0203464Y0412040D01*
X0203539Y0412070D01*
X0203617Y0412096D01*
X0203695Y0412119D01*
X0203774Y0412137D01*
X0203854Y0412152D01*
X0203935Y0412163D01*
X0204016Y0412170D01*
X0204098Y0412173D01*
X0204179Y0412172D01*
X0204260Y0412167D01*
X0204341Y0412158D01*
X0204422Y0412145D01*
X0204502Y0412128D01*
X0204580Y0412108D01*
X0204658Y0412083D01*
X0204735Y0412055D01*
X0204810Y0412023D01*
X0204883Y0411988D01*
X0204954Y0411949D01*
X0205024Y0411906D01*
X0205091Y0411861D01*
X0205157Y0411812D01*
X0205219Y0411760D01*
X0205279Y0411704D01*
X0205336Y0411646D01*
X0205391Y0411586D01*
X0205442Y0411522D01*
X0205490Y0411457D01*
X0205535Y0411389D01*
X0205577Y0411319D01*
X0205615Y0411247D01*
X0205650Y0411173D01*
X0205681Y0411098D01*
X0205708Y0411021D01*
X0205731Y0410943D01*
X0205751Y0410864D01*
X0205767Y0410784D01*
X0205779Y0410703D01*
X0205787Y0410622D01*
X0205791Y0410541D01*
X0205791Y0410459D01*
X0205787Y0410378D01*
X0205779Y0410297D01*
X0205767Y0410216D01*
X0205751Y0410136D01*
X0205731Y0410057D01*
X0205708Y0409979D01*
X0205681Y0409902D01*
X0205650Y0409827D01*
X0205615Y0409753D01*
X0205577Y0409681D01*
X0205535Y0409611D01*
X0205490Y0409543D01*
X0205442Y0409478D01*
X0205391Y0409414D01*
X0205336Y0409354D01*
X0205279Y0409296D01*
X0205219Y0409240D01*
X0205157Y0409188D01*
X0205091Y0409139D01*
X0205024Y0409094D01*
X0204955Y0409051D01*
X0204883Y0409012D01*
X0204810Y0408977D01*
X0204735Y0408945D01*
X0204658Y0408917D01*
X0204580Y0408892D01*
X0204502Y0408872D01*
X0204422Y0408855D01*
X0204341Y0408842D01*
X0204260Y0408833D01*
X0204179Y0408828D01*
X0204098Y0408827D01*
X0204016Y0408830D01*
X0203935Y0408837D01*
X0203854Y0408848D01*
X0203774Y0408863D01*
X0203695Y0408881D01*
X0203617Y0408904D01*
X0203539Y0408930D01*
X0203464Y0408960D01*
X0203389Y0408994D01*
X0203317Y0409031D01*
X0203246Y0409072D01*
X0203178Y0409116D01*
X0203112Y0409163D01*
X0203048Y0409214D01*
X0202986Y0409268D01*
X0202928Y0409324D01*
X0202872Y0409384D01*
X0202819Y0409446D01*
X0202769Y0409510D01*
X0202723Y0409577D01*
X0202679Y0409646D01*
X0202640Y0409717D01*
X0202603Y0409790D01*
X0202570Y0409864D01*
X0202541Y0409941D01*
X0202516Y0410018D01*
X0202494Y0410097D01*
X0202477Y0410176D01*
X0202463Y0410256D01*
X0202453Y0410337D01*
X0202447Y0410419D01*
X0202445Y0410500D01*
X0081024Y0440500D02*
X0081026Y0440661D01*
X0081032Y0440821D01*
X0081042Y0440982D01*
X0081056Y0441142D01*
X0081074Y0441302D01*
X0081095Y0441461D01*
X0081121Y0441620D01*
X0081151Y0441778D01*
X0081184Y0441935D01*
X0081222Y0442092D01*
X0081263Y0442247D01*
X0081308Y0442401D01*
X0081357Y0442554D01*
X0081410Y0442706D01*
X0081466Y0442857D01*
X0081527Y0443006D01*
X0081590Y0443154D01*
X0081658Y0443300D01*
X0081729Y0443444D01*
X0081803Y0443586D01*
X0081881Y0443727D01*
X0081963Y0443865D01*
X0082048Y0444002D01*
X0082136Y0444136D01*
X0082228Y0444268D01*
X0082323Y0444398D01*
X0082421Y0444526D01*
X0082522Y0444651D01*
X0082626Y0444773D01*
X0082733Y0444893D01*
X0082843Y0445010D01*
X0082956Y0445125D01*
X0083072Y0445236D01*
X0083191Y0445345D01*
X0083312Y0445450D01*
X0083436Y0445553D01*
X0083562Y0445653D01*
X0083690Y0445749D01*
X0083821Y0445842D01*
X0083955Y0445932D01*
X0084090Y0446019D01*
X0084228Y0446102D01*
X0084367Y0446182D01*
X0084509Y0446258D01*
X0084652Y0446331D01*
X0084797Y0446400D01*
X0084944Y0446466D01*
X0085092Y0446528D01*
X0085242Y0446586D01*
X0085393Y0446641D01*
X0085546Y0446692D01*
X0085700Y0446739D01*
X0085855Y0446782D01*
X0086011Y0446821D01*
X0086167Y0446857D01*
X0086325Y0446888D01*
X0086483Y0446916D01*
X0086642Y0446940D01*
X0086802Y0446960D01*
X0086962Y0446976D01*
X0087122Y0446988D01*
X0087283Y0446996D01*
X0087444Y0447000D01*
X0087604Y0447000D01*
X0087765Y0446996D01*
X0087926Y0446988D01*
X0088086Y0446976D01*
X0088246Y0446960D01*
X0088406Y0446940D01*
X0088565Y0446916D01*
X0088723Y0446888D01*
X0088881Y0446857D01*
X0089037Y0446821D01*
X0089193Y0446782D01*
X0089348Y0446739D01*
X0089502Y0446692D01*
X0089655Y0446641D01*
X0089806Y0446586D01*
X0089956Y0446528D01*
X0090104Y0446466D01*
X0090251Y0446400D01*
X0090396Y0446331D01*
X0090539Y0446258D01*
X0090681Y0446182D01*
X0090820Y0446102D01*
X0090958Y0446019D01*
X0091093Y0445932D01*
X0091227Y0445842D01*
X0091358Y0445749D01*
X0091486Y0445653D01*
X0091612Y0445553D01*
X0091736Y0445450D01*
X0091857Y0445345D01*
X0091976Y0445236D01*
X0092092Y0445125D01*
X0092205Y0445010D01*
X0092315Y0444893D01*
X0092422Y0444773D01*
X0092526Y0444651D01*
X0092627Y0444526D01*
X0092725Y0444398D01*
X0092820Y0444268D01*
X0092912Y0444136D01*
X0093000Y0444002D01*
X0093085Y0443865D01*
X0093167Y0443727D01*
X0093245Y0443586D01*
X0093319Y0443444D01*
X0093390Y0443300D01*
X0093458Y0443154D01*
X0093521Y0443006D01*
X0093582Y0442857D01*
X0093638Y0442706D01*
X0093691Y0442554D01*
X0093740Y0442401D01*
X0093785Y0442247D01*
X0093826Y0442092D01*
X0093864Y0441935D01*
X0093897Y0441778D01*
X0093927Y0441620D01*
X0093953Y0441461D01*
X0093974Y0441302D01*
X0093992Y0441142D01*
X0094006Y0440982D01*
X0094016Y0440821D01*
X0094022Y0440661D01*
X0094024Y0440500D01*
X0094022Y0440339D01*
X0094016Y0440179D01*
X0094006Y0440018D01*
X0093992Y0439858D01*
X0093974Y0439698D01*
X0093953Y0439539D01*
X0093927Y0439380D01*
X0093897Y0439222D01*
X0093864Y0439065D01*
X0093826Y0438908D01*
X0093785Y0438753D01*
X0093740Y0438599D01*
X0093691Y0438446D01*
X0093638Y0438294D01*
X0093582Y0438143D01*
X0093521Y0437994D01*
X0093458Y0437846D01*
X0093390Y0437700D01*
X0093319Y0437556D01*
X0093245Y0437414D01*
X0093167Y0437273D01*
X0093085Y0437135D01*
X0093000Y0436998D01*
X0092912Y0436864D01*
X0092820Y0436732D01*
X0092725Y0436602D01*
X0092627Y0436474D01*
X0092526Y0436349D01*
X0092422Y0436227D01*
X0092315Y0436107D01*
X0092205Y0435990D01*
X0092092Y0435875D01*
X0091976Y0435764D01*
X0091857Y0435655D01*
X0091736Y0435550D01*
X0091612Y0435447D01*
X0091486Y0435347D01*
X0091358Y0435251D01*
X0091227Y0435158D01*
X0091093Y0435068D01*
X0090958Y0434981D01*
X0090820Y0434898D01*
X0090681Y0434818D01*
X0090539Y0434742D01*
X0090396Y0434669D01*
X0090251Y0434600D01*
X0090104Y0434534D01*
X0089956Y0434472D01*
X0089806Y0434414D01*
X0089655Y0434359D01*
X0089502Y0434308D01*
X0089348Y0434261D01*
X0089193Y0434218D01*
X0089037Y0434179D01*
X0088881Y0434143D01*
X0088723Y0434112D01*
X0088565Y0434084D01*
X0088406Y0434060D01*
X0088246Y0434040D01*
X0088086Y0434024D01*
X0087926Y0434012D01*
X0087765Y0434004D01*
X0087604Y0434000D01*
X0087444Y0434000D01*
X0087283Y0434004D01*
X0087122Y0434012D01*
X0086962Y0434024D01*
X0086802Y0434040D01*
X0086642Y0434060D01*
X0086483Y0434084D01*
X0086325Y0434112D01*
X0086167Y0434143D01*
X0086011Y0434179D01*
X0085855Y0434218D01*
X0085700Y0434261D01*
X0085546Y0434308D01*
X0085393Y0434359D01*
X0085242Y0434414D01*
X0085092Y0434472D01*
X0084944Y0434534D01*
X0084797Y0434600D01*
X0084652Y0434669D01*
X0084509Y0434742D01*
X0084367Y0434818D01*
X0084228Y0434898D01*
X0084090Y0434981D01*
X0083955Y0435068D01*
X0083821Y0435158D01*
X0083690Y0435251D01*
X0083562Y0435347D01*
X0083436Y0435447D01*
X0083312Y0435550D01*
X0083191Y0435655D01*
X0083072Y0435764D01*
X0082956Y0435875D01*
X0082843Y0435990D01*
X0082733Y0436107D01*
X0082626Y0436227D01*
X0082522Y0436349D01*
X0082421Y0436474D01*
X0082323Y0436602D01*
X0082228Y0436732D01*
X0082136Y0436864D01*
X0082048Y0436998D01*
X0081963Y0437135D01*
X0081881Y0437273D01*
X0081803Y0437414D01*
X0081729Y0437556D01*
X0081658Y0437700D01*
X0081590Y0437846D01*
X0081527Y0437994D01*
X0081466Y0438143D01*
X0081410Y0438294D01*
X0081357Y0438446D01*
X0081308Y0438599D01*
X0081263Y0438753D01*
X0081222Y0438908D01*
X0081184Y0439065D01*
X0081151Y0439222D01*
X0081121Y0439380D01*
X0081095Y0439539D01*
X0081074Y0439698D01*
X0081056Y0439858D01*
X0081042Y0440018D01*
X0081032Y0440179D01*
X0081026Y0440339D01*
X0081024Y0440500D01*
X0280524Y0270500D02*
X0280526Y0270661D01*
X0280532Y0270821D01*
X0280542Y0270982D01*
X0280556Y0271142D01*
X0280574Y0271302D01*
X0280595Y0271461D01*
X0280621Y0271620D01*
X0280651Y0271778D01*
X0280684Y0271935D01*
X0280722Y0272092D01*
X0280763Y0272247D01*
X0280808Y0272401D01*
X0280857Y0272554D01*
X0280910Y0272706D01*
X0280966Y0272857D01*
X0281027Y0273006D01*
X0281090Y0273154D01*
X0281158Y0273300D01*
X0281229Y0273444D01*
X0281303Y0273586D01*
X0281381Y0273727D01*
X0281463Y0273865D01*
X0281548Y0274002D01*
X0281636Y0274136D01*
X0281728Y0274268D01*
X0281823Y0274398D01*
X0281921Y0274526D01*
X0282022Y0274651D01*
X0282126Y0274773D01*
X0282233Y0274893D01*
X0282343Y0275010D01*
X0282456Y0275125D01*
X0282572Y0275236D01*
X0282691Y0275345D01*
X0282812Y0275450D01*
X0282936Y0275553D01*
X0283062Y0275653D01*
X0283190Y0275749D01*
X0283321Y0275842D01*
X0283455Y0275932D01*
X0283590Y0276019D01*
X0283728Y0276102D01*
X0283867Y0276182D01*
X0284009Y0276258D01*
X0284152Y0276331D01*
X0284297Y0276400D01*
X0284444Y0276466D01*
X0284592Y0276528D01*
X0284742Y0276586D01*
X0284893Y0276641D01*
X0285046Y0276692D01*
X0285200Y0276739D01*
X0285355Y0276782D01*
X0285511Y0276821D01*
X0285667Y0276857D01*
X0285825Y0276888D01*
X0285983Y0276916D01*
X0286142Y0276940D01*
X0286302Y0276960D01*
X0286462Y0276976D01*
X0286622Y0276988D01*
X0286783Y0276996D01*
X0286944Y0277000D01*
X0287104Y0277000D01*
X0287265Y0276996D01*
X0287426Y0276988D01*
X0287586Y0276976D01*
X0287746Y0276960D01*
X0287906Y0276940D01*
X0288065Y0276916D01*
X0288223Y0276888D01*
X0288381Y0276857D01*
X0288537Y0276821D01*
X0288693Y0276782D01*
X0288848Y0276739D01*
X0289002Y0276692D01*
X0289155Y0276641D01*
X0289306Y0276586D01*
X0289456Y0276528D01*
X0289604Y0276466D01*
X0289751Y0276400D01*
X0289896Y0276331D01*
X0290039Y0276258D01*
X0290181Y0276182D01*
X0290320Y0276102D01*
X0290458Y0276019D01*
X0290593Y0275932D01*
X0290727Y0275842D01*
X0290858Y0275749D01*
X0290986Y0275653D01*
X0291112Y0275553D01*
X0291236Y0275450D01*
X0291357Y0275345D01*
X0291476Y0275236D01*
X0291592Y0275125D01*
X0291705Y0275010D01*
X0291815Y0274893D01*
X0291922Y0274773D01*
X0292026Y0274651D01*
X0292127Y0274526D01*
X0292225Y0274398D01*
X0292320Y0274268D01*
X0292412Y0274136D01*
X0292500Y0274002D01*
X0292585Y0273865D01*
X0292667Y0273727D01*
X0292745Y0273586D01*
X0292819Y0273444D01*
X0292890Y0273300D01*
X0292958Y0273154D01*
X0293021Y0273006D01*
X0293082Y0272857D01*
X0293138Y0272706D01*
X0293191Y0272554D01*
X0293240Y0272401D01*
X0293285Y0272247D01*
X0293326Y0272092D01*
X0293364Y0271935D01*
X0293397Y0271778D01*
X0293427Y0271620D01*
X0293453Y0271461D01*
X0293474Y0271302D01*
X0293492Y0271142D01*
X0293506Y0270982D01*
X0293516Y0270821D01*
X0293522Y0270661D01*
X0293524Y0270500D01*
X0293522Y0270339D01*
X0293516Y0270179D01*
X0293506Y0270018D01*
X0293492Y0269858D01*
X0293474Y0269698D01*
X0293453Y0269539D01*
X0293427Y0269380D01*
X0293397Y0269222D01*
X0293364Y0269065D01*
X0293326Y0268908D01*
X0293285Y0268753D01*
X0293240Y0268599D01*
X0293191Y0268446D01*
X0293138Y0268294D01*
X0293082Y0268143D01*
X0293021Y0267994D01*
X0292958Y0267846D01*
X0292890Y0267700D01*
X0292819Y0267556D01*
X0292745Y0267414D01*
X0292667Y0267273D01*
X0292585Y0267135D01*
X0292500Y0266998D01*
X0292412Y0266864D01*
X0292320Y0266732D01*
X0292225Y0266602D01*
X0292127Y0266474D01*
X0292026Y0266349D01*
X0291922Y0266227D01*
X0291815Y0266107D01*
X0291705Y0265990D01*
X0291592Y0265875D01*
X0291476Y0265764D01*
X0291357Y0265655D01*
X0291236Y0265550D01*
X0291112Y0265447D01*
X0290986Y0265347D01*
X0290858Y0265251D01*
X0290727Y0265158D01*
X0290593Y0265068D01*
X0290458Y0264981D01*
X0290320Y0264898D01*
X0290181Y0264818D01*
X0290039Y0264742D01*
X0289896Y0264669D01*
X0289751Y0264600D01*
X0289604Y0264534D01*
X0289456Y0264472D01*
X0289306Y0264414D01*
X0289155Y0264359D01*
X0289002Y0264308D01*
X0288848Y0264261D01*
X0288693Y0264218D01*
X0288537Y0264179D01*
X0288381Y0264143D01*
X0288223Y0264112D01*
X0288065Y0264084D01*
X0287906Y0264060D01*
X0287746Y0264040D01*
X0287586Y0264024D01*
X0287426Y0264012D01*
X0287265Y0264004D01*
X0287104Y0264000D01*
X0286944Y0264000D01*
X0286783Y0264004D01*
X0286622Y0264012D01*
X0286462Y0264024D01*
X0286302Y0264040D01*
X0286142Y0264060D01*
X0285983Y0264084D01*
X0285825Y0264112D01*
X0285667Y0264143D01*
X0285511Y0264179D01*
X0285355Y0264218D01*
X0285200Y0264261D01*
X0285046Y0264308D01*
X0284893Y0264359D01*
X0284742Y0264414D01*
X0284592Y0264472D01*
X0284444Y0264534D01*
X0284297Y0264600D01*
X0284152Y0264669D01*
X0284009Y0264742D01*
X0283867Y0264818D01*
X0283728Y0264898D01*
X0283590Y0264981D01*
X0283455Y0265068D01*
X0283321Y0265158D01*
X0283190Y0265251D01*
X0283062Y0265347D01*
X0282936Y0265447D01*
X0282812Y0265550D01*
X0282691Y0265655D01*
X0282572Y0265764D01*
X0282456Y0265875D01*
X0282343Y0265990D01*
X0282233Y0266107D01*
X0282126Y0266227D01*
X0282022Y0266349D01*
X0281921Y0266474D01*
X0281823Y0266602D01*
X0281728Y0266732D01*
X0281636Y0266864D01*
X0281548Y0266998D01*
X0281463Y0267135D01*
X0281381Y0267273D01*
X0281303Y0267414D01*
X0281229Y0267556D01*
X0281158Y0267700D01*
X0281090Y0267846D01*
X0281027Y0267994D01*
X0280966Y0268143D01*
X0280910Y0268294D01*
X0280857Y0268446D01*
X0280808Y0268599D01*
X0280763Y0268753D01*
X0280722Y0268908D01*
X0280684Y0269065D01*
X0280651Y0269222D01*
X0280621Y0269380D01*
X0280595Y0269539D01*
X0280574Y0269698D01*
X0280556Y0269858D01*
X0280542Y0270018D01*
X0280532Y0270179D01*
X0280526Y0270339D01*
X0280524Y0270500D01*
X0354024Y0250500D02*
X0354026Y0250661D01*
X0354032Y0250821D01*
X0354042Y0250982D01*
X0354056Y0251142D01*
X0354074Y0251302D01*
X0354095Y0251461D01*
X0354121Y0251620D01*
X0354151Y0251778D01*
X0354184Y0251935D01*
X0354222Y0252092D01*
X0354263Y0252247D01*
X0354308Y0252401D01*
X0354357Y0252554D01*
X0354410Y0252706D01*
X0354466Y0252857D01*
X0354527Y0253006D01*
X0354590Y0253154D01*
X0354658Y0253300D01*
X0354729Y0253444D01*
X0354803Y0253586D01*
X0354881Y0253727D01*
X0354963Y0253865D01*
X0355048Y0254002D01*
X0355136Y0254136D01*
X0355228Y0254268D01*
X0355323Y0254398D01*
X0355421Y0254526D01*
X0355522Y0254651D01*
X0355626Y0254773D01*
X0355733Y0254893D01*
X0355843Y0255010D01*
X0355956Y0255125D01*
X0356072Y0255236D01*
X0356191Y0255345D01*
X0356312Y0255450D01*
X0356436Y0255553D01*
X0356562Y0255653D01*
X0356690Y0255749D01*
X0356821Y0255842D01*
X0356955Y0255932D01*
X0357090Y0256019D01*
X0357228Y0256102D01*
X0357367Y0256182D01*
X0357509Y0256258D01*
X0357652Y0256331D01*
X0357797Y0256400D01*
X0357944Y0256466D01*
X0358092Y0256528D01*
X0358242Y0256586D01*
X0358393Y0256641D01*
X0358546Y0256692D01*
X0358700Y0256739D01*
X0358855Y0256782D01*
X0359011Y0256821D01*
X0359167Y0256857D01*
X0359325Y0256888D01*
X0359483Y0256916D01*
X0359642Y0256940D01*
X0359802Y0256960D01*
X0359962Y0256976D01*
X0360122Y0256988D01*
X0360283Y0256996D01*
X0360444Y0257000D01*
X0360604Y0257000D01*
X0360765Y0256996D01*
X0360926Y0256988D01*
X0361086Y0256976D01*
X0361246Y0256960D01*
X0361406Y0256940D01*
X0361565Y0256916D01*
X0361723Y0256888D01*
X0361881Y0256857D01*
X0362037Y0256821D01*
X0362193Y0256782D01*
X0362348Y0256739D01*
X0362502Y0256692D01*
X0362655Y0256641D01*
X0362806Y0256586D01*
X0362956Y0256528D01*
X0363104Y0256466D01*
X0363251Y0256400D01*
X0363396Y0256331D01*
X0363539Y0256258D01*
X0363681Y0256182D01*
X0363820Y0256102D01*
X0363958Y0256019D01*
X0364093Y0255932D01*
X0364227Y0255842D01*
X0364358Y0255749D01*
X0364486Y0255653D01*
X0364612Y0255553D01*
X0364736Y0255450D01*
X0364857Y0255345D01*
X0364976Y0255236D01*
X0365092Y0255125D01*
X0365205Y0255010D01*
X0365315Y0254893D01*
X0365422Y0254773D01*
X0365526Y0254651D01*
X0365627Y0254526D01*
X0365725Y0254398D01*
X0365820Y0254268D01*
X0365912Y0254136D01*
X0366000Y0254002D01*
X0366085Y0253865D01*
X0366167Y0253727D01*
X0366245Y0253586D01*
X0366319Y0253444D01*
X0366390Y0253300D01*
X0366458Y0253154D01*
X0366521Y0253006D01*
X0366582Y0252857D01*
X0366638Y0252706D01*
X0366691Y0252554D01*
X0366740Y0252401D01*
X0366785Y0252247D01*
X0366826Y0252092D01*
X0366864Y0251935D01*
X0366897Y0251778D01*
X0366927Y0251620D01*
X0366953Y0251461D01*
X0366974Y0251302D01*
X0366992Y0251142D01*
X0367006Y0250982D01*
X0367016Y0250821D01*
X0367022Y0250661D01*
X0367024Y0250500D01*
X0367022Y0250339D01*
X0367016Y0250179D01*
X0367006Y0250018D01*
X0366992Y0249858D01*
X0366974Y0249698D01*
X0366953Y0249539D01*
X0366927Y0249380D01*
X0366897Y0249222D01*
X0366864Y0249065D01*
X0366826Y0248908D01*
X0366785Y0248753D01*
X0366740Y0248599D01*
X0366691Y0248446D01*
X0366638Y0248294D01*
X0366582Y0248143D01*
X0366521Y0247994D01*
X0366458Y0247846D01*
X0366390Y0247700D01*
X0366319Y0247556D01*
X0366245Y0247414D01*
X0366167Y0247273D01*
X0366085Y0247135D01*
X0366000Y0246998D01*
X0365912Y0246864D01*
X0365820Y0246732D01*
X0365725Y0246602D01*
X0365627Y0246474D01*
X0365526Y0246349D01*
X0365422Y0246227D01*
X0365315Y0246107D01*
X0365205Y0245990D01*
X0365092Y0245875D01*
X0364976Y0245764D01*
X0364857Y0245655D01*
X0364736Y0245550D01*
X0364612Y0245447D01*
X0364486Y0245347D01*
X0364358Y0245251D01*
X0364227Y0245158D01*
X0364093Y0245068D01*
X0363958Y0244981D01*
X0363820Y0244898D01*
X0363681Y0244818D01*
X0363539Y0244742D01*
X0363396Y0244669D01*
X0363251Y0244600D01*
X0363104Y0244534D01*
X0362956Y0244472D01*
X0362806Y0244414D01*
X0362655Y0244359D01*
X0362502Y0244308D01*
X0362348Y0244261D01*
X0362193Y0244218D01*
X0362037Y0244179D01*
X0361881Y0244143D01*
X0361723Y0244112D01*
X0361565Y0244084D01*
X0361406Y0244060D01*
X0361246Y0244040D01*
X0361086Y0244024D01*
X0360926Y0244012D01*
X0360765Y0244004D01*
X0360604Y0244000D01*
X0360444Y0244000D01*
X0360283Y0244004D01*
X0360122Y0244012D01*
X0359962Y0244024D01*
X0359802Y0244040D01*
X0359642Y0244060D01*
X0359483Y0244084D01*
X0359325Y0244112D01*
X0359167Y0244143D01*
X0359011Y0244179D01*
X0358855Y0244218D01*
X0358700Y0244261D01*
X0358546Y0244308D01*
X0358393Y0244359D01*
X0358242Y0244414D01*
X0358092Y0244472D01*
X0357944Y0244534D01*
X0357797Y0244600D01*
X0357652Y0244669D01*
X0357509Y0244742D01*
X0357367Y0244818D01*
X0357228Y0244898D01*
X0357090Y0244981D01*
X0356955Y0245068D01*
X0356821Y0245158D01*
X0356690Y0245251D01*
X0356562Y0245347D01*
X0356436Y0245447D01*
X0356312Y0245550D01*
X0356191Y0245655D01*
X0356072Y0245764D01*
X0355956Y0245875D01*
X0355843Y0245990D01*
X0355733Y0246107D01*
X0355626Y0246227D01*
X0355522Y0246349D01*
X0355421Y0246474D01*
X0355323Y0246602D01*
X0355228Y0246732D01*
X0355136Y0246864D01*
X0355048Y0246998D01*
X0354963Y0247135D01*
X0354881Y0247273D01*
X0354803Y0247414D01*
X0354729Y0247556D01*
X0354658Y0247700D01*
X0354590Y0247846D01*
X0354527Y0247994D01*
X0354466Y0248143D01*
X0354410Y0248294D01*
X0354357Y0248446D01*
X0354308Y0248599D01*
X0354263Y0248753D01*
X0354222Y0248908D01*
X0354184Y0249065D01*
X0354151Y0249222D01*
X0354121Y0249380D01*
X0354095Y0249539D01*
X0354074Y0249698D01*
X0354056Y0249858D01*
X0354042Y0250018D01*
X0354032Y0250179D01*
X0354026Y0250339D01*
X0354024Y0250500D01*
X0385145Y0255500D02*
X0385147Y0255581D01*
X0385153Y0255663D01*
X0385163Y0255744D01*
X0385177Y0255824D01*
X0385194Y0255903D01*
X0385216Y0255982D01*
X0385241Y0256059D01*
X0385270Y0256136D01*
X0385303Y0256210D01*
X0385340Y0256283D01*
X0385379Y0256354D01*
X0385423Y0256423D01*
X0385469Y0256490D01*
X0385519Y0256554D01*
X0385572Y0256616D01*
X0385628Y0256676D01*
X0385686Y0256732D01*
X0385748Y0256786D01*
X0385812Y0256837D01*
X0385878Y0256884D01*
X0385946Y0256928D01*
X0386017Y0256969D01*
X0386089Y0257006D01*
X0386164Y0257040D01*
X0386239Y0257070D01*
X0386317Y0257096D01*
X0386395Y0257119D01*
X0386474Y0257137D01*
X0386554Y0257152D01*
X0386635Y0257163D01*
X0386716Y0257170D01*
X0386798Y0257173D01*
X0386879Y0257172D01*
X0386960Y0257167D01*
X0387041Y0257158D01*
X0387122Y0257145D01*
X0387202Y0257128D01*
X0387280Y0257108D01*
X0387358Y0257083D01*
X0387435Y0257055D01*
X0387510Y0257023D01*
X0387583Y0256988D01*
X0387654Y0256949D01*
X0387724Y0256906D01*
X0387791Y0256861D01*
X0387857Y0256812D01*
X0387919Y0256760D01*
X0387979Y0256704D01*
X0388036Y0256646D01*
X0388091Y0256586D01*
X0388142Y0256522D01*
X0388190Y0256457D01*
X0388235Y0256389D01*
X0388277Y0256319D01*
X0388315Y0256247D01*
X0388350Y0256173D01*
X0388381Y0256098D01*
X0388408Y0256021D01*
X0388431Y0255943D01*
X0388451Y0255864D01*
X0388467Y0255784D01*
X0388479Y0255703D01*
X0388487Y0255622D01*
X0388491Y0255541D01*
X0388491Y0255459D01*
X0388487Y0255378D01*
X0388479Y0255297D01*
X0388467Y0255216D01*
X0388451Y0255136D01*
X0388431Y0255057D01*
X0388408Y0254979D01*
X0388381Y0254902D01*
X0388350Y0254827D01*
X0388315Y0254753D01*
X0388277Y0254681D01*
X0388235Y0254611D01*
X0388190Y0254543D01*
X0388142Y0254478D01*
X0388091Y0254414D01*
X0388036Y0254354D01*
X0387979Y0254296D01*
X0387919Y0254240D01*
X0387857Y0254188D01*
X0387791Y0254139D01*
X0387724Y0254094D01*
X0387655Y0254051D01*
X0387583Y0254012D01*
X0387510Y0253977D01*
X0387435Y0253945D01*
X0387358Y0253917D01*
X0387280Y0253892D01*
X0387202Y0253872D01*
X0387122Y0253855D01*
X0387041Y0253842D01*
X0386960Y0253833D01*
X0386879Y0253828D01*
X0386798Y0253827D01*
X0386716Y0253830D01*
X0386635Y0253837D01*
X0386554Y0253848D01*
X0386474Y0253863D01*
X0386395Y0253881D01*
X0386317Y0253904D01*
X0386239Y0253930D01*
X0386164Y0253960D01*
X0386089Y0253994D01*
X0386017Y0254031D01*
X0385946Y0254072D01*
X0385878Y0254116D01*
X0385812Y0254163D01*
X0385748Y0254214D01*
X0385686Y0254268D01*
X0385628Y0254324D01*
X0385572Y0254384D01*
X0385519Y0254446D01*
X0385469Y0254510D01*
X0385423Y0254577D01*
X0385379Y0254646D01*
X0385340Y0254717D01*
X0385303Y0254790D01*
X0385270Y0254864D01*
X0385241Y0254941D01*
X0385216Y0255018D01*
X0385194Y0255097D01*
X0385177Y0255176D01*
X0385163Y0255256D01*
X0385153Y0255337D01*
X0385147Y0255419D01*
X0385145Y0255500D01*
X0396956Y0255500D02*
X0396958Y0255581D01*
X0396964Y0255663D01*
X0396974Y0255744D01*
X0396988Y0255824D01*
X0397005Y0255903D01*
X0397027Y0255982D01*
X0397052Y0256059D01*
X0397081Y0256136D01*
X0397114Y0256210D01*
X0397151Y0256283D01*
X0397190Y0256354D01*
X0397234Y0256423D01*
X0397280Y0256490D01*
X0397330Y0256554D01*
X0397383Y0256616D01*
X0397439Y0256676D01*
X0397497Y0256732D01*
X0397559Y0256786D01*
X0397623Y0256837D01*
X0397689Y0256884D01*
X0397757Y0256928D01*
X0397828Y0256969D01*
X0397900Y0257006D01*
X0397975Y0257040D01*
X0398050Y0257070D01*
X0398128Y0257096D01*
X0398206Y0257119D01*
X0398285Y0257137D01*
X0398365Y0257152D01*
X0398446Y0257163D01*
X0398527Y0257170D01*
X0398609Y0257173D01*
X0398690Y0257172D01*
X0398771Y0257167D01*
X0398852Y0257158D01*
X0398933Y0257145D01*
X0399013Y0257128D01*
X0399091Y0257108D01*
X0399169Y0257083D01*
X0399246Y0257055D01*
X0399321Y0257023D01*
X0399394Y0256988D01*
X0399465Y0256949D01*
X0399535Y0256906D01*
X0399602Y0256861D01*
X0399668Y0256812D01*
X0399730Y0256760D01*
X0399790Y0256704D01*
X0399847Y0256646D01*
X0399902Y0256586D01*
X0399953Y0256522D01*
X0400001Y0256457D01*
X0400046Y0256389D01*
X0400088Y0256319D01*
X0400126Y0256247D01*
X0400161Y0256173D01*
X0400192Y0256098D01*
X0400219Y0256021D01*
X0400242Y0255943D01*
X0400262Y0255864D01*
X0400278Y0255784D01*
X0400290Y0255703D01*
X0400298Y0255622D01*
X0400302Y0255541D01*
X0400302Y0255459D01*
X0400298Y0255378D01*
X0400290Y0255297D01*
X0400278Y0255216D01*
X0400262Y0255136D01*
X0400242Y0255057D01*
X0400219Y0254979D01*
X0400192Y0254902D01*
X0400161Y0254827D01*
X0400126Y0254753D01*
X0400088Y0254681D01*
X0400046Y0254611D01*
X0400001Y0254543D01*
X0399953Y0254478D01*
X0399902Y0254414D01*
X0399847Y0254354D01*
X0399790Y0254296D01*
X0399730Y0254240D01*
X0399668Y0254188D01*
X0399602Y0254139D01*
X0399535Y0254094D01*
X0399466Y0254051D01*
X0399394Y0254012D01*
X0399321Y0253977D01*
X0399246Y0253945D01*
X0399169Y0253917D01*
X0399091Y0253892D01*
X0399013Y0253872D01*
X0398933Y0253855D01*
X0398852Y0253842D01*
X0398771Y0253833D01*
X0398690Y0253828D01*
X0398609Y0253827D01*
X0398527Y0253830D01*
X0398446Y0253837D01*
X0398365Y0253848D01*
X0398285Y0253863D01*
X0398206Y0253881D01*
X0398128Y0253904D01*
X0398050Y0253930D01*
X0397975Y0253960D01*
X0397900Y0253994D01*
X0397828Y0254031D01*
X0397757Y0254072D01*
X0397689Y0254116D01*
X0397623Y0254163D01*
X0397559Y0254214D01*
X0397497Y0254268D01*
X0397439Y0254324D01*
X0397383Y0254384D01*
X0397330Y0254446D01*
X0397280Y0254510D01*
X0397234Y0254577D01*
X0397190Y0254646D01*
X0397151Y0254717D01*
X0397114Y0254790D01*
X0397081Y0254864D01*
X0397052Y0254941D01*
X0397027Y0255018D01*
X0397005Y0255097D01*
X0396988Y0255176D01*
X0396974Y0255256D01*
X0396964Y0255337D01*
X0396958Y0255419D01*
X0396956Y0255500D01*
X0359024Y0228500D02*
X0359026Y0228661D01*
X0359032Y0228821D01*
X0359042Y0228982D01*
X0359056Y0229142D01*
X0359074Y0229302D01*
X0359095Y0229461D01*
X0359121Y0229620D01*
X0359151Y0229778D01*
X0359184Y0229935D01*
X0359222Y0230092D01*
X0359263Y0230247D01*
X0359308Y0230401D01*
X0359357Y0230554D01*
X0359410Y0230706D01*
X0359466Y0230857D01*
X0359527Y0231006D01*
X0359590Y0231154D01*
X0359658Y0231300D01*
X0359729Y0231444D01*
X0359803Y0231586D01*
X0359881Y0231727D01*
X0359963Y0231865D01*
X0360048Y0232002D01*
X0360136Y0232136D01*
X0360228Y0232268D01*
X0360323Y0232398D01*
X0360421Y0232526D01*
X0360522Y0232651D01*
X0360626Y0232773D01*
X0360733Y0232893D01*
X0360843Y0233010D01*
X0360956Y0233125D01*
X0361072Y0233236D01*
X0361191Y0233345D01*
X0361312Y0233450D01*
X0361436Y0233553D01*
X0361562Y0233653D01*
X0361690Y0233749D01*
X0361821Y0233842D01*
X0361955Y0233932D01*
X0362090Y0234019D01*
X0362228Y0234102D01*
X0362367Y0234182D01*
X0362509Y0234258D01*
X0362652Y0234331D01*
X0362797Y0234400D01*
X0362944Y0234466D01*
X0363092Y0234528D01*
X0363242Y0234586D01*
X0363393Y0234641D01*
X0363546Y0234692D01*
X0363700Y0234739D01*
X0363855Y0234782D01*
X0364011Y0234821D01*
X0364167Y0234857D01*
X0364325Y0234888D01*
X0364483Y0234916D01*
X0364642Y0234940D01*
X0364802Y0234960D01*
X0364962Y0234976D01*
X0365122Y0234988D01*
X0365283Y0234996D01*
X0365444Y0235000D01*
X0365604Y0235000D01*
X0365765Y0234996D01*
X0365926Y0234988D01*
X0366086Y0234976D01*
X0366246Y0234960D01*
X0366406Y0234940D01*
X0366565Y0234916D01*
X0366723Y0234888D01*
X0366881Y0234857D01*
X0367037Y0234821D01*
X0367193Y0234782D01*
X0367348Y0234739D01*
X0367502Y0234692D01*
X0367655Y0234641D01*
X0367806Y0234586D01*
X0367956Y0234528D01*
X0368104Y0234466D01*
X0368251Y0234400D01*
X0368396Y0234331D01*
X0368539Y0234258D01*
X0368681Y0234182D01*
X0368820Y0234102D01*
X0368958Y0234019D01*
X0369093Y0233932D01*
X0369227Y0233842D01*
X0369358Y0233749D01*
X0369486Y0233653D01*
X0369612Y0233553D01*
X0369736Y0233450D01*
X0369857Y0233345D01*
X0369976Y0233236D01*
X0370092Y0233125D01*
X0370205Y0233010D01*
X0370315Y0232893D01*
X0370422Y0232773D01*
X0370526Y0232651D01*
X0370627Y0232526D01*
X0370725Y0232398D01*
X0370820Y0232268D01*
X0370912Y0232136D01*
X0371000Y0232002D01*
X0371085Y0231865D01*
X0371167Y0231727D01*
X0371245Y0231586D01*
X0371319Y0231444D01*
X0371390Y0231300D01*
X0371458Y0231154D01*
X0371521Y0231006D01*
X0371582Y0230857D01*
X0371638Y0230706D01*
X0371691Y0230554D01*
X0371740Y0230401D01*
X0371785Y0230247D01*
X0371826Y0230092D01*
X0371864Y0229935D01*
X0371897Y0229778D01*
X0371927Y0229620D01*
X0371953Y0229461D01*
X0371974Y0229302D01*
X0371992Y0229142D01*
X0372006Y0228982D01*
X0372016Y0228821D01*
X0372022Y0228661D01*
X0372024Y0228500D01*
X0372022Y0228339D01*
X0372016Y0228179D01*
X0372006Y0228018D01*
X0371992Y0227858D01*
X0371974Y0227698D01*
X0371953Y0227539D01*
X0371927Y0227380D01*
X0371897Y0227222D01*
X0371864Y0227065D01*
X0371826Y0226908D01*
X0371785Y0226753D01*
X0371740Y0226599D01*
X0371691Y0226446D01*
X0371638Y0226294D01*
X0371582Y0226143D01*
X0371521Y0225994D01*
X0371458Y0225846D01*
X0371390Y0225700D01*
X0371319Y0225556D01*
X0371245Y0225414D01*
X0371167Y0225273D01*
X0371085Y0225135D01*
X0371000Y0224998D01*
X0370912Y0224864D01*
X0370820Y0224732D01*
X0370725Y0224602D01*
X0370627Y0224474D01*
X0370526Y0224349D01*
X0370422Y0224227D01*
X0370315Y0224107D01*
X0370205Y0223990D01*
X0370092Y0223875D01*
X0369976Y0223764D01*
X0369857Y0223655D01*
X0369736Y0223550D01*
X0369612Y0223447D01*
X0369486Y0223347D01*
X0369358Y0223251D01*
X0369227Y0223158D01*
X0369093Y0223068D01*
X0368958Y0222981D01*
X0368820Y0222898D01*
X0368681Y0222818D01*
X0368539Y0222742D01*
X0368396Y0222669D01*
X0368251Y0222600D01*
X0368104Y0222534D01*
X0367956Y0222472D01*
X0367806Y0222414D01*
X0367655Y0222359D01*
X0367502Y0222308D01*
X0367348Y0222261D01*
X0367193Y0222218D01*
X0367037Y0222179D01*
X0366881Y0222143D01*
X0366723Y0222112D01*
X0366565Y0222084D01*
X0366406Y0222060D01*
X0366246Y0222040D01*
X0366086Y0222024D01*
X0365926Y0222012D01*
X0365765Y0222004D01*
X0365604Y0222000D01*
X0365444Y0222000D01*
X0365283Y0222004D01*
X0365122Y0222012D01*
X0364962Y0222024D01*
X0364802Y0222040D01*
X0364642Y0222060D01*
X0364483Y0222084D01*
X0364325Y0222112D01*
X0364167Y0222143D01*
X0364011Y0222179D01*
X0363855Y0222218D01*
X0363700Y0222261D01*
X0363546Y0222308D01*
X0363393Y0222359D01*
X0363242Y0222414D01*
X0363092Y0222472D01*
X0362944Y0222534D01*
X0362797Y0222600D01*
X0362652Y0222669D01*
X0362509Y0222742D01*
X0362367Y0222818D01*
X0362228Y0222898D01*
X0362090Y0222981D01*
X0361955Y0223068D01*
X0361821Y0223158D01*
X0361690Y0223251D01*
X0361562Y0223347D01*
X0361436Y0223447D01*
X0361312Y0223550D01*
X0361191Y0223655D01*
X0361072Y0223764D01*
X0360956Y0223875D01*
X0360843Y0223990D01*
X0360733Y0224107D01*
X0360626Y0224227D01*
X0360522Y0224349D01*
X0360421Y0224474D01*
X0360323Y0224602D01*
X0360228Y0224732D01*
X0360136Y0224864D01*
X0360048Y0224998D01*
X0359963Y0225135D01*
X0359881Y0225273D01*
X0359803Y0225414D01*
X0359729Y0225556D01*
X0359658Y0225700D01*
X0359590Y0225846D01*
X0359527Y0225994D01*
X0359466Y0226143D01*
X0359410Y0226294D01*
X0359357Y0226446D01*
X0359308Y0226599D01*
X0359263Y0226753D01*
X0359222Y0226908D01*
X0359184Y0227065D01*
X0359151Y0227222D01*
X0359121Y0227380D01*
X0359095Y0227539D01*
X0359074Y0227698D01*
X0359056Y0227858D01*
X0359042Y0228018D01*
X0359032Y0228179D01*
X0359026Y0228339D01*
X0359024Y0228500D01*
X0480445Y0198500D02*
X0480447Y0198581D01*
X0480453Y0198663D01*
X0480463Y0198744D01*
X0480477Y0198824D01*
X0480494Y0198903D01*
X0480516Y0198982D01*
X0480541Y0199059D01*
X0480570Y0199136D01*
X0480603Y0199210D01*
X0480640Y0199283D01*
X0480679Y0199354D01*
X0480723Y0199423D01*
X0480769Y0199490D01*
X0480819Y0199554D01*
X0480872Y0199616D01*
X0480928Y0199676D01*
X0480986Y0199732D01*
X0481048Y0199786D01*
X0481112Y0199837D01*
X0481178Y0199884D01*
X0481246Y0199928D01*
X0481317Y0199969D01*
X0481389Y0200006D01*
X0481464Y0200040D01*
X0481539Y0200070D01*
X0481617Y0200096D01*
X0481695Y0200119D01*
X0481774Y0200137D01*
X0481854Y0200152D01*
X0481935Y0200163D01*
X0482016Y0200170D01*
X0482098Y0200173D01*
X0482179Y0200172D01*
X0482260Y0200167D01*
X0482341Y0200158D01*
X0482422Y0200145D01*
X0482502Y0200128D01*
X0482580Y0200108D01*
X0482658Y0200083D01*
X0482735Y0200055D01*
X0482810Y0200023D01*
X0482883Y0199988D01*
X0482954Y0199949D01*
X0483024Y0199906D01*
X0483091Y0199861D01*
X0483157Y0199812D01*
X0483219Y0199760D01*
X0483279Y0199704D01*
X0483336Y0199646D01*
X0483391Y0199586D01*
X0483442Y0199522D01*
X0483490Y0199457D01*
X0483535Y0199389D01*
X0483577Y0199319D01*
X0483615Y0199247D01*
X0483650Y0199173D01*
X0483681Y0199098D01*
X0483708Y0199021D01*
X0483731Y0198943D01*
X0483751Y0198864D01*
X0483767Y0198784D01*
X0483779Y0198703D01*
X0483787Y0198622D01*
X0483791Y0198541D01*
X0483791Y0198459D01*
X0483787Y0198378D01*
X0483779Y0198297D01*
X0483767Y0198216D01*
X0483751Y0198136D01*
X0483731Y0198057D01*
X0483708Y0197979D01*
X0483681Y0197902D01*
X0483650Y0197827D01*
X0483615Y0197753D01*
X0483577Y0197681D01*
X0483535Y0197611D01*
X0483490Y0197543D01*
X0483442Y0197478D01*
X0483391Y0197414D01*
X0483336Y0197354D01*
X0483279Y0197296D01*
X0483219Y0197240D01*
X0483157Y0197188D01*
X0483091Y0197139D01*
X0483024Y0197094D01*
X0482955Y0197051D01*
X0482883Y0197012D01*
X0482810Y0196977D01*
X0482735Y0196945D01*
X0482658Y0196917D01*
X0482580Y0196892D01*
X0482502Y0196872D01*
X0482422Y0196855D01*
X0482341Y0196842D01*
X0482260Y0196833D01*
X0482179Y0196828D01*
X0482098Y0196827D01*
X0482016Y0196830D01*
X0481935Y0196837D01*
X0481854Y0196848D01*
X0481774Y0196863D01*
X0481695Y0196881D01*
X0481617Y0196904D01*
X0481539Y0196930D01*
X0481464Y0196960D01*
X0481389Y0196994D01*
X0481317Y0197031D01*
X0481246Y0197072D01*
X0481178Y0197116D01*
X0481112Y0197163D01*
X0481048Y0197214D01*
X0480986Y0197268D01*
X0480928Y0197324D01*
X0480872Y0197384D01*
X0480819Y0197446D01*
X0480769Y0197510D01*
X0480723Y0197577D01*
X0480679Y0197646D01*
X0480640Y0197717D01*
X0480603Y0197790D01*
X0480570Y0197864D01*
X0480541Y0197941D01*
X0480516Y0198018D01*
X0480494Y0198097D01*
X0480477Y0198176D01*
X0480463Y0198256D01*
X0480453Y0198337D01*
X0480447Y0198419D01*
X0480445Y0198500D01*
X0492256Y0198500D02*
X0492258Y0198581D01*
X0492264Y0198663D01*
X0492274Y0198744D01*
X0492288Y0198824D01*
X0492305Y0198903D01*
X0492327Y0198982D01*
X0492352Y0199059D01*
X0492381Y0199136D01*
X0492414Y0199210D01*
X0492451Y0199283D01*
X0492490Y0199354D01*
X0492534Y0199423D01*
X0492580Y0199490D01*
X0492630Y0199554D01*
X0492683Y0199616D01*
X0492739Y0199676D01*
X0492797Y0199732D01*
X0492859Y0199786D01*
X0492923Y0199837D01*
X0492989Y0199884D01*
X0493057Y0199928D01*
X0493128Y0199969D01*
X0493200Y0200006D01*
X0493275Y0200040D01*
X0493350Y0200070D01*
X0493428Y0200096D01*
X0493506Y0200119D01*
X0493585Y0200137D01*
X0493665Y0200152D01*
X0493746Y0200163D01*
X0493827Y0200170D01*
X0493909Y0200173D01*
X0493990Y0200172D01*
X0494071Y0200167D01*
X0494152Y0200158D01*
X0494233Y0200145D01*
X0494313Y0200128D01*
X0494391Y0200108D01*
X0494469Y0200083D01*
X0494546Y0200055D01*
X0494621Y0200023D01*
X0494694Y0199988D01*
X0494765Y0199949D01*
X0494835Y0199906D01*
X0494902Y0199861D01*
X0494968Y0199812D01*
X0495030Y0199760D01*
X0495090Y0199704D01*
X0495147Y0199646D01*
X0495202Y0199586D01*
X0495253Y0199522D01*
X0495301Y0199457D01*
X0495346Y0199389D01*
X0495388Y0199319D01*
X0495426Y0199247D01*
X0495461Y0199173D01*
X0495492Y0199098D01*
X0495519Y0199021D01*
X0495542Y0198943D01*
X0495562Y0198864D01*
X0495578Y0198784D01*
X0495590Y0198703D01*
X0495598Y0198622D01*
X0495602Y0198541D01*
X0495602Y0198459D01*
X0495598Y0198378D01*
X0495590Y0198297D01*
X0495578Y0198216D01*
X0495562Y0198136D01*
X0495542Y0198057D01*
X0495519Y0197979D01*
X0495492Y0197902D01*
X0495461Y0197827D01*
X0495426Y0197753D01*
X0495388Y0197681D01*
X0495346Y0197611D01*
X0495301Y0197543D01*
X0495253Y0197478D01*
X0495202Y0197414D01*
X0495147Y0197354D01*
X0495090Y0197296D01*
X0495030Y0197240D01*
X0494968Y0197188D01*
X0494902Y0197139D01*
X0494835Y0197094D01*
X0494766Y0197051D01*
X0494694Y0197012D01*
X0494621Y0196977D01*
X0494546Y0196945D01*
X0494469Y0196917D01*
X0494391Y0196892D01*
X0494313Y0196872D01*
X0494233Y0196855D01*
X0494152Y0196842D01*
X0494071Y0196833D01*
X0493990Y0196828D01*
X0493909Y0196827D01*
X0493827Y0196830D01*
X0493746Y0196837D01*
X0493665Y0196848D01*
X0493585Y0196863D01*
X0493506Y0196881D01*
X0493428Y0196904D01*
X0493350Y0196930D01*
X0493275Y0196960D01*
X0493200Y0196994D01*
X0493128Y0197031D01*
X0493057Y0197072D01*
X0492989Y0197116D01*
X0492923Y0197163D01*
X0492859Y0197214D01*
X0492797Y0197268D01*
X0492739Y0197324D01*
X0492683Y0197384D01*
X0492630Y0197446D01*
X0492580Y0197510D01*
X0492534Y0197577D01*
X0492490Y0197646D01*
X0492451Y0197717D01*
X0492414Y0197790D01*
X0492381Y0197864D01*
X0492352Y0197941D01*
X0492327Y0198018D01*
X0492305Y0198097D01*
X0492288Y0198176D01*
X0492274Y0198256D01*
X0492264Y0198337D01*
X0492258Y0198419D01*
X0492256Y0198500D01*
X0558524Y0270500D02*
X0558526Y0270661D01*
X0558532Y0270821D01*
X0558542Y0270982D01*
X0558556Y0271142D01*
X0558574Y0271302D01*
X0558595Y0271461D01*
X0558621Y0271620D01*
X0558651Y0271778D01*
X0558684Y0271935D01*
X0558722Y0272092D01*
X0558763Y0272247D01*
X0558808Y0272401D01*
X0558857Y0272554D01*
X0558910Y0272706D01*
X0558966Y0272857D01*
X0559027Y0273006D01*
X0559090Y0273154D01*
X0559158Y0273300D01*
X0559229Y0273444D01*
X0559303Y0273586D01*
X0559381Y0273727D01*
X0559463Y0273865D01*
X0559548Y0274002D01*
X0559636Y0274136D01*
X0559728Y0274268D01*
X0559823Y0274398D01*
X0559921Y0274526D01*
X0560022Y0274651D01*
X0560126Y0274773D01*
X0560233Y0274893D01*
X0560343Y0275010D01*
X0560456Y0275125D01*
X0560572Y0275236D01*
X0560691Y0275345D01*
X0560812Y0275450D01*
X0560936Y0275553D01*
X0561062Y0275653D01*
X0561190Y0275749D01*
X0561321Y0275842D01*
X0561455Y0275932D01*
X0561590Y0276019D01*
X0561728Y0276102D01*
X0561867Y0276182D01*
X0562009Y0276258D01*
X0562152Y0276331D01*
X0562297Y0276400D01*
X0562444Y0276466D01*
X0562592Y0276528D01*
X0562742Y0276586D01*
X0562893Y0276641D01*
X0563046Y0276692D01*
X0563200Y0276739D01*
X0563355Y0276782D01*
X0563511Y0276821D01*
X0563667Y0276857D01*
X0563825Y0276888D01*
X0563983Y0276916D01*
X0564142Y0276940D01*
X0564302Y0276960D01*
X0564462Y0276976D01*
X0564622Y0276988D01*
X0564783Y0276996D01*
X0564944Y0277000D01*
X0565104Y0277000D01*
X0565265Y0276996D01*
X0565426Y0276988D01*
X0565586Y0276976D01*
X0565746Y0276960D01*
X0565906Y0276940D01*
X0566065Y0276916D01*
X0566223Y0276888D01*
X0566381Y0276857D01*
X0566537Y0276821D01*
X0566693Y0276782D01*
X0566848Y0276739D01*
X0567002Y0276692D01*
X0567155Y0276641D01*
X0567306Y0276586D01*
X0567456Y0276528D01*
X0567604Y0276466D01*
X0567751Y0276400D01*
X0567896Y0276331D01*
X0568039Y0276258D01*
X0568181Y0276182D01*
X0568320Y0276102D01*
X0568458Y0276019D01*
X0568593Y0275932D01*
X0568727Y0275842D01*
X0568858Y0275749D01*
X0568986Y0275653D01*
X0569112Y0275553D01*
X0569236Y0275450D01*
X0569357Y0275345D01*
X0569476Y0275236D01*
X0569592Y0275125D01*
X0569705Y0275010D01*
X0569815Y0274893D01*
X0569922Y0274773D01*
X0570026Y0274651D01*
X0570127Y0274526D01*
X0570225Y0274398D01*
X0570320Y0274268D01*
X0570412Y0274136D01*
X0570500Y0274002D01*
X0570585Y0273865D01*
X0570667Y0273727D01*
X0570745Y0273586D01*
X0570819Y0273444D01*
X0570890Y0273300D01*
X0570958Y0273154D01*
X0571021Y0273006D01*
X0571082Y0272857D01*
X0571138Y0272706D01*
X0571191Y0272554D01*
X0571240Y0272401D01*
X0571285Y0272247D01*
X0571326Y0272092D01*
X0571364Y0271935D01*
X0571397Y0271778D01*
X0571427Y0271620D01*
X0571453Y0271461D01*
X0571474Y0271302D01*
X0571492Y0271142D01*
X0571506Y0270982D01*
X0571516Y0270821D01*
X0571522Y0270661D01*
X0571524Y0270500D01*
X0571522Y0270339D01*
X0571516Y0270179D01*
X0571506Y0270018D01*
X0571492Y0269858D01*
X0571474Y0269698D01*
X0571453Y0269539D01*
X0571427Y0269380D01*
X0571397Y0269222D01*
X0571364Y0269065D01*
X0571326Y0268908D01*
X0571285Y0268753D01*
X0571240Y0268599D01*
X0571191Y0268446D01*
X0571138Y0268294D01*
X0571082Y0268143D01*
X0571021Y0267994D01*
X0570958Y0267846D01*
X0570890Y0267700D01*
X0570819Y0267556D01*
X0570745Y0267414D01*
X0570667Y0267273D01*
X0570585Y0267135D01*
X0570500Y0266998D01*
X0570412Y0266864D01*
X0570320Y0266732D01*
X0570225Y0266602D01*
X0570127Y0266474D01*
X0570026Y0266349D01*
X0569922Y0266227D01*
X0569815Y0266107D01*
X0569705Y0265990D01*
X0569592Y0265875D01*
X0569476Y0265764D01*
X0569357Y0265655D01*
X0569236Y0265550D01*
X0569112Y0265447D01*
X0568986Y0265347D01*
X0568858Y0265251D01*
X0568727Y0265158D01*
X0568593Y0265068D01*
X0568458Y0264981D01*
X0568320Y0264898D01*
X0568181Y0264818D01*
X0568039Y0264742D01*
X0567896Y0264669D01*
X0567751Y0264600D01*
X0567604Y0264534D01*
X0567456Y0264472D01*
X0567306Y0264414D01*
X0567155Y0264359D01*
X0567002Y0264308D01*
X0566848Y0264261D01*
X0566693Y0264218D01*
X0566537Y0264179D01*
X0566381Y0264143D01*
X0566223Y0264112D01*
X0566065Y0264084D01*
X0565906Y0264060D01*
X0565746Y0264040D01*
X0565586Y0264024D01*
X0565426Y0264012D01*
X0565265Y0264004D01*
X0565104Y0264000D01*
X0564944Y0264000D01*
X0564783Y0264004D01*
X0564622Y0264012D01*
X0564462Y0264024D01*
X0564302Y0264040D01*
X0564142Y0264060D01*
X0563983Y0264084D01*
X0563825Y0264112D01*
X0563667Y0264143D01*
X0563511Y0264179D01*
X0563355Y0264218D01*
X0563200Y0264261D01*
X0563046Y0264308D01*
X0562893Y0264359D01*
X0562742Y0264414D01*
X0562592Y0264472D01*
X0562444Y0264534D01*
X0562297Y0264600D01*
X0562152Y0264669D01*
X0562009Y0264742D01*
X0561867Y0264818D01*
X0561728Y0264898D01*
X0561590Y0264981D01*
X0561455Y0265068D01*
X0561321Y0265158D01*
X0561190Y0265251D01*
X0561062Y0265347D01*
X0560936Y0265447D01*
X0560812Y0265550D01*
X0560691Y0265655D01*
X0560572Y0265764D01*
X0560456Y0265875D01*
X0560343Y0265990D01*
X0560233Y0266107D01*
X0560126Y0266227D01*
X0560022Y0266349D01*
X0559921Y0266474D01*
X0559823Y0266602D01*
X0559728Y0266732D01*
X0559636Y0266864D01*
X0559548Y0266998D01*
X0559463Y0267135D01*
X0559381Y0267273D01*
X0559303Y0267414D01*
X0559229Y0267556D01*
X0559158Y0267700D01*
X0559090Y0267846D01*
X0559027Y0267994D01*
X0558966Y0268143D01*
X0558910Y0268294D01*
X0558857Y0268446D01*
X0558808Y0268599D01*
X0558763Y0268753D01*
X0558722Y0268908D01*
X0558684Y0269065D01*
X0558651Y0269222D01*
X0558621Y0269380D01*
X0558595Y0269539D01*
X0558574Y0269698D01*
X0558556Y0269858D01*
X0558542Y0270018D01*
X0558532Y0270179D01*
X0558526Y0270339D01*
X0558524Y0270500D01*
X0558524Y0058500D02*
X0558526Y0058661D01*
X0558532Y0058821D01*
X0558542Y0058982D01*
X0558556Y0059142D01*
X0558574Y0059302D01*
X0558595Y0059461D01*
X0558621Y0059620D01*
X0558651Y0059778D01*
X0558684Y0059935D01*
X0558722Y0060092D01*
X0558763Y0060247D01*
X0558808Y0060401D01*
X0558857Y0060554D01*
X0558910Y0060706D01*
X0558966Y0060857D01*
X0559027Y0061006D01*
X0559090Y0061154D01*
X0559158Y0061300D01*
X0559229Y0061444D01*
X0559303Y0061586D01*
X0559381Y0061727D01*
X0559463Y0061865D01*
X0559548Y0062002D01*
X0559636Y0062136D01*
X0559728Y0062268D01*
X0559823Y0062398D01*
X0559921Y0062526D01*
X0560022Y0062651D01*
X0560126Y0062773D01*
X0560233Y0062893D01*
X0560343Y0063010D01*
X0560456Y0063125D01*
X0560572Y0063236D01*
X0560691Y0063345D01*
X0560812Y0063450D01*
X0560936Y0063553D01*
X0561062Y0063653D01*
X0561190Y0063749D01*
X0561321Y0063842D01*
X0561455Y0063932D01*
X0561590Y0064019D01*
X0561728Y0064102D01*
X0561867Y0064182D01*
X0562009Y0064258D01*
X0562152Y0064331D01*
X0562297Y0064400D01*
X0562444Y0064466D01*
X0562592Y0064528D01*
X0562742Y0064586D01*
X0562893Y0064641D01*
X0563046Y0064692D01*
X0563200Y0064739D01*
X0563355Y0064782D01*
X0563511Y0064821D01*
X0563667Y0064857D01*
X0563825Y0064888D01*
X0563983Y0064916D01*
X0564142Y0064940D01*
X0564302Y0064960D01*
X0564462Y0064976D01*
X0564622Y0064988D01*
X0564783Y0064996D01*
X0564944Y0065000D01*
X0565104Y0065000D01*
X0565265Y0064996D01*
X0565426Y0064988D01*
X0565586Y0064976D01*
X0565746Y0064960D01*
X0565906Y0064940D01*
X0566065Y0064916D01*
X0566223Y0064888D01*
X0566381Y0064857D01*
X0566537Y0064821D01*
X0566693Y0064782D01*
X0566848Y0064739D01*
X0567002Y0064692D01*
X0567155Y0064641D01*
X0567306Y0064586D01*
X0567456Y0064528D01*
X0567604Y0064466D01*
X0567751Y0064400D01*
X0567896Y0064331D01*
X0568039Y0064258D01*
X0568181Y0064182D01*
X0568320Y0064102D01*
X0568458Y0064019D01*
X0568593Y0063932D01*
X0568727Y0063842D01*
X0568858Y0063749D01*
X0568986Y0063653D01*
X0569112Y0063553D01*
X0569236Y0063450D01*
X0569357Y0063345D01*
X0569476Y0063236D01*
X0569592Y0063125D01*
X0569705Y0063010D01*
X0569815Y0062893D01*
X0569922Y0062773D01*
X0570026Y0062651D01*
X0570127Y0062526D01*
X0570225Y0062398D01*
X0570320Y0062268D01*
X0570412Y0062136D01*
X0570500Y0062002D01*
X0570585Y0061865D01*
X0570667Y0061727D01*
X0570745Y0061586D01*
X0570819Y0061444D01*
X0570890Y0061300D01*
X0570958Y0061154D01*
X0571021Y0061006D01*
X0571082Y0060857D01*
X0571138Y0060706D01*
X0571191Y0060554D01*
X0571240Y0060401D01*
X0571285Y0060247D01*
X0571326Y0060092D01*
X0571364Y0059935D01*
X0571397Y0059778D01*
X0571427Y0059620D01*
X0571453Y0059461D01*
X0571474Y0059302D01*
X0571492Y0059142D01*
X0571506Y0058982D01*
X0571516Y0058821D01*
X0571522Y0058661D01*
X0571524Y0058500D01*
X0571522Y0058339D01*
X0571516Y0058179D01*
X0571506Y0058018D01*
X0571492Y0057858D01*
X0571474Y0057698D01*
X0571453Y0057539D01*
X0571427Y0057380D01*
X0571397Y0057222D01*
X0571364Y0057065D01*
X0571326Y0056908D01*
X0571285Y0056753D01*
X0571240Y0056599D01*
X0571191Y0056446D01*
X0571138Y0056294D01*
X0571082Y0056143D01*
X0571021Y0055994D01*
X0570958Y0055846D01*
X0570890Y0055700D01*
X0570819Y0055556D01*
X0570745Y0055414D01*
X0570667Y0055273D01*
X0570585Y0055135D01*
X0570500Y0054998D01*
X0570412Y0054864D01*
X0570320Y0054732D01*
X0570225Y0054602D01*
X0570127Y0054474D01*
X0570026Y0054349D01*
X0569922Y0054227D01*
X0569815Y0054107D01*
X0569705Y0053990D01*
X0569592Y0053875D01*
X0569476Y0053764D01*
X0569357Y0053655D01*
X0569236Y0053550D01*
X0569112Y0053447D01*
X0568986Y0053347D01*
X0568858Y0053251D01*
X0568727Y0053158D01*
X0568593Y0053068D01*
X0568458Y0052981D01*
X0568320Y0052898D01*
X0568181Y0052818D01*
X0568039Y0052742D01*
X0567896Y0052669D01*
X0567751Y0052600D01*
X0567604Y0052534D01*
X0567456Y0052472D01*
X0567306Y0052414D01*
X0567155Y0052359D01*
X0567002Y0052308D01*
X0566848Y0052261D01*
X0566693Y0052218D01*
X0566537Y0052179D01*
X0566381Y0052143D01*
X0566223Y0052112D01*
X0566065Y0052084D01*
X0565906Y0052060D01*
X0565746Y0052040D01*
X0565586Y0052024D01*
X0565426Y0052012D01*
X0565265Y0052004D01*
X0565104Y0052000D01*
X0564944Y0052000D01*
X0564783Y0052004D01*
X0564622Y0052012D01*
X0564462Y0052024D01*
X0564302Y0052040D01*
X0564142Y0052060D01*
X0563983Y0052084D01*
X0563825Y0052112D01*
X0563667Y0052143D01*
X0563511Y0052179D01*
X0563355Y0052218D01*
X0563200Y0052261D01*
X0563046Y0052308D01*
X0562893Y0052359D01*
X0562742Y0052414D01*
X0562592Y0052472D01*
X0562444Y0052534D01*
X0562297Y0052600D01*
X0562152Y0052669D01*
X0562009Y0052742D01*
X0561867Y0052818D01*
X0561728Y0052898D01*
X0561590Y0052981D01*
X0561455Y0053068D01*
X0561321Y0053158D01*
X0561190Y0053251D01*
X0561062Y0053347D01*
X0560936Y0053447D01*
X0560812Y0053550D01*
X0560691Y0053655D01*
X0560572Y0053764D01*
X0560456Y0053875D01*
X0560343Y0053990D01*
X0560233Y0054107D01*
X0560126Y0054227D01*
X0560022Y0054349D01*
X0559921Y0054474D01*
X0559823Y0054602D01*
X0559728Y0054732D01*
X0559636Y0054864D01*
X0559548Y0054998D01*
X0559463Y0055135D01*
X0559381Y0055273D01*
X0559303Y0055414D01*
X0559229Y0055556D01*
X0559158Y0055700D01*
X0559090Y0055846D01*
X0559027Y0055994D01*
X0558966Y0056143D01*
X0558910Y0056294D01*
X0558857Y0056446D01*
X0558808Y0056599D01*
X0558763Y0056753D01*
X0558722Y0056908D01*
X0558684Y0057065D01*
X0558651Y0057222D01*
X0558621Y0057380D01*
X0558595Y0057539D01*
X0558574Y0057698D01*
X0558556Y0057858D01*
X0558542Y0058018D01*
X0558532Y0058179D01*
X0558526Y0058339D01*
X0558524Y0058500D01*
X0396956Y0043500D02*
X0396958Y0043581D01*
X0396964Y0043663D01*
X0396974Y0043744D01*
X0396988Y0043824D01*
X0397005Y0043903D01*
X0397027Y0043982D01*
X0397052Y0044059D01*
X0397081Y0044136D01*
X0397114Y0044210D01*
X0397151Y0044283D01*
X0397190Y0044354D01*
X0397234Y0044423D01*
X0397280Y0044490D01*
X0397330Y0044554D01*
X0397383Y0044616D01*
X0397439Y0044676D01*
X0397497Y0044732D01*
X0397559Y0044786D01*
X0397623Y0044837D01*
X0397689Y0044884D01*
X0397757Y0044928D01*
X0397828Y0044969D01*
X0397900Y0045006D01*
X0397975Y0045040D01*
X0398050Y0045070D01*
X0398128Y0045096D01*
X0398206Y0045119D01*
X0398285Y0045137D01*
X0398365Y0045152D01*
X0398446Y0045163D01*
X0398527Y0045170D01*
X0398609Y0045173D01*
X0398690Y0045172D01*
X0398771Y0045167D01*
X0398852Y0045158D01*
X0398933Y0045145D01*
X0399013Y0045128D01*
X0399091Y0045108D01*
X0399169Y0045083D01*
X0399246Y0045055D01*
X0399321Y0045023D01*
X0399394Y0044988D01*
X0399465Y0044949D01*
X0399535Y0044906D01*
X0399602Y0044861D01*
X0399668Y0044812D01*
X0399730Y0044760D01*
X0399790Y0044704D01*
X0399847Y0044646D01*
X0399902Y0044586D01*
X0399953Y0044522D01*
X0400001Y0044457D01*
X0400046Y0044389D01*
X0400088Y0044319D01*
X0400126Y0044247D01*
X0400161Y0044173D01*
X0400192Y0044098D01*
X0400219Y0044021D01*
X0400242Y0043943D01*
X0400262Y0043864D01*
X0400278Y0043784D01*
X0400290Y0043703D01*
X0400298Y0043622D01*
X0400302Y0043541D01*
X0400302Y0043459D01*
X0400298Y0043378D01*
X0400290Y0043297D01*
X0400278Y0043216D01*
X0400262Y0043136D01*
X0400242Y0043057D01*
X0400219Y0042979D01*
X0400192Y0042902D01*
X0400161Y0042827D01*
X0400126Y0042753D01*
X0400088Y0042681D01*
X0400046Y0042611D01*
X0400001Y0042543D01*
X0399953Y0042478D01*
X0399902Y0042414D01*
X0399847Y0042354D01*
X0399790Y0042296D01*
X0399730Y0042240D01*
X0399668Y0042188D01*
X0399602Y0042139D01*
X0399535Y0042094D01*
X0399466Y0042051D01*
X0399394Y0042012D01*
X0399321Y0041977D01*
X0399246Y0041945D01*
X0399169Y0041917D01*
X0399091Y0041892D01*
X0399013Y0041872D01*
X0398933Y0041855D01*
X0398852Y0041842D01*
X0398771Y0041833D01*
X0398690Y0041828D01*
X0398609Y0041827D01*
X0398527Y0041830D01*
X0398446Y0041837D01*
X0398365Y0041848D01*
X0398285Y0041863D01*
X0398206Y0041881D01*
X0398128Y0041904D01*
X0398050Y0041930D01*
X0397975Y0041960D01*
X0397900Y0041994D01*
X0397828Y0042031D01*
X0397757Y0042072D01*
X0397689Y0042116D01*
X0397623Y0042163D01*
X0397559Y0042214D01*
X0397497Y0042268D01*
X0397439Y0042324D01*
X0397383Y0042384D01*
X0397330Y0042446D01*
X0397280Y0042510D01*
X0397234Y0042577D01*
X0397190Y0042646D01*
X0397151Y0042717D01*
X0397114Y0042790D01*
X0397081Y0042864D01*
X0397052Y0042941D01*
X0397027Y0043018D01*
X0397005Y0043097D01*
X0396988Y0043176D01*
X0396974Y0043256D01*
X0396964Y0043337D01*
X0396958Y0043419D01*
X0396956Y0043500D01*
X0385145Y0043500D02*
X0385147Y0043581D01*
X0385153Y0043663D01*
X0385163Y0043744D01*
X0385177Y0043824D01*
X0385194Y0043903D01*
X0385216Y0043982D01*
X0385241Y0044059D01*
X0385270Y0044136D01*
X0385303Y0044210D01*
X0385340Y0044283D01*
X0385379Y0044354D01*
X0385423Y0044423D01*
X0385469Y0044490D01*
X0385519Y0044554D01*
X0385572Y0044616D01*
X0385628Y0044676D01*
X0385686Y0044732D01*
X0385748Y0044786D01*
X0385812Y0044837D01*
X0385878Y0044884D01*
X0385946Y0044928D01*
X0386017Y0044969D01*
X0386089Y0045006D01*
X0386164Y0045040D01*
X0386239Y0045070D01*
X0386317Y0045096D01*
X0386395Y0045119D01*
X0386474Y0045137D01*
X0386554Y0045152D01*
X0386635Y0045163D01*
X0386716Y0045170D01*
X0386798Y0045173D01*
X0386879Y0045172D01*
X0386960Y0045167D01*
X0387041Y0045158D01*
X0387122Y0045145D01*
X0387202Y0045128D01*
X0387280Y0045108D01*
X0387358Y0045083D01*
X0387435Y0045055D01*
X0387510Y0045023D01*
X0387583Y0044988D01*
X0387654Y0044949D01*
X0387724Y0044906D01*
X0387791Y0044861D01*
X0387857Y0044812D01*
X0387919Y0044760D01*
X0387979Y0044704D01*
X0388036Y0044646D01*
X0388091Y0044586D01*
X0388142Y0044522D01*
X0388190Y0044457D01*
X0388235Y0044389D01*
X0388277Y0044319D01*
X0388315Y0044247D01*
X0388350Y0044173D01*
X0388381Y0044098D01*
X0388408Y0044021D01*
X0388431Y0043943D01*
X0388451Y0043864D01*
X0388467Y0043784D01*
X0388479Y0043703D01*
X0388487Y0043622D01*
X0388491Y0043541D01*
X0388491Y0043459D01*
X0388487Y0043378D01*
X0388479Y0043297D01*
X0388467Y0043216D01*
X0388451Y0043136D01*
X0388431Y0043057D01*
X0388408Y0042979D01*
X0388381Y0042902D01*
X0388350Y0042827D01*
X0388315Y0042753D01*
X0388277Y0042681D01*
X0388235Y0042611D01*
X0388190Y0042543D01*
X0388142Y0042478D01*
X0388091Y0042414D01*
X0388036Y0042354D01*
X0387979Y0042296D01*
X0387919Y0042240D01*
X0387857Y0042188D01*
X0387791Y0042139D01*
X0387724Y0042094D01*
X0387655Y0042051D01*
X0387583Y0042012D01*
X0387510Y0041977D01*
X0387435Y0041945D01*
X0387358Y0041917D01*
X0387280Y0041892D01*
X0387202Y0041872D01*
X0387122Y0041855D01*
X0387041Y0041842D01*
X0386960Y0041833D01*
X0386879Y0041828D01*
X0386798Y0041827D01*
X0386716Y0041830D01*
X0386635Y0041837D01*
X0386554Y0041848D01*
X0386474Y0041863D01*
X0386395Y0041881D01*
X0386317Y0041904D01*
X0386239Y0041930D01*
X0386164Y0041960D01*
X0386089Y0041994D01*
X0386017Y0042031D01*
X0385946Y0042072D01*
X0385878Y0042116D01*
X0385812Y0042163D01*
X0385748Y0042214D01*
X0385686Y0042268D01*
X0385628Y0042324D01*
X0385572Y0042384D01*
X0385519Y0042446D01*
X0385469Y0042510D01*
X0385423Y0042577D01*
X0385379Y0042646D01*
X0385340Y0042717D01*
X0385303Y0042790D01*
X0385270Y0042864D01*
X0385241Y0042941D01*
X0385216Y0043018D01*
X0385194Y0043097D01*
X0385177Y0043176D01*
X0385163Y0043256D01*
X0385153Y0043337D01*
X0385147Y0043419D01*
X0385145Y0043500D01*
X0354024Y0038500D02*
X0354026Y0038661D01*
X0354032Y0038821D01*
X0354042Y0038982D01*
X0354056Y0039142D01*
X0354074Y0039302D01*
X0354095Y0039461D01*
X0354121Y0039620D01*
X0354151Y0039778D01*
X0354184Y0039935D01*
X0354222Y0040092D01*
X0354263Y0040247D01*
X0354308Y0040401D01*
X0354357Y0040554D01*
X0354410Y0040706D01*
X0354466Y0040857D01*
X0354527Y0041006D01*
X0354590Y0041154D01*
X0354658Y0041300D01*
X0354729Y0041444D01*
X0354803Y0041586D01*
X0354881Y0041727D01*
X0354963Y0041865D01*
X0355048Y0042002D01*
X0355136Y0042136D01*
X0355228Y0042268D01*
X0355323Y0042398D01*
X0355421Y0042526D01*
X0355522Y0042651D01*
X0355626Y0042773D01*
X0355733Y0042893D01*
X0355843Y0043010D01*
X0355956Y0043125D01*
X0356072Y0043236D01*
X0356191Y0043345D01*
X0356312Y0043450D01*
X0356436Y0043553D01*
X0356562Y0043653D01*
X0356690Y0043749D01*
X0356821Y0043842D01*
X0356955Y0043932D01*
X0357090Y0044019D01*
X0357228Y0044102D01*
X0357367Y0044182D01*
X0357509Y0044258D01*
X0357652Y0044331D01*
X0357797Y0044400D01*
X0357944Y0044466D01*
X0358092Y0044528D01*
X0358242Y0044586D01*
X0358393Y0044641D01*
X0358546Y0044692D01*
X0358700Y0044739D01*
X0358855Y0044782D01*
X0359011Y0044821D01*
X0359167Y0044857D01*
X0359325Y0044888D01*
X0359483Y0044916D01*
X0359642Y0044940D01*
X0359802Y0044960D01*
X0359962Y0044976D01*
X0360122Y0044988D01*
X0360283Y0044996D01*
X0360444Y0045000D01*
X0360604Y0045000D01*
X0360765Y0044996D01*
X0360926Y0044988D01*
X0361086Y0044976D01*
X0361246Y0044960D01*
X0361406Y0044940D01*
X0361565Y0044916D01*
X0361723Y0044888D01*
X0361881Y0044857D01*
X0362037Y0044821D01*
X0362193Y0044782D01*
X0362348Y0044739D01*
X0362502Y0044692D01*
X0362655Y0044641D01*
X0362806Y0044586D01*
X0362956Y0044528D01*
X0363104Y0044466D01*
X0363251Y0044400D01*
X0363396Y0044331D01*
X0363539Y0044258D01*
X0363681Y0044182D01*
X0363820Y0044102D01*
X0363958Y0044019D01*
X0364093Y0043932D01*
X0364227Y0043842D01*
X0364358Y0043749D01*
X0364486Y0043653D01*
X0364612Y0043553D01*
X0364736Y0043450D01*
X0364857Y0043345D01*
X0364976Y0043236D01*
X0365092Y0043125D01*
X0365205Y0043010D01*
X0365315Y0042893D01*
X0365422Y0042773D01*
X0365526Y0042651D01*
X0365627Y0042526D01*
X0365725Y0042398D01*
X0365820Y0042268D01*
X0365912Y0042136D01*
X0366000Y0042002D01*
X0366085Y0041865D01*
X0366167Y0041727D01*
X0366245Y0041586D01*
X0366319Y0041444D01*
X0366390Y0041300D01*
X0366458Y0041154D01*
X0366521Y0041006D01*
X0366582Y0040857D01*
X0366638Y0040706D01*
X0366691Y0040554D01*
X0366740Y0040401D01*
X0366785Y0040247D01*
X0366826Y0040092D01*
X0366864Y0039935D01*
X0366897Y0039778D01*
X0366927Y0039620D01*
X0366953Y0039461D01*
X0366974Y0039302D01*
X0366992Y0039142D01*
X0367006Y0038982D01*
X0367016Y0038821D01*
X0367022Y0038661D01*
X0367024Y0038500D01*
X0367022Y0038339D01*
X0367016Y0038179D01*
X0367006Y0038018D01*
X0366992Y0037858D01*
X0366974Y0037698D01*
X0366953Y0037539D01*
X0366927Y0037380D01*
X0366897Y0037222D01*
X0366864Y0037065D01*
X0366826Y0036908D01*
X0366785Y0036753D01*
X0366740Y0036599D01*
X0366691Y0036446D01*
X0366638Y0036294D01*
X0366582Y0036143D01*
X0366521Y0035994D01*
X0366458Y0035846D01*
X0366390Y0035700D01*
X0366319Y0035556D01*
X0366245Y0035414D01*
X0366167Y0035273D01*
X0366085Y0035135D01*
X0366000Y0034998D01*
X0365912Y0034864D01*
X0365820Y0034732D01*
X0365725Y0034602D01*
X0365627Y0034474D01*
X0365526Y0034349D01*
X0365422Y0034227D01*
X0365315Y0034107D01*
X0365205Y0033990D01*
X0365092Y0033875D01*
X0364976Y0033764D01*
X0364857Y0033655D01*
X0364736Y0033550D01*
X0364612Y0033447D01*
X0364486Y0033347D01*
X0364358Y0033251D01*
X0364227Y0033158D01*
X0364093Y0033068D01*
X0363958Y0032981D01*
X0363820Y0032898D01*
X0363681Y0032818D01*
X0363539Y0032742D01*
X0363396Y0032669D01*
X0363251Y0032600D01*
X0363104Y0032534D01*
X0362956Y0032472D01*
X0362806Y0032414D01*
X0362655Y0032359D01*
X0362502Y0032308D01*
X0362348Y0032261D01*
X0362193Y0032218D01*
X0362037Y0032179D01*
X0361881Y0032143D01*
X0361723Y0032112D01*
X0361565Y0032084D01*
X0361406Y0032060D01*
X0361246Y0032040D01*
X0361086Y0032024D01*
X0360926Y0032012D01*
X0360765Y0032004D01*
X0360604Y0032000D01*
X0360444Y0032000D01*
X0360283Y0032004D01*
X0360122Y0032012D01*
X0359962Y0032024D01*
X0359802Y0032040D01*
X0359642Y0032060D01*
X0359483Y0032084D01*
X0359325Y0032112D01*
X0359167Y0032143D01*
X0359011Y0032179D01*
X0358855Y0032218D01*
X0358700Y0032261D01*
X0358546Y0032308D01*
X0358393Y0032359D01*
X0358242Y0032414D01*
X0358092Y0032472D01*
X0357944Y0032534D01*
X0357797Y0032600D01*
X0357652Y0032669D01*
X0357509Y0032742D01*
X0357367Y0032818D01*
X0357228Y0032898D01*
X0357090Y0032981D01*
X0356955Y0033068D01*
X0356821Y0033158D01*
X0356690Y0033251D01*
X0356562Y0033347D01*
X0356436Y0033447D01*
X0356312Y0033550D01*
X0356191Y0033655D01*
X0356072Y0033764D01*
X0355956Y0033875D01*
X0355843Y0033990D01*
X0355733Y0034107D01*
X0355626Y0034227D01*
X0355522Y0034349D01*
X0355421Y0034474D01*
X0355323Y0034602D01*
X0355228Y0034732D01*
X0355136Y0034864D01*
X0355048Y0034998D01*
X0354963Y0035135D01*
X0354881Y0035273D01*
X0354803Y0035414D01*
X0354729Y0035556D01*
X0354658Y0035700D01*
X0354590Y0035846D01*
X0354527Y0035994D01*
X0354466Y0036143D01*
X0354410Y0036294D01*
X0354357Y0036446D01*
X0354308Y0036599D01*
X0354263Y0036753D01*
X0354222Y0036908D01*
X0354184Y0037065D01*
X0354151Y0037222D01*
X0354121Y0037380D01*
X0354095Y0037539D01*
X0354074Y0037698D01*
X0354056Y0037858D01*
X0354042Y0038018D01*
X0354032Y0038179D01*
X0354026Y0038339D01*
X0354024Y0038500D01*
X0280524Y0058500D02*
X0280526Y0058661D01*
X0280532Y0058821D01*
X0280542Y0058982D01*
X0280556Y0059142D01*
X0280574Y0059302D01*
X0280595Y0059461D01*
X0280621Y0059620D01*
X0280651Y0059778D01*
X0280684Y0059935D01*
X0280722Y0060092D01*
X0280763Y0060247D01*
X0280808Y0060401D01*
X0280857Y0060554D01*
X0280910Y0060706D01*
X0280966Y0060857D01*
X0281027Y0061006D01*
X0281090Y0061154D01*
X0281158Y0061300D01*
X0281229Y0061444D01*
X0281303Y0061586D01*
X0281381Y0061727D01*
X0281463Y0061865D01*
X0281548Y0062002D01*
X0281636Y0062136D01*
X0281728Y0062268D01*
X0281823Y0062398D01*
X0281921Y0062526D01*
X0282022Y0062651D01*
X0282126Y0062773D01*
X0282233Y0062893D01*
X0282343Y0063010D01*
X0282456Y0063125D01*
X0282572Y0063236D01*
X0282691Y0063345D01*
X0282812Y0063450D01*
X0282936Y0063553D01*
X0283062Y0063653D01*
X0283190Y0063749D01*
X0283321Y0063842D01*
X0283455Y0063932D01*
X0283590Y0064019D01*
X0283728Y0064102D01*
X0283867Y0064182D01*
X0284009Y0064258D01*
X0284152Y0064331D01*
X0284297Y0064400D01*
X0284444Y0064466D01*
X0284592Y0064528D01*
X0284742Y0064586D01*
X0284893Y0064641D01*
X0285046Y0064692D01*
X0285200Y0064739D01*
X0285355Y0064782D01*
X0285511Y0064821D01*
X0285667Y0064857D01*
X0285825Y0064888D01*
X0285983Y0064916D01*
X0286142Y0064940D01*
X0286302Y0064960D01*
X0286462Y0064976D01*
X0286622Y0064988D01*
X0286783Y0064996D01*
X0286944Y0065000D01*
X0287104Y0065000D01*
X0287265Y0064996D01*
X0287426Y0064988D01*
X0287586Y0064976D01*
X0287746Y0064960D01*
X0287906Y0064940D01*
X0288065Y0064916D01*
X0288223Y0064888D01*
X0288381Y0064857D01*
X0288537Y0064821D01*
X0288693Y0064782D01*
X0288848Y0064739D01*
X0289002Y0064692D01*
X0289155Y0064641D01*
X0289306Y0064586D01*
X0289456Y0064528D01*
X0289604Y0064466D01*
X0289751Y0064400D01*
X0289896Y0064331D01*
X0290039Y0064258D01*
X0290181Y0064182D01*
X0290320Y0064102D01*
X0290458Y0064019D01*
X0290593Y0063932D01*
X0290727Y0063842D01*
X0290858Y0063749D01*
X0290986Y0063653D01*
X0291112Y0063553D01*
X0291236Y0063450D01*
X0291357Y0063345D01*
X0291476Y0063236D01*
X0291592Y0063125D01*
X0291705Y0063010D01*
X0291815Y0062893D01*
X0291922Y0062773D01*
X0292026Y0062651D01*
X0292127Y0062526D01*
X0292225Y0062398D01*
X0292320Y0062268D01*
X0292412Y0062136D01*
X0292500Y0062002D01*
X0292585Y0061865D01*
X0292667Y0061727D01*
X0292745Y0061586D01*
X0292819Y0061444D01*
X0292890Y0061300D01*
X0292958Y0061154D01*
X0293021Y0061006D01*
X0293082Y0060857D01*
X0293138Y0060706D01*
X0293191Y0060554D01*
X0293240Y0060401D01*
X0293285Y0060247D01*
X0293326Y0060092D01*
X0293364Y0059935D01*
X0293397Y0059778D01*
X0293427Y0059620D01*
X0293453Y0059461D01*
X0293474Y0059302D01*
X0293492Y0059142D01*
X0293506Y0058982D01*
X0293516Y0058821D01*
X0293522Y0058661D01*
X0293524Y0058500D01*
X0293522Y0058339D01*
X0293516Y0058179D01*
X0293506Y0058018D01*
X0293492Y0057858D01*
X0293474Y0057698D01*
X0293453Y0057539D01*
X0293427Y0057380D01*
X0293397Y0057222D01*
X0293364Y0057065D01*
X0293326Y0056908D01*
X0293285Y0056753D01*
X0293240Y0056599D01*
X0293191Y0056446D01*
X0293138Y0056294D01*
X0293082Y0056143D01*
X0293021Y0055994D01*
X0292958Y0055846D01*
X0292890Y0055700D01*
X0292819Y0055556D01*
X0292745Y0055414D01*
X0292667Y0055273D01*
X0292585Y0055135D01*
X0292500Y0054998D01*
X0292412Y0054864D01*
X0292320Y0054732D01*
X0292225Y0054602D01*
X0292127Y0054474D01*
X0292026Y0054349D01*
X0291922Y0054227D01*
X0291815Y0054107D01*
X0291705Y0053990D01*
X0291592Y0053875D01*
X0291476Y0053764D01*
X0291357Y0053655D01*
X0291236Y0053550D01*
X0291112Y0053447D01*
X0290986Y0053347D01*
X0290858Y0053251D01*
X0290727Y0053158D01*
X0290593Y0053068D01*
X0290458Y0052981D01*
X0290320Y0052898D01*
X0290181Y0052818D01*
X0290039Y0052742D01*
X0289896Y0052669D01*
X0289751Y0052600D01*
X0289604Y0052534D01*
X0289456Y0052472D01*
X0289306Y0052414D01*
X0289155Y0052359D01*
X0289002Y0052308D01*
X0288848Y0052261D01*
X0288693Y0052218D01*
X0288537Y0052179D01*
X0288381Y0052143D01*
X0288223Y0052112D01*
X0288065Y0052084D01*
X0287906Y0052060D01*
X0287746Y0052040D01*
X0287586Y0052024D01*
X0287426Y0052012D01*
X0287265Y0052004D01*
X0287104Y0052000D01*
X0286944Y0052000D01*
X0286783Y0052004D01*
X0286622Y0052012D01*
X0286462Y0052024D01*
X0286302Y0052040D01*
X0286142Y0052060D01*
X0285983Y0052084D01*
X0285825Y0052112D01*
X0285667Y0052143D01*
X0285511Y0052179D01*
X0285355Y0052218D01*
X0285200Y0052261D01*
X0285046Y0052308D01*
X0284893Y0052359D01*
X0284742Y0052414D01*
X0284592Y0052472D01*
X0284444Y0052534D01*
X0284297Y0052600D01*
X0284152Y0052669D01*
X0284009Y0052742D01*
X0283867Y0052818D01*
X0283728Y0052898D01*
X0283590Y0052981D01*
X0283455Y0053068D01*
X0283321Y0053158D01*
X0283190Y0053251D01*
X0283062Y0053347D01*
X0282936Y0053447D01*
X0282812Y0053550D01*
X0282691Y0053655D01*
X0282572Y0053764D01*
X0282456Y0053875D01*
X0282343Y0053990D01*
X0282233Y0054107D01*
X0282126Y0054227D01*
X0282022Y0054349D01*
X0281921Y0054474D01*
X0281823Y0054602D01*
X0281728Y0054732D01*
X0281636Y0054864D01*
X0281548Y0054998D01*
X0281463Y0055135D01*
X0281381Y0055273D01*
X0281303Y0055414D01*
X0281229Y0055556D01*
X0281158Y0055700D01*
X0281090Y0055846D01*
X0281027Y0055994D01*
X0280966Y0056143D01*
X0280910Y0056294D01*
X0280857Y0056446D01*
X0280808Y0056599D01*
X0280763Y0056753D01*
X0280722Y0056908D01*
X0280684Y0057065D01*
X0280651Y0057222D01*
X0280621Y0057380D01*
X0280595Y0057539D01*
X0280574Y0057698D01*
X0280556Y0057858D01*
X0280542Y0058018D01*
X0280532Y0058179D01*
X0280526Y0058339D01*
X0280524Y0058500D01*
X0118956Y0043500D02*
X0118958Y0043581D01*
X0118964Y0043663D01*
X0118974Y0043744D01*
X0118988Y0043824D01*
X0119005Y0043903D01*
X0119027Y0043982D01*
X0119052Y0044059D01*
X0119081Y0044136D01*
X0119114Y0044210D01*
X0119151Y0044283D01*
X0119190Y0044354D01*
X0119234Y0044423D01*
X0119280Y0044490D01*
X0119330Y0044554D01*
X0119383Y0044616D01*
X0119439Y0044676D01*
X0119497Y0044732D01*
X0119559Y0044786D01*
X0119623Y0044837D01*
X0119689Y0044884D01*
X0119757Y0044928D01*
X0119828Y0044969D01*
X0119900Y0045006D01*
X0119975Y0045040D01*
X0120050Y0045070D01*
X0120128Y0045096D01*
X0120206Y0045119D01*
X0120285Y0045137D01*
X0120365Y0045152D01*
X0120446Y0045163D01*
X0120527Y0045170D01*
X0120609Y0045173D01*
X0120690Y0045172D01*
X0120771Y0045167D01*
X0120852Y0045158D01*
X0120933Y0045145D01*
X0121013Y0045128D01*
X0121091Y0045108D01*
X0121169Y0045083D01*
X0121246Y0045055D01*
X0121321Y0045023D01*
X0121394Y0044988D01*
X0121465Y0044949D01*
X0121535Y0044906D01*
X0121602Y0044861D01*
X0121668Y0044812D01*
X0121730Y0044760D01*
X0121790Y0044704D01*
X0121847Y0044646D01*
X0121902Y0044586D01*
X0121953Y0044522D01*
X0122001Y0044457D01*
X0122046Y0044389D01*
X0122088Y0044319D01*
X0122126Y0044247D01*
X0122161Y0044173D01*
X0122192Y0044098D01*
X0122219Y0044021D01*
X0122242Y0043943D01*
X0122262Y0043864D01*
X0122278Y0043784D01*
X0122290Y0043703D01*
X0122298Y0043622D01*
X0122302Y0043541D01*
X0122302Y0043459D01*
X0122298Y0043378D01*
X0122290Y0043297D01*
X0122278Y0043216D01*
X0122262Y0043136D01*
X0122242Y0043057D01*
X0122219Y0042979D01*
X0122192Y0042902D01*
X0122161Y0042827D01*
X0122126Y0042753D01*
X0122088Y0042681D01*
X0122046Y0042611D01*
X0122001Y0042543D01*
X0121953Y0042478D01*
X0121902Y0042414D01*
X0121847Y0042354D01*
X0121790Y0042296D01*
X0121730Y0042240D01*
X0121668Y0042188D01*
X0121602Y0042139D01*
X0121535Y0042094D01*
X0121466Y0042051D01*
X0121394Y0042012D01*
X0121321Y0041977D01*
X0121246Y0041945D01*
X0121169Y0041917D01*
X0121091Y0041892D01*
X0121013Y0041872D01*
X0120933Y0041855D01*
X0120852Y0041842D01*
X0120771Y0041833D01*
X0120690Y0041828D01*
X0120609Y0041827D01*
X0120527Y0041830D01*
X0120446Y0041837D01*
X0120365Y0041848D01*
X0120285Y0041863D01*
X0120206Y0041881D01*
X0120128Y0041904D01*
X0120050Y0041930D01*
X0119975Y0041960D01*
X0119900Y0041994D01*
X0119828Y0042031D01*
X0119757Y0042072D01*
X0119689Y0042116D01*
X0119623Y0042163D01*
X0119559Y0042214D01*
X0119497Y0042268D01*
X0119439Y0042324D01*
X0119383Y0042384D01*
X0119330Y0042446D01*
X0119280Y0042510D01*
X0119234Y0042577D01*
X0119190Y0042646D01*
X0119151Y0042717D01*
X0119114Y0042790D01*
X0119081Y0042864D01*
X0119052Y0042941D01*
X0119027Y0043018D01*
X0119005Y0043097D01*
X0118988Y0043176D01*
X0118974Y0043256D01*
X0118964Y0043337D01*
X0118958Y0043419D01*
X0118956Y0043500D01*
X0107145Y0043500D02*
X0107147Y0043581D01*
X0107153Y0043663D01*
X0107163Y0043744D01*
X0107177Y0043824D01*
X0107194Y0043903D01*
X0107216Y0043982D01*
X0107241Y0044059D01*
X0107270Y0044136D01*
X0107303Y0044210D01*
X0107340Y0044283D01*
X0107379Y0044354D01*
X0107423Y0044423D01*
X0107469Y0044490D01*
X0107519Y0044554D01*
X0107572Y0044616D01*
X0107628Y0044676D01*
X0107686Y0044732D01*
X0107748Y0044786D01*
X0107812Y0044837D01*
X0107878Y0044884D01*
X0107946Y0044928D01*
X0108017Y0044969D01*
X0108089Y0045006D01*
X0108164Y0045040D01*
X0108239Y0045070D01*
X0108317Y0045096D01*
X0108395Y0045119D01*
X0108474Y0045137D01*
X0108554Y0045152D01*
X0108635Y0045163D01*
X0108716Y0045170D01*
X0108798Y0045173D01*
X0108879Y0045172D01*
X0108960Y0045167D01*
X0109041Y0045158D01*
X0109122Y0045145D01*
X0109202Y0045128D01*
X0109280Y0045108D01*
X0109358Y0045083D01*
X0109435Y0045055D01*
X0109510Y0045023D01*
X0109583Y0044988D01*
X0109654Y0044949D01*
X0109724Y0044906D01*
X0109791Y0044861D01*
X0109857Y0044812D01*
X0109919Y0044760D01*
X0109979Y0044704D01*
X0110036Y0044646D01*
X0110091Y0044586D01*
X0110142Y0044522D01*
X0110190Y0044457D01*
X0110235Y0044389D01*
X0110277Y0044319D01*
X0110315Y0044247D01*
X0110350Y0044173D01*
X0110381Y0044098D01*
X0110408Y0044021D01*
X0110431Y0043943D01*
X0110451Y0043864D01*
X0110467Y0043784D01*
X0110479Y0043703D01*
X0110487Y0043622D01*
X0110491Y0043541D01*
X0110491Y0043459D01*
X0110487Y0043378D01*
X0110479Y0043297D01*
X0110467Y0043216D01*
X0110451Y0043136D01*
X0110431Y0043057D01*
X0110408Y0042979D01*
X0110381Y0042902D01*
X0110350Y0042827D01*
X0110315Y0042753D01*
X0110277Y0042681D01*
X0110235Y0042611D01*
X0110190Y0042543D01*
X0110142Y0042478D01*
X0110091Y0042414D01*
X0110036Y0042354D01*
X0109979Y0042296D01*
X0109919Y0042240D01*
X0109857Y0042188D01*
X0109791Y0042139D01*
X0109724Y0042094D01*
X0109655Y0042051D01*
X0109583Y0042012D01*
X0109510Y0041977D01*
X0109435Y0041945D01*
X0109358Y0041917D01*
X0109280Y0041892D01*
X0109202Y0041872D01*
X0109122Y0041855D01*
X0109041Y0041842D01*
X0108960Y0041833D01*
X0108879Y0041828D01*
X0108798Y0041827D01*
X0108716Y0041830D01*
X0108635Y0041837D01*
X0108554Y0041848D01*
X0108474Y0041863D01*
X0108395Y0041881D01*
X0108317Y0041904D01*
X0108239Y0041930D01*
X0108164Y0041960D01*
X0108089Y0041994D01*
X0108017Y0042031D01*
X0107946Y0042072D01*
X0107878Y0042116D01*
X0107812Y0042163D01*
X0107748Y0042214D01*
X0107686Y0042268D01*
X0107628Y0042324D01*
X0107572Y0042384D01*
X0107519Y0042446D01*
X0107469Y0042510D01*
X0107423Y0042577D01*
X0107379Y0042646D01*
X0107340Y0042717D01*
X0107303Y0042790D01*
X0107270Y0042864D01*
X0107241Y0042941D01*
X0107216Y0043018D01*
X0107194Y0043097D01*
X0107177Y0043176D01*
X0107163Y0043256D01*
X0107153Y0043337D01*
X0107147Y0043419D01*
X0107145Y0043500D01*
X0076024Y0038500D02*
X0076026Y0038661D01*
X0076032Y0038821D01*
X0076042Y0038982D01*
X0076056Y0039142D01*
X0076074Y0039302D01*
X0076095Y0039461D01*
X0076121Y0039620D01*
X0076151Y0039778D01*
X0076184Y0039935D01*
X0076222Y0040092D01*
X0076263Y0040247D01*
X0076308Y0040401D01*
X0076357Y0040554D01*
X0076410Y0040706D01*
X0076466Y0040857D01*
X0076527Y0041006D01*
X0076590Y0041154D01*
X0076658Y0041300D01*
X0076729Y0041444D01*
X0076803Y0041586D01*
X0076881Y0041727D01*
X0076963Y0041865D01*
X0077048Y0042002D01*
X0077136Y0042136D01*
X0077228Y0042268D01*
X0077323Y0042398D01*
X0077421Y0042526D01*
X0077522Y0042651D01*
X0077626Y0042773D01*
X0077733Y0042893D01*
X0077843Y0043010D01*
X0077956Y0043125D01*
X0078072Y0043236D01*
X0078191Y0043345D01*
X0078312Y0043450D01*
X0078436Y0043553D01*
X0078562Y0043653D01*
X0078690Y0043749D01*
X0078821Y0043842D01*
X0078955Y0043932D01*
X0079090Y0044019D01*
X0079228Y0044102D01*
X0079367Y0044182D01*
X0079509Y0044258D01*
X0079652Y0044331D01*
X0079797Y0044400D01*
X0079944Y0044466D01*
X0080092Y0044528D01*
X0080242Y0044586D01*
X0080393Y0044641D01*
X0080546Y0044692D01*
X0080700Y0044739D01*
X0080855Y0044782D01*
X0081011Y0044821D01*
X0081167Y0044857D01*
X0081325Y0044888D01*
X0081483Y0044916D01*
X0081642Y0044940D01*
X0081802Y0044960D01*
X0081962Y0044976D01*
X0082122Y0044988D01*
X0082283Y0044996D01*
X0082444Y0045000D01*
X0082604Y0045000D01*
X0082765Y0044996D01*
X0082926Y0044988D01*
X0083086Y0044976D01*
X0083246Y0044960D01*
X0083406Y0044940D01*
X0083565Y0044916D01*
X0083723Y0044888D01*
X0083881Y0044857D01*
X0084037Y0044821D01*
X0084193Y0044782D01*
X0084348Y0044739D01*
X0084502Y0044692D01*
X0084655Y0044641D01*
X0084806Y0044586D01*
X0084956Y0044528D01*
X0085104Y0044466D01*
X0085251Y0044400D01*
X0085396Y0044331D01*
X0085539Y0044258D01*
X0085681Y0044182D01*
X0085820Y0044102D01*
X0085958Y0044019D01*
X0086093Y0043932D01*
X0086227Y0043842D01*
X0086358Y0043749D01*
X0086486Y0043653D01*
X0086612Y0043553D01*
X0086736Y0043450D01*
X0086857Y0043345D01*
X0086976Y0043236D01*
X0087092Y0043125D01*
X0087205Y0043010D01*
X0087315Y0042893D01*
X0087422Y0042773D01*
X0087526Y0042651D01*
X0087627Y0042526D01*
X0087725Y0042398D01*
X0087820Y0042268D01*
X0087912Y0042136D01*
X0088000Y0042002D01*
X0088085Y0041865D01*
X0088167Y0041727D01*
X0088245Y0041586D01*
X0088319Y0041444D01*
X0088390Y0041300D01*
X0088458Y0041154D01*
X0088521Y0041006D01*
X0088582Y0040857D01*
X0088638Y0040706D01*
X0088691Y0040554D01*
X0088740Y0040401D01*
X0088785Y0040247D01*
X0088826Y0040092D01*
X0088864Y0039935D01*
X0088897Y0039778D01*
X0088927Y0039620D01*
X0088953Y0039461D01*
X0088974Y0039302D01*
X0088992Y0039142D01*
X0089006Y0038982D01*
X0089016Y0038821D01*
X0089022Y0038661D01*
X0089024Y0038500D01*
X0089022Y0038339D01*
X0089016Y0038179D01*
X0089006Y0038018D01*
X0088992Y0037858D01*
X0088974Y0037698D01*
X0088953Y0037539D01*
X0088927Y0037380D01*
X0088897Y0037222D01*
X0088864Y0037065D01*
X0088826Y0036908D01*
X0088785Y0036753D01*
X0088740Y0036599D01*
X0088691Y0036446D01*
X0088638Y0036294D01*
X0088582Y0036143D01*
X0088521Y0035994D01*
X0088458Y0035846D01*
X0088390Y0035700D01*
X0088319Y0035556D01*
X0088245Y0035414D01*
X0088167Y0035273D01*
X0088085Y0035135D01*
X0088000Y0034998D01*
X0087912Y0034864D01*
X0087820Y0034732D01*
X0087725Y0034602D01*
X0087627Y0034474D01*
X0087526Y0034349D01*
X0087422Y0034227D01*
X0087315Y0034107D01*
X0087205Y0033990D01*
X0087092Y0033875D01*
X0086976Y0033764D01*
X0086857Y0033655D01*
X0086736Y0033550D01*
X0086612Y0033447D01*
X0086486Y0033347D01*
X0086358Y0033251D01*
X0086227Y0033158D01*
X0086093Y0033068D01*
X0085958Y0032981D01*
X0085820Y0032898D01*
X0085681Y0032818D01*
X0085539Y0032742D01*
X0085396Y0032669D01*
X0085251Y0032600D01*
X0085104Y0032534D01*
X0084956Y0032472D01*
X0084806Y0032414D01*
X0084655Y0032359D01*
X0084502Y0032308D01*
X0084348Y0032261D01*
X0084193Y0032218D01*
X0084037Y0032179D01*
X0083881Y0032143D01*
X0083723Y0032112D01*
X0083565Y0032084D01*
X0083406Y0032060D01*
X0083246Y0032040D01*
X0083086Y0032024D01*
X0082926Y0032012D01*
X0082765Y0032004D01*
X0082604Y0032000D01*
X0082444Y0032000D01*
X0082283Y0032004D01*
X0082122Y0032012D01*
X0081962Y0032024D01*
X0081802Y0032040D01*
X0081642Y0032060D01*
X0081483Y0032084D01*
X0081325Y0032112D01*
X0081167Y0032143D01*
X0081011Y0032179D01*
X0080855Y0032218D01*
X0080700Y0032261D01*
X0080546Y0032308D01*
X0080393Y0032359D01*
X0080242Y0032414D01*
X0080092Y0032472D01*
X0079944Y0032534D01*
X0079797Y0032600D01*
X0079652Y0032669D01*
X0079509Y0032742D01*
X0079367Y0032818D01*
X0079228Y0032898D01*
X0079090Y0032981D01*
X0078955Y0033068D01*
X0078821Y0033158D01*
X0078690Y0033251D01*
X0078562Y0033347D01*
X0078436Y0033447D01*
X0078312Y0033550D01*
X0078191Y0033655D01*
X0078072Y0033764D01*
X0077956Y0033875D01*
X0077843Y0033990D01*
X0077733Y0034107D01*
X0077626Y0034227D01*
X0077522Y0034349D01*
X0077421Y0034474D01*
X0077323Y0034602D01*
X0077228Y0034732D01*
X0077136Y0034864D01*
X0077048Y0034998D01*
X0076963Y0035135D01*
X0076881Y0035273D01*
X0076803Y0035414D01*
X0076729Y0035556D01*
X0076658Y0035700D01*
X0076590Y0035846D01*
X0076527Y0035994D01*
X0076466Y0036143D01*
X0076410Y0036294D01*
X0076357Y0036446D01*
X0076308Y0036599D01*
X0076263Y0036753D01*
X0076222Y0036908D01*
X0076184Y0037065D01*
X0076151Y0037222D01*
X0076121Y0037380D01*
X0076095Y0037539D01*
X0076074Y0037698D01*
X0076056Y0037858D01*
X0076042Y0038018D01*
X0076032Y0038179D01*
X0076026Y0038339D01*
X0076024Y0038500D01*
X0202445Y0198500D02*
X0202447Y0198581D01*
X0202453Y0198663D01*
X0202463Y0198744D01*
X0202477Y0198824D01*
X0202494Y0198903D01*
X0202516Y0198982D01*
X0202541Y0199059D01*
X0202570Y0199136D01*
X0202603Y0199210D01*
X0202640Y0199283D01*
X0202679Y0199354D01*
X0202723Y0199423D01*
X0202769Y0199490D01*
X0202819Y0199554D01*
X0202872Y0199616D01*
X0202928Y0199676D01*
X0202986Y0199732D01*
X0203048Y0199786D01*
X0203112Y0199837D01*
X0203178Y0199884D01*
X0203246Y0199928D01*
X0203317Y0199969D01*
X0203389Y0200006D01*
X0203464Y0200040D01*
X0203539Y0200070D01*
X0203617Y0200096D01*
X0203695Y0200119D01*
X0203774Y0200137D01*
X0203854Y0200152D01*
X0203935Y0200163D01*
X0204016Y0200170D01*
X0204098Y0200173D01*
X0204179Y0200172D01*
X0204260Y0200167D01*
X0204341Y0200158D01*
X0204422Y0200145D01*
X0204502Y0200128D01*
X0204580Y0200108D01*
X0204658Y0200083D01*
X0204735Y0200055D01*
X0204810Y0200023D01*
X0204883Y0199988D01*
X0204954Y0199949D01*
X0205024Y0199906D01*
X0205091Y0199861D01*
X0205157Y0199812D01*
X0205219Y0199760D01*
X0205279Y0199704D01*
X0205336Y0199646D01*
X0205391Y0199586D01*
X0205442Y0199522D01*
X0205490Y0199457D01*
X0205535Y0199389D01*
X0205577Y0199319D01*
X0205615Y0199247D01*
X0205650Y0199173D01*
X0205681Y0199098D01*
X0205708Y0199021D01*
X0205731Y0198943D01*
X0205751Y0198864D01*
X0205767Y0198784D01*
X0205779Y0198703D01*
X0205787Y0198622D01*
X0205791Y0198541D01*
X0205791Y0198459D01*
X0205787Y0198378D01*
X0205779Y0198297D01*
X0205767Y0198216D01*
X0205751Y0198136D01*
X0205731Y0198057D01*
X0205708Y0197979D01*
X0205681Y0197902D01*
X0205650Y0197827D01*
X0205615Y0197753D01*
X0205577Y0197681D01*
X0205535Y0197611D01*
X0205490Y0197543D01*
X0205442Y0197478D01*
X0205391Y0197414D01*
X0205336Y0197354D01*
X0205279Y0197296D01*
X0205219Y0197240D01*
X0205157Y0197188D01*
X0205091Y0197139D01*
X0205024Y0197094D01*
X0204955Y0197051D01*
X0204883Y0197012D01*
X0204810Y0196977D01*
X0204735Y0196945D01*
X0204658Y0196917D01*
X0204580Y0196892D01*
X0204502Y0196872D01*
X0204422Y0196855D01*
X0204341Y0196842D01*
X0204260Y0196833D01*
X0204179Y0196828D01*
X0204098Y0196827D01*
X0204016Y0196830D01*
X0203935Y0196837D01*
X0203854Y0196848D01*
X0203774Y0196863D01*
X0203695Y0196881D01*
X0203617Y0196904D01*
X0203539Y0196930D01*
X0203464Y0196960D01*
X0203389Y0196994D01*
X0203317Y0197031D01*
X0203246Y0197072D01*
X0203178Y0197116D01*
X0203112Y0197163D01*
X0203048Y0197214D01*
X0202986Y0197268D01*
X0202928Y0197324D01*
X0202872Y0197384D01*
X0202819Y0197446D01*
X0202769Y0197510D01*
X0202723Y0197577D01*
X0202679Y0197646D01*
X0202640Y0197717D01*
X0202603Y0197790D01*
X0202570Y0197864D01*
X0202541Y0197941D01*
X0202516Y0198018D01*
X0202494Y0198097D01*
X0202477Y0198176D01*
X0202463Y0198256D01*
X0202453Y0198337D01*
X0202447Y0198419D01*
X0202445Y0198500D01*
X0214256Y0198500D02*
X0214258Y0198581D01*
X0214264Y0198663D01*
X0214274Y0198744D01*
X0214288Y0198824D01*
X0214305Y0198903D01*
X0214327Y0198982D01*
X0214352Y0199059D01*
X0214381Y0199136D01*
X0214414Y0199210D01*
X0214451Y0199283D01*
X0214490Y0199354D01*
X0214534Y0199423D01*
X0214580Y0199490D01*
X0214630Y0199554D01*
X0214683Y0199616D01*
X0214739Y0199676D01*
X0214797Y0199732D01*
X0214859Y0199786D01*
X0214923Y0199837D01*
X0214989Y0199884D01*
X0215057Y0199928D01*
X0215128Y0199969D01*
X0215200Y0200006D01*
X0215275Y0200040D01*
X0215350Y0200070D01*
X0215428Y0200096D01*
X0215506Y0200119D01*
X0215585Y0200137D01*
X0215665Y0200152D01*
X0215746Y0200163D01*
X0215827Y0200170D01*
X0215909Y0200173D01*
X0215990Y0200172D01*
X0216071Y0200167D01*
X0216152Y0200158D01*
X0216233Y0200145D01*
X0216313Y0200128D01*
X0216391Y0200108D01*
X0216469Y0200083D01*
X0216546Y0200055D01*
X0216621Y0200023D01*
X0216694Y0199988D01*
X0216765Y0199949D01*
X0216835Y0199906D01*
X0216902Y0199861D01*
X0216968Y0199812D01*
X0217030Y0199760D01*
X0217090Y0199704D01*
X0217147Y0199646D01*
X0217202Y0199586D01*
X0217253Y0199522D01*
X0217301Y0199457D01*
X0217346Y0199389D01*
X0217388Y0199319D01*
X0217426Y0199247D01*
X0217461Y0199173D01*
X0217492Y0199098D01*
X0217519Y0199021D01*
X0217542Y0198943D01*
X0217562Y0198864D01*
X0217578Y0198784D01*
X0217590Y0198703D01*
X0217598Y0198622D01*
X0217602Y0198541D01*
X0217602Y0198459D01*
X0217598Y0198378D01*
X0217590Y0198297D01*
X0217578Y0198216D01*
X0217562Y0198136D01*
X0217542Y0198057D01*
X0217519Y0197979D01*
X0217492Y0197902D01*
X0217461Y0197827D01*
X0217426Y0197753D01*
X0217388Y0197681D01*
X0217346Y0197611D01*
X0217301Y0197543D01*
X0217253Y0197478D01*
X0217202Y0197414D01*
X0217147Y0197354D01*
X0217090Y0197296D01*
X0217030Y0197240D01*
X0216968Y0197188D01*
X0216902Y0197139D01*
X0216835Y0197094D01*
X0216766Y0197051D01*
X0216694Y0197012D01*
X0216621Y0196977D01*
X0216546Y0196945D01*
X0216469Y0196917D01*
X0216391Y0196892D01*
X0216313Y0196872D01*
X0216233Y0196855D01*
X0216152Y0196842D01*
X0216071Y0196833D01*
X0215990Y0196828D01*
X0215909Y0196827D01*
X0215827Y0196830D01*
X0215746Y0196837D01*
X0215665Y0196848D01*
X0215585Y0196863D01*
X0215506Y0196881D01*
X0215428Y0196904D01*
X0215350Y0196930D01*
X0215275Y0196960D01*
X0215200Y0196994D01*
X0215128Y0197031D01*
X0215057Y0197072D01*
X0214989Y0197116D01*
X0214923Y0197163D01*
X0214859Y0197214D01*
X0214797Y0197268D01*
X0214739Y0197324D01*
X0214683Y0197384D01*
X0214630Y0197446D01*
X0214580Y0197510D01*
X0214534Y0197577D01*
X0214490Y0197646D01*
X0214451Y0197717D01*
X0214414Y0197790D01*
X0214381Y0197864D01*
X0214352Y0197941D01*
X0214327Y0198018D01*
X0214305Y0198097D01*
X0214288Y0198176D01*
X0214274Y0198256D01*
X0214264Y0198337D01*
X0214258Y0198419D01*
X0214256Y0198500D01*
X0118956Y0255500D02*
X0118958Y0255581D01*
X0118964Y0255663D01*
X0118974Y0255744D01*
X0118988Y0255824D01*
X0119005Y0255903D01*
X0119027Y0255982D01*
X0119052Y0256059D01*
X0119081Y0256136D01*
X0119114Y0256210D01*
X0119151Y0256283D01*
X0119190Y0256354D01*
X0119234Y0256423D01*
X0119280Y0256490D01*
X0119330Y0256554D01*
X0119383Y0256616D01*
X0119439Y0256676D01*
X0119497Y0256732D01*
X0119559Y0256786D01*
X0119623Y0256837D01*
X0119689Y0256884D01*
X0119757Y0256928D01*
X0119828Y0256969D01*
X0119900Y0257006D01*
X0119975Y0257040D01*
X0120050Y0257070D01*
X0120128Y0257096D01*
X0120206Y0257119D01*
X0120285Y0257137D01*
X0120365Y0257152D01*
X0120446Y0257163D01*
X0120527Y0257170D01*
X0120609Y0257173D01*
X0120690Y0257172D01*
X0120771Y0257167D01*
X0120852Y0257158D01*
X0120933Y0257145D01*
X0121013Y0257128D01*
X0121091Y0257108D01*
X0121169Y0257083D01*
X0121246Y0257055D01*
X0121321Y0257023D01*
X0121394Y0256988D01*
X0121465Y0256949D01*
X0121535Y0256906D01*
X0121602Y0256861D01*
X0121668Y0256812D01*
X0121730Y0256760D01*
X0121790Y0256704D01*
X0121847Y0256646D01*
X0121902Y0256586D01*
X0121953Y0256522D01*
X0122001Y0256457D01*
X0122046Y0256389D01*
X0122088Y0256319D01*
X0122126Y0256247D01*
X0122161Y0256173D01*
X0122192Y0256098D01*
X0122219Y0256021D01*
X0122242Y0255943D01*
X0122262Y0255864D01*
X0122278Y0255784D01*
X0122290Y0255703D01*
X0122298Y0255622D01*
X0122302Y0255541D01*
X0122302Y0255459D01*
X0122298Y0255378D01*
X0122290Y0255297D01*
X0122278Y0255216D01*
X0122262Y0255136D01*
X0122242Y0255057D01*
X0122219Y0254979D01*
X0122192Y0254902D01*
X0122161Y0254827D01*
X0122126Y0254753D01*
X0122088Y0254681D01*
X0122046Y0254611D01*
X0122001Y0254543D01*
X0121953Y0254478D01*
X0121902Y0254414D01*
X0121847Y0254354D01*
X0121790Y0254296D01*
X0121730Y0254240D01*
X0121668Y0254188D01*
X0121602Y0254139D01*
X0121535Y0254094D01*
X0121466Y0254051D01*
X0121394Y0254012D01*
X0121321Y0253977D01*
X0121246Y0253945D01*
X0121169Y0253917D01*
X0121091Y0253892D01*
X0121013Y0253872D01*
X0120933Y0253855D01*
X0120852Y0253842D01*
X0120771Y0253833D01*
X0120690Y0253828D01*
X0120609Y0253827D01*
X0120527Y0253830D01*
X0120446Y0253837D01*
X0120365Y0253848D01*
X0120285Y0253863D01*
X0120206Y0253881D01*
X0120128Y0253904D01*
X0120050Y0253930D01*
X0119975Y0253960D01*
X0119900Y0253994D01*
X0119828Y0254031D01*
X0119757Y0254072D01*
X0119689Y0254116D01*
X0119623Y0254163D01*
X0119559Y0254214D01*
X0119497Y0254268D01*
X0119439Y0254324D01*
X0119383Y0254384D01*
X0119330Y0254446D01*
X0119280Y0254510D01*
X0119234Y0254577D01*
X0119190Y0254646D01*
X0119151Y0254717D01*
X0119114Y0254790D01*
X0119081Y0254864D01*
X0119052Y0254941D01*
X0119027Y0255018D01*
X0119005Y0255097D01*
X0118988Y0255176D01*
X0118974Y0255256D01*
X0118964Y0255337D01*
X0118958Y0255419D01*
X0118956Y0255500D01*
X0107145Y0255500D02*
X0107147Y0255581D01*
X0107153Y0255663D01*
X0107163Y0255744D01*
X0107177Y0255824D01*
X0107194Y0255903D01*
X0107216Y0255982D01*
X0107241Y0256059D01*
X0107270Y0256136D01*
X0107303Y0256210D01*
X0107340Y0256283D01*
X0107379Y0256354D01*
X0107423Y0256423D01*
X0107469Y0256490D01*
X0107519Y0256554D01*
X0107572Y0256616D01*
X0107628Y0256676D01*
X0107686Y0256732D01*
X0107748Y0256786D01*
X0107812Y0256837D01*
X0107878Y0256884D01*
X0107946Y0256928D01*
X0108017Y0256969D01*
X0108089Y0257006D01*
X0108164Y0257040D01*
X0108239Y0257070D01*
X0108317Y0257096D01*
X0108395Y0257119D01*
X0108474Y0257137D01*
X0108554Y0257152D01*
X0108635Y0257163D01*
X0108716Y0257170D01*
X0108798Y0257173D01*
X0108879Y0257172D01*
X0108960Y0257167D01*
X0109041Y0257158D01*
X0109122Y0257145D01*
X0109202Y0257128D01*
X0109280Y0257108D01*
X0109358Y0257083D01*
X0109435Y0257055D01*
X0109510Y0257023D01*
X0109583Y0256988D01*
X0109654Y0256949D01*
X0109724Y0256906D01*
X0109791Y0256861D01*
X0109857Y0256812D01*
X0109919Y0256760D01*
X0109979Y0256704D01*
X0110036Y0256646D01*
X0110091Y0256586D01*
X0110142Y0256522D01*
X0110190Y0256457D01*
X0110235Y0256389D01*
X0110277Y0256319D01*
X0110315Y0256247D01*
X0110350Y0256173D01*
X0110381Y0256098D01*
X0110408Y0256021D01*
X0110431Y0255943D01*
X0110451Y0255864D01*
X0110467Y0255784D01*
X0110479Y0255703D01*
X0110487Y0255622D01*
X0110491Y0255541D01*
X0110491Y0255459D01*
X0110487Y0255378D01*
X0110479Y0255297D01*
X0110467Y0255216D01*
X0110451Y0255136D01*
X0110431Y0255057D01*
X0110408Y0254979D01*
X0110381Y0254902D01*
X0110350Y0254827D01*
X0110315Y0254753D01*
X0110277Y0254681D01*
X0110235Y0254611D01*
X0110190Y0254543D01*
X0110142Y0254478D01*
X0110091Y0254414D01*
X0110036Y0254354D01*
X0109979Y0254296D01*
X0109919Y0254240D01*
X0109857Y0254188D01*
X0109791Y0254139D01*
X0109724Y0254094D01*
X0109655Y0254051D01*
X0109583Y0254012D01*
X0109510Y0253977D01*
X0109435Y0253945D01*
X0109358Y0253917D01*
X0109280Y0253892D01*
X0109202Y0253872D01*
X0109122Y0253855D01*
X0109041Y0253842D01*
X0108960Y0253833D01*
X0108879Y0253828D01*
X0108798Y0253827D01*
X0108716Y0253830D01*
X0108635Y0253837D01*
X0108554Y0253848D01*
X0108474Y0253863D01*
X0108395Y0253881D01*
X0108317Y0253904D01*
X0108239Y0253930D01*
X0108164Y0253960D01*
X0108089Y0253994D01*
X0108017Y0254031D01*
X0107946Y0254072D01*
X0107878Y0254116D01*
X0107812Y0254163D01*
X0107748Y0254214D01*
X0107686Y0254268D01*
X0107628Y0254324D01*
X0107572Y0254384D01*
X0107519Y0254446D01*
X0107469Y0254510D01*
X0107423Y0254577D01*
X0107379Y0254646D01*
X0107340Y0254717D01*
X0107303Y0254790D01*
X0107270Y0254864D01*
X0107241Y0254941D01*
X0107216Y0255018D01*
X0107194Y0255097D01*
X0107177Y0255176D01*
X0107163Y0255256D01*
X0107153Y0255337D01*
X0107147Y0255419D01*
X0107145Y0255500D01*
X0076024Y0250500D02*
X0076026Y0250661D01*
X0076032Y0250821D01*
X0076042Y0250982D01*
X0076056Y0251142D01*
X0076074Y0251302D01*
X0076095Y0251461D01*
X0076121Y0251620D01*
X0076151Y0251778D01*
X0076184Y0251935D01*
X0076222Y0252092D01*
X0076263Y0252247D01*
X0076308Y0252401D01*
X0076357Y0252554D01*
X0076410Y0252706D01*
X0076466Y0252857D01*
X0076527Y0253006D01*
X0076590Y0253154D01*
X0076658Y0253300D01*
X0076729Y0253444D01*
X0076803Y0253586D01*
X0076881Y0253727D01*
X0076963Y0253865D01*
X0077048Y0254002D01*
X0077136Y0254136D01*
X0077228Y0254268D01*
X0077323Y0254398D01*
X0077421Y0254526D01*
X0077522Y0254651D01*
X0077626Y0254773D01*
X0077733Y0254893D01*
X0077843Y0255010D01*
X0077956Y0255125D01*
X0078072Y0255236D01*
X0078191Y0255345D01*
X0078312Y0255450D01*
X0078436Y0255553D01*
X0078562Y0255653D01*
X0078690Y0255749D01*
X0078821Y0255842D01*
X0078955Y0255932D01*
X0079090Y0256019D01*
X0079228Y0256102D01*
X0079367Y0256182D01*
X0079509Y0256258D01*
X0079652Y0256331D01*
X0079797Y0256400D01*
X0079944Y0256466D01*
X0080092Y0256528D01*
X0080242Y0256586D01*
X0080393Y0256641D01*
X0080546Y0256692D01*
X0080700Y0256739D01*
X0080855Y0256782D01*
X0081011Y0256821D01*
X0081167Y0256857D01*
X0081325Y0256888D01*
X0081483Y0256916D01*
X0081642Y0256940D01*
X0081802Y0256960D01*
X0081962Y0256976D01*
X0082122Y0256988D01*
X0082283Y0256996D01*
X0082444Y0257000D01*
X0082604Y0257000D01*
X0082765Y0256996D01*
X0082926Y0256988D01*
X0083086Y0256976D01*
X0083246Y0256960D01*
X0083406Y0256940D01*
X0083565Y0256916D01*
X0083723Y0256888D01*
X0083881Y0256857D01*
X0084037Y0256821D01*
X0084193Y0256782D01*
X0084348Y0256739D01*
X0084502Y0256692D01*
X0084655Y0256641D01*
X0084806Y0256586D01*
X0084956Y0256528D01*
X0085104Y0256466D01*
X0085251Y0256400D01*
X0085396Y0256331D01*
X0085539Y0256258D01*
X0085681Y0256182D01*
X0085820Y0256102D01*
X0085958Y0256019D01*
X0086093Y0255932D01*
X0086227Y0255842D01*
X0086358Y0255749D01*
X0086486Y0255653D01*
X0086612Y0255553D01*
X0086736Y0255450D01*
X0086857Y0255345D01*
X0086976Y0255236D01*
X0087092Y0255125D01*
X0087205Y0255010D01*
X0087315Y0254893D01*
X0087422Y0254773D01*
X0087526Y0254651D01*
X0087627Y0254526D01*
X0087725Y0254398D01*
X0087820Y0254268D01*
X0087912Y0254136D01*
X0088000Y0254002D01*
X0088085Y0253865D01*
X0088167Y0253727D01*
X0088245Y0253586D01*
X0088319Y0253444D01*
X0088390Y0253300D01*
X0088458Y0253154D01*
X0088521Y0253006D01*
X0088582Y0252857D01*
X0088638Y0252706D01*
X0088691Y0252554D01*
X0088740Y0252401D01*
X0088785Y0252247D01*
X0088826Y0252092D01*
X0088864Y0251935D01*
X0088897Y0251778D01*
X0088927Y0251620D01*
X0088953Y0251461D01*
X0088974Y0251302D01*
X0088992Y0251142D01*
X0089006Y0250982D01*
X0089016Y0250821D01*
X0089022Y0250661D01*
X0089024Y0250500D01*
X0089022Y0250339D01*
X0089016Y0250179D01*
X0089006Y0250018D01*
X0088992Y0249858D01*
X0088974Y0249698D01*
X0088953Y0249539D01*
X0088927Y0249380D01*
X0088897Y0249222D01*
X0088864Y0249065D01*
X0088826Y0248908D01*
X0088785Y0248753D01*
X0088740Y0248599D01*
X0088691Y0248446D01*
X0088638Y0248294D01*
X0088582Y0248143D01*
X0088521Y0247994D01*
X0088458Y0247846D01*
X0088390Y0247700D01*
X0088319Y0247556D01*
X0088245Y0247414D01*
X0088167Y0247273D01*
X0088085Y0247135D01*
X0088000Y0246998D01*
X0087912Y0246864D01*
X0087820Y0246732D01*
X0087725Y0246602D01*
X0087627Y0246474D01*
X0087526Y0246349D01*
X0087422Y0246227D01*
X0087315Y0246107D01*
X0087205Y0245990D01*
X0087092Y0245875D01*
X0086976Y0245764D01*
X0086857Y0245655D01*
X0086736Y0245550D01*
X0086612Y0245447D01*
X0086486Y0245347D01*
X0086358Y0245251D01*
X0086227Y0245158D01*
X0086093Y0245068D01*
X0085958Y0244981D01*
X0085820Y0244898D01*
X0085681Y0244818D01*
X0085539Y0244742D01*
X0085396Y0244669D01*
X0085251Y0244600D01*
X0085104Y0244534D01*
X0084956Y0244472D01*
X0084806Y0244414D01*
X0084655Y0244359D01*
X0084502Y0244308D01*
X0084348Y0244261D01*
X0084193Y0244218D01*
X0084037Y0244179D01*
X0083881Y0244143D01*
X0083723Y0244112D01*
X0083565Y0244084D01*
X0083406Y0244060D01*
X0083246Y0244040D01*
X0083086Y0244024D01*
X0082926Y0244012D01*
X0082765Y0244004D01*
X0082604Y0244000D01*
X0082444Y0244000D01*
X0082283Y0244004D01*
X0082122Y0244012D01*
X0081962Y0244024D01*
X0081802Y0244040D01*
X0081642Y0244060D01*
X0081483Y0244084D01*
X0081325Y0244112D01*
X0081167Y0244143D01*
X0081011Y0244179D01*
X0080855Y0244218D01*
X0080700Y0244261D01*
X0080546Y0244308D01*
X0080393Y0244359D01*
X0080242Y0244414D01*
X0080092Y0244472D01*
X0079944Y0244534D01*
X0079797Y0244600D01*
X0079652Y0244669D01*
X0079509Y0244742D01*
X0079367Y0244818D01*
X0079228Y0244898D01*
X0079090Y0244981D01*
X0078955Y0245068D01*
X0078821Y0245158D01*
X0078690Y0245251D01*
X0078562Y0245347D01*
X0078436Y0245447D01*
X0078312Y0245550D01*
X0078191Y0245655D01*
X0078072Y0245764D01*
X0077956Y0245875D01*
X0077843Y0245990D01*
X0077733Y0246107D01*
X0077626Y0246227D01*
X0077522Y0246349D01*
X0077421Y0246474D01*
X0077323Y0246602D01*
X0077228Y0246732D01*
X0077136Y0246864D01*
X0077048Y0246998D01*
X0076963Y0247135D01*
X0076881Y0247273D01*
X0076803Y0247414D01*
X0076729Y0247556D01*
X0076658Y0247700D01*
X0076590Y0247846D01*
X0076527Y0247994D01*
X0076466Y0248143D01*
X0076410Y0248294D01*
X0076357Y0248446D01*
X0076308Y0248599D01*
X0076263Y0248753D01*
X0076222Y0248908D01*
X0076184Y0249065D01*
X0076151Y0249222D01*
X0076121Y0249380D01*
X0076095Y0249539D01*
X0076074Y0249698D01*
X0076056Y0249858D01*
X0076042Y0250018D01*
X0076032Y0250179D01*
X0076026Y0250339D01*
X0076024Y0250500D01*
X0081024Y0228500D02*
X0081026Y0228661D01*
X0081032Y0228821D01*
X0081042Y0228982D01*
X0081056Y0229142D01*
X0081074Y0229302D01*
X0081095Y0229461D01*
X0081121Y0229620D01*
X0081151Y0229778D01*
X0081184Y0229935D01*
X0081222Y0230092D01*
X0081263Y0230247D01*
X0081308Y0230401D01*
X0081357Y0230554D01*
X0081410Y0230706D01*
X0081466Y0230857D01*
X0081527Y0231006D01*
X0081590Y0231154D01*
X0081658Y0231300D01*
X0081729Y0231444D01*
X0081803Y0231586D01*
X0081881Y0231727D01*
X0081963Y0231865D01*
X0082048Y0232002D01*
X0082136Y0232136D01*
X0082228Y0232268D01*
X0082323Y0232398D01*
X0082421Y0232526D01*
X0082522Y0232651D01*
X0082626Y0232773D01*
X0082733Y0232893D01*
X0082843Y0233010D01*
X0082956Y0233125D01*
X0083072Y0233236D01*
X0083191Y0233345D01*
X0083312Y0233450D01*
X0083436Y0233553D01*
X0083562Y0233653D01*
X0083690Y0233749D01*
X0083821Y0233842D01*
X0083955Y0233932D01*
X0084090Y0234019D01*
X0084228Y0234102D01*
X0084367Y0234182D01*
X0084509Y0234258D01*
X0084652Y0234331D01*
X0084797Y0234400D01*
X0084944Y0234466D01*
X0085092Y0234528D01*
X0085242Y0234586D01*
X0085393Y0234641D01*
X0085546Y0234692D01*
X0085700Y0234739D01*
X0085855Y0234782D01*
X0086011Y0234821D01*
X0086167Y0234857D01*
X0086325Y0234888D01*
X0086483Y0234916D01*
X0086642Y0234940D01*
X0086802Y0234960D01*
X0086962Y0234976D01*
X0087122Y0234988D01*
X0087283Y0234996D01*
X0087444Y0235000D01*
X0087604Y0235000D01*
X0087765Y0234996D01*
X0087926Y0234988D01*
X0088086Y0234976D01*
X0088246Y0234960D01*
X0088406Y0234940D01*
X0088565Y0234916D01*
X0088723Y0234888D01*
X0088881Y0234857D01*
X0089037Y0234821D01*
X0089193Y0234782D01*
X0089348Y0234739D01*
X0089502Y0234692D01*
X0089655Y0234641D01*
X0089806Y0234586D01*
X0089956Y0234528D01*
X0090104Y0234466D01*
X0090251Y0234400D01*
X0090396Y0234331D01*
X0090539Y0234258D01*
X0090681Y0234182D01*
X0090820Y0234102D01*
X0090958Y0234019D01*
X0091093Y0233932D01*
X0091227Y0233842D01*
X0091358Y0233749D01*
X0091486Y0233653D01*
X0091612Y0233553D01*
X0091736Y0233450D01*
X0091857Y0233345D01*
X0091976Y0233236D01*
X0092092Y0233125D01*
X0092205Y0233010D01*
X0092315Y0232893D01*
X0092422Y0232773D01*
X0092526Y0232651D01*
X0092627Y0232526D01*
X0092725Y0232398D01*
X0092820Y0232268D01*
X0092912Y0232136D01*
X0093000Y0232002D01*
X0093085Y0231865D01*
X0093167Y0231727D01*
X0093245Y0231586D01*
X0093319Y0231444D01*
X0093390Y0231300D01*
X0093458Y0231154D01*
X0093521Y0231006D01*
X0093582Y0230857D01*
X0093638Y0230706D01*
X0093691Y0230554D01*
X0093740Y0230401D01*
X0093785Y0230247D01*
X0093826Y0230092D01*
X0093864Y0229935D01*
X0093897Y0229778D01*
X0093927Y0229620D01*
X0093953Y0229461D01*
X0093974Y0229302D01*
X0093992Y0229142D01*
X0094006Y0228982D01*
X0094016Y0228821D01*
X0094022Y0228661D01*
X0094024Y0228500D01*
X0094022Y0228339D01*
X0094016Y0228179D01*
X0094006Y0228018D01*
X0093992Y0227858D01*
X0093974Y0227698D01*
X0093953Y0227539D01*
X0093927Y0227380D01*
X0093897Y0227222D01*
X0093864Y0227065D01*
X0093826Y0226908D01*
X0093785Y0226753D01*
X0093740Y0226599D01*
X0093691Y0226446D01*
X0093638Y0226294D01*
X0093582Y0226143D01*
X0093521Y0225994D01*
X0093458Y0225846D01*
X0093390Y0225700D01*
X0093319Y0225556D01*
X0093245Y0225414D01*
X0093167Y0225273D01*
X0093085Y0225135D01*
X0093000Y0224998D01*
X0092912Y0224864D01*
X0092820Y0224732D01*
X0092725Y0224602D01*
X0092627Y0224474D01*
X0092526Y0224349D01*
X0092422Y0224227D01*
X0092315Y0224107D01*
X0092205Y0223990D01*
X0092092Y0223875D01*
X0091976Y0223764D01*
X0091857Y0223655D01*
X0091736Y0223550D01*
X0091612Y0223447D01*
X0091486Y0223347D01*
X0091358Y0223251D01*
X0091227Y0223158D01*
X0091093Y0223068D01*
X0090958Y0222981D01*
X0090820Y0222898D01*
X0090681Y0222818D01*
X0090539Y0222742D01*
X0090396Y0222669D01*
X0090251Y0222600D01*
X0090104Y0222534D01*
X0089956Y0222472D01*
X0089806Y0222414D01*
X0089655Y0222359D01*
X0089502Y0222308D01*
X0089348Y0222261D01*
X0089193Y0222218D01*
X0089037Y0222179D01*
X0088881Y0222143D01*
X0088723Y0222112D01*
X0088565Y0222084D01*
X0088406Y0222060D01*
X0088246Y0222040D01*
X0088086Y0222024D01*
X0087926Y0222012D01*
X0087765Y0222004D01*
X0087604Y0222000D01*
X0087444Y0222000D01*
X0087283Y0222004D01*
X0087122Y0222012D01*
X0086962Y0222024D01*
X0086802Y0222040D01*
X0086642Y0222060D01*
X0086483Y0222084D01*
X0086325Y0222112D01*
X0086167Y0222143D01*
X0086011Y0222179D01*
X0085855Y0222218D01*
X0085700Y0222261D01*
X0085546Y0222308D01*
X0085393Y0222359D01*
X0085242Y0222414D01*
X0085092Y0222472D01*
X0084944Y0222534D01*
X0084797Y0222600D01*
X0084652Y0222669D01*
X0084509Y0222742D01*
X0084367Y0222818D01*
X0084228Y0222898D01*
X0084090Y0222981D01*
X0083955Y0223068D01*
X0083821Y0223158D01*
X0083690Y0223251D01*
X0083562Y0223347D01*
X0083436Y0223447D01*
X0083312Y0223550D01*
X0083191Y0223655D01*
X0083072Y0223764D01*
X0082956Y0223875D01*
X0082843Y0223990D01*
X0082733Y0224107D01*
X0082626Y0224227D01*
X0082522Y0224349D01*
X0082421Y0224474D01*
X0082323Y0224602D01*
X0082228Y0224732D01*
X0082136Y0224864D01*
X0082048Y0224998D01*
X0081963Y0225135D01*
X0081881Y0225273D01*
X0081803Y0225414D01*
X0081729Y0225556D01*
X0081658Y0225700D01*
X0081590Y0225846D01*
X0081527Y0225994D01*
X0081466Y0226143D01*
X0081410Y0226294D01*
X0081357Y0226446D01*
X0081308Y0226599D01*
X0081263Y0226753D01*
X0081222Y0226908D01*
X0081184Y0227065D01*
X0081151Y0227222D01*
X0081121Y0227380D01*
X0081095Y0227539D01*
X0081074Y0227698D01*
X0081056Y0227858D01*
X0081042Y0228018D01*
X0081032Y0228179D01*
X0081026Y0228339D01*
X0081024Y0228500D01*
M02*
