%
M48
M72
T01C0.0118
T02C0.0120
T03C0.0335
T04C0.0400
T05C0.1300
%
T01
X6505Y3936
X6905Y3536
X7355Y3086
X9105Y3086
X10105Y3086
X11752Y4850
X12742Y4850
X13092Y5790
X13922Y6120
X15502Y5130
X17838Y5949
X19658Y5949
X20688Y5689
X21515Y6102
X21515Y5276
X22341Y5689
X22341Y6516
X21515Y6929
X22341Y7343
X21515Y7756
X21515Y8583
X20738Y8746
X20688Y8169
X20688Y7343
X20688Y6516
X22341Y8169
X22341Y8996
X21515Y9409
X22341Y9823
X21515Y10236
X22341Y10650
X21515Y11063
X20688Y10650
X20688Y9823
X23168Y10236
X23995Y9823
X24822Y10236
X25648Y9823
X24822Y9409
X25648Y8996
X25648Y8169
X24822Y7756
X24822Y8583
X23995Y8996
X23995Y8169
X23168Y7756
X23168Y8583
X23168Y9409
X23995Y10650
X23995Y11476
X24822Y11063
X25317Y11408
X25067Y11822
X24917Y12235
X24767Y12648
X24767Y13012
X24354Y13012
X23941Y13012
X23527Y13012
X23114Y13012
X22700Y13012
X22287Y13012
X21874Y13012
X21460Y13012
X21047Y13012
X20633Y13012
X20633Y14073
X21047Y14073
X21047Y14437
X21460Y14073
X21874Y14073
X21874Y14437
X22287Y14073
X22287Y14850
X21874Y15263
X21874Y15677
X22287Y15677
X22700Y15677
X22700Y15263
X23114Y15263
X23114Y15677
X23164Y14850
X23165Y14462
X23166Y14073
X23580Y14073
X23580Y14437
X23993Y14073
X24932Y14693
X25132Y14073
X25546Y14073
X25959Y14073
X26322Y14073
X26438Y14681
X25611Y14681
X25611Y15094
X24785Y15507
X24185Y15507
X24185Y16334
X23958Y16748
X24785Y17161
X24785Y16334
X25611Y15921
X25611Y16748
X26438Y17161
X26438Y16334
X27265Y15921
X27265Y16748
X28092Y17161
X28092Y16334
X28092Y15507
X27265Y15094
X28092Y14681
X28092Y13854
X28092Y13027
X28092Y12200
X27778Y11787
X27678Y11374
X27265Y11374
X27082Y11793
X26765Y11524
X26365Y11837
X26682Y12193
X26115Y12250
X25965Y12664
X25915Y13027
X27265Y12200
X28092Y11374
X28129Y10236
X27461Y10227
X27302Y9823
X26785Y10327
X26217Y10581
X25667Y10995
X26475Y9409
X27302Y8996
X27302Y8169
X28129Y7756
X28129Y8583
X28129Y9409
X26475Y8583
X26475Y7756
X25648Y7343
X24822Y6929
X25648Y6516
X24822Y6102
X24822Y5276
X25648Y5689
X26475Y6102
X26475Y5276
X27302Y5689
X27765Y6102
X27302Y6516
X28129Y6929
X27302Y7343
X26475Y6929
X27915Y5276
X28155Y3086
X27155Y3086
X26155Y3086
X25155Y3086
X24155Y3086
X23155Y3086
X22155Y3086
X21155Y3086
X20155Y3086
X19155Y3086
X18155Y3086
X17155Y3086
X16155Y3086
X15155Y3086
X14155Y3086
X13155Y3086
X10312Y6260
X10752Y7138
X11752Y8338
X14802Y8100
X14902Y8600
X15011Y7600
X15027Y9600
X15152Y10120
X14112Y10430
X13953Y11600
X14386Y11600
X13520Y11625
X13087Y11625
X13191Y12785
X14024Y13258
X14845Y13612
X15678Y13258
X15678Y12631
X14845Y12785
X16498Y13612
X17276Y13246
X17276Y12620
X18103Y13610
X18933Y14023
X18103Y14437
X18103Y15263
X18933Y14850
X18933Y15677
X18103Y16090
X18933Y16504
X17449Y17100
X17150Y17100
X16852Y17112
X17276Y16454
X16498Y16092
X17276Y15677
X17276Y14850
X16498Y14439
X16498Y15265
X15678Y14862
X15678Y15689
X14845Y16092
X14024Y16465
X13191Y16092
X12365Y16092
X12365Y15265
X13191Y15265
X13191Y14439
X12365Y14439
X12365Y13612
X13191Y13612
X14024Y14035
X14845Y14439
X14845Y15265
X14024Y14862
X14024Y15689
X15678Y16465
X15702Y17100
X16002Y17100
X15252Y17100
X14845Y16919
X13762Y18136
X13859Y18471
X13626Y18750
X12481Y18613
X12652Y18075
X13191Y16919
X11569Y16506
X11569Y15679
X11569Y14852
X11569Y14025
X11569Y13198
X10533Y12262
X8783Y10863
X8972Y10318
X8852Y9838
X6502Y9350
X6502Y10350
X6502Y11350
X7002Y12488
X7952Y12988
X7005Y13620
X7802Y13938
X7752Y14475
X7780Y15759
X7780Y16153
X6502Y16350
X6505Y16986
X6505Y15686
X9927Y15283
X9927Y14850
X10520Y17404
X10334Y17659
X10502Y19850
X13002Y20116
X15601Y18750
X16502Y19782
X17002Y19991
X18926Y19712
X19926Y20550
X19551Y20962
X22252Y19588
X22304Y18088
X21478Y18088
X21478Y17261
X22304Y17261
X23131Y17261
X23131Y18088
X23958Y17574
X24785Y17988
X25611Y18401
X26438Y17988
X25611Y17574
X27265Y17574
X28092Y17988
X27265Y18401
X28092Y18815
X27265Y19228
X27265Y20055
X28092Y20468
X28092Y19641
X27265Y20881
X26438Y20468
X26438Y19641
X25611Y19228
X25611Y20055
X26438Y18815
X26438Y21295
X25611Y21708
X24785Y21708
X27265Y21708
X28092Y21295
X28092Y22122
X28155Y23586
X28155Y24286
X27155Y24286
X27405Y23586
X26405Y23586
X26155Y24286
X25405Y23586
X25155Y24286
X24155Y24286
X24405Y23586
X23405Y23586
X23155Y24286
X22155Y24286
X22405Y23586
X21405Y23586
X21155Y24286
X20405Y23586
X20155Y24286
X19155Y24286
X19405Y23586
X18405Y23586
X18155Y24286
X17405Y23586
X17155Y24286
X16155Y24286
X16405Y23586
X15405Y23586
X15155Y24286
X14155Y24286
X14405Y23586
X13405Y23586
X13155Y24286
X12405Y23586
X11405Y23586
X10405Y23586
X10105Y24286
X9405Y23586
X9105Y24286
X8055Y23586
X7355Y24286
X6905Y24736
X6505Y25136
X6505Y25986
X6505Y27036
X6505Y27786
X6505Y28686
X7942Y27460
X10312Y27460
X10752Y28338
X11752Y29538
X14802Y29300
X14902Y29800
X15011Y28800
X13922Y27320
X13092Y26990
X12742Y26050
X11752Y26050
X15502Y26330
X17838Y27149
X19658Y27149
X20688Y26889
X20688Y27716
X21515Y28129
X22341Y27716
X22341Y26889
X21515Y27302
X21515Y26476
X23168Y26476
X23168Y27302
X23995Y26889
X23995Y27716
X24822Y28129
X25648Y27716
X25648Y26889
X24822Y27302
X24822Y26476
X26475Y26476
X26475Y27302
X27302Y26889
X27765Y27302
X27302Y27716
X28129Y28129
X27302Y28543
X28129Y28956
X27302Y29369
X26475Y28956
X25648Y29369
X24822Y28956
X25648Y28543
X26475Y28129
X27915Y26476
X23995Y28543
X23168Y28956
X23995Y29369
X24822Y29783
X24822Y30609
X25648Y30196
X25648Y31023
X24822Y31436
X23995Y31023
X23995Y30196
X23168Y29783
X23168Y30609
X23168Y31436
X23995Y31850
X24822Y32263
X25317Y32608
X25067Y33022
X24917Y33435
X24767Y33848
X24767Y34212
X24354Y34212
X23941Y34212
X23527Y34212
X23114Y34212
X22700Y34212
X22287Y34212
X21874Y34212
X21460Y34212
X21047Y34212
X20633Y34212
X20633Y35273
X21047Y35273
X21047Y35637
X21460Y35273
X21874Y35273
X21874Y35637
X22287Y35273
X22287Y36050
X21874Y36463
X21874Y36877
X22287Y36877
X22700Y36877
X22700Y36463
X23114Y36463
X23114Y36877
X23164Y36050
X23165Y35662
X23166Y35273
X23580Y35273
X23580Y35637
X23993Y35273
X24932Y35893
X25132Y35273
X25546Y35273
X25959Y35273
X26322Y35273
X26438Y35881
X25611Y35881
X25611Y36294
X24785Y36707
X24185Y36707
X24185Y37534
X23958Y37948
X23958Y38774
X24785Y38361
X24785Y39188
X25611Y39601
X26438Y39188
X26438Y38361
X25611Y37948
X25611Y38774
X24785Y37534
X25611Y37121
X26438Y37534
X27265Y37121
X28092Y37534
X27265Y37948
X27265Y38774
X28092Y38361
X28092Y39188
X27265Y39601
X28092Y40015
X27265Y40428
X28092Y40841
X28092Y41668
X27265Y41255
X27265Y42081
X26438Y41668
X26438Y40841
X25611Y40428
X26438Y40015
X25611Y41255
X26438Y42495
X25611Y42908
X24785Y42908
X27265Y42908
X28092Y42495
X28092Y43322
X28155Y44786
X27405Y44786
X26405Y44786
X25405Y44786
X24405Y44786
X23405Y44786
X22405Y44786
X21405Y44786
X20405Y44786
X19405Y44786
X18405Y44786
X17405Y44786
X16405Y44786
X15405Y44786
X14405Y44786
X13405Y44786
X12405Y44786
X11405Y44786
X10405Y44786
X9405Y44786
X8055Y44786
X13002Y41316
X13626Y39950
X13859Y39671
X13762Y39336
X12652Y39275
X12481Y39813
X10520Y38604
X10334Y38859
X11569Y37706
X11569Y36879
X11569Y36052
X11569Y35225
X11569Y34398
X12365Y34812
X13191Y34812
X14024Y34458
X14845Y34812
X15678Y34458
X15678Y33831
X14845Y33985
X14386Y32800
X13953Y32800
X13520Y32825
X13087Y32825
X13191Y33985
X14024Y35235
X14845Y35639
X14024Y36062
X14845Y36465
X14845Y37292
X14024Y37665
X14024Y36889
X13191Y37292
X12365Y37292
X12365Y36465
X13191Y36465
X13191Y35639
X12365Y35639
X9927Y36050
X9927Y36483
X7780Y36959
X7780Y37353
X6502Y37550
X6505Y38186
X6505Y36886
X7752Y35675
X7802Y35138
X7005Y34820
X7952Y34188
X7002Y33688
X6502Y32550
X6502Y31550
X6502Y30550
X8852Y31038
X8972Y31518
X8783Y32063
X10533Y33462
X14112Y31630
X15152Y31320
X15027Y30800
X17276Y33820
X17276Y34446
X16498Y34812
X17276Y35223
X16498Y35639
X17276Y36050
X17276Y36877
X16498Y36465
X16498Y37292
X17276Y37654
X17150Y38300
X16852Y38312
X17449Y38300
X18103Y37290
X18103Y36463
X18933Y36050
X18933Y36877
X18933Y37704
X20651Y37634
X21478Y37634
X22304Y37634
X23131Y37634
X23131Y38461
X22304Y38461
X21478Y38461
X20651Y38461
X21478Y39288
X22304Y39288
X23131Y39288
X22252Y40788
X19926Y41750
X19551Y42162
X18926Y40912
X18290Y39389
X17002Y41191
X16502Y40982
X15601Y39950
X15702Y38300
X16002Y38300
X15678Y37665
X15252Y38300
X14845Y38119
X15678Y36889
X15678Y36062
X15678Y35235
X18103Y35637
X18933Y35223
X18103Y34810
X18933Y34396
X20083Y33262
X21515Y32263
X22341Y31850
X21515Y31436
X22341Y31023
X22341Y30196
X21515Y29783
X20738Y29946
X20688Y29369
X21515Y28956
X22341Y29369
X22341Y28543
X23168Y28129
X20688Y28543
X21515Y30609
X20688Y31023
X20688Y31850
X23168Y32263
X23995Y32676
X23995Y33503
X25965Y33864
X25915Y34227
X26115Y33450
X26365Y33037
X26682Y33393
X27082Y32993
X26765Y32724
X27265Y32574
X27678Y32574
X28092Y32574
X27778Y32987
X28092Y33400
X27265Y33400
X28092Y34227
X28092Y35054
X28092Y35881
X27265Y36294
X28092Y36707
X26438Y36707
X21460Y36877
X21047Y36877
X20633Y36877
X21047Y36463
X21460Y36050
X20633Y36050
X25667Y32195
X26217Y31781
X26785Y31527
X27461Y31427
X27302Y31023
X27302Y30196
X28129Y29783
X28129Y30609
X28129Y31436
X26475Y30609
X26475Y29783
X34502Y30550
X34502Y31550
X34502Y32550
X35002Y33688
X35952Y34188
X35005Y34820
X35802Y35138
X35752Y35675
X35780Y36959
X35780Y37353
X34502Y37550
X34505Y38186
X34505Y36886
X37927Y36483
X37927Y36050
X39569Y36052
X39569Y36879
X40365Y37292
X41191Y37292
X41191Y36465
X40365Y36465
X40365Y35639
X41191Y35639
X41191Y34812
X40365Y34812
X39569Y35225
X39569Y34398
X38533Y33462
X36783Y32063
X36972Y31518
X36852Y31038
X39752Y29538
X38752Y28338
X38312Y27460
X39752Y26050
X40742Y26050
X41092Y26990
X41922Y27320
X43011Y28800
X42802Y29300
X42902Y29800
X43027Y30800
X43152Y31320
X42112Y31630
X41953Y32800
X42386Y32800
X41520Y32825
X41087Y32825
X41191Y33985
X42024Y34458
X42845Y34812
X43678Y34458
X43678Y33831
X42845Y33985
X44498Y34812
X45276Y34446
X45276Y33820
X46103Y34810
X45276Y35223
X44498Y35639
X45276Y36050
X45276Y36877
X44498Y36465
X44498Y37292
X45276Y37654
X45150Y38300
X44852Y38312
X45449Y38300
X46103Y37290
X46103Y36463
X46933Y36050
X46933Y36877
X46933Y37704
X48651Y37634
X49478Y37634
X50304Y37634
X51131Y37634
X51958Y37948
X52185Y37534
X52785Y37534
X52785Y36707
X52185Y36707
X51114Y36877
X50700Y36877
X50287Y36877
X49874Y36877
X49874Y36463
X50287Y36050
X49874Y35637
X49874Y35273
X50287Y35273
X49460Y35273
X49047Y35273
X49047Y35637
X48633Y35273
X48633Y36050
X49047Y36463
X49047Y36877
X49460Y36877
X48633Y36877
X49460Y36050
X50700Y36463
X51114Y36463
X51164Y36050
X51165Y35662
X51166Y35273
X51580Y35273
X51580Y35637
X51993Y35273
X51941Y34212
X52354Y34212
X52767Y34212
X52767Y33848
X52917Y33435
X53067Y33022
X53317Y32608
X53667Y32195
X54217Y31781
X54785Y31527
X55461Y31427
X55302Y31023
X55302Y30196
X56129Y29783
X56129Y30609
X56129Y31436
X54475Y30609
X54475Y29783
X53648Y30196
X53648Y31023
X52822Y31436
X51995Y31023
X51995Y30196
X52822Y29783
X52822Y30609
X53648Y29369
X54475Y28956
X53648Y28543
X54475Y28129
X53648Y27716
X53648Y26889
X54475Y27302
X54475Y26476
X55302Y26889
X55765Y27302
X55302Y27716
X56129Y28129
X55302Y28543
X56129Y28956
X55302Y29369
X52822Y28956
X51995Y29369
X51168Y28956
X50341Y29369
X49515Y28956
X50341Y28543
X49515Y28129
X50341Y27716
X50341Y26889
X49515Y27302
X49515Y26476
X48688Y26889
X48688Y27716
X48688Y28543
X48688Y29369
X48738Y29946
X49515Y29783
X49515Y30609
X50341Y30196
X50341Y31023
X49515Y31436
X50341Y31850
X49515Y32263
X48688Y31850
X48688Y31023
X51168Y31436
X51995Y31850
X52822Y32263
X51995Y32676
X51995Y33503
X51527Y34212
X51114Y34212
X50700Y34212
X50287Y34212
X49874Y34212
X49460Y34212
X49047Y34212
X48633Y34212
X48083Y33262
X46933Y34396
X46933Y35223
X46103Y35637
X43678Y35235
X42845Y35639
X42024Y35235
X42024Y36062
X42845Y36465
X42845Y37292
X42024Y37665
X42024Y36889
X42845Y38119
X43252Y38300
X43702Y38300
X44002Y38300
X43678Y37665
X43678Y36889
X43678Y36062
X41191Y38119
X40652Y39275
X41762Y39336
X41859Y39671
X41626Y39950
X40481Y39813
X38502Y41050
X41002Y41316
X43601Y39950
X44502Y40982
X45002Y41191
X46926Y40912
X47926Y41750
X47551Y42162
X50252Y40788
X50304Y39288
X49478Y39288
X49478Y38461
X50304Y38461
X51131Y38461
X51958Y38774
X52785Y38361
X52785Y39188
X53611Y39601
X54438Y39188
X54438Y38361
X53611Y37948
X53611Y38774
X54438Y37534
X53611Y37121
X54438Y36707
X53611Y36294
X53611Y35881
X53546Y35273
X53959Y35273
X54322Y35273
X54438Y35881
X55265Y36294
X56092Y35881
X56092Y35054
X56092Y34227
X56092Y33400
X55778Y32987
X55678Y32574
X55265Y32574
X55082Y32993
X54765Y32724
X54365Y33037
X54682Y33393
X54115Y33450
X53965Y33864
X53915Y34227
X53132Y35273
X52932Y35893
X55265Y37121
X56092Y37534
X55265Y37948
X55265Y38774
X56092Y38361
X56092Y39188
X55265Y39601
X56092Y40015
X55265Y40428
X56092Y40841
X56092Y41668
X55265Y41255
X55265Y42081
X54438Y41668
X54438Y40841
X53611Y40428
X54438Y40015
X53611Y41255
X54438Y42495
X53611Y42908
X52785Y42908
X52405Y44786
X51405Y44786
X50405Y44786
X49405Y44786
X48405Y44786
X47405Y44786
X46405Y44786
X45405Y44786
X44405Y44786
X43405Y44786
X42405Y44786
X41405Y44786
X40405Y44786
X39405Y44786
X38405Y44786
X37405Y44786
X36055Y44786
X38334Y38859
X38520Y38604
X39569Y37706
X46290Y39389
X48651Y38461
X51131Y39288
X55265Y42908
X56092Y42495
X56092Y43322
X56155Y44786
X55405Y44786
X54405Y44786
X53405Y44786
X56092Y36707
X55265Y33400
X56092Y32574
X51168Y32263
X51168Y30609
X51168Y29783
X51995Y28543
X52822Y28129
X51995Y27716
X51995Y26889
X52822Y27302
X52822Y26476
X51168Y26476
X51168Y27302
X51168Y28129
X47658Y27149
X45838Y27149
X43502Y26330
X43155Y24286
X43405Y23586
X42405Y23586
X42155Y24286
X41405Y23586
X41155Y24286
X40405Y23586
X39405Y23586
X38405Y23586
X38105Y24286
X37405Y23586
X37105Y24286
X36055Y23586
X35355Y24286
X34905Y24736
X34505Y25136
X34505Y25986
X34505Y27036
X34505Y27786
X34505Y28686
X35942Y27460
X44155Y24286
X44405Y23586
X45405Y23586
X45155Y24286
X46155Y24286
X46405Y23586
X47405Y23586
X47155Y24286
X48155Y24286
X48405Y23586
X49155Y24286
X49405Y23586
X50405Y23586
X50155Y24286
X51155Y24286
X51405Y23586
X52405Y23586
X52155Y24286
X53155Y24286
X53405Y23586
X54155Y24286
X54405Y23586
X55405Y23586
X55155Y24286
X56155Y24286
X56155Y23586
X56092Y22122
X55265Y21708
X56092Y21295
X55265Y20881
X56092Y20468
X56092Y19641
X55265Y19228
X55265Y20055
X54438Y20468
X54438Y19641
X53611Y19228
X53611Y20055
X54438Y18815
X53611Y18401
X54438Y17988
X53611Y17574
X54438Y17161
X54438Y16334
X53611Y15921
X53611Y16748
X52785Y17161
X52785Y16334
X52185Y16334
X51958Y16748
X51131Y16434
X50304Y16434
X49478Y16434
X48651Y16434
X48633Y15677
X49047Y15677
X49460Y15677
X49874Y15677
X50287Y15677
X50700Y15677
X50700Y15263
X51114Y15263
X51114Y15677
X51164Y14850
X51165Y14462
X51166Y14073
X51580Y14073
X51580Y14437
X51993Y14073
X51941Y13012
X52354Y13012
X52767Y13012
X52767Y12648
X52917Y12235
X53067Y11822
X53317Y11408
X53667Y10995
X54217Y10581
X54785Y10327
X55461Y10227
X55302Y9823
X56129Y10236
X56129Y9409
X55302Y8996
X55302Y8169
X56129Y7756
X56129Y8583
X55302Y7343
X54475Y7756
X54475Y8583
X53648Y8996
X53648Y8169
X53648Y7343
X54475Y6929
X53648Y6516
X54475Y6102
X54475Y5276
X53648Y5689
X52822Y6102
X52822Y5276
X51995Y5689
X51168Y6102
X51168Y5276
X50341Y5689
X49515Y6102
X49515Y5276
X48688Y5689
X48688Y6516
X49515Y6929
X50341Y6516
X51168Y6929
X50341Y7343
X49515Y7756
X49515Y8583
X48738Y8746
X48688Y8169
X48688Y7343
X50341Y8169
X50341Y8996
X49515Y9409
X50341Y9823
X49515Y10236
X50341Y10650
X49515Y11063
X48688Y10650
X48688Y9823
X51168Y10236
X51995Y9823
X52822Y10236
X51995Y10650
X51995Y11476
X52822Y11063
X51995Y12303
X51527Y13012
X51114Y13012
X50700Y13012
X50287Y13012
X49874Y13012
X49460Y13012
X49047Y13012
X48633Y13012
X48633Y14073
X49047Y14073
X49047Y14437
X49460Y14073
X49874Y14073
X49874Y14437
X50287Y14073
X50287Y14850
X49874Y15263
X49460Y14850
X49047Y15263
X48633Y14850
X46933Y14850
X46933Y15677
X46103Y16090
X45276Y16454
X45150Y17100
X44852Y17112
X45449Y17100
X46290Y18189
X46933Y16504
X45276Y15677
X45276Y14850
X44498Y14439
X44498Y15265
X43678Y14862
X43678Y15689
X44498Y16092
X43678Y16465
X43702Y17100
X44002Y17100
X43252Y17100
X42845Y16919
X42024Y16465
X42845Y16092
X42024Y15689
X42024Y14862
X42845Y15265
X42845Y14439
X42024Y14035
X42845Y13612
X42024Y13258
X42845Y12785
X43678Y12631
X43678Y13258
X44498Y13612
X45276Y13246
X45276Y12620
X46103Y13610
X45276Y14023
X46103Y14437
X46103Y15263
X46933Y14023
X46933Y13196
X48083Y12062
X51168Y11063
X51168Y9409
X51995Y8996
X51995Y8169
X52822Y7756
X52822Y8583
X52822Y9409
X53648Y9823
X54475Y9409
X55265Y11374
X55678Y11374
X56092Y11374
X55778Y11787
X56092Y12200
X55265Y12200
X55082Y11793
X54765Y11524
X54365Y11837
X54682Y12193
X54115Y12250
X53965Y12664
X53915Y13027
X53959Y14073
X54322Y14073
X54438Y14681
X53611Y14681
X53611Y15094
X52932Y14693
X53132Y14073
X53546Y14073
X52785Y15507
X52185Y15507
X54438Y15507
X55265Y15094
X56092Y14681
X56092Y15507
X55265Y15921
X55265Y16748
X56092Y17161
X56092Y16334
X55265Y17574
X56092Y17988
X55265Y18401
X56092Y18815
X54438Y21295
X53611Y21708
X52785Y21708
X50252Y19588
X50304Y18088
X49478Y18088
X49478Y17261
X50304Y17261
X51131Y17261
X51131Y18088
X51958Y17574
X52785Y17988
X48651Y17261
X46926Y19712
X47926Y20550
X47551Y20962
X45002Y19991
X44502Y19782
X43601Y18750
X41859Y18471
X41762Y18136
X40652Y18075
X40481Y18613
X41626Y18750
X41002Y20116
X38502Y19850
X38334Y17659
X38520Y17404
X39569Y16506
X40365Y16092
X41191Y16092
X41191Y15265
X41191Y14439
X40365Y14439
X40365Y15265
X39569Y14852
X39569Y15679
X37927Y15283
X37927Y14850
X39569Y14025
X40365Y13612
X41191Y13612
X41191Y12785
X41087Y11625
X41520Y11625
X41953Y11600
X42386Y11600
X42112Y10430
X43152Y10120
X43027Y9600
X42902Y8600
X42802Y8100
X43011Y7600
X41922Y6120
X41092Y5790
X40742Y4850
X39752Y4850
X38312Y6260
X38752Y7138
X39752Y8338
X36852Y9838
X36972Y10318
X36783Y10863
X38533Y12262
X39569Y13198
X35952Y12988
X35002Y12488
X35005Y13620
X35802Y13938
X35752Y14475
X35780Y15759
X35780Y16153
X34502Y16350
X34505Y16986
X34505Y15686
X34502Y11350
X34502Y10350
X34502Y9350
X34505Y7486
X34505Y6586
X34505Y5836
X35942Y6260
X34505Y4786
X34505Y3936
X34905Y3536
X35355Y3086
X37105Y3086
X38105Y3086
X41155Y3086
X42155Y3086
X43155Y3086
X44155Y3086
X45155Y3086
X46155Y3086
X47155Y3086
X48155Y3086
X49155Y3086
X50155Y3086
X51155Y3086
X52155Y3086
X53155Y3086
X54155Y3086
X55155Y3086
X56155Y3086
X55915Y5276
X55302Y5689
X55765Y6102
X55302Y6516
X56129Y6929
X52822Y6929
X51995Y6516
X51995Y7343
X51168Y7756
X51168Y8583
X47658Y5949
X45838Y5949
X43502Y5130
X56092Y13027
X56092Y13854
X43678Y14035
X41191Y16919
X26438Y15507
X23131Y16434
X22304Y16434
X21478Y16434
X20651Y16434
X20633Y15677
X21047Y15677
X21460Y15677
X21047Y15263
X21460Y14850
X20633Y14850
X18933Y13196
X20083Y12062
X17276Y14023
X15678Y14035
X20651Y17261
X18290Y18189
X23995Y12303
X23168Y11063
X23995Y7343
X23168Y6929
X23995Y6516
X23168Y6102
X23168Y5276
X23995Y5689
X7942Y6260
X6505Y6586
X6505Y5836
X6505Y4786
X6505Y7486
X13191Y38119
X10502Y41050
X55915Y26476
T02
X46002Y21399
X45502Y21579
X42102Y21100
X42482Y19290
X42082Y18090
X40002Y19280
X39602Y21130
X37626Y19754
X37252Y19850
X37042Y17720
X36662Y17330
X37237Y17162
X37463Y15889
X37927Y14417
X37926Y13984
X35002Y13050
X37247Y11410
X37594Y10781
X38502Y10850
X38466Y11260
X38252Y11510
X37672Y9860
X39378Y8350
X38752Y7600
X40415Y7523
X40660Y8163
X41116Y8563
X41802Y10300
X44364Y7810
X44538Y7560
X44752Y7350
X41437Y6100
X40072Y6100
X47002Y19270
X41437Y27300
X40072Y27300
X40415Y28723
X40660Y29363
X41116Y29763
X39378Y29550
X38752Y28800
X37672Y31060
X37594Y31981
X37247Y32610
X38252Y32710
X38466Y32460
X38502Y32050
X41802Y31500
X44364Y29010
X44538Y28760
X44752Y28550
X35452Y23180
X19002Y19270
X18002Y21399
X17502Y21579
X14102Y21100
X11602Y21130
X9626Y19754
X9252Y19850
X12002Y19280
X14082Y18090
X14482Y19290
X9463Y15889
X9237Y17162
X9042Y17720
X8662Y17330
X9927Y14417
X9926Y13984
X7002Y13050
X9247Y11410
X9594Y10781
X10502Y10850
X10466Y11260
X10252Y11510
X9672Y9860
X11378Y8350
X10752Y7600
X12415Y7523
X12660Y8163
X13116Y8563
X13802Y10300
X16364Y7810
X16538Y7560
X16752Y7350
X13437Y6100
X12072Y6100
X7452Y23180
X12072Y27300
X13437Y27300
X12415Y28723
X12660Y29363
X13116Y29763
X11378Y29550
X10752Y28800
X9672Y31060
X9594Y31981
X10502Y32050
X10466Y32460
X10252Y32710
X9247Y32610
X7002Y34250
X9926Y35184
X9927Y35617
X9463Y37089
X9237Y38362
X9042Y38920
X8662Y38530
X9252Y41050
X9626Y40954
X11602Y42330
X14102Y42300
X14482Y40490
X14082Y39290
X12002Y40480
X17502Y42779
X18002Y42599
X19002Y40470
X7452Y44380
X13802Y31500
X16364Y29010
X16538Y28760
X16752Y28550
X35002Y34250
X37926Y35184
X37927Y35617
X37463Y37089
X37237Y38362
X37042Y38920
X36662Y38530
X37252Y41050
X37626Y40954
X39602Y42330
X40002Y40480
X42082Y39290
X42482Y40490
X42102Y42300
X45502Y42779
X46002Y42599
X47002Y40470
X35452Y44380
T03
X48412Y41050
X49593Y41050
X40063Y25550
X38882Y25550
X48412Y19850
X49593Y19850
X40063Y4350
X38882Y4350
X21593Y19850
X20412Y19850
X12063Y25550
X10882Y25550
X20412Y41050
X21593Y41050
X12063Y4350
X10882Y4350
T04
X13752Y3850
X14752Y3850
X15752Y3850
X16752Y3850
X17752Y3850
X18752Y3850
X19752Y3850
X20752Y3850
X22752Y3850
X23752Y3850
X24752Y3850
X25752Y3850
X26752Y3850
X27752Y3850
X41752Y3850
X42752Y3850
X43752Y3850
X44752Y3850
X45752Y3850
X46752Y3850
X47752Y3850
X48752Y3850
X50752Y3850
X51752Y3850
X52752Y3850
X53752Y3850
X54752Y3850
X55752Y3850
X36752Y14850
X34752Y18350
X34752Y19350
X34752Y20350
X34752Y21350
X34752Y22350
X34752Y23350
X38252Y22850
X39252Y22850
X40252Y22850
X41252Y22850
X42252Y22850
X43252Y22850
X44252Y22850
X45252Y22850
X46252Y22850
X47252Y22850
X48752Y22850
X49752Y22850
X50752Y22850
X51752Y22850
X52752Y22850
X53752Y22850
X54752Y22850
X55752Y22850
X55752Y25050
X54752Y25050
X53752Y25050
X52752Y25050
X51752Y25050
X50752Y25050
X48752Y25050
X47752Y25050
X46752Y25050
X45752Y25050
X44752Y25050
X43752Y25050
X42752Y25050
X41752Y25050
X51752Y20850
X52752Y20850
X52752Y19850
X51752Y19850
X51752Y18850
X52752Y18850
X27752Y22850
X26752Y22850
X25752Y22850
X24752Y22850
X23752Y22850
X22752Y22850
X21752Y22850
X20752Y22850
X19252Y22850
X18252Y22850
X17252Y22850
X16252Y22850
X15252Y22850
X14252Y22850
X13252Y22850
X12252Y22850
X11252Y22850
X10252Y22850
X6752Y22350
X6752Y21350
X6752Y20350
X6752Y19350
X6752Y18350
X8752Y14850
X6752Y23350
X13752Y25050
X14752Y25050
X15752Y25050
X16752Y25050
X17752Y25050
X18752Y25050
X19752Y25050
X20752Y25050
X22752Y25050
X23752Y25050
X24752Y25050
X25752Y25050
X26752Y25050
X27752Y25050
X24752Y20850
X23752Y20850
X23752Y19850
X23752Y18850
X24752Y18850
X24752Y19850
X36752Y36050
X34752Y39550
X34752Y40550
X34752Y41550
X34752Y42550
X34752Y43550
X34752Y44550
X38252Y44050
X39252Y44050
X40252Y44050
X41252Y44050
X42252Y44050
X43252Y44050
X44252Y44050
X45252Y44050
X46252Y44050
X47252Y44050
X48752Y44050
X49752Y44050
X50752Y44050
X51752Y44050
X52752Y44050
X53752Y44050
X54752Y44050
X55752Y44050
X52752Y42050
X51752Y42050
X51752Y41050
X52752Y41050
X52752Y40050
X51752Y40050
X27752Y44050
X26752Y44050
X25752Y44050
X24752Y44050
X23752Y44050
X22752Y44050
X21752Y44050
X20752Y44050
X19252Y44050
X18252Y44050
X17252Y44050
X16252Y44050
X15252Y44050
X14252Y44050
X13252Y44050
X12252Y44050
X11252Y44050
X10252Y44050
X6752Y43550
X6752Y42550
X6752Y41550
X6752Y40550
X6752Y39550
X8752Y36050
X6752Y44550
X23752Y42050
X23752Y41050
X23752Y40050
X24752Y40050
X24752Y41050
X24752Y42050
T05
X36752Y44050
X28702Y27050
X36252Y25050
X36752Y22850
X56702Y27050
X56702Y5850
X36252Y3850
X28702Y5850
X8252Y3850
X8752Y22850
X8252Y25050
X8752Y44050
M30
